<?xml version="1.0" encoding="utf-8"?>
<!-- Generator: Adobe Illustrator 22.0.1, SVG Export Plug-In . SVG Version: 6.00 Build 0)  -->
<svg version="1.1" id="THE_SIGN" xmlns="http://www.w3.org/2000/svg" xmlns:xlink="http://www.w3.org/1999/xlink" x="0px" y="0px"
	 viewBox="0 0 1680 1050" style="enable-background:new 0 0 1680 1050;" xml:space="preserve">
<style type="text/css">
	.st0{fill:none;}
	.st1{fill:#FFFFFF;}
	.st2{font-family:'BrandonText-Light';}
	.st3{font-size:37px;}
	.st4{font-size:72px;}
	.st5{font-family:'BrandonText-Bold';}
	.st6{font-size:54.8722px;}
	.st7{font-size:30px;}
	.st8{font-family:'MyriadPro-Regular';}
	.st9{font-size:26.9786px;}
	.st10{font-size:25.0866px;}
	.st11{font-size:27.1582px;}
	.st12{fill:#FFFFFF;stroke:#000000;stroke-width:0.75;stroke-miterlimit:10;}
	.st13{font-size:30.0592px;}
</style>
<rect width="1680" height="1050"/>
<rect x="319.5" y="500.6" class="st0" width="1041" height="135.4"/>
<text transform="matrix(1 0 0 1 354.2549 526.4766)"><tspan x="0" y="0" class="st1 st2 st3">Estamos cargando la imaginación, el diseño y los colores para </tspan><tspan x="24.5" y="41" class="st1 st2 st3">sorprenderte e inspirarte... Sólo tardaremos unos minutos.</tspan></text>
<g>
</g>
<g>
	<rect x="320.4" y="356" class="st0" width="1039.2" height="80"/>
	<text transform="matrix(1 0 0 1 320.3792 406.4089)"><tspan x="0" y="0" class="st1 st2 st4">las grandes </tspan><tspan x="362.4" y="0" class="st1 st5 st4">ideas </tspan><tspan x="539.8" y="0" class="st1 st2 st4">toman tiempo...</tspan></text>
</g>
<g>
	<g>
		<text transform="matrix(1 0 0 1 750.3682 222.209)" class="st1 st5 st6">thes:gn</text>
	</g>
</g>
<g>
	<rect x="354.3" y="714.6" class="st0" width="971.3" height="64.4"/>
	<text transform="matrix(1 0 0 1 679.7578 735.9053)"><tspan x="0" y="0" class="st1 st5 st7">hello</tspan><tspan x="63.5" y="0" class="st1 st8 st7">@</tspan><tspan x="85.6" y="0" class="st1 st2 st7">thesignlab.com.co</tspan></text>
	<rect x="525.9" y="753.5" class="st0" width="628.2" height="59.3"/>
	<text transform="matrix(1 0 0 1 540.5735 772.3726)"><tspan x="0" y="0" class="st1 st2 st9">805 7100 | Calle 123 #7 - 51 Of. 702 | Kaiwa Building</tspan><tspan x="194.1" y="30.6" class="st1 st5 st9">Bogotá, Colombia</tspan></text>
</g>
<g>
	<text transform="matrix(1.0719 0 0 1 645.0296 980.3235)"><tspan x="0" y="0" class="st1 st2 st10">@the</tspan><tspan x="60.6" y="0" class="st1 st5 st10">sign</tspan><tspan x="105.3" y="0" class="st1 st2 st10">labco</tspan></text>
	<text transform="matrix(1.0719 0 0 1 897.0296 981.3235)"><tspan x="0" y="0" class="st1 st2 st10">@the</tspan><tspan x="60.6" y="0" class="st1 st5 st10">sign</tspan><tspan x="105.3" y="0" class="st1 st2 st10">labco</tspan></text>
	<text transform="matrix(1.0719 0 0 1 1162.0295 982.3235)"><tspan x="0" y="0" class="st1 st2 st10">the </tspan><tspan x="41.9" y="0" class="st1 st5 st10">sign </tspan><tspan x="92.7" y="0" class="st1 st2 st10">lab</tspan></text>
	<text transform="matrix(1 0 0 1 384.9189 981.0842)" class="st1 st2 st11">#w</text>
	<text transform="matrix(1 0 0 1 418.8105 981.0842)" class="st1 st2 st11">e</text>
	<text transform="matrix(1 0 0 1 433.1777 981.0842)" class="st1 st5 st11">sign</text>
	<text transform="matrix(1 0 0 1 481.6289 981.0842)" class="st1 st2 st11">ourw</text>
	<text transform="matrix(1 0 0 1 540.3711 981.0842)" class="st1 st2 st11">orld |        </text>
	<g>
		<path class="st1" d="M627.5,957.7c0,0.1,0,0.2,0,0.3c0,1.5,0,3,0,4.6c0,0.2-0.1,0.3-0.3,0.3c-0.8,0-1.7,0-2.5,0
			c-0.3,0-0.6,0-0.8,0.1c-0.5,0.1-0.9,0.5-0.9,1.1c0,1.1,0,2.1-0.1,3.2c0,0.2,0.1,0.2,0.2,0.2c1.3,0,2.7,0,4,0c0.1,0,0.2,0,0.3,0
			c-0.2,1.7-0.4,3.4-0.5,5.1c-1.4,0-2.7,0-4,0c0,0.1,0,0.2,0,0.3c0,4.7,0,9.5,0,14.2c0,0.1,0,0.2,0,0.3c-1.8,0-3.7,0-5.5,0
			c0-0.4,0-0.9,0-1.3c0-4.4,0-8.7,0-13.1c0-0.1,0-0.2,0-0.4c-1.2,0-2.5,0-3.7,0c0-0.1,0-0.2,0-0.3c0-1.5,0-3.1,0-4.6
			c0-0.2,0.1-0.3,0.3-0.3c1.1,0,2.1,0,3.2,0c0.2,0,0.3-0.1,0.3-0.3c0-1.4,0-2.7,0-4.1c0-1,0.2-2,0.7-2.9c0.5-1,1.3-1.7,2.3-2
			c0.6-0.2,1.2-0.3,1.8-0.4c0.1,0,0.2,0,0.3-0.1C624.2,957.7,625.9,957.7,627.5,957.7z"/>
	</g>
	<g>
		<path class="st1" d="M1120.7,971.3c0.6,0.4,1,0.6,1.4,0.9c2.2,1.7,2.5,4,2,6.4c-0.6,3.2-3.1,5.4-6.4,5.6
			c-4.2,0.2-8.5,0.1-12.7,0.2c-0.8,0-0.7-0.5-0.7-1c0-6.6,0-13.1,0-19.7c0-1,0-2,0-3c0-0.5,0.2-0.7,0.7-0.7c4.4,0.1,8.7,0,13.1,0.2
			c3.4,0.1,5.7,3.1,5.4,6.5c-0.1,1.8-0.8,3.2-2.3,4.1C1121,970.9,1120.9,971.1,1120.7,971.3z M1113.1,973.5
			C1113.1,973.5,1113.1,973.5,1113.1,973.5c-1.1,0-2.1,0-3.2,0c-0.6,0-0.9,0.2-0.9,0.9c0,1.7,0,3.4,0,5.1c0,0.6,0.3,0.9,0.9,0.9
			c1.8,0,3.6,0,5.4-0.1c0.9-0.1,1.9-0.2,2.7-0.6c1.3-0.7,1.8-2.6,1.3-4c-0.4-1.2-1.6-2.1-3.1-2.2
			C1115.2,973.5,1114.1,973.5,1113.1,973.5z M1112.7,969.8C1112.7,969.8,1112.7,969.8,1112.7,969.8c1.2,0,2.4,0,3.6-0.2
			c0.8-0.1,1.7-0.5,2.1-1.1c1.4-1.7,0.3-4.2-1.9-4.3c-2.2-0.1-4.4-0.1-6.7-0.2c-0.6,0-0.8,0.3-0.8,0.9c0,1.4,0,2.7,0,4.1
			c0,0.7,0.3,0.9,0.9,0.9C1110.8,969.7,1111.8,969.8,1112.7,969.8z"/>
		<path class="st1" d="M1143.7,979.6c-0.5,0.8-0.9,1.7-1.4,2.4c-1.3,1.6-3,2.6-5.1,2.8c-2.2,0.2-4.4,0.2-6.4-0.8
			c-2.5-1.2-4-3.2-4.4-5.8c-0.5-2.6-0.3-5.2,0.8-7.6c1.3-2.8,3.7-4.2,6.7-4.5c1.3-0.1,2.7,0,4,0.3c3.5,0.8,5.3,3.2,5.9,6.6
			c0.2,0.9,0.1,1.8,0.2,2.6c0.1,0.8-0.2,1-1,1c-2.8,0-5.6,0-8.4,0c-1.1,0-2.2,0.1-3.3,0.1c-0.6,0-0.7,0.3-0.6,0.8
			c0.4,1.8,1.2,3.2,3.1,3.7c1.9,0.5,3.6,0.2,5-1.4c0.2-0.2,0.5-0.4,0.7-0.4c1.3,0,2.7,0,4,0C1143.5,979.4,1143.6,979.5,1143.7,979.6
			z M1134.9,973.7c1.2,0,2.4,0,3.6,0c0.6,0,0.8-0.2,0.6-0.8c-0.4-2.2-1.9-3.3-4.4-3.3c-2,0-3.6,1.4-3.9,3.3
			c-0.1,0.5,0.1,0.8,0.6,0.8C1132.6,973.7,1133.8,973.7,1134.9,973.7z"/>
		<path class="st1" d="M1134.7,963.5c-1.4,0-2.8,0-4.3,0c-0.9,0-0.8-0.5-0.8-1.1c0-0.6,0-1.1,0.9-1.1c2.9,0,5.7,0,8.6,0
			c0.9,0,0.8,0.6,0.8,1.1c0,0.6,0,1.1-0.8,1C1137.6,963.5,1136.1,963.5,1134.7,963.5z"/>
	</g>
	<g>
		<path class="st12" d="M873.8,987.5c-4.1,0-8.3,0-12.4,0c-0.2,0-0.4,0-0.5-0.1c-0.8-0.1-1.6-0.3-2.3-0.6c-1.1-0.5-2-1.1-2.8-2
			c-1.4-1.5-2.1-3.3-2.1-5.3c0-4,0-7.9,0-11.9c0-0.7,0.1-1.3,0.3-1.9c0.5-1.9,1.6-3.5,3.3-4.6c1.3-0.9,2.8-1.4,4.4-1.4
			c3.9,0,7.9,0,11.8,0c0.8,0,1.7,0.1,2.5,0.4c2,0.6,3.5,1.9,4.5,3.7c0.6,1,0.9,2,1.1,3.2c0,0.2,0,0.3,0,0.5c0,4.2,0,8.3,0,12.5
			c0,0,0,0.1,0,0.1c-0.1,0.9-0.2,1.8-0.6,2.6c-0.7,1.7-1.9,3.1-3.6,4c-0.9,0.5-2,0.9-3,1C874.2,987.5,874,987.5,873.8,987.5z
			 M867.6,961.7L867.6,961.7c-1.9,0-3.9,0-5.8,0c-1,0-2,0.2-2.9,0.7c-2,1.2-3.1,2.9-3.1,5.3c0,3.9,0,7.8,0,11.7c0,0.4,0,0.9,0.1,1.3
			c0.6,2.7,3,4.7,5.8,4.7c3.9,0,7.8,0,11.7,0c0.3,0,0.6,0,0.8,0c1.2-0.1,2.3-0.6,3.2-1.4c1.4-1.2,2-2.7,2-4.5c0-3.9,0-7.8,0-11.6
			c0-0.2,0-0.5,0-0.7c-0.1-1.2-0.6-2.2-1.3-3.1c-1.2-1.4-2.7-2.1-4.5-2.2C871.6,961.7,869.6,961.7,867.6,961.7z"/>
		<path class="st12" d="M875.1,973.5c0,4.1-3.4,7.5-7.5,7.5c-4.1,0-7.5-3.4-7.5-7.5c0-4.1,3.4-7.5,7.5-7.5
			C871.8,966,875.2,969.4,875.1,973.5z M873,973.5c0-3-2.4-5.4-5.4-5.4c-3,0-5.4,2.4-5.4,5.4c0,3,2.4,5.4,5.4,5.4
			C870.6,978.9,873,976.5,873,973.5z"/>
		<path class="st12" d="M875.7,963.9c0.9,0,1.6,0.7,1.6,1.6c0,0.9-0.7,1.6-1.6,1.6c-0.9,0-1.6-0.7-1.6-1.6
			C874.1,964.6,874.8,963.9,875.7,963.9z"/>
	</g>
	<text transform="matrix(1 0 0 1 832.0889 980)" class="st1 st2 st13">|</text>
	<text transform="matrix(1 0 0 1 1082.0889 980)" class="st1 st2 st13">|</text>
</g>
<g>
	<rect x="-181.1" y="-305.8" class="st0" width="1335.1" height="237.8"/>
	<text transform="matrix(1 0 0 1 158.7871 -220.6484)"><tspan x="0" y="0" class="st8" style="fill:#FFFFFF;stroke:#FFFFFF;stroke-width:6;stroke-miterlimit:10; font-size:120px; letter-spacing:12;">PÁGINA EN </tspan><tspan x="-149.2" y="117" class="st8" style="fill:#FFFFFF;stroke:#FFFFFF;stroke-width:6;stroke-miterlimit:10; font-size:120px; letter-spacing:12;">CONSTRUCCIÓN</tspan></text>
</g>
</svg>
