<svg xmlns="http://www.w3.org/2000/svg" viewBox="0 0 500 500"><title>Mesa de trabajo 1</title><g id="Capa_1" data-name="Capa 1"><path d="M113.41,104.2q-13.64,8.44-27,17.3c-7.88,5.23-16,10.4-23,16.77-13.29,12-20.62,29.39-23.23,46.89-2.51,16.78-.63,34.48,7.41,49.6,3.59,6.76,8.46,13.55,15.41,17.16S78.57,255,86.15,254a79.11,79.11,0,0,0,49.08-27c1.25-1.46-.86-3.59-2.12-2.12a76.55,76.55,0,0,1-39.29,24.56c-7.8,2-17.45,3.61-25.37,1.39S54.93,241.69,51,234.67C34.91,206.13,40.74,163.39,64.92,141c7.21-6.68,15.63-12,23.79-17.4q13-8.59,26.21-16.78c1.64-1,.14-3.61-1.51-2.59Z"/><path d="M130.38,142.52c-5.68,2.36-11.43,6.21-13.32,12.42-1.46,4.75-.17,10.55,3.73,13.81a11.15,11.15,0,0,0,7.66,2.35c4.89-.1,9.19-.71,13.94,1,8.4,3.09,16.09,9.87,22.37,16.09,14.53,14.4,7.51,35-2.76,49.72-10.59,15.14-24.52,27.4-39,38.66-12.69,9.84-25.16,20.11-30,36.06-4.75,15.66-3.59,33.85,2.6,48.93,5.94,14.47,16.9,26.61,32.82,29.31,8.82,1.5,18,1.66,27,1.81a127.16,127.16,0,0,0,27.95-2.22c17.87-3.71,34.44-12.24,50.35-20.9,15-8.17,29.65-17.62,40.25-31.29,10.29-13.27,16.63-29.11,21.29-45.11a237.35,237.35,0,0,0,9.47-55c1.59-33.7-5-70.07-26-97.33-18.4-23.85-50.41-39-80.34-29.19-6.12,2-12.68,5-16.35,10.57-3.82,5.78-1.79,11.37,1.62,16.76,8.19,13,19.38,23.67,29.1,35.46,11.39,13.82,19.63,29.32,18.87,47.72-.79,19-9.83,36.54-22,50.79A166.32,166.32,0,0,1,191.13,291c-1.47,1.25.66,3.37,2.12,2.12,23.2-19.8,44.14-47.26,41.11-79.51-2.81-29.81-27.92-48-44.35-70.57a63.44,63.44,0,0,1-5.72-8.8c-2.7-5.44-1-10.21,3.48-14,6.12-5.1,15-7.39,22.8-8.23,15.55-1.68,31.5,2.67,44.63,11,27.18,17.23,40.59,49.72,45,80.43,5,35.05-.55,72.59-13.46,105.45-6.16,15.7-15.12,30-28.15,40.86s-28.72,18.9-44,26.24c-17.38,8.37-35,13.51-54.43,13.68-17,.14-37.85,1.22-50.65-11.86-12.06-12.33-16.82-30.46-16.29-47.32.29-9,2-18.13,6.37-26.06,3.81-6.92,9.41-12.6,15.38-17.69,22.64-19.32,52.41-38.3,60-69.23,1.56-6.36,1.87-13.2-.24-19.47-2.24-6.68-7-11.53-12.28-16-5.4-4.62-11-9.4-17.64-12.2a27.1,27.1,0,0,0-8.8-2.19c-4.65-.3-10.26,1.93-14-1.88-7.65-7.87,1.88-17.4,9.14-20.4,1.76-.73,1-3.63-.8-2.9Z"/><path d="M332.79,191.81a19.49,19.49,0,0,0,2.95,21.83c5.24,5.73,15.44,8.06,20.75,1.15,5.1-6.63,2.9-16.54-1.79-22.69-2.88-3.78-15.47-13.88-18.88-6.15-1.72,3.92-1.55,10.11-1,14.19.61,4.24,2.61,8.49,6.2,11,1.93,1.36,5.6,3.14,7.78,1.2,2.89-2.57,1.92-9.75,1.42-13.07s-1.65-8.89-5-10.89c-2.63-1.57-4.78-.45-6,2.12-3.55,7.28-5.64,21-.47,28.08s13.37,4.29,15.84-3.11a71.84,71.84,0,0,0,3.07-16.3c.33-4.17-.61-9.1-4.57-11.4-7.27-4.24-13.33,4.11-13.41,10.68-.07,4.9,4,17.84,11.3,12,2.91-2.31,2.49-7.91,2.37-11.11-.22-5.5-1.48-11.69-4.49-16.4-1.43-2.25-4.43-5.5-7.49-4.61-2.9.83-2.51,5.51-2.61,7.94-.41,10.08,3.52,20.91,12.74,26,2.08,1.15,5.41,3,7.68,1.48,3.16-2.12,2.84-11.32,2.83-14.43,0-4.08-.79-8.86-4.55-11.22s-8.78-1-12.2,1.49c-4.11,3-6.65,7.6-8.53,12.2a59.16,59.16,0,0,0-3.13,10.25c-.39,1.91-1.26,4.74-.56,6.74,1.18,3.36,5.58,4.06,8.62,3.5,5.12-.94,8.62-5.12,10.61-9.66,2.49-5.66,3.54-12.16,4-18.28.29-3.9,1.27-10-3.47-11.52a1.51,1.51,0,0,0-1.84,1,60.5,60.5,0,0,0-2.68,23.49c.23,2.45,1.58,7.92,5.24,5.14,3.42-2.59,2.32-11.05,1.9-14.62a40,40,0,0,0-7.67-19.08,1.53,1.53,0,0,0-2.74.36c-2.82,7.18-3.45,14.71-3.23,22.37.12,4.35.13,10.87,5.23,12.59,10.71,3.59,10.73-17.71,8.53-23.11-1.43-3.52-4.61-7.33-8.81-5.7-5.28,2-6.87,9.94-7.78,14.71-1.08,5.71-2.16,13.48.29,19,1.68,3.77,5.82,5.84,9.47,3.37,4.82-3.24,6-10.13,6.69-15.41a77.87,77.87,0,0,0,0-22c-.42-2.85-2.12-8.82-6.36-7s-5.92,12.2-6.44,16.11c-.56,4.16-1.71,13.23,1.81,16.57,3.89,3.68,5.78-1.61,6.26-4.63.86-5.32,2.86-12.24-.44-17.14-2-3-6.33-4.91-9.71-3.05-7.3,4-9.84,29.84,2.75,25.9,5.69-1.78,6.24-9,6.69-14,.71-7.71-.17-15.27-3.69-22.23a1.51,1.51,0,0,0-1.69-.68c-3.36,1.22-3.86,5.26-4.65,8.38a69.53,69.53,0,0,0-2.15,16.17c-.07,5.54,1,16.87,9.51,14.77,7.25-1.79,5.64-17.37,4.87-22.55-1-7-7.46-14.43-14.55-8.58-2.86,2.36-3.94,5.91-4.71,9.42-1.07,4.95-2.82,10.92-2.57,16,.38,7.6,9.28,9.82,15.64,9.53,16.44-.74,9.16-37.4.13-33.63-3.85,1.61-5.07,8.39-5.74,11.79-.55,2.78-1.51,7.05,1.54,8.81,8.4,4.85,8.08-18.62,7.62-22.08-.2-1.55-2.48-2.18-2.94-.4a244.15,244.15,0,0,0-6.36,35.71,1.51,1.51,0,0,0,1.9,1.44c3.56-1,4.08-5.13,5-8.24a143.49,143.49,0,0,0,3.87-18.35c.27-1.86-2.5-2.72-2.9-.79q-2.2,10.71-3.67,21.54l2.94.4c-.23-4.65-2.46-11.52-7.36-13.42-2.85-1.1-5.55,1.08-4,4,.91,1.71,3.5.2,2.6-1.51.88,1.67,3.21,2.93,4.22,4.78a14.08,14.08,0,0,1,1.57,6.18c.08,1.58,2.71,2.16,2.95.39q1.47-10.83,3.68-21.54l-2.9-.79c-.6,4.12-1.33,8.23-2.29,12.29-.62,2.61-1.63,11.42-4.44,12.2l1.9,1.45a238.64,238.64,0,0,1,6.25-34.91l-2.95-.4a40.07,40.07,0,0,1,.3,8.89c-.07.76-1.17,11.13-4.06,8.6-1-.89,1.66-8.09,2.15-9.39.08-2.4,1-3.16,2.9-2.28q2.77-.32,2.9,2.82a27.36,27.36,0,0,1,1,3c1.33,5.18,1.86,13.68-1.55,18.29-2.32,3.14-7.38,2.19-10.52,1.4-5.39-1.36-6.67-4.92-5.78-10.28.82-4.88,1.1-14.7,5.22-17.95,5.37-4.23,9.4.81,10.16,6.21a47.87,47.87,0,0,1,.25,9.65c-.11,1.67-.09,4.81-.75,6.09-2,3.82-4.8,4.31-7-.08-1.29-2.57-1-6.56-.89-9.37a64.14,64.14,0,0,1,1.07-10.16c.37-2,1.45-9.87,3.49-10.62l-1.69-.69c3.87,7.64,4.66,17.57,2.57,25.91a12.12,12.12,0,0,1-1.39,3.94c-5.38,1.22-7.88-.16-7.5-4.11a24.52,24.52,0,0,1,.79-6.43c.75-3.17,1.27-5.63,4.36-7.05q2.46-2.25,4.59.48a8,8,0,0,1,1.9,5.3c.08,1.33-1,12.77-1.64,12.81-3.53.2-1.88-13.12-1.61-14.74a40.38,40.38,0,0,1,1.21-5.11c.67-2.19,1.19-6.5,3.72-5.71,3.2,1,2.48,10.08,2.5,13.18A72.8,72.8,0,0,1,352.08,209a25.46,25.46,0,0,1-2,7,8,8,0,0,1-1.54,2.35q-2.32,4-7-1.75c-1.63-3.86-.57-10.79.11-14.8.59-3.52,1.62-10.52,4.81-12.72,6.67-4.59,7.5,9,7.28,11.87a28.29,28.29,0,0,1-.92,5.62,9.49,9.49,0,0,1-2,4q-6.11,0-5.91-4.82c-1-8.53-.21-17.69,2.93-25.68l-2.74.36a37.2,37.2,0,0,1,7.5,24.23,32.44,32.44,0,0,1-.5,4.28,3.82,3.82,0,0,1-1-3.27,27.73,27.73,0,0,1-.07-5.39,59.12,59.12,0,0,1,2.77-15.5L352,185.74c3.86,1.23.35,15.83-.23,18.34-1.23,5.35-3.82,14.9-10.74,15.2-8.64.38-2.71-13.87-1-17.73,2.22-4.94,6.42-11.75,12.64-11.67,7.41.11,6.5,9.68,6,14.6-.24,2.35,0,6.38-2.68,6.54-2.5.15-6.47-3.63-7.93-5.21-4-4.37-5.94-10.13-6.33-16-.07-1.05-.38-8,.47-8.38,2.92-1.35,5.84,6.78,6.36,8.32a34.44,34.44,0,0,1,1.63,7.91c.14,1.67.77,5.31-.05,6.8l-6,1.65-.83-2.23a18.38,18.38,0,0,1-.69-4.67c-.07-3.25.84-7.36,4.16-8.85,6.85-3.06,8.16,5.13,7.7,9.48-.29,2.71-.9,5.41-1.4,8.09a50.09,50.09,0,0,1-1.46,6.75c-1.83,5.37-8.27,6.57-11.22,1-2.38-4.49-1.7-11-.83-15.79.32-1.79.59-5.2,1.72-6.64,4.18-5.33,5.84,5,6.13,7.75.16,1.63.79,7.35-.47,8.4-3.06,2.58-7.09-3.61-8-5.5-1.62-3.5-3.54-17.62,2.58-17.22,10.76.69,20.15,19.42,11.54,27.32-5.7,5.23-14.14.14-17.3-5.28a16.22,16.22,0,0,1-.5-15.43c.87-1.72-1.71-3.24-2.59-1.51Z"/><path d="M34.33,55.17a1.5,1.5,0,0,0,0-3,1.5,1.5,0,0,0,0,3Z"/><path d="M34.28,53.08A150.54,150.54,0,0,0,73,78.68c1.74.8,3.27-1.79,1.51-2.59A147.77,147.77,0,0,1,36.41,51c-1.43-1.3-3.56.82-2.13,2.12Z"/></g><g id="Capa_2" data-name="Capa 2"><path d="M353,359.32c-1.26-5.88,4.7-9.87,10-8.16,4.11,1.32,6.74,5,7.84,9,1.92,7-.32,14.58-3.71,20.74-3.55,6.43-8.61,11.8-13.76,17-2.73,2.73-8.82,6.71-9.05,11-.17,3.16,2.66,4.43,5.34,4.73,6.74.75,13.9.16,20.69.2q22.47.1,45-.07a1.54,1.54,0,0,0,1.45-1.9l-3.86-23.33c-.31-1.9-3.2-1.1-2.89.79l3.85,23.34,1.45-1.9q-26.38.19-52.78,0c-3.6,0-8.22.76-11.73-.1q-3.93.6-1.8-4.22c.64-.65,1.28-1.3,1.93-1.94,1.52-1.51,3.05-3,4.56-4.52,5.12-5.13,10.19-10.49,13.82-16.82,5.36-9.37,8.81-24.52-.95-32.44-7.67-6.23-20.59-1.49-18.27,9.38.41,1.88,3.3,1.08,2.9-.8Z"/></g></svg>