<?xml version="1.0" encoding="utf-8"?>
<!-- Generator: Adobe Illustrator 22.0.1, SVG Export Plug-In . SVG Version: 6.00 Build 0)  -->
<svg version="1.1" id="THE_SIGN" xmlns="http://www.w3.org/2000/svg" xmlns:xlink="http://www.w3.org/1999/xlink" x="0px" y="0px"
	 viewBox="0 0 1680 1050" style="enable-background:new 0 0 1680 1050;" xml:space="preserve">
<style type="text/css">
	.st0{fill:#FFFFFF;}
	.st1{fill:#FFFFFF;stroke:#000000;stroke-width:0.75;stroke-miterlimit:10;}
</style>
<rect width="1680" height="1050"/>
<g>
	<path class="st0" d="M358,501.1c0-0.3,0.2-0.5,0.5-0.5h14.8c0.3,0,0.5,0.2,0.5,0.5v0.6c0,0.3-0.2,0.5-0.5,0.5h-13.5v10.2h11.7
		c0.3,0,0.5,0.2,0.5,0.5v0.6c0,0.3-0.2,0.5-0.5,0.5h-11.7v11h13.5c0.3,0,0.5,0.2,0.5,0.5v0.6c0,0.3-0.2,0.5-0.5,0.5h-14.8
		c-0.3,0-0.5-0.2-0.5-0.5V501.1z"/>
	<path class="st0" d="M377.7,524.4l0.3-0.6c0.1-0.3,0.5-0.3,0.8-0.1c0.4,0.4,2.3,1.7,4.7,1.7c2.6,0,4.3-1.3,4.3-3.1c0-2-2.1-2.9-5-4
		c-3-1.1-5.1-2.3-5.1-5c0-1.9,1.6-4.4,5.5-4.4c2.3,0,4,0.8,4.8,1.3c0.3,0.2,0.4,0.5,0.2,0.8l-0.2,0.4c-0.1,0.3-0.4,0.3-0.7,0.1
		c-0.4-0.2-2.3-1.1-4.1-1.1c-2.7,0-3.8,1.5-3.8,2.8c0,1.7,1.7,2.6,4.2,3.6c3.2,1.2,5.8,2.1,5.8,5.4c0,2.6-2.4,4.6-5.9,4.6
		c-2.9,0-4.7-1.2-5.6-1.9C377.7,524.8,377.6,524.6,377.7,524.4z"/>
	<path class="st0" d="M394.9,511h-2.1c-0.4,0-0.6-0.2-0.6-0.6v-0.6c0-0.3,0.2-0.4,0.6-0.4h2.1v-4.7c0-0.3,0.3-0.5,0.6-0.6l0.5,0
		c0.3,0,0.6,0.3,0.6,0.6v4.7h6c0.4,0,0.6,0.3,0.6,0.6v0.5c0,0.3-0.2,0.6-0.6,0.6h-6v11.2c0,2.2,0.4,3.1,2.3,3.1c1.9,0,3.4-1,3.9-1.4
		c0.4-0.2,0.6,0,0.7,0.1l0.3,0.5c0.1,0.3,0.1,0.5-0.1,0.7c-0.6,0.5-2.6,1.6-5,1.6c-3.2,0-3.7-2.1-3.7-4.6V511z"/>
	<path class="st0" d="M413.2,515.5c2,0,4,0.6,4.4,0.8c0-3.8-0.5-5.7-3.8-5.7c-2.8,0-4.8,1-5.1,1.1c-0.4,0.1-0.6,0-0.7-0.3l-0.2-0.5
		c-0.2-0.3,0-0.5,0.2-0.6c0.1-0.1,2.3-1.3,5.9-1.3c5.2,0,5.3,3,5.3,7.4v9.5c0,0.3-0.3,0.6-0.6,0.6h-0.3c-0.3,0-0.5-0.1-0.5-0.5
		l-0.2-1.6c-1.1,1.1-3.3,2.4-6,2.4c-3.2,0-5.6-2.1-5.6-5.7C406.1,517.9,408.7,515.5,413.2,515.5z M411.8,525.3c2.6,0,5-1.6,5.8-2.6
		v-4.9c-0.6-0.3-2.4-0.9-4.4-0.9c-3.3,0-5.5,1.8-5.5,4.3C407.6,523.6,409.4,525.3,411.8,525.3z"/>
	<path class="st0" d="M425.3,509.9c0-0.3,0.2-0.6,0.6-0.6h0.3c0.3,0,0.4,0.1,0.4,0.4l0.2,1.8c0.5-0.6,2.2-2.6,5.7-2.6
		c2.6,0,4.1,1.1,5.3,3c0.5-0.7,2.5-3,6-3c4.7,0,6.2,3.1,6.2,7.5v9.4c0,0.3-0.2,0.6-0.6,0.6h-0.6c-0.3,0-0.4-0.2-0.4-0.6v-9.4
		c0-4-1.5-6-4.7-6c-3.2,0-4.7,2.3-5.3,3c0.3,0.9,0.3,1.8,0.3,3v9.4c0,0.3-0.3,0.6-0.6,0.6h-0.6c-0.3,0-0.5-0.2-0.5-0.6v-9.4
		c0-4-1.5-6-4.7-6c-3.5,0-5.1,2.6-5.3,2.9v12.4c0,0.4-0.2,0.6-0.6,0.6h-0.6c-0.3,0-0.5-0.3-0.5-0.6V509.9z"/>
	<path class="st0" d="M463.3,509c4.8,0,8.6,4,8.6,8.9c0,5-3.8,9-8.6,9c-4.9,0-8.6-4-8.6-9C454.7,513,458.4,509,463.3,509z
		 M463.3,525.3c3.8,0,6.8-3.3,6.8-7.4c0-4-3-7.3-6.8-7.3c-3.9,0-7,3.3-7,7.3C456.3,522,459.4,525.3,463.3,525.3z"/>
	<path class="st0" d="M475.8,524.4l0.3-0.6c0.1-0.3,0.5-0.3,0.8-0.1c0.4,0.4,2.3,1.7,4.7,1.7c2.6,0,4.3-1.3,4.3-3.1c0-2-2.1-2.9-5-4
		c-3-1.1-5.1-2.3-5.1-5c0-1.9,1.6-4.4,5.5-4.4c2.3,0,4,0.8,4.8,1.3c0.3,0.2,0.4,0.5,0.2,0.8l-0.2,0.4c-0.1,0.3-0.4,0.3-0.7,0.1
		c-0.4-0.2-2.3-1.1-4.1-1.1c-2.7,0-3.8,1.5-3.8,2.8c0,1.7,1.7,2.6,4.2,3.6c3.2,1.2,5.8,2.1,5.8,5.4c0,2.6-2.4,4.6-5.9,4.6
		c-2.9,0-4.7-1.2-5.6-1.9C475.8,524.8,475.7,524.6,475.8,524.4z"/>
	<path class="st0" d="M508.8,509c3.3,0,5.6,1.7,6.3,2.6c0.2,0.3,0.2,0.6,0,0.8l-0.3,0.3c-0.3,0.3-0.6,0.2-0.9-0.1
		c-0.4-0.4-2.3-2-5-2c-3.9,0-7.2,3.2-7.2,7.3c0,4.1,3.2,7.4,7.3,7.4c3.1,0,4.9-2.1,5.4-2.6c0.3-0.3,0.6-0.3,0.8,0l0.3,0.3
		c0.2,0.2,0.3,0.4,0.1,0.7c-0.7,1-3.1,3.3-6.7,3.3c-4.8,0-8.8-3.8-8.8-9C499.9,512.8,503.9,509,508.8,509z"/>
	<path class="st0" d="M525.9,515.5c2,0,4,0.6,4.4,0.8c0-3.8-0.5-5.7-3.8-5.7c-2.8,0-4.8,1-5.1,1.1c-0.4,0.1-0.6,0-0.7-0.3l-0.2-0.5
		c-0.2-0.3,0-0.5,0.2-0.6c0.1-0.1,2.3-1.3,5.9-1.3c5.2,0,5.3,3,5.3,7.4v9.5c0,0.3-0.3,0.6-0.6,0.6H531c-0.3,0-0.5-0.1-0.5-0.5
		l-0.2-1.6c-1.1,1.1-3.3,2.4-6,2.4c-3.2,0-5.6-2.1-5.6-5.7C518.8,517.9,521.4,515.5,525.9,515.5z M524.5,525.3c2.6,0,5-1.6,5.8-2.6
		v-4.9c-0.6-0.3-2.4-0.9-4.4-0.9c-3.3,0-5.5,1.8-5.5,4.3C520.3,523.6,522.1,525.3,524.5,525.3z"/>
	<path class="st0" d="M538,509.9c0-0.3,0.2-0.6,0.6-0.6h0.3c0.3,0,0.4,0.1,0.5,0.5l0.2,1.7c0.4-0.6,2.3-2.6,5.4-2.6
		c1.4,0,2.3,0.4,2.7,0.5c0.4,0.1,0.6,0.4,0.4,0.8l-0.2,0.7c-0.1,0.3-0.4,0.4-0.7,0.2c-0.2-0.1-1.1-0.6-2.3-0.6
		c-3.3,0-5.1,2.7-5.2,2.9v12.4c0,0.4-0.2,0.6-0.6,0.6h-0.6c-0.3,0-0.5-0.3-0.5-0.6V509.9z"/>
	<path class="st0" d="M564.3,525.1c-0.5,0.4-2.3,1.8-5.2,1.8c-5,0-8.5-4-8.5-9c0-5,3.4-8.9,8.1-8.9c3.1,0,5.3,1.6,5.8,2l0.1-1.2
		c0-0.3,0.2-0.4,0.5-0.4h0.2c0.3,0,0.6,0.2,0.6,0.6v17c0,4.9-3.3,7.7-7.6,7.7c-2.8,0-5-1.5-5.8-2.2c-0.3-0.3-0.2-0.4-0.1-0.6
		l0.4-0.5c0.2-0.3,0.4-0.3,0.7,0c0.7,0.6,2.6,1.7,4.7,1.7c3.4,0,6-2,6-6.1V525.1z M564.3,512.9c-0.2-0.3-2.2-2.3-5.5-2.3
		c-3.9,0-6.5,3.3-6.5,7.3c0,4.2,2.8,7.4,6.9,7.4c2.9,0,4.9-1.8,5.1-2.1V512.9z"/>
	<path class="st0" d="M577.8,515.5c2,0,4,0.6,4.4,0.8c0-3.8-0.5-5.7-3.8-5.7c-2.8,0-4.8,1-5.1,1.1c-0.4,0.1-0.6,0-0.7-0.3l-0.2-0.5
		c-0.2-0.3,0-0.5,0.2-0.6c0.1-0.1,2.3-1.3,5.9-1.3c5.2,0,5.3,3,5.3,7.4v9.5c0,0.3-0.3,0.6-0.6,0.6h-0.3c-0.3,0-0.5-0.1-0.5-0.5
		l-0.2-1.6c-1.1,1.1-3.3,2.4-6,2.4c-3.2,0-5.6-2.1-5.6-5.7C570.7,517.9,573.3,515.5,577.8,515.5z M576.4,525.3c2.6,0,5-1.6,5.8-2.6
		v-4.9c-0.6-0.3-2.4-0.9-4.4-0.9c-3.3,0-5.5,1.8-5.5,4.3C572.3,523.6,574.1,525.3,576.4,525.3z"/>
	<path class="st0" d="M589.9,509.9c0-0.3,0.2-0.6,0.6-0.6h0.2c0.3,0,0.5,0.1,0.5,0.4l0.2,1.8c0.6-0.6,2.6-2.6,6-2.6
		c4.8,0,6.4,3,6.4,7.5v9.4c0,0.3-0.3,0.6-0.6,0.6h-0.5c-0.3,0-0.6-0.3-0.6-0.6v-9.4c0-4-1.6-6-4.9-6c-3.5,0-5.7,2.7-5.8,2.9v12.4
		c0,0.4-0.2,0.6-0.6,0.6h-0.6c-0.3,0-0.5-0.3-0.5-0.6V509.9z"/>
	<path class="st0" d="M617,509c3.3,0,5.4,1.7,5.4,1.7v-9.5c0-0.3,0.2-0.6,0.6-0.6h0.6c0.2,0,0.5,0.3,0.5,0.6v24.8
		c0,0.3-0.3,0.6-0.6,0.6h-0.2c-0.3,0-0.6-0.1-0.6-0.6l-0.1-1.5c-0.5,0.6-2.7,2.5-6,2.5c-4.4,0-7.8-4-7.8-9
		C608.7,513,612.1,509,617,509z M616.6,525.3c3.7,0,5.7-2.7,5.8-2.9v-9.9c0,0-2.1-1.9-5.2-1.9c-3.9,0-6.8,3.3-6.8,7.3
		C610.4,521.9,613,525.3,616.6,525.3z"/>
	<path class="st0" d="M637.6,509c4.8,0,8.6,4,8.6,8.9c0,5-3.8,9-8.6,9c-4.9,0-8.6-4-8.6-9C629,513,632.7,509,637.6,509z
		 M637.6,525.3c3.8,0,6.8-3.3,6.8-7.4c0-4-3-7.3-6.8-7.3c-3.9,0-7,3.3-7,7.3C630.7,522,633.7,525.3,637.6,525.3z"/>
	<path class="st0" d="M660.4,501.1c0-0.3,0.2-0.6,0.6-0.6h0.5c0.3,0,0.6,0.3,0.6,0.6v24.8c0,0.4-0.2,0.6-0.6,0.6h-0.6
		c-0.3,0-0.5-0.3-0.5-0.6V501.1z"/>
	<path class="st0" d="M674,515.5c2,0,4,0.6,4.4,0.8c0-3.8-0.5-5.7-3.8-5.7c-2.8,0-4.8,1-5.1,1.1c-0.4,0.1-0.6,0-0.7-0.3l-0.2-0.5
		c-0.2-0.3,0-0.5,0.2-0.6c0.1-0.1,2.3-1.3,5.9-1.3c5.2,0,5.3,3,5.3,7.4v9.5c0,0.3-0.3,0.6-0.6,0.6h-0.3c-0.3,0-0.5-0.1-0.5-0.5
		l-0.2-1.6c-1.1,1.1-3.3,2.4-6,2.4c-3.2,0-5.6-2.1-5.6-5.7C666.9,517.9,669.6,515.5,674,515.5z M672.7,525.3c2.6,0,5-1.6,5.8-2.6
		v-4.9c-0.6-0.3-2.4-0.9-4.4-0.9c-3.3,0-5.5,1.8-5.5,4.3C668.5,523.6,670.3,525.3,672.7,525.3z"/>
	<path class="st0" d="M694.3,503.2c0-0.8,0.7-1.4,1.5-1.4c0.8,0,1.4,0.6,1.4,1.4c0,0.8-0.6,1.4-1.4,1.4
		C695,504.6,694.3,504,694.3,503.2z M695,509.9c0-0.3,0.2-0.6,0.6-0.6h0.5c0.3,0,0.6,0.3,0.6,0.6v16c0,0.4-0.2,0.6-0.6,0.6h-0.6
		c-0.3,0-0.5-0.3-0.5-0.6V509.9z"/>
	<path class="st0" d="M702.9,509.9c0-0.3,0.2-0.6,0.6-0.6h0.3c0.3,0,0.4,0.1,0.4,0.4l0.2,1.8c0.5-0.6,2.2-2.6,5.7-2.6
		c2.6,0,4.1,1.1,5.3,3c0.5-0.7,2.5-3,6-3c4.7,0,6.2,3.1,6.2,7.5v9.4c0,0.3-0.2,0.6-0.6,0.6h-0.6c-0.3,0-0.4-0.2-0.4-0.6v-9.4
		c0-4-1.5-6-4.7-6c-3.2,0-4.7,2.3-5.3,3c0.3,0.9,0.3,1.8,0.3,3v9.4c0,0.3-0.3,0.6-0.6,0.6h-0.6c-0.3,0-0.5-0.2-0.5-0.6v-9.4
		c0-4-1.5-6-4.7-6c-3.5,0-5.1,2.6-5.3,2.9v12.4c0,0.4-0.2,0.6-0.6,0.6h-0.6c-0.3,0-0.5-0.3-0.5-0.6V509.9z"/>
	<path class="st0" d="M739.1,515.5c2,0,4,0.6,4.4,0.8c0-3.8-0.5-5.7-3.8-5.7c-2.8,0-4.8,1-5.1,1.1c-0.4,0.1-0.6,0-0.7-0.3l-0.2-0.5
		c-0.2-0.3,0-0.5,0.2-0.6c0.1-0.1,2.3-1.3,5.9-1.3c5.2,0,5.3,3,5.3,7.4v9.5c0,0.3-0.3,0.6-0.6,0.6h-0.3c-0.3,0-0.5-0.1-0.5-0.5
		l-0.2-1.6c-1.1,1.1-3.3,2.4-6,2.4c-3.2,0-5.6-2.1-5.6-5.7C732,517.9,734.6,515.5,739.1,515.5z M737.8,525.3c2.6,0,5-1.6,5.8-2.6
		v-4.9c-0.6-0.3-2.4-0.9-4.4-0.9c-3.3,0-5.5,1.8-5.5,4.3C733.6,523.6,735.4,525.3,737.8,525.3z"/>
	<path class="st0" d="M763.8,525.1c-0.5,0.4-2.3,1.8-5.2,1.8c-5,0-8.5-4-8.5-9c0-5,3.4-8.9,8.1-8.9c3.1,0,5.3,1.6,5.8,2l0.1-1.2
		c0-0.3,0.2-0.4,0.5-0.4h0.2c0.3,0,0.6,0.2,0.6,0.6v17c0,4.9-3.3,7.7-7.6,7.7c-2.8,0-5-1.5-5.8-2.2c-0.3-0.3-0.2-0.4-0.1-0.6
		l0.4-0.5c0.2-0.3,0.4-0.3,0.7,0c0.7,0.6,2.6,1.7,4.7,1.7c3.4,0,6-2,6-6.1V525.1z M763.8,512.9c-0.2-0.3-2.2-2.3-5.5-2.3
		c-3.9,0-6.5,3.3-6.5,7.3c0,4.2,2.8,7.4,6.9,7.4c2.9,0,4.9-1.8,5.1-2.1V512.9z"/>
	<path class="st0" d="M770.9,503.2c0-0.8,0.7-1.4,1.5-1.4c0.8,0,1.4,0.6,1.4,1.4c0,0.8-0.6,1.4-1.4,1.4
		C771.6,504.6,770.9,504,770.9,503.2z M771.6,509.9c0-0.3,0.2-0.6,0.6-0.6h0.5c0.3,0,0.6,0.3,0.6,0.6v16c0,0.4-0.2,0.6-0.6,0.6h-0.6
		c-0.3,0-0.5-0.3-0.5-0.6V509.9z"/>
	<path class="st0" d="M779.5,509.9c0-0.3,0.2-0.6,0.6-0.6h0.2c0.3,0,0.5,0.1,0.5,0.4l0.2,1.8c0.6-0.6,2.6-2.6,6-2.6
		c4.8,0,6.4,3,6.4,7.5v9.4c0,0.3-0.3,0.6-0.6,0.6h-0.5c-0.3,0-0.6-0.3-0.6-0.6v-9.4c0-4-1.6-6-4.9-6c-3.5,0-5.7,2.7-5.8,2.9v12.4
		c0,0.4-0.2,0.6-0.6,0.6h-0.6c-0.3,0-0.5-0.3-0.5-0.6V509.9z"/>
	<path class="st0" d="M805.1,515.5c2,0,4,0.6,4.4,0.8c0-3.8-0.5-5.7-3.8-5.7c-2.8,0-4.8,1-5.1,1.1c-0.4,0.1-0.6,0-0.7-0.3l-0.2-0.5
		c-0.2-0.3,0-0.5,0.2-0.6c0.1-0.1,2.3-1.3,5.9-1.3c5.2,0,5.3,3,5.3,7.4v9.5c0,0.3-0.3,0.6-0.6,0.6h-0.3c-0.3,0-0.5-0.1-0.5-0.5
		l-0.2-1.6c-1.1,1.1-3.3,2.4-6,2.4c-3.2,0-5.6-2.1-5.6-5.7C798,517.9,800.6,515.5,805.1,515.5z M803.7,525.3c2.6,0,5-1.6,5.8-2.6
		v-4.9c-0.6-0.3-2.4-0.9-4.4-0.9c-3.3,0-5.5,1.8-5.5,4.3C799.5,523.6,801.3,525.3,803.7,525.3z"/>
	<path class="st0" d="M824.8,509c3.3,0,5.6,1.7,6.3,2.6c0.2,0.3,0.2,0.6,0,0.8l-0.3,0.3c-0.3,0.3-0.6,0.2-0.9-0.1
		c-0.4-0.4-2.3-2-5-2c-3.9,0-7.2,3.2-7.2,7.3c0,4.1,3.2,7.4,7.3,7.4c3.1,0,4.9-2.1,5.4-2.6c0.3-0.3,0.6-0.3,0.8,0l0.3,0.3
		c0.2,0.2,0.3,0.4,0.1,0.7c-0.7,1-3.1,3.3-6.7,3.3c-4.8,0-8.8-3.8-8.8-9C816,512.8,820,509,824.8,509z"/>
	<path class="st0" d="M835.6,503.2c0-0.8,0.7-1.4,1.5-1.4c0.8,0,1.4,0.6,1.4,1.4c0,0.8-0.6,1.4-1.4,1.4
		C836.2,504.6,835.6,504,835.6,503.2z M836.3,509.9c0-0.3,0.2-0.6,0.6-0.6h0.5c0.3,0,0.6,0.3,0.6,0.6v16c0,0.4-0.2,0.6-0.6,0.6h-0.6
		c-0.3,0-0.5-0.3-0.5-0.6V509.9z"/>
	<path class="st0" d="M851.5,509c4.8,0,8.6,4,8.6,8.9c0,5-3.8,9-8.6,9c-4.9,0-8.6-4-8.6-9C842.9,513,846.6,509,851.5,509z
		 M851.5,525.3c3.8,0,6.8-3.3,6.8-7.4c0-4-3-7.3-6.8-7.3c-3.9,0-7,3.3-7,7.3C844.6,522,847.6,525.3,851.5,525.3z M848.1,505.7
		l-0.2-0.5c-0.1-0.3,0-0.4,0.2-0.5l6.1-3.2c0.2-0.1,0.5-0.1,0.6,0.1l0.4,0.7c0.1,0.3,0,0.5-0.3,0.7l-6.3,2.8
		C848.3,506,848.2,505.9,848.1,505.7z"/>
	<path class="st0" d="M865.1,509.9c0-0.3,0.2-0.6,0.6-0.6h0.2c0.3,0,0.5,0.1,0.5,0.4l0.2,1.8c0.6-0.6,2.6-2.6,6-2.6
		c4.8,0,6.4,3,6.4,7.5v9.4c0,0.3-0.3,0.6-0.6,0.6H878c-0.3,0-0.6-0.3-0.6-0.6v-9.4c0-4-1.6-6-4.9-6c-3.5,0-5.7,2.7-5.8,2.9v12.4
		c0,0.4-0.2,0.6-0.6,0.6h-0.6c-0.3,0-0.5-0.3-0.5-0.6V509.9z"/>
	<path class="st0" d="M886,523.8c1.4,0,2.3,1.8,2.3,3.7c0,2.4-1.1,4.1-2.3,5.3c-0.2,0.2-0.4,0.2-0.5,0l-0.4-0.4
		c-0.2-0.3-0.1-0.4,0-0.6c1-0.9,1.8-2.3,1.8-3.8c0-0.7-0.1-1.3-0.3-1.7c-0.2,0.3-0.5,0.4-0.9,0.4c-0.8,0-1.3-0.6-1.3-1.4
		C884.4,524.5,885.1,523.8,886,523.8z"/>
	<path class="st0" d="M909.4,509c4.5,0,7.7,3.4,7.7,7.8c0,0.7,0,1.7-0.6,1.7h-13.7c0.1,3.8,3,6.8,6.6,6.8c2.4,0,4.2-1,5.3-1.7
		c0.4-0.2,0.6-0.3,0.7,0l0.4,0.6c0.1,0.1,0.1,0.4-0.2,0.7c-1,0.8-3.5,2-6.2,2c-5,0-8.3-4-8.3-9C901.2,513,904.4,509,909.4,509z
		 M915.5,516.9c0-3.4-2.2-6.3-6-6.3c-3.7,0-6.4,2.8-6.6,6.3H915.5z"/>
	<path class="st0" d="M922.1,501.1c0-0.3,0.2-0.6,0.6-0.6h0.5c0.3,0,0.6,0.3,0.6,0.6v24.8c0,0.4-0.2,0.6-0.6,0.6h-0.6
		c-0.3,0-0.5-0.3-0.5-0.6V501.1z"/>
	<path class="st0" d="M946.2,509c3.3,0,5.4,1.7,5.4,1.7v-9.5c0-0.3,0.2-0.6,0.6-0.6h0.6c0.2,0,0.5,0.3,0.5,0.6v24.8
		c0,0.3-0.3,0.6-0.6,0.6h-0.2c-0.3,0-0.6-0.1-0.6-0.6l-0.1-1.5c-0.5,0.6-2.7,2.5-6,2.5c-4.4,0-7.8-4-7.8-9
		C937.9,513,941.3,509,946.2,509z M945.8,525.3c3.7,0,5.7-2.7,5.8-2.9v-9.9c0,0-2.1-1.9-5.2-1.9c-3.9,0-6.8,3.3-6.8,7.3
		C939.5,521.9,942.2,525.3,945.8,525.3z"/>
	<path class="st0" d="M958.7,503.2c0-0.8,0.7-1.4,1.5-1.4c0.8,0,1.4,0.6,1.4,1.4c0,0.8-0.6,1.4-1.4,1.4
		C959.4,504.6,958.7,504,958.7,503.2z M959.4,509.9c0-0.3,0.2-0.6,0.6-0.6h0.5c0.3,0,0.6,0.3,0.6,0.6v16c0,0.4-0.2,0.6-0.6,0.6h-0.6
		c-0.3,0-0.5-0.3-0.5-0.6V509.9z"/>
	<path class="st0" d="M966.2,524.4l0.3-0.6c0.1-0.3,0.5-0.3,0.8-0.1c0.4,0.4,2.3,1.7,4.7,1.7c2.6,0,4.3-1.3,4.3-3.1c0-2-2.1-2.9-5-4
		c-3-1.1-5.1-2.3-5.1-5c0-1.9,1.6-4.4,5.5-4.4c2.3,0,4,0.8,4.8,1.3c0.3,0.2,0.4,0.5,0.2,0.8l-0.2,0.4c-0.1,0.3-0.4,0.3-0.7,0.1
		c-0.4-0.2-2.3-1.1-4.1-1.1c-2.7,0-3.8,1.5-3.8,2.8c0,1.7,1.7,2.6,4.2,3.6c3.2,1.2,5.8,2.1,5.8,5.4c0,2.6-2.4,4.6-5.9,4.6
		c-2.9,0-4.7-1.2-5.6-1.9C966.2,524.8,966,524.6,966.2,524.4z"/>
	<path class="st0" d="M989.7,509c4.5,0,7.7,3.4,7.7,7.8c0,0.7,0,1.7-0.6,1.7h-13.7c0.1,3.8,3,6.8,6.6,6.8c2.4,0,4.2-1,5.3-1.7
		c0.4-0.2,0.6-0.3,0.7,0l0.4,0.6c0.1,0.1,0.1,0.4-0.2,0.7c-1,0.8-3.5,2-6.2,2c-5,0-8.3-4-8.3-9C981.4,513,984.6,509,989.7,509z
		 M995.7,516.9c0-3.4-2.2-6.3-6-6.3c-3.7,0-6.4,2.8-6.6,6.3H995.7z"/>
	<path class="st0" d="M1002.1,509.9c0-0.3,0.2-0.6,0.6-0.6h0.2c0.3,0,0.5,0.1,0.5,0.4l0.2,1.8c0.6-0.6,2.6-2.6,6-2.6
		c4.8,0,6.4,3,6.4,7.5v9.4c0,0.3-0.3,0.6-0.6,0.6h-0.5c-0.3,0-0.6-0.3-0.6-0.6v-9.4c0-4-1.6-6-4.9-6c-3.5,0-5.7,2.7-5.8,2.9v12.4
		c0,0.4-0.2,0.6-0.6,0.6h-0.6c-0.3,0-0.5-0.3-0.5-0.6V509.9z M1004,504.9c-0.2-0.1-0.3-0.3-0.2-0.5c0.3-0.7,1.1-3.2,3.4-3.2
		c2.7,0,2.4,3.4,4.2,3.4c1.4,0,1.9-1.5,2.1-2.2c0.1-0.3,0.3-0.4,0.6-0.3l0.4,0.1c0.1,0.1,0.3,0.2,0.2,0.5s-0.9,3.2-3.4,3.2
		c-2.6,0-2.4-3.4-4.2-3.4c-1.4,0-1.9,1.6-2.1,2.3c-0.1,0.3-0.3,0.4-0.6,0.3L1004,504.9z"/>
	<path class="st0" d="M1029.5,509c4.8,0,8.6,4,8.6,8.9c0,5-3.8,9-8.6,9c-4.9,0-8.6-4-8.6-9C1020.9,513,1024.6,509,1029.5,509z
		 M1029.5,525.3c3.8,0,6.8-3.3,6.8-7.4c0-4-3-7.3-6.8-7.3c-3.9,0-7,3.3-7,7.3C1022.6,522,1025.6,525.3,1029.5,525.3z"/>
	<path class="st0" d="M1050,510.1c-0.1-0.4-0.1-0.7,0.3-0.7h0.8c0.3,0,0.5,0.1,0.6,0.4l6,14.8h0.1l6.3-14.8c0.1-0.3,0.3-0.4,0.6-0.4
		h0.8c0.4,0,0.4,0.3,0.3,0.7l-10.7,24.9c-0.1,0.2-0.4,0.3-0.6,0.3h-0.9c-0.4,0-0.5-0.2-0.3-0.6l3.6-8.3L1050,510.1z"/>
	<path class="st0" d="M1078.8,501.1c0-0.3,0.2-0.6,0.6-0.6h0.5c0.3,0,0.6,0.3,0.6,0.6v24.8c0,0.4-0.2,0.6-0.6,0.6h-0.6
		c-0.3,0-0.5-0.3-0.5-0.6V501.1z"/>
	<path class="st0" d="M1094.3,509c4.8,0,8.6,4,8.6,8.9c0,5-3.8,9-8.6,9c-4.9,0-8.6-4-8.6-9C1085.7,513,1089.4,509,1094.3,509z
		 M1094.3,525.3c3.8,0,6.8-3.3,6.8-7.4c0-4-3-7.3-6.8-7.3c-3.9,0-7,3.3-7,7.3C1087.4,522,1090.4,525.3,1094.3,525.3z"/>
	<path class="st0" d="M1106.9,524.4l0.3-0.6c0.1-0.3,0.5-0.3,0.8-0.1c0.4,0.4,2.3,1.7,4.7,1.7c2.6,0,4.3-1.3,4.3-3.1
		c0-2-2.1-2.9-5-4c-3-1.1-5.1-2.3-5.1-5c0-1.9,1.6-4.4,5.5-4.4c2.3,0,4,0.8,4.8,1.3c0.3,0.2,0.4,0.5,0.2,0.8l-0.2,0.4
		c-0.1,0.3-0.4,0.3-0.7,0.1c-0.4-0.2-2.3-1.1-4.1-1.1c-2.7,0-3.8,1.5-3.8,2.8c0,1.7,1.7,2.6,4.2,3.6c3.2,1.2,5.8,2.1,5.8,5.4
		c0,2.6-2.4,4.6-5.9,4.6c-2.9,0-4.7-1.2-5.6-1.9C1106.9,524.8,1106.7,524.6,1106.9,524.4z"/>
	<path class="st0" d="M1139.8,509c3.3,0,5.6,1.7,6.3,2.6c0.2,0.3,0.2,0.6,0,0.8l-0.3,0.3c-0.3,0.3-0.6,0.2-0.9-0.1
		c-0.4-0.4-2.3-2-5-2c-3.9,0-7.2,3.2-7.2,7.3c0,4.1,3.2,7.4,7.3,7.4c3.1,0,4.9-2.1,5.4-2.6c0.3-0.3,0.6-0.3,0.8,0l0.3,0.3
		c0.2,0.2,0.3,0.4,0.1,0.7c-0.7,1-3.1,3.3-6.7,3.3c-4.8,0-8.8-3.8-8.8-9C1130.9,512.8,1134.9,509,1139.8,509z"/>
	<path class="st0" d="M1158.7,509c4.8,0,8.6,4,8.6,8.9c0,5-3.8,9-8.6,9c-4.9,0-8.6-4-8.6-9C1150.1,513,1153.8,509,1158.7,509z
		 M1158.7,525.3c3.8,0,6.8-3.3,6.8-7.4c0-4-3-7.3-6.8-7.3c-3.9,0-7,3.3-7,7.3C1151.7,522,1154.8,525.3,1158.7,525.3z"/>
	<path class="st0" d="M1172.5,501.1c0-0.3,0.2-0.6,0.6-0.6h0.5c0.3,0,0.6,0.3,0.6,0.6v24.8c0,0.4-0.2,0.6-0.6,0.6h-0.6
		c-0.3,0-0.5-0.3-0.5-0.6V501.1z"/>
	<path class="st0" d="M1188,509c4.8,0,8.6,4,8.6,8.9c0,5-3.8,9-8.6,9c-4.9,0-8.6-4-8.6-9C1179.4,513,1183.1,509,1188,509z
		 M1188,525.3c3.8,0,6.8-3.3,6.8-7.4c0-4-3-7.3-6.8-7.3c-3.9,0-7,3.3-7,7.3C1181,522,1184.1,525.3,1188,525.3z"/>
	<path class="st0" d="M1201.6,509.9c0-0.3,0.2-0.6,0.6-0.6h0.3c0.3,0,0.4,0.1,0.5,0.5l0.2,1.7c0.4-0.6,2.3-2.6,5.4-2.6
		c1.4,0,2.3,0.4,2.7,0.5c0.4,0.1,0.6,0.4,0.4,0.8l-0.2,0.7c-0.1,0.3-0.4,0.4-0.7,0.2c-0.2-0.1-1.1-0.6-2.3-0.6
		c-3.3,0-5.1,2.7-5.2,2.9v12.4c0,0.4-0.2,0.6-0.6,0.6h-0.6c-0.3,0-0.5-0.3-0.5-0.6V509.9z"/>
	<path class="st0" d="M1222.5,509c4.5,0,7.7,3.4,7.7,7.8c0,0.7,0,1.7-0.6,1.7h-13.7c0.1,3.8,3,6.8,6.6,6.8c2.4,0,4.2-1,5.3-1.7
		c0.4-0.2,0.6-0.3,0.7,0l0.4,0.6c0.1,0.1,0.1,0.4-0.2,0.7c-1,0.8-3.5,2-6.2,2c-5,0-8.3-4-8.3-9C1214.3,513,1217.5,509,1222.5,509z
		 M1228.5,516.9c0-3.4-2.2-6.3-6-6.3c-3.7,0-6.4,2.8-6.6,6.3H1228.5z"/>
	<path class="st0" d="M1233.9,524.4l0.3-0.6c0.1-0.3,0.5-0.3,0.8-0.1c0.4,0.4,2.3,1.7,4.7,1.7c2.6,0,4.3-1.3,4.3-3.1
		c0-2-2.1-2.9-5-4c-3-1.1-5.1-2.3-5.1-5c0-1.9,1.6-4.4,5.5-4.4c2.3,0,4,0.8,4.8,1.3c0.3,0.2,0.4,0.5,0.2,0.8l-0.2,0.4
		c-0.1,0.3-0.4,0.3-0.7,0.1c-0.4-0.2-2.3-1.1-4.1-1.1c-2.7,0-3.8,1.5-3.8,2.8c0,1.7,1.7,2.6,4.2,3.6c3.2,1.2,5.8,2.1,5.8,5.4
		c0,2.6-2.4,4.6-5.9,4.6c-2.9,0-4.7-1.2-5.6-1.9C1233.9,524.8,1233.8,524.6,1233.9,524.4z"/>
	<path class="st0" d="M1260.8,534.7c0,0.3-0.3,0.6-0.6,0.6h-0.5c-0.3,0-0.6-0.3-0.6-0.6v-24.8c0-0.4,0.3-0.6,0.6-0.6h0.2
		c0.3,0,0.4,0.1,0.5,0.4l0.1,1.2c0.5-0.4,2.6-2,5.8-2c4.7,0,8.1,3.9,8.1,8.9c0,5-3.6,9-8.5,9c-2.8,0-4.7-1.4-5.2-1.8V534.7z
		 M1266,525.3c4.1,0,6.9-3.3,6.9-7.4c0-4-2.6-7.3-6.5-7.3c-3.3,0-5.3,2-5.5,2.3v10.4C1261,523.4,1263.1,525.3,1266,525.3z"/>
	<path class="st0" d="M1285.2,515.5c2,0,4,0.6,4.4,0.8c0-3.8-0.5-5.7-3.8-5.7c-2.8,0-4.8,1-5.1,1.1c-0.4,0.1-0.6,0-0.7-0.3l-0.2-0.5
		c-0.2-0.3,0-0.5,0.2-0.6c0.1-0.1,2.3-1.3,5.9-1.3c5.2,0,5.3,3,5.3,7.4v9.5c0,0.3-0.3,0.6-0.6,0.6h-0.3c-0.3,0-0.5-0.1-0.5-0.5
		l-0.2-1.6c-1.1,1.1-3.3,2.4-6,2.4c-3.2,0-5.6-2.1-5.6-5.7C1278.1,517.9,1280.7,515.5,1285.2,515.5z M1283.8,525.3
		c2.6,0,5-1.6,5.8-2.6v-4.9c-0.6-0.3-2.4-0.9-4.4-0.9c-3.3,0-5.5,1.8-5.5,4.3C1279.7,523.6,1281.5,525.3,1283.8,525.3z"/>
	<path class="st0" d="M1297.3,509.9c0-0.3,0.2-0.6,0.6-0.6h0.3c0.3,0,0.4,0.1,0.5,0.5l0.2,1.7c0.4-0.6,2.3-2.6,5.4-2.6
		c1.4,0,2.3,0.4,2.7,0.5c0.4,0.1,0.6,0.4,0.4,0.8l-0.2,0.7c-0.1,0.3-0.4,0.4-0.7,0.2c-0.2-0.1-1.1-0.6-2.3-0.6
		c-3.3,0-5.1,2.7-5.2,2.9v12.4c0,0.4-0.2,0.6-0.6,0.6h-0.6c-0.3,0-0.5-0.3-0.5-0.6V509.9z"/>
	<path class="st0" d="M1316.8,515.5c2,0,4,0.6,4.4,0.8c0-3.8-0.5-5.7-3.8-5.7c-2.8,0-4.8,1-5.1,1.1c-0.4,0.1-0.6,0-0.7-0.3l-0.2-0.5
		c-0.2-0.3,0-0.5,0.2-0.6c0.1-0.1,2.3-1.3,5.9-1.3c5.2,0,5.3,3,5.3,7.4v9.5c0,0.3-0.3,0.6-0.6,0.6h-0.3c-0.3,0-0.5-0.1-0.5-0.5
		l-0.2-1.6c-1.1,1.1-3.3,2.4-6,2.4c-3.2,0-5.6-2.1-5.6-5.7C1309.7,517.9,1312.3,515.5,1316.8,515.5z M1315.4,525.3
		c2.6,0,5-1.6,5.8-2.6v-4.9c-0.6-0.3-2.4-0.9-4.4-0.9c-3.3,0-5.5,1.8-5.5,4.3C1311.2,523.6,1313,525.3,1315.4,525.3z"/>
	<path class="st0" d="M380.8,565.4l0.3-0.6c0.1-0.3,0.5-0.3,0.8-0.1c0.4,0.4,2.3,1.7,4.7,1.7c2.6,0,4.3-1.3,4.3-3.1c0-2-2.1-2.9-5-4
		c-3-1.1-5.1-2.3-5.1-5c0-1.9,1.6-4.4,5.5-4.4c2.3,0,4,0.8,4.8,1.3c0.3,0.2,0.4,0.5,0.2,0.8l-0.2,0.4c-0.1,0.3-0.4,0.3-0.7,0.1
		c-0.4-0.2-2.3-1.1-4.1-1.1c-2.7,0-3.8,1.5-3.8,2.8c0,1.7,1.7,2.6,4.2,3.6c3.2,1.2,5.8,2.1,5.8,5.4c0,2.6-2.4,4.6-5.9,4.6
		c-2.9,0-4.7-1.2-5.6-1.9C380.8,565.8,380.6,565.6,380.8,565.4z"/>
	<path class="st0" d="M404.6,550c4.8,0,8.6,4,8.6,8.9c0,5-3.8,9-8.6,9c-4.9,0-8.6-4-8.6-9C396,554,399.7,550,404.6,550z
		 M404.6,566.3c3.8,0,6.8-3.3,6.8-7.4c0-4-3-7.3-6.8-7.3c-3.9,0-7,3.3-7,7.3C397.6,563,400.7,566.3,404.6,566.3z"/>
	<path class="st0" d="M418.2,550.9c0-0.3,0.2-0.6,0.6-0.6h0.3c0.3,0,0.4,0.1,0.5,0.5l0.2,1.7c0.4-0.6,2.3-2.6,5.4-2.6
		c1.4,0,2.3,0.4,2.7,0.5c0.4,0.1,0.6,0.4,0.4,0.8l-0.2,0.7c-0.1,0.3-0.4,0.4-0.7,0.2c-0.2-0.1-1.1-0.6-2.3-0.6
		c-3.3,0-5.1,2.7-5.2,2.9v12.4c0,0.4-0.2,0.6-0.6,0.6h-0.6c-0.3,0-0.5-0.3-0.5-0.6V550.9z"/>
	<path class="st0" d="M433.6,575.7c0,0.3-0.3,0.6-0.6,0.6h-0.5c-0.3,0-0.6-0.3-0.6-0.6v-24.8c0-0.4,0.3-0.6,0.6-0.6h0.2
		c0.3,0,0.4,0.1,0.5,0.4l0.1,1.2c0.5-0.4,2.6-2,5.8-2c4.7,0,8.1,3.9,8.1,8.9c0,5-3.6,9-8.5,9c-2.8,0-4.7-1.4-5.2-1.8V575.7z
		 M438.8,566.3c4.1,0,6.9-3.3,6.9-7.4c0-4-2.6-7.3-6.5-7.3c-3.3,0-5.3,2-5.5,2.3v10.4C433.9,564.4,435.9,566.3,438.8,566.3z"/>
	<path class="st0" d="M452.4,550.9c0-0.3,0.2-0.6,0.6-0.6h0.3c0.3,0,0.4,0.1,0.5,0.5l0.2,1.7c0.4-0.6,2.3-2.6,5.4-2.6
		c1.4,0,2.3,0.4,2.7,0.5c0.4,0.1,0.6,0.4,0.4,0.8l-0.2,0.7c-0.1,0.3-0.4,0.4-0.7,0.2c-0.2-0.1-1.1-0.6-2.3-0.6
		c-3.3,0-5.1,2.7-5.2,2.9v12.4c0,0.4-0.2,0.6-0.6,0.6h-0.6c-0.3,0-0.5-0.3-0.5-0.6V550.9z"/>
	<path class="st0" d="M473.3,550c4.5,0,7.7,3.4,7.7,7.8c0,0.7,0,1.7-0.6,1.7h-13.7c0.1,3.8,3,6.8,6.6,6.8c2.4,0,4.2-1,5.3-1.7
		c0.4-0.2,0.6-0.3,0.7,0l0.4,0.6c0.1,0.1,0.1,0.4-0.2,0.7c-1,0.8-3.5,2-6.2,2c-5,0-8.3-4-8.3-9C465.1,554,468.3,550,473.3,550z
		 M479.4,557.9c0-3.4-2.2-6.3-6-6.3c-3.7,0-6.4,2.8-6.6,6.3H479.4z"/>
	<path class="st0" d="M485.8,550.9c0-0.3,0.2-0.6,0.6-0.6h0.2c0.3,0,0.5,0.1,0.5,0.4l0.2,1.8c0.6-0.6,2.6-2.6,6-2.6
		c4.8,0,6.4,3,6.4,7.5v9.4c0,0.3-0.3,0.6-0.6,0.6h-0.5c-0.3,0-0.6-0.3-0.6-0.6v-9.4c0-4-1.6-6-4.9-6c-3.5,0-5.7,2.7-5.8,2.9v12.4
		c0,0.4-0.2,0.6-0.6,0.6h-0.6c-0.3,0-0.5-0.3-0.5-0.6V550.9z"/>
	<path class="st0" d="M512.9,550c3.3,0,5.4,1.7,5.4,1.7v-9.5c0-0.3,0.2-0.6,0.6-0.6h0.6c0.2,0,0.5,0.3,0.5,0.6v24.8
		c0,0.3-0.3,0.6-0.6,0.6h-0.2c-0.3,0-0.6-0.1-0.6-0.6l-0.1-1.5c-0.5,0.6-2.7,2.5-6,2.5c-4.4,0-7.8-4-7.8-9
		C504.6,554,508,550,512.9,550z M512.5,566.3c3.7,0,5.7-2.7,5.8-2.9v-9.9c0,0-2.1-1.9-5.2-1.9c-3.9,0-6.8,3.3-6.8,7.3
		C506.3,562.9,508.9,566.3,512.5,566.3z"/>
	<path class="st0" d="M533.2,550c4.5,0,7.7,3.4,7.7,7.8c0,0.7,0,1.7-0.6,1.7h-13.7c0.1,3.8,3,6.8,6.6,6.8c2.4,0,4.2-1,5.3-1.7
		c0.4-0.2,0.6-0.3,0.7,0l0.4,0.6c0.1,0.1,0.1,0.4-0.2,0.7c-1,0.8-3.5,2-6.2,2c-5,0-8.3-4-8.3-9C525,554,528.2,550,533.2,550z
		 M539.3,557.9c0-3.4-2.2-6.3-6-6.3c-3.7,0-6.4,2.8-6.6,6.3H539.3z"/>
	<path class="st0" d="M545.7,550.9c0-0.3,0.2-0.6,0.6-0.6h0.3c0.3,0,0.4,0.1,0.5,0.5l0.2,1.7c0.4-0.6,2.3-2.6,5.4-2.6
		c1.4,0,2.3,0.4,2.7,0.5c0.4,0.1,0.6,0.4,0.4,0.8l-0.2,0.7c-0.1,0.3-0.4,0.4-0.7,0.2c-0.2-0.1-1.1-0.6-2.3-0.6
		c-3.3,0-5.1,2.7-5.2,2.9v12.4c0,0.4-0.2,0.6-0.6,0.6h-0.6c-0.3,0-0.5-0.3-0.5-0.6V550.9z"/>
	<path class="st0" d="M560.3,552h-2.1c-0.4,0-0.6-0.2-0.6-0.6v-0.6c0-0.3,0.2-0.4,0.6-0.4h2.1v-4.7c0-0.3,0.3-0.5,0.6-0.6l0.5,0
		c0.3,0,0.6,0.3,0.6,0.6v4.7h6c0.4,0,0.6,0.3,0.6,0.6v0.5c0,0.3-0.2,0.6-0.6,0.6h-6v11.2c0,2.2,0.4,3.1,2.3,3.1c1.9,0,3.4-1,3.9-1.4
		c0.4-0.2,0.6,0,0.7,0.1l0.3,0.5c0.1,0.3,0.1,0.5-0.1,0.7c-0.6,0.5-2.6,1.6-5,1.6c-3.2,0-3.7-2.1-3.7-4.6V552z"/>
	<path class="st0" d="M580.1,550c4.5,0,7.7,3.4,7.7,7.8c0,0.7,0,1.7-0.6,1.7h-13.7c0.1,3.8,3,6.8,6.6,6.8c2.4,0,4.2-1,5.3-1.7
		c0.4-0.2,0.6-0.3,0.7,0l0.4,0.6c0.1,0.1,0.1,0.4-0.2,0.7c-1,0.8-3.5,2-6.2,2c-5,0-8.3-4-8.3-9C571.8,554,575,550,580.1,550z
		 M586.1,557.9c0-3.4-2.2-6.3-6-6.3c-3.7,0-6.4,2.8-6.6,6.3H586.1z"/>
	<path class="st0" d="M608.5,550c4.5,0,7.7,3.4,7.7,7.8c0,0.7,0,1.7-0.6,1.7h-13.7c0.1,3.8,3,6.8,6.6,6.8c2.4,0,4.2-1,5.3-1.7
		c0.4-0.2,0.6-0.3,0.7,0l0.4,0.6c0.1,0.1,0.1,0.4-0.2,0.7c-1,0.8-3.5,2-6.2,2c-5,0-8.3-4-8.3-9C600.3,554,603.5,550,608.5,550z
		 M614.6,557.9c0-3.4-2.2-6.3-6-6.3c-3.7,0-6.4,2.8-6.6,6.3H614.6z"/>
	<path class="st0" d="M629.2,544.2c0-0.8,0.7-1.4,1.5-1.4c0.8,0,1.4,0.6,1.4,1.4c0,0.8-0.6,1.4-1.4,1.4
		C629.8,545.6,629.2,545,629.2,544.2z M629.9,550.9c0-0.3,0.2-0.6,0.6-0.6h0.5c0.3,0,0.6,0.3,0.6,0.6v16c0,0.4-0.2,0.6-0.6,0.6h-0.6
		c-0.3,0-0.5-0.3-0.5-0.6V550.9z"/>
	<path class="st0" d="M637.7,550.9c0-0.3,0.2-0.6,0.6-0.6h0.2c0.3,0,0.5,0.1,0.5,0.4l0.2,1.8c0.6-0.6,2.6-2.6,6-2.6
		c4.8,0,6.4,3,6.4,7.5v9.4c0,0.3-0.3,0.6-0.6,0.6h-0.5c-0.3,0-0.6-0.3-0.6-0.6v-9.4c0-4-1.6-6-4.9-6c-3.5,0-5.7,2.7-5.8,2.9v12.4
		c0,0.4-0.2,0.6-0.6,0.6h-0.6c-0.3,0-0.5-0.3-0.5-0.6V550.9z"/>
	<path class="st0" d="M656.6,565.4l0.3-0.6c0.1-0.3,0.5-0.3,0.8-0.1c0.4,0.4,2.3,1.7,4.7,1.7c2.6,0,4.3-1.3,4.3-3.1c0-2-2.1-2.9-5-4
		c-3-1.1-5.1-2.3-5.1-5c0-1.9,1.6-4.4,5.5-4.4c2.3,0,4,0.8,4.8,1.3c0.3,0.2,0.4,0.5,0.2,0.8l-0.2,0.4c-0.1,0.3-0.4,0.3-0.7,0.1
		c-0.4-0.2-2.3-1.1-4.1-1.1c-2.7,0-3.8,1.5-3.8,2.8c0,1.7,1.7,2.6,4.2,3.6c3.2,1.2,5.8,2.1,5.8,5.4c0,2.6-2.4,4.6-5.9,4.6
		c-2.9,0-4.7-1.2-5.6-1.9C656.6,565.8,656.5,565.6,656.6,565.4z"/>
	<path class="st0" d="M674.6,575.7c0,0.3-0.3,0.6-0.6,0.6h-0.5c-0.3,0-0.6-0.3-0.6-0.6v-24.8c0-0.4,0.3-0.6,0.6-0.6h0.2
		c0.3,0,0.4,0.1,0.5,0.4l0.1,1.2c0.5-0.4,2.6-2,5.8-2c4.7,0,8.1,3.9,8.1,8.9c0,5-3.6,9-8.5,9c-2.8,0-4.7-1.4-5.2-1.8V575.7z
		 M679.8,566.3c4.1,0,6.9-3.3,6.9-7.4c0-4-2.6-7.3-6.5-7.3c-3.3,0-5.3,2-5.5,2.3v10.4C674.9,564.4,676.9,566.3,679.8,566.3z"/>
	<path class="st0" d="M692.7,544.2c0-0.8,0.7-1.4,1.5-1.4c0.8,0,1.4,0.6,1.4,1.4c0,0.8-0.6,1.4-1.4,1.4
		C693.4,545.6,692.7,545,692.7,544.2z M693.4,550.9c0-0.3,0.2-0.6,0.6-0.6h0.5c0.3,0,0.6,0.3,0.6,0.6v16c0,0.4-0.2,0.6-0.6,0.6h-0.6
		c-0.3,0-0.5-0.3-0.5-0.6V550.9z"/>
	<path class="st0" d="M701.3,550.9c0-0.3,0.2-0.6,0.6-0.6h0.3c0.3,0,0.4,0.1,0.5,0.5l0.2,1.7c0.4-0.6,2.3-2.6,5.4-2.6
		c1.4,0,2.3,0.4,2.7,0.5c0.4,0.1,0.6,0.4,0.4,0.8l-0.2,0.7c-0.1,0.3-0.4,0.4-0.7,0.2c-0.2-0.1-1.1-0.6-2.3-0.6
		c-3.3,0-5.1,2.7-5.2,2.9v12.4c0,0.4-0.2,0.6-0.6,0.6h-0.6c-0.3,0-0.5-0.3-0.5-0.6V550.9z"/>
	<path class="st0" d="M720.7,556.5c2,0,4,0.6,4.4,0.8c0-3.8-0.5-5.7-3.8-5.7c-2.8,0-4.8,1-5.1,1.1c-0.4,0.1-0.6,0-0.7-0.3l-0.2-0.5
		c-0.2-0.3,0-0.5,0.2-0.6c0.1-0.1,2.3-1.3,5.9-1.3c5.2,0,5.3,3,5.3,7.4v9.5c0,0.3-0.3,0.6-0.6,0.6h-0.3c-0.3,0-0.5-0.1-0.5-0.5
		l-0.2-1.6c-1.1,1.1-3.3,2.4-6,2.4c-3.2,0-5.6-2.1-5.6-5.7C713.6,558.9,716.2,556.5,720.7,556.5z M719.3,566.3c2.6,0,5-1.6,5.8-2.6
		v-4.9c-0.6-0.3-2.4-0.9-4.4-0.9c-3.3,0-5.5,1.8-5.5,4.3C715.2,564.6,717,566.3,719.3,566.3z"/>
	<path class="st0" d="M732.8,550.9c0-0.3,0.2-0.6,0.6-0.6h0.3c0.3,0,0.4,0.1,0.5,0.5l0.2,1.7c0.4-0.6,2.3-2.6,5.4-2.6
		c1.4,0,2.3,0.4,2.7,0.5c0.4,0.1,0.6,0.4,0.4,0.8l-0.2,0.7c-0.1,0.3-0.4,0.4-0.7,0.2c-0.2-0.1-1.1-0.6-2.3-0.6
		c-3.3,0-5.1,2.7-5.2,2.9v12.4c0,0.4-0.2,0.6-0.6,0.6h-0.6c-0.3,0-0.5-0.3-0.5-0.6V550.9z"/>
	<path class="st0" d="M747.4,552h-2.1c-0.4,0-0.6-0.2-0.6-0.6v-0.6c0-0.3,0.2-0.4,0.6-0.4h2.1v-4.7c0-0.3,0.3-0.5,0.6-0.6l0.5,0
		c0.3,0,0.6,0.3,0.6,0.6v4.7h6c0.4,0,0.6,0.3,0.6,0.6v0.5c0,0.3-0.2,0.6-0.6,0.6h-6v11.2c0,2.2,0.4,3.1,2.3,3.1c1.9,0,3.4-1,3.9-1.4
		c0.4-0.2,0.6,0,0.7,0.1l0.3,0.5c0.1,0.3,0.1,0.5-0.1,0.7c-0.6,0.5-2.6,1.6-5,1.6c-3.2,0-3.7-2.1-3.7-4.6V552z"/>
	<path class="st0" d="M767.2,550c4.5,0,7.7,3.4,7.7,7.8c0,0.7,0,1.7-0.6,1.7h-13.7c0.1,3.8,3,6.8,6.6,6.8c2.4,0,4.2-1,5.3-1.7
		c0.4-0.2,0.6-0.3,0.7,0l0.4,0.6c0.1,0.1,0.1,0.4-0.2,0.7c-1,0.8-3.5,2-6.2,2c-5,0-8.3-4-8.3-9C758.9,554,762.2,550,767.2,550z
		 M773.2,557.9c0-3.4-2.2-6.3-6-6.3c-3.7,0-6.4,2.8-6.6,6.3H773.2z"/>
	<path class="st0" d="M780.5,564.8c0.9,0,1.6,0.6,1.6,1.6c0,0.9-0.7,1.6-1.6,1.6c-0.9,0-1.6-0.7-1.6-1.6
		C778.9,565.4,779.7,564.8,780.5,564.8z"/>
	<path class="st0" d="M788.5,564.8c0.9,0,1.6,0.6,1.6,1.6c0,0.9-0.7,1.6-1.6,1.6c-0.9,0-1.6-0.7-1.6-1.6
		C786.9,565.4,787.6,564.8,788.5,564.8z"/>
	<path class="st0" d="M796.5,564.8c0.9,0,1.6,0.6,1.6,1.6c0,0.9-0.7,1.6-1.6,1.6c-0.9,0-1.6-0.7-1.6-1.6
		C794.9,565.4,795.6,564.8,796.5,564.8z"/>
	<path class="st0" d="M811.6,564l0.3-0.4c0.3-0.3,0.5-0.4,0.8-0.1c0.4,0.3,3.1,2.8,6.8,2.8c3.4,0,6.2-1.8,6.2-5
		c0-3.3-2.7-4.8-7.2-6.3c-4.3-1.5-7.1-3-7.1-7.3c0-2.8,2.2-6.5,8-6.5c3.7,0,6.4,1.9,6.4,1.9c0.1,0.1,0.4,0.4,0.1,0.8l-0.3,0.5
		c-0.2,0.3-0.4,0.4-0.8,0.2c-0.1-0.1-2.6-1.7-5.4-1.7c-4.6,0-6.3,2.8-6.3,4.9c0,3.1,2.4,4.5,6.1,5.7c5.1,1.7,8.3,3.5,8.3,7.8
		c0,4.1-3.8,6.6-8.1,6.6c-4.4,0-7.4-2.6-7.8-3C811.5,564.6,811.3,564.4,811.6,564z"/>
	<path class="st0" d="M839.8,550c4.8,0,8.6,4,8.6,8.9c0,5-3.8,9-8.6,9c-4.9,0-8.6-4-8.6-9C831.2,554,834.9,550,839.8,550z
		 M839.8,566.3c3.8,0,6.8-3.3,6.8-7.4c0-4-3-7.3-6.8-7.3c-3.9,0-7,3.3-7,7.3C832.9,563,835.9,566.3,839.8,566.3z M836.4,546.7
		l-0.2-0.5c-0.1-0.3,0-0.4,0.2-0.5l6.1-3.2c0.2-0.1,0.5-0.1,0.6,0.1l0.4,0.7c0.1,0.3,0,0.5-0.3,0.7l-6.3,2.8
		C836.6,547,836.5,546.9,836.4,546.7z"/>
	<path class="st0" d="M853.7,542.1c0-0.3,0.2-0.6,0.6-0.6h0.5c0.3,0,0.6,0.3,0.6,0.6v24.8c0,0.4-0.2,0.6-0.6,0.6h-0.6
		c-0.3,0-0.5-0.3-0.5-0.6V542.1z"/>
	<path class="st0" d="M869.1,550c4.8,0,8.6,4,8.6,8.9c0,5-3.8,9-8.6,9c-4.9,0-8.6-4-8.6-9C860.5,554,864.2,550,869.1,550z
		 M869.1,566.3c3.8,0,6.8-3.3,6.8-7.4c0-4-3-7.3-6.8-7.3c-3.9,0-7,3.3-7,7.3C862.2,563,865.2,566.3,869.1,566.3z"/>
	<path class="st0" d="M892.4,552h-2.1c-0.4,0-0.6-0.2-0.6-0.6v-0.6c0-0.3,0.2-0.4,0.6-0.4h2.1v-4.7c0-0.3,0.3-0.5,0.6-0.6l0.5,0
		c0.3,0,0.6,0.3,0.6,0.6v4.7h6c0.4,0,0.6,0.3,0.6,0.6v0.5c0,0.3-0.2,0.6-0.6,0.6h-6v11.2c0,2.2,0.4,3.1,2.3,3.1c1.9,0,3.4-1,3.9-1.4
		c0.4-0.2,0.6,0,0.7,0.1l0.3,0.5c0.1,0.3,0.1,0.5-0.1,0.7c-0.6,0.5-2.6,1.6-5,1.6c-3.2,0-3.7-2.1-3.7-4.6V552z"/>
	<path class="st0" d="M910.7,556.5c2,0,4,0.6,4.4,0.8c0-3.8-0.5-5.7-3.8-5.7c-2.8,0-4.8,1-5.1,1.1c-0.4,0.1-0.6,0-0.7-0.3l-0.2-0.5
		c-0.2-0.3,0-0.5,0.2-0.6c0.1-0.1,2.3-1.3,5.9-1.3c5.2,0,5.3,3,5.3,7.4v9.5c0,0.3-0.3,0.6-0.6,0.6h-0.3c-0.3,0-0.5-0.1-0.5-0.5
		l-0.2-1.6c-1.1,1.1-3.3,2.4-6,2.4c-3.2,0-5.6-2.1-5.6-5.7C903.6,558.9,906.2,556.5,910.7,556.5z M909.3,566.3c2.6,0,5-1.6,5.8-2.6
		v-4.9c-0.6-0.3-2.4-0.9-4.4-0.9c-3.3,0-5.5,1.8-5.5,4.3C905.2,564.6,906.9,566.3,909.3,566.3z"/>
	<path class="st0" d="M922.8,550.9c0-0.3,0.2-0.6,0.6-0.6h0.3c0.3,0,0.4,0.1,0.5,0.5l0.2,1.7c0.4-0.6,2.3-2.6,5.4-2.6
		c1.4,0,2.3,0.4,2.7,0.5c0.4,0.1,0.6,0.4,0.4,0.8l-0.2,0.7c-0.1,0.3-0.4,0.4-0.7,0.2c-0.2-0.1-1.1-0.6-2.3-0.6
		c-3.3,0-5.1,2.7-5.2,2.9v12.4c0,0.4-0.2,0.6-0.6,0.6h-0.6c-0.3,0-0.5-0.3-0.5-0.6V550.9z"/>
	<path class="st0" d="M943.7,550c3.3,0,5.4,1.7,5.4,1.7v-9.5c0-0.3,0.2-0.6,0.6-0.6h0.6c0.2,0,0.5,0.3,0.5,0.6v24.8
		c0,0.3-0.3,0.6-0.6,0.6H950c-0.3,0-0.6-0.1-0.6-0.6l-0.1-1.5c-0.5,0.6-2.7,2.5-6,2.5c-4.4,0-7.8-4-7.8-9
		C935.5,554,938.9,550,943.7,550z M943.3,566.3c3.7,0,5.7-2.7,5.8-2.9v-9.9c0,0-2.1-1.9-5.2-1.9c-3.9,0-6.8,3.3-6.8,7.3
		C937.1,562.9,939.8,566.3,943.3,566.3z"/>
	<path class="st0" d="M962.6,556.5c2,0,4,0.6,4.4,0.8c0-3.8-0.5-5.7-3.8-5.7c-2.8,0-4.8,1-5.1,1.1c-0.4,0.1-0.6,0-0.7-0.3l-0.2-0.5
		c-0.2-0.3,0-0.5,0.2-0.6c0.1-0.1,2.3-1.3,5.9-1.3c5.2,0,5.3,3,5.3,7.4v9.5c0,0.3-0.3,0.6-0.6,0.6h-0.3c-0.3,0-0.5-0.1-0.5-0.5
		l-0.2-1.6c-1.1,1.1-3.3,2.4-6,2.4c-3.2,0-5.6-2.1-5.6-5.7C955.5,558.9,958.1,556.5,962.6,556.5z M961.2,566.3c2.6,0,5-1.6,5.8-2.6
		v-4.9c-0.6-0.3-2.4-0.9-4.4-0.9c-3.3,0-5.5,1.8-5.5,4.3C957.1,564.6,958.8,566.3,961.2,566.3z"/>
	<path class="st0" d="M974.7,550.9c0-0.3,0.2-0.6,0.6-0.6h0.3c0.3,0,0.4,0.1,0.5,0.5l0.2,1.7c0.4-0.6,2.3-2.6,5.4-2.6
		c1.4,0,2.3,0.4,2.7,0.5c0.4,0.1,0.6,0.4,0.4,0.8l-0.2,0.7c-0.1,0.3-0.4,0.4-0.7,0.2c-0.2-0.1-1.1-0.6-2.3-0.6
		c-3.3,0-5.1,2.7-5.2,2.9v12.4c0,0.4-0.2,0.6-0.6,0.6h-0.6c-0.3,0-0.5-0.3-0.5-0.6V550.9z"/>
	<path class="st0" d="M995.6,550c4.5,0,7.7,3.4,7.7,7.8c0,0.7,0,1.7-0.6,1.7H989c0.1,3.8,3,6.8,6.6,6.8c2.4,0,4.2-1,5.3-1.7
		c0.4-0.2,0.6-0.3,0.7,0l0.4,0.6c0.1,0.1,0.1,0.4-0.2,0.7c-1,0.8-3.5,2-6.2,2c-5,0-8.3-4-8.3-9C987.4,554,990.6,550,995.6,550z
		 M1001.7,557.9c0-3.4-2.2-6.3-6-6.3c-3.7,0-6.4,2.8-6.6,6.3H1001.7z"/>
	<path class="st0" d="M1008.1,550.9c0-0.3,0.2-0.6,0.6-0.6h0.3c0.3,0,0.4,0.1,0.4,0.4l0.2,1.8c0.5-0.6,2.2-2.6,5.7-2.6
		c2.6,0,4.1,1.1,5.3,3c0.5-0.7,2.5-3,6-3c4.7,0,6.2,3.1,6.2,7.5v9.4c0,0.3-0.2,0.6-0.6,0.6h-0.6c-0.3,0-0.4-0.2-0.4-0.6v-9.4
		c0-4-1.5-6-4.7-6c-3.2,0-4.7,2.3-5.3,3c0.3,0.9,0.3,1.8,0.3,3v9.4c0,0.3-0.3,0.6-0.6,0.6h-0.6c-0.3,0-0.5-0.2-0.5-0.6v-9.4
		c0-4-1.5-6-4.7-6c-3.5,0-5.1,2.6-5.3,2.9v12.4c0,0.4-0.2,0.6-0.6,0.6h-0.6c-0.3,0-0.5-0.3-0.5-0.6V550.9z"/>
	<path class="st0" d="M1046.1,550c4.8,0,8.6,4,8.6,8.9c0,5-3.8,9-8.6,9c-4.9,0-8.6-4-8.6-9C1037.5,554,1041.2,550,1046.1,550z
		 M1046.1,566.3c3.8,0,6.8-3.3,6.8-7.4c0-4-3-7.3-6.8-7.3c-3.9,0-7,3.3-7,7.3C1039.2,563,1042.2,566.3,1046.1,566.3z"/>
	<path class="st0" d="M1058.7,565.4l0.3-0.6c0.1-0.3,0.5-0.3,0.8-0.1c0.4,0.4,2.3,1.7,4.7,1.7c2.6,0,4.3-1.3,4.3-3.1
		c0-2-2.1-2.9-5-4c-3-1.1-5.1-2.3-5.1-5c0-1.9,1.6-4.4,5.5-4.4c2.3,0,4,0.8,4.8,1.3c0.3,0.2,0.4,0.5,0.2,0.8l-0.2,0.4
		c-0.1,0.3-0.4,0.3-0.7,0.1c-0.4-0.2-2.3-1.1-4.1-1.1c-2.7,0-3.8,1.5-3.8,2.8c0,1.7,1.7,2.6,4.2,3.6c3.2,1.2,5.8,2.1,5.8,5.4
		c0,2.6-2.4,4.6-5.9,4.6c-2.9,0-4.7-1.2-5.6-1.9C1058.7,565.8,1058.5,565.6,1058.7,565.4z"/>
	<path class="st0" d="M1083.8,550.9c0-0.3,0.3-0.6,0.6-0.6h0.6c0.3,0,0.5,0.3,0.5,0.6v9.6c0,4,1.3,5.8,4.8,5.8
		c3.2,0,4.9-2.4,5.4-3.2v-12.2c0-0.4,0.2-0.6,0.6-0.6h0.6c0.3,0,0.5,0.3,0.5,0.6v16c0,0.3-0.3,0.6-0.5,0.6h-0.3
		c-0.3,0-0.5-0.3-0.5-0.5l-0.1-1.7c-0.4,0.6-2.3,2.6-5.6,2.6c-4.8,0-6.4-2.6-6.4-7.4V550.9z"/>
	<path class="st0" d="M1103.5,550.9c0-0.3,0.2-0.6,0.6-0.6h0.2c0.3,0,0.5,0.1,0.5,0.4l0.2,1.8c0.6-0.6,2.6-2.6,6-2.6
		c4.8,0,6.4,3,6.4,7.5v9.4c0,0.3-0.3,0.6-0.6,0.6h-0.5c-0.3,0-0.6-0.3-0.6-0.6v-9.4c0-4-1.6-6-4.9-6c-3.5,0-5.7,2.7-5.8,2.9v12.4
		c0,0.4-0.2,0.6-0.6,0.6h-0.6c-0.3,0-0.5-0.3-0.5-0.6V550.9z"/>
	<path class="st0" d="M1130.9,550c4.8,0,8.6,4,8.6,8.9c0,5-3.8,9-8.6,9c-4.9,0-8.6-4-8.6-9C1122.3,554,1126,550,1130.9,550z
		 M1130.9,566.3c3.8,0,6.8-3.3,6.8-7.4c0-4-3-7.3-6.8-7.3c-3.9,0-7,3.3-7,7.3C1123.9,563,1127,566.3,1130.9,566.3z"/>
	<path class="st0" d="M1143.4,565.4l0.3-0.6c0.1-0.3,0.5-0.3,0.8-0.1c0.4,0.4,2.3,1.7,4.7,1.7c2.6,0,4.3-1.3,4.3-3.1
		c0-2-2.1-2.9-5-4c-3-1.1-5.1-2.3-5.1-5c0-1.9,1.6-4.4,5.5-4.4c2.3,0,4,0.8,4.8,1.3c0.3,0.2,0.4,0.5,0.2,0.8l-0.2,0.4
		c-0.1,0.3-0.4,0.3-0.7,0.1c-0.4-0.2-2.3-1.1-4.1-1.1c-2.7,0-3.8,1.5-3.8,2.8c0,1.7,1.7,2.6,4.2,3.6c3.2,1.2,5.8,2.1,5.8,5.4
		c0,2.6-2.4,4.6-5.9,4.6c-2.9,0-4.7-1.2-5.6-1.9C1143.4,565.8,1143.2,565.6,1143.4,565.4z"/>
	<path class="st0" d="M1168.7,550.9c0-0.3,0.2-0.6,0.6-0.6h0.3c0.3,0,0.4,0.1,0.4,0.4l0.2,1.8c0.5-0.6,2.2-2.6,5.7-2.6
		c2.6,0,4.1,1.1,5.3,3c0.5-0.7,2.5-3,6-3c4.7,0,6.2,3.1,6.2,7.5v9.4c0,0.3-0.2,0.6-0.6,0.6h-0.6c-0.3,0-0.4-0.2-0.4-0.6v-9.4
		c0-4-1.5-6-4.7-6c-3.2,0-4.7,2.3-5.3,3c0.3,0.9,0.3,1.8,0.3,3v9.4c0,0.3-0.3,0.6-0.6,0.6h-0.6c-0.3,0-0.5-0.2-0.5-0.6v-9.4
		c0-4-1.5-6-4.7-6c-3.5,0-5.1,2.6-5.3,2.9v12.4c0,0.4-0.2,0.6-0.6,0.6h-0.6c-0.3,0-0.5-0.3-0.5-0.6V550.9z"/>
	<path class="st0" d="M1198.6,544.2c0-0.8,0.7-1.4,1.5-1.4c0.8,0,1.4,0.6,1.4,1.4c0,0.8-0.6,1.4-1.4,1.4
		C1199.3,545.6,1198.6,545,1198.6,544.2z M1199.3,550.9c0-0.3,0.2-0.6,0.6-0.6h0.5c0.3,0,0.6,0.3,0.6,0.6v16c0,0.4-0.2,0.6-0.6,0.6
		h-0.6c-0.3,0-0.5-0.3-0.5-0.6V550.9z"/>
	<path class="st0" d="M1207.1,550.9c0-0.3,0.2-0.6,0.6-0.6h0.2c0.3,0,0.5,0.1,0.5,0.4l0.2,1.8c0.6-0.6,2.6-2.6,6-2.6
		c4.8,0,6.4,3,6.4,7.5v9.4c0,0.3-0.3,0.6-0.6,0.6h-0.5c-0.3,0-0.6-0.3-0.6-0.6v-9.4c0-4-1.6-6-4.9-6c-3.5,0-5.7,2.7-5.8,2.9v12.4
		c0,0.4-0.2,0.6-0.6,0.6h-0.6c-0.3,0-0.5-0.3-0.5-0.6V550.9z"/>
	<path class="st0" d="M1226.9,550.9c0-0.3,0.3-0.6,0.6-0.6h0.6c0.3,0,0.5,0.3,0.5,0.6v9.6c0,4,1.3,5.8,4.8,5.8
		c3.2,0,4.9-2.4,5.4-3.2v-12.2c0-0.4,0.2-0.6,0.6-0.6h0.6c0.3,0,0.5,0.3,0.5,0.6v16c0,0.3-0.3,0.6-0.5,0.6h-0.3
		c-0.3,0-0.5-0.3-0.5-0.5l-0.1-1.7c-0.4,0.6-2.3,2.6-5.6,2.6c-4.8,0-6.4-2.6-6.4-7.4V550.9z"/>
	<path class="st0" d="M1247.4,552h-2.1c-0.4,0-0.6-0.2-0.6-0.6v-0.6c0-0.3,0.2-0.4,0.6-0.4h2.1v-4.7c0-0.3,0.3-0.5,0.6-0.6l0.5,0
		c0.3,0,0.6,0.3,0.6,0.6v4.7h6c0.4,0,0.6,0.3,0.6,0.6v0.5c0,0.3-0.2,0.6-0.6,0.6h-6v11.2c0,2.2,0.4,3.1,2.3,3.1c1.9,0,3.4-1,3.9-1.4
		c0.4-0.2,0.6,0,0.7,0.1l0.3,0.5c0.1,0.3,0.1,0.5-0.1,0.7c-0.6,0.5-2.6,1.6-5,1.6c-3.2,0-3.7-2.1-3.7-4.6V552z"/>
	<path class="st0" d="M1267.5,550c4.8,0,8.6,4,8.6,8.9c0,5-3.8,9-8.6,9c-4.9,0-8.6-4-8.6-9C1258.9,554,1262.6,550,1267.5,550z
		 M1267.5,566.3c3.8,0,6.8-3.3,6.8-7.4c0-4-3-7.3-6.8-7.3c-3.9,0-7,3.3-7,7.3C1260.5,563,1263.6,566.3,1267.5,566.3z"/>
	<path class="st0" d="M1280,565.4l0.3-0.6c0.1-0.3,0.5-0.3,0.8-0.1c0.4,0.4,2.3,1.7,4.7,1.7c2.6,0,4.3-1.3,4.3-3.1c0-2-2.1-2.9-5-4
		c-3-1.1-5.1-2.3-5.1-5c0-1.9,1.6-4.4,5.5-4.4c2.3,0,4,0.8,4.8,1.3c0.3,0.2,0.4,0.5,0.2,0.8l-0.2,0.4c-0.1,0.3-0.4,0.3-0.7,0.1
		c-0.4-0.2-2.3-1.1-4.1-1.1c-2.7,0-3.8,1.5-3.8,2.8c0,1.7,1.7,2.6,4.2,3.6c3.2,1.2,5.8,2.1,5.8,5.4c0,2.6-2.4,4.6-5.9,4.6
		c-2.9,0-4.7-1.2-5.6-1.9C1280,565.8,1279.9,565.6,1280,565.4z"/>
	<path class="st0" d="M1297.3,564.8c0.9,0,1.6,0.6,1.6,1.6c0,0.9-0.7,1.6-1.6,1.6c-0.9,0-1.6-0.7-1.6-1.6
		C1295.7,565.4,1296.4,564.8,1297.3,564.8z"/>
</g>
<g>
</g>
<g>
	<g>
		<path class="st0" d="M326.9,357.1c0-0.6,0.4-1.1,1.1-1.1h1c0.5,0,1.1,0.5,1.1,1.1v48.2c0,0.7-0.4,1.1-1.1,1.1h-1.2
			c-0.6,0-0.9-0.5-0.9-1.1V357.1z"/>
		<path class="st0" d="M353.5,385c3.8,0,7.7,1.2,8.6,1.5c0-7.3-0.9-11.1-7.5-11.1c-5.5,0-9.3,2-9.9,2.2c-0.7,0.3-1.2,0-1.3-0.5
			l-0.4-1c-0.4-0.6,0.1-1,0.4-1.2c0.2-0.1,4.5-2.4,11.4-2.4c10.1,0,10.4,5.9,10.4,14.5v18.4c0,0.6-0.6,1.1-1.2,1.1h-0.6
			c-0.6,0-0.9-0.3-1-0.9l-0.4-3c-2.1,2.1-6.4,4.8-11.7,4.8c-6.2,0-10.8-4.2-10.8-11C339.7,389.8,344.8,385,353.5,385z M350.8,404.1
			c5,0,9.6-3,11.2-5v-9.6c-1.1-0.5-4.6-1.7-8.6-1.7c-6.3,0-10.7,3.5-10.7,8.4C342.8,400.9,346.2,404.1,350.8,404.1z"/>
		<path class="st0" d="M375,402.3l0.6-1.2c0.3-0.5,0.9-0.6,1.5-0.1c0.9,0.7,4.4,3.2,9.1,3.2c5,0,8.3-2.4,8.3-6c0-3.8-4-5.6-9.6-7.7
			c-5.8-2.1-9.9-4.4-9.9-9.6c0-3.6,3-8.5,10.7-8.5c4.4,0,7.7,1.5,9.4,2.5c0.5,0.4,0.7,0.9,0.4,1.5l-0.4,0.8
			c-0.3,0.6-0.9,0.6-1.4,0.3c-0.8-0.4-4.4-2.2-7.9-2.2c-5.3,0-7.5,3-7.5,5.5c0,3.3,3.3,5.1,8.2,6.9c6.2,2.3,11.4,4.2,11.4,10.5
			c0,5-4.8,8.9-11.4,8.9c-5.6,0-9.1-2.3-10.9-3.7C375,403.2,374.7,402.8,375,402.3z"/>
		<path class="st0" d="M448.5,403.7c-0.9,0.8-4.5,3.5-10.1,3.5c-9.6,0-16.6-7.7-16.6-17.5c0-9.7,6.6-17.3,15.8-17.3
			c6.1,0,10.2,3.1,11.2,3.9l0.3-2.3c0.1-0.6,0.4-0.9,0.9-0.9h0.4c0.6,0,1.2,0.4,1.2,1.1v33.1c0,9.6-6.4,14.9-14.8,14.9
			c-5.5,0-9.8-3-11.2-4.3c-0.5-0.5-0.4-0.8-0.1-1.2l0.7-0.9c0.4-0.5,0.8-0.5,1.4,0c1.3,1.1,5,3.4,9.2,3.4c6.6,0,11.6-4,11.6-11.8
			V403.7z M448.5,379.9c-0.4-0.6-4.3-4.4-10.7-4.4c-7.6,0-12.7,6.4-12.7,14.1c0,8.1,5.4,14.5,13.5,14.5c5.6,0,9.6-3.6,10-4V379.9z"
			/>
		<path class="st0" d="M463.8,374.2c0-0.6,0.4-1.1,1.1-1.1h0.5c0.5,0,0.9,0.3,0.9,0.9l0.4,3.4c0.9-1.2,4.4-5,10.6-5
			c2.7,0,4.5,0.7,5.2,0.9c0.7,0.2,1.1,0.9,0.9,1.5l-0.4,1.3c-0.2,0.6-0.8,0.7-1.4,0.4c-0.4-0.2-2.2-1.1-4.5-1.1
			c-6.5,0-9.9,5.2-10.1,5.7v24.1c0,0.7-0.4,1.1-1.1,1.1h-1.2c-0.6,0-0.9-0.5-0.9-1.1V374.2z"/>
		<path class="st0" d="M501.7,385c3.8,0,7.7,1.2,8.6,1.5c0-7.3-0.9-11.1-7.5-11.1c-5.5,0-9.3,2-9.9,2.2c-0.7,0.3-1.2,0-1.3-0.5
			l-0.4-1c-0.4-0.6,0.1-1,0.4-1.2c0.2-0.1,4.5-2.4,11.4-2.4c10.1,0,10.4,5.9,10.4,14.5v18.4c0,0.6-0.6,1.1-1.2,1.1h-0.6
			c-0.6,0-0.9-0.3-1-0.9l-0.4-3c-2.1,2.1-6.4,4.8-11.7,4.8c-6.2,0-10.8-4.2-10.8-11C487.8,389.8,493,385,501.7,385z M499,404.1
			c5,0,9.6-3,11.2-5v-9.6c-1.1-0.5-4.6-1.7-8.6-1.7c-6.3,0-10.7,3.5-10.7,8.4C490.9,400.9,494.4,404.1,499,404.1z"/>
		<path class="st0" d="M525.2,374.2c0-0.6,0.4-1.1,1.2-1.1h0.4c0.6,0,0.9,0.3,1,0.9l0.4,3.5c1.1-1.2,5.1-5.1,11.7-5.1
			c9.4,0,12.5,5.8,12.5,14.5v18.4c0,0.6-0.5,1.1-1.1,1.1h-1c-0.6,0-1.1-0.5-1.1-1.1v-18.2c0-7.7-3.1-11.6-9.5-11.6
			c-6.8,0-11,5.3-11.3,5.7v24.1c0,0.7-0.4,1.1-1.1,1.1h-1.2c-0.6,0-0.9-0.5-0.9-1.1V374.2z"/>
		<path class="st0" d="M577.9,372.4c6.4,0,10.5,3.2,10.5,3.2v-18.6c0-0.6,0.4-1.1,1.1-1.1h1.1c0.4,0,1,0.5,1,1.1v48.2
			c0,0.6-0.6,1.1-1.1,1.1h-0.4c-0.6,0-1.1-0.3-1.2-1.1l-0.2-3c-0.9,1.2-5.3,4.8-11.7,4.8c-8.6,0-15.1-7.7-15.1-17.4
			C561.9,380.2,568.5,372.4,577.9,372.4z M577.2,404.1c7.3,0,11.1-5.3,11.2-5.6v-19.2c0,0-4-3.7-10.1-3.7c-7.6,0-13.3,6.4-13.3,14.3
			C565,397.5,570.2,404.1,577.2,404.1z"/>
		<path class="st0" d="M617.5,372.4c8.8,0,14.9,6.6,14.9,15.1c0,1.3,0,3.2-1.2,3.2h-26.6c0.1,7.4,5.8,13.3,12.9,13.3
			c4.7,0,8.2-1.9,10.2-3.3c0.7-0.4,1.1-0.5,1.4,0l0.8,1.2c0.3,0.3,0.2,0.9-0.4,1.3c-1.9,1.6-6.8,3.9-12.1,3.9
			c-9.8,0-16.1-7.8-16.1-17.5C601.5,380.3,607.7,372.4,617.5,372.4z M629.3,387.8c0-6.6-4.2-12.3-11.7-12.3
			c-7.2,0-12.4,5.4-12.8,12.3H629.3z"/>
		<path class="st0" d="M639.7,402.3l0.6-1.2c0.3-0.5,0.9-0.6,1.5-0.1c0.9,0.7,4.4,3.2,9.1,3.2c5,0,8.3-2.4,8.3-6
			c0-3.8-4-5.6-9.6-7.7c-5.8-2.1-9.9-4.4-9.9-9.6c0-3.6,3-8.5,10.7-8.5c4.4,0,7.7,1.5,9.4,2.5c0.5,0.4,0.7,0.9,0.4,1.5l-0.4,0.8
			c-0.3,0.6-0.9,0.6-1.4,0.3c-0.8-0.4-4.4-2.2-7.9-2.2c-5.3,0-7.5,3-7.5,5.5c0,3.3,3.3,5.1,8.2,6.9c6.2,2.3,11.4,4.2,11.4,10.5
			c0,5-4.8,8.9-11.4,8.9c-5.6,0-9.1-2.3-10.9-3.7C639.7,403.2,639.4,402.8,639.7,402.3z"/>
		<path class="st0" d="M686.1,361.7c0-3.2,2.4-5.7,5.7-5.7s5.8,2.5,5.8,5.7s-2.5,5.8-5.8,5.8S686.1,364.9,686.1,361.7z M687.4,374.7
			c0-0.9,0.8-1.6,1.6-1.6h5.8c0.8,0,1.6,0.6,1.6,1.6v30.1c0,0.9-0.8,1.6-1.6,1.6H689c-0.8,0-1.6-0.7-1.6-1.6V374.7z"/>
		<path class="st0" d="M720.1,372.4c3.3,0,6.5,0.8,8,1.4v-16.2c0-0.8,0.8-1.6,1.6-1.6h5.8c0.9,0,1.6,0.8,1.6,1.6v47.2
			c0,0.9-0.7,1.6-1.6,1.6h-2.7c-0.8,0-1.3-0.6-1.6-1.6l-0.9-2.6c0,0-3.8,5-10.9,5c-9.1,0-15.9-7.3-15.9-17.4
			C703.6,380.1,710.2,372.4,720.1,372.4z M728.1,382.5c0,0-2.7-1.9-6.9-1.9c-5.5,0-8.3,4.5-8.3,9.1c0,4.7,2.7,9.2,7.8,9.2
			c4.3,0,6.6-2.7,7.3-4.6V382.5z"/>
		<path class="st0" d="M761.1,372.4c8.6,0,15.3,6.4,15.3,15.4c0,0.5-0.1,1.7-0.1,2.2c-0.1,0.9-0.9,1.5-1.6,1.5h-21.3
			c0.1,4.1,3.5,7.7,8.3,7.7c3.3,0,5.6-1.2,7.1-2.4c0.8-0.6,1.7-0.7,2.2,0l2.8,3.7c0.6,0.6,0.6,1.4-0.1,2.2c-2.9,2.4-7,4.5-12.4,4.5
			c-9.9,0-16.8-7.9-16.8-17.4C744.3,380.4,751.2,372.4,761.1,372.4z M767.3,385.6c-0.1-3.2-2.7-5.8-6.4-5.8c-4,0-6.6,2.4-7.1,5.8
			H767.3z"/>
		<path class="st0" d="M794.1,385.4c3.4,0,6.4,0.9,6.4,0.9c0.1-4.2-1.1-6.3-4.6-6.3c-3,0-7.4,0.6-9.4,1.2c-1.1,0.4-1.7-0.4-1.9-1.4
			l-0.7-3.7c-0.3-1.2,0.4-1.8,1.1-2c0.7-0.3,6-1.7,11.4-1.7c10.4,0,12.5,5.4,12.5,14.5v17.9c0,0.9-0.7,1.6-1.6,1.6h-2.4
			c-0.6,0-1-0.2-1.4-1.2l-0.9-2.2c-1.9,1.9-5.3,4.2-10.4,4.2c-6.6,0-11.2-4.2-11.2-11.4C780.8,389.9,785.6,385.4,794.1,385.4z
			 M794.3,400.5c3,0,5.5-2.3,6-3.5v-4.9c0,0-2.2-1-4.9-1c-3.8,0-5.9,1.8-5.9,4.8C789.5,398.6,791.2,400.5,794.3,400.5z"/>
		<path class="st0" d="M816.8,404.2c-0.4-0.3-0.8-1.1-0.4-1.8l2.2-4.3c0.4-0.8,1.2-1.1,1.9-0.6c1.5,0.9,3.9,2.2,7.3,2.2
			c2.5,0,3.7-0.9,3.7-2.4c0-1.5-1.9-2.9-6.3-4.6c-6.4-2.4-9.3-5.5-9.3-10.5s3.8-9.7,12-9.7c4.9,0,8.1,1.3,9.9,2.4
			c0.7,0.6,1.2,1.4,0.7,2.3l-1.9,3.8c-0.5,0.8-1.4,0.9-2.1,0.6c-1.6-0.7-3.9-1.7-6.6-1.7c-2.2,0-3.2,1.1-3.2,2.2
			c0,1.5,1.7,2.3,4.8,3.6c6.4,2.6,11,4.9,11,11.5c0,5.3-4.5,9.9-12.8,9.9C822.1,407.2,818.7,405.5,816.8,404.2z"/>
		<path class="st0" d="M867.8,376.2h-4c-0.9,0-1.1-0.4-1.1-1.1V374c0-0.6,0.4-0.9,1.1-0.9h4v-9.1c0-0.6,0.5-1,1.2-1.1l0.9-0.1
			c0.6-0.1,1.1,0.5,1.1,1.1v9.1h11.7c0.7,0,1.2,0.5,1.2,1.1v0.9c0,0.6-0.4,1.1-1.2,1.1H871V398c0,4.3,0.7,6.1,4.5,6.1
			c3.7,0,6.6-2,7.6-2.7c0.8-0.4,1.1-0.1,1.3,0.3l0.6,1c0.3,0.6,0.1,0.9-0.3,1.3c-1.2,0.9-5.1,3.2-9.6,3.2c-6.2,0-7.3-4.1-7.3-8.9
			V376.2z"/>
		<path class="st0" d="M906.8,372.4c9.3,0,16.7,7.8,16.7,17.3c0,9.7-7.4,17.5-16.7,17.5c-9.5,0-16.7-7.8-16.7-17.5
			C890.1,380.3,897.3,372.4,906.8,372.4z M906.8,404.1c7.4,0,13.3-6.4,13.3-14.4c0-7.8-5.9-14.2-13.3-14.2
			c-7.6,0-13.5,6.4-13.5,14.2C893.3,397.7,899.2,404.1,906.8,404.1z"/>
		<path class="st0" d="M933.3,374.2c0-0.6,0.4-1.1,1.1-1.1h0.6c0.5,0,0.7,0.3,0.8,0.9l0.4,3.5c0.9-1.2,4.3-5.1,11-5.1
			c5.1,0,8.1,2.2,10.3,5.9c1-1.3,4.8-5.9,11.7-5.9c9.1,0,12,6.1,12,14.7v18.2c0,0.6-0.4,1.1-1.1,1.1h-1.2c-0.5,0-0.9-0.4-0.9-1.1
			v-18.2c0-7.7-2.9-11.6-9.1-11.6c-6.2,0-9.2,4.5-10.3,5.8c0.5,1.7,0.6,3.5,0.6,5.8v18.2c0,0.6-0.6,1.1-1.1,1.1h-1.1
			c-0.6,0-1-0.4-1-1.1v-18.2c0-7.7-3-11.6-9.2-11.6c-6.8,0-10,5-10.4,5.7v24.1c0,0.7-0.4,1.1-1.1,1.1h-1.2c-0.6,0-0.9-0.5-0.9-1.1
			V374.2z"/>
		<path class="st0" d="M1003.9,385c3.8,0,7.7,1.2,8.6,1.5c0-7.3-0.9-11.1-7.5-11.1c-5.5,0-9.3,2-9.9,2.2c-0.7,0.3-1.2,0-1.3-0.5
			l-0.4-1c-0.4-0.6,0.1-1,0.4-1.2c0.2-0.1,4.5-2.4,11.4-2.4c10.1,0,10.4,5.9,10.4,14.5v18.4c0,0.6-0.6,1.1-1.2,1.1h-0.6
			c-0.6,0-0.9-0.3-1-0.9l-0.4-3c-2.1,2.1-6.4,4.8-11.7,4.8c-6.2,0-10.8-4.2-10.8-11C990,389.8,995.2,385,1003.9,385z M1001.2,404.1
			c5,0,9.6-3,11.2-5v-9.6c-1.1-0.5-4.6-1.7-8.6-1.7c-6.3,0-10.7,3.5-10.7,8.4C993.1,400.9,996.6,404.1,1001.2,404.1z"/>
		<path class="st0" d="M1027.4,374.2c0-0.6,0.4-1.1,1.2-1.1h0.4c0.6,0,0.9,0.3,1,0.9l0.4,3.5c1.1-1.2,5.1-5.1,11.7-5.1
			c9.4,0,12.5,5.8,12.5,14.5v18.4c0,0.6-0.5,1.1-1.1,1.1h-1c-0.6,0-1.1-0.5-1.1-1.1v-18.2c0-7.7-3.1-11.6-9.5-11.6
			c-6.8,0-11,5.3-11.3,5.7v24.1c0,0.7-0.4,1.1-1.1,1.1h-1.2c-0.6,0-0.9-0.5-0.9-1.1V374.2z"/>
		<path class="st0" d="M1085.1,376.2h-4c-0.9,0-1.1-0.4-1.1-1.1V374c0-0.6,0.4-0.9,1.1-0.9h4v-9.1c0-0.6,0.5-1,1.2-1.1l0.9-0.1
			c0.6-0.1,1.1,0.5,1.1,1.1v9.1h11.7c0.7,0,1.2,0.5,1.2,1.1v0.9c0,0.6-0.4,1.1-1.2,1.1h-11.7V398c0,4.3,0.7,6.1,4.5,6.1
			c3.7,0,6.6-2,7.6-2.7c0.8-0.4,1.1-0.1,1.3,0.3l0.6,1c0.3,0.6,0.1,0.9-0.3,1.3c-1.2,0.9-5.1,3.2-9.6,3.2c-6.2,0-7.3-4.1-7.3-8.9
			V376.2z"/>
		<path class="st0" d="M1108.3,361.2c0-1.6,1.3-2.8,2.9-2.8s2.8,1.2,2.8,2.8c0,1.5-1.2,2.7-2.8,2.7S1108.3,362.7,1108.3,361.2z
			 M1109.7,374.2c0-0.6,0.4-1.1,1.1-1.1h1c0.5,0,1.1,0.5,1.1,1.1v31.1c0,0.7-0.4,1.1-1.1,1.1h-1.2c-0.6,0-0.9-0.5-0.9-1.1V374.2z"/>
		<path class="st0" d="M1138.8,372.4c8.8,0,14.9,6.6,14.9,15.1c0,1.3,0,3.2-1.2,3.2h-26.6c0.1,7.4,5.8,13.3,12.9,13.3
			c4.7,0,8.2-1.9,10.2-3.3c0.7-0.4,1.1-0.5,1.4,0l0.8,1.2c0.3,0.3,0.2,0.9-0.4,1.3c-1.9,1.6-6.8,3.9-12.1,3.9
			c-9.8,0-16.1-7.8-16.1-17.5C1122.7,380.3,1129,372.4,1138.8,372.4z M1150.5,387.8c0-6.6-4.2-12.3-11.7-12.3
			c-7.2,0-12.4,5.4-12.8,12.3H1150.5z"/>
		<path class="st0" d="M1163.1,374.2c0-0.6,0.4-1.1,1.1-1.1h0.6c0.5,0,0.7,0.3,0.8,0.9l0.4,3.5c0.9-1.2,4.3-5.1,11-5.1
			c5.1,0,8.1,2.2,10.3,5.9c1-1.3,4.8-5.9,11.7-5.9c9.1,0,12,6.1,12,14.7v18.2c0,0.6-0.4,1.1-1.1,1.1h-1.2c-0.5,0-0.9-0.4-0.9-1.1
			v-18.2c0-7.7-2.9-11.6-9.1-11.6c-6.2,0-9.2,4.5-10.3,5.8c0.5,1.7,0.6,3.5,0.6,5.8v18.2c0,0.6-0.6,1.1-1.1,1.1h-1.1
			c-0.6,0-1-0.4-1-1.1v-18.2c0-7.7-3-11.6-9.2-11.6c-6.8,0-10,5-10.4,5.7v24.1c0,0.7-0.4,1.1-1.1,1.1h-1.2c-0.6,0-0.9-0.5-0.9-1.1
			V374.2z"/>
		<path class="st0" d="M1225.8,422.5c0,0.6-0.6,1.1-1.2,1.1h-0.9c-0.6,0-1.1-0.5-1.1-1.1v-48.2c0-0.7,0.6-1.1,1.2-1.1h0.4
			c0.6,0,0.9,0.2,0.9,0.9l0.3,2.3c1-0.8,5.1-3.9,11.2-3.9c9.2,0,15.8,7.6,15.8,17.3c0,9.8-6.9,17.5-16.6,17.5
			c-5.5,0-9.1-2.7-10.1-3.5V422.5z M1235.8,404.1c8.1,0,13.5-6.3,13.5-14.5c0-7.7-5.1-14.1-12.7-14.1c-6.4,0-10.3,3.8-10.7,4.4v20.2
			C1226.3,400.5,1230.2,404.1,1235.8,404.1z"/>
		<path class="st0" d="M1276.7,372.4c9.3,0,16.7,7.8,16.7,17.3c0,9.7-7.4,17.5-16.7,17.5c-9.5,0-16.7-7.8-16.7-17.5
			C1260,380.3,1267.2,372.4,1276.7,372.4z M1276.7,404.1c7.4,0,13.3-6.4,13.3-14.4c0-7.8-5.9-14.2-13.3-14.2
			c-7.6,0-13.5,6.4-13.5,14.2C1263.2,397.7,1269.2,404.1,1276.7,404.1z"/>
		<path class="st0" d="M1305,401.2c1.7,0,3,1.2,3,3c0,1.7-1.3,3-3,3c-1.7,0-3.1-1.4-3.1-3C1301.9,402.4,1303.2,401.2,1305,401.2z"/>
		<path class="st0" d="M1320.4,401.2c1.7,0,3,1.2,3,3c0,1.7-1.3,3-3,3c-1.7,0-3.1-1.4-3.1-3C1317.3,402.4,1318.7,401.2,1320.4,401.2
			z"/>
		<path class="st0" d="M1335.9,401.2c1.7,0,3,1.2,3,3c0,1.7-1.3,3-3,3c-1.7,0-3.1-1.4-3.1-3C1332.8,402.4,1334.2,401.2,1335.9,401.2
			z"/>
	</g>
</g>
<g>
	<g>
		<g>
			<path class="st0" d="M755.6,203h-2.5c-0.7,0-1.2-0.6-1.2-1.2v-3.7c0-0.7,0.5-1.2,1.2-1.2h2.5v-7c0-0.7,0.6-1.2,1.2-1.2h4.5
				c0.7,0,1.2,0.5,1.2,1.2v7h5.9c0.7,0,1.2,0.5,1.2,1.2v3.7c0,0.6-0.5,1.2-1.2,1.2h-5.9v11.4c0,1.7,0.8,2.1,2.1,2.1
				c1.1,0,3.2-0.6,3.8-0.8c0.7-0.3,1.3,0.1,1.4,0.7l0.7,3.3c0.2,0.7-0.1,1.2-0.7,1.5c-0.9,0.5-4.5,1.6-7.1,1.6
				c-5.7,0-7.1-3.8-7.1-8.2V203z"/>
			<path class="st0" d="M775.3,185c0-0.6,0.6-1.2,1.2-1.2h4.4c0.7,0,1.2,0.6,1.2,1.2v13.4c1.3-1.1,3.5-2.1,6.5-2.1
				c8.1,0,10.3,5.6,10.3,12V221c0,0.7-0.6,1.2-1.2,1.2h-4.4c-0.7,0-1.2-0.5-1.2-1.2v-12.8c0-3.5-1.6-5.7-4.6-5.7
				c-3,0-4.6,1.9-5.3,4.4v14c0,0.7-0.3,1.2-1.3,1.2h-4.3c-0.6,0-1.2-0.5-1.2-1.2V185z"/>
			<path class="st0" d="M816.8,196.3c6.6,0,11.6,4.9,11.6,11.7c0,0.4-0.1,1.3-0.1,1.6c-0.1,0.7-0.7,1.2-1.2,1.2h-16.2
				c0.1,3.1,2.6,5.9,6.3,5.9c2.5,0,4.3-0.9,5.4-1.9c0.6-0.5,1.3-0.5,1.6,0l2.1,2.9c0.4,0.5,0.5,1.1-0.1,1.6
				c-2.2,1.9-5.3,3.5-9.4,3.5c-7.6,0-12.8-6-12.8-13.3C804,202.4,809.3,196.3,816.8,196.3z M821.5,206.4c-0.1-2.5-2.1-4.4-4.9-4.4
				c-3.1,0-5,1.9-5.4,4.4H821.5z"/>
			<path class="st0" d="M832.8,220.5c-0.3-0.2-0.6-0.8-0.3-1.4l1.6-3.3c0.3-0.6,0.9-0.8,1.5-0.4c1.2,0.7,3,1.6,5.6,1.6
				c1.9,0,2.8-0.7,2.8-1.8c0-1.2-1.4-2.2-4.8-3.5c-4.9-1.9-7.1-4.2-7.1-8s2.9-7.4,9.1-7.4c3.7,0,6.1,1,7.5,1.9
				c0.5,0.4,0.9,1.1,0.5,1.8l-1.4,2.9c-0.4,0.6-1,0.7-1.6,0.5c-1.2-0.5-3-1.3-5-1.3c-1.7,0-2.4,0.8-2.4,1.6c0,1.2,1.3,1.8,3.6,2.7
				c4.9,2,8.4,3.7,8.4,8.8c0,4-3.4,7.6-9.8,7.6C836.9,222.8,834.3,221.5,832.8,220.5z"/>
			<path class="st0" d="M855.9,200.8c0-2.5,2-4.5,4.6-4.5c2.6,0,4.6,2,4.6,4.5c0,2.6-2,4.6-4.6,4.6
				C858,205.4,855.9,203.4,855.9,200.8z M860.5,213.7c2.6,0,4.6,2,4.6,4.6c0,2.5-2,4.6-4.6,4.6c-2.5,0-4.6-2-4.6-4.6
				C855.9,215.7,858,213.7,860.5,213.7z"/>
			<path class="st0" d="M895.8,222.5c0,8.2-5.7,12.3-12.6,12.3c-4.2,0-7.9-1.9-9.1-2.9c-0.4-0.3-0.5-1-0.3-1.4l1.6-3.6
				c0.2-0.5,0.9-0.7,1.5-0.3c0.9,0.5,3.4,1.9,6,1.9c3.9,0,6-1.3,6-6v-0.7c-1.2,0.4-3.6,1-6.1,1c-7.6,0-12.6-5.8-12.6-13.2
				c0-7.7,5.2-13.3,12.1-13.3c5.4,0,8.3,3.8,8.3,3.8l0.7-2c0.2-0.7,0.6-1.2,1.2-1.2h2c0.7,0,1.2,0.5,1.2,1.2V222.5z M888.9,206.1
				c-0.5-1.4-2.3-3.5-5.6-3.5c-4,0-6,3.5-6,7s2.1,7,6.3,7c3.2,0,5.3-1.4,5.3-1.4V206.1z"/>
			<path class="st0" d="M902.8,198.1c0-0.7,0.6-1.2,1.2-1.2h2.1c0.6,0,0.9,0.3,1,0.8l0.9,2.4c0.9-1,3.3-3.7,8.2-3.7
				c8.1,0,10.2,5.4,10.2,11.6V221c0,0.7-0.6,1.2-1.2,1.2h-4.4c-0.7,0-1.2-0.5-1.2-1.2v-13.1c0-3.3-1.3-5.3-4.4-5.3
				c-3.3,0-4.9,2.2-5.5,4V221c0,0.9-0.4,1.2-1.6,1.2H904c-0.6,0-1.2-0.5-1.2-1.2V198.1z"/>
		</g>
	</g>
</g>
<g>
	<g>
		<path class="st0" d="M681.7,715.6c0-0.3,0.3-0.7,0.7-0.7h2.4c0.4,0,0.7,0.3,0.7,0.7v7.4c0.7-0.6,1.9-1.2,3.5-1.2
			c4.4,0,5.6,3.1,5.6,6.5v7c0,0.4-0.3,0.7-0.7,0.7h-2.4c-0.4,0-0.7-0.3-0.7-0.7v-7c0-1.9-0.9-3.1-2.5-3.1c-1.6,0-2.5,1-2.9,2.4v7.6
			c0,0.4-0.2,0.7-0.7,0.7h-2.4c-0.3,0-0.7-0.3-0.7-0.7V715.6z"/>
		<path class="st0" d="M704.4,721.7c3.6,0,6.4,2.7,6.4,6.4c0,0.2,0,0.7-0.1,0.9c0,0.4-0.4,0.6-0.7,0.6h-8.9c0,1.7,1.4,3.2,3.5,3.2
			c1.4,0,2.3-0.5,3-1c0.3-0.3,0.7-0.3,0.9,0l1.2,1.6c0.2,0.3,0.3,0.6-0.1,0.9c-1.2,1-2.9,1.9-5.2,1.9c-4.1,0-7-3.3-7-7.3
			C697.4,725.1,700.3,721.7,704.4,721.7z M707,727.2c-0.1-1.4-1.1-2.4-2.7-2.4c-1.7,0-2.8,1-2.9,2.4H707z"/>
		<path class="st0" d="M713.6,715.6c0-0.3,0.3-0.7,0.7-0.7h2.4c0.3,0,0.7,0.3,0.7,0.7v19.7c0,0.4-0.3,0.7-0.7,0.7h-2.4
			c-0.3,0-0.7-0.3-0.7-0.7V715.6z"/>
		<path class="st0" d="M721.2,715.6c0-0.3,0.3-0.7,0.7-0.7h2.4c0.3,0,0.7,0.3,0.7,0.7v19.7c0,0.4-0.3,0.7-0.7,0.7h-2.4
			c-0.3,0-0.7-0.3-0.7-0.7V715.6z"/>
		<path class="st0" d="M735.1,721.7c3.9,0,7.1,3.3,7.1,7.2c0,4-3.2,7.3-7.1,7.3c-3.9,0-7.1-3.3-7.1-7.3
			C728,725,731.2,721.7,735.1,721.7z M735.1,732.8c2,0,3.6-1.7,3.6-3.9c0-2.1-1.6-3.8-3.6-3.8c-2,0-3.6,1.7-3.6,3.8
			C731.5,731.1,733.1,732.8,735.1,732.8z"/>
		<path class="st0" d="M759,737.8c-1.6,0.9-3.3,1.2-5.3,1.2c-4.9,0-9.1-3.6-9.1-9.4c0-6.2,4.3-11.5,10.9-11.5c5.2,0,8.7,3.7,8.7,8.7
			c0,4.5-2.5,7.1-5.3,7.1c-1.2,0-2.3-0.8-2.2-2.6h-0.1c-1,1.8-2.4,2.6-4.2,2.6c-1.7,0-3.2-1.4-3.2-3.8c0-3.7,2.9-7.1,7.1-7.1
			c1.3,0,2.4,0.3,3.2,0.6l-1,5.4c-0.5,2.3-0.1,3.3,0.9,3.4c1.5,0,3.2-2,3.2-5.5c0-4.3-2.6-7.5-7.3-7.5c-4.9,0-9,3.9-9,10
			c0,5,3.3,8.1,7.7,8.1c1.7,0,3.3-0.4,4.5-1L759,737.8z M757.3,724.9c-0.3-0.1-0.8-0.2-1.5-0.2c-2.6,0-4.8,2.5-4.8,5.4
			c0,1.3,0.7,2.3,2,2.3c1.7,0,3.3-2.2,3.7-4.1L757.3,724.9z"/>
		<path class="st0" d="M768.5,723.3h-1.7c-0.4,0-0.4-0.2-0.4-0.5v-0.5c0-0.3,0.2-0.4,0.4-0.4h1.7v-3.8c0-0.3,0.2-0.4,0.5-0.5l0.4,0
			c0.2,0,0.5,0.2,0.5,0.4v3.8h4.9c0.3,0,0.5,0.2,0.5,0.4v0.4c0,0.3-0.2,0.5-0.5,0.5h-4.9v9.1c0,1.8,0.3,2.5,1.9,2.5
			c1.5,0,2.8-0.8,3.2-1.1c0.3-0.2,0.4,0,0.5,0.1l0.2,0.4c0.1,0.2,0.1,0.4-0.1,0.5c-0.5,0.4-2.1,1.3-4,1.3c-2.6,0-3-1.7-3-3.7V723.3z
			"/>
		<path class="st0" d="M778.8,715.4c0-0.2,0.2-0.4,0.5-0.4h0.4c0.2,0,0.5,0.2,0.5,0.4v8.5c0.4-0.5,2.1-2.2,4.8-2.2
			c3.6,0,5.2,2.2,5.2,6.1v7.6c0,0.2-0.2,0.5-0.4,0.5h-0.4c-0.2,0-0.5-0.2-0.5-0.5v-7.6c0-3.2-1.3-4.8-3.9-4.8s-4.3,2.1-4.7,2.6v9.9
			c0,0.3-0.2,0.5-0.5,0.5h-0.5c-0.3,0-0.4-0.2-0.4-0.5V715.4z"/>
		<path class="st0" d="M800.7,721.7c3.7,0,6.2,2.8,6.2,6.3c0,0.5,0,1.4-0.5,1.4h-11.1c0.1,3.1,2.4,5.5,5.4,5.5c2,0,3.4-0.8,4.3-1.4
			c0.3-0.2,0.5-0.2,0.6,0l0.3,0.5c0.1,0.1,0.1,0.4-0.1,0.5c-0.8,0.7-2.9,1.6-5,1.6c-4.1,0-6.7-3.2-6.7-7.3
			C794,725,796.6,721.7,800.7,721.7z M805.6,728.2c0-2.7-1.8-5.1-4.9-5.1c-3,0-5.2,2.3-5.3,5.1H805.6z"/>
		<path class="st0" d="M810,734.2l0.3-0.5c0.1-0.2,0.4-0.2,0.6-0.1c0.4,0.3,1.8,1.4,3.8,1.4c2.1,0,3.5-1,3.5-2.5
			c0-1.6-1.7-2.3-4-3.2c-2.4-0.9-4.1-1.8-4.1-4c0-1.5,1.3-3.5,4.4-3.5c1.8,0,3.2,0.6,3.9,1c0.2,0.1,0.3,0.4,0.2,0.6l-0.2,0.3
			c-0.1,0.2-0.4,0.2-0.6,0.1c-0.3-0.2-1.8-0.9-3.3-0.9c-2.2,0-3.1,1.2-3.1,2.3c0,1.4,1.4,2.1,3.4,2.9c2.6,1,4.7,1.7,4.7,4.4
			c0,2.1-2,3.7-4.8,3.7c-2.3,0-3.8-1-4.5-1.5C810,734.6,809.8,734.4,810,734.2z"/>
		<path class="st0" d="M822.7,717.1c0-0.7,0.5-1.2,1.2-1.2s1.2,0.5,1.2,1.2c0,0.6-0.5,1.1-1.2,1.1S822.7,717.7,822.7,717.1z
			 M823.2,722.5c0-0.2,0.2-0.4,0.5-0.4h0.4c0.2,0,0.4,0.2,0.4,0.4v13c0,0.3-0.1,0.5-0.4,0.5h-0.5c-0.3,0-0.4-0.2-0.4-0.5V722.5z"/>
		<path class="st0" d="M839.8,734.8c-0.4,0.3-1.9,1.4-4.2,1.4c-4,0-6.9-3.2-6.9-7.3c0-4,2.7-7.2,6.6-7.2c2.5,0,4.3,1.3,4.7,1.6
			l0.1-1c0-0.3,0.1-0.4,0.4-0.4h0.2c0.2,0,0.5,0.1,0.5,0.4v13.8c0,4-2.7,6.2-6.1,6.2c-2.3,0-4.1-1.2-4.7-1.8
			c-0.2-0.2-0.2-0.3-0.1-0.5l0.3-0.4c0.2-0.2,0.3-0.2,0.6,0c0.5,0.5,2.1,1.4,3.8,1.4c2.7,0,4.8-1.6,4.8-4.9V734.8z M839.8,724.9
			c-0.2-0.2-1.8-1.8-4.5-1.8c-3.2,0-5.3,2.7-5.3,5.9c0,3.4,2.3,6,5.6,6c2.3,0,4-1.5,4.2-1.7V724.9z"/>
		<path class="st0" d="M846.1,722.5c0-0.2,0.2-0.4,0.5-0.4h0.1c0.3,0,0.4,0.1,0.4,0.4l0.2,1.5c0.5-0.5,2.1-2.1,4.9-2.1
			c3.9,0,5.2,2.4,5.2,6.1v7.6c0,0.2-0.2,0.5-0.4,0.5h-0.4c-0.2,0-0.5-0.2-0.5-0.5v-7.6c0-3.2-1.3-4.8-4-4.8c-2.8,0-4.6,2.2-4.7,2.4
			v10c0,0.3-0.1,0.5-0.5,0.5h-0.5c-0.3,0-0.4-0.2-0.4-0.5V722.5z"/>
		<path class="st0" d="M862.5,715.4c0-0.2,0.2-0.4,0.5-0.4h0.4c0.2,0,0.5,0.2,0.5,0.4v20.1c0,0.3-0.2,0.5-0.5,0.5h-0.5
			c-0.3,0-0.4-0.2-0.4-0.5V715.4z"/>
		<path class="st0" d="M873.6,727c1.6,0,3.2,0.5,3.6,0.6c0-3.1-0.4-4.6-3.1-4.6c-2.3,0-3.9,0.8-4.1,0.9c-0.3,0.1-0.5,0-0.5-0.2
			l-0.1-0.4c-0.2-0.3,0-0.4,0.2-0.5c0.1-0.1,1.9-1,4.8-1c4.2,0,4.3,2.5,4.3,6v7.7c0,0.2-0.2,0.5-0.5,0.5h-0.2
			c-0.2,0-0.4-0.1-0.4-0.4l-0.2-1.3c-0.9,0.9-2.7,2-4.9,2c-2.6,0-4.5-1.7-4.5-4.6C867.9,729,870,727,873.6,727z M872.5,734.9
			c2.1,0,4-1.3,4.7-2.1v-4c-0.5-0.2-1.9-0.7-3.6-0.7c-2.6,0-4.5,1.4-4.5,3.5C869.1,733.6,870.6,734.9,872.5,734.9z"/>
		<path class="st0" d="M889.5,736.2c-2.7,0-4.5-1.5-4.9-2l-0.1,1.2c-0.1,0.3-0.2,0.5-0.5,0.5h-0.2c-0.2,0-0.4-0.2-0.4-0.5v-20.1
			c0-0.2,0.2-0.4,0.4-0.4h0.4c0.3,0,0.5,0.2,0.5,0.4v7.7c0,0,1.7-1.3,4.4-1.3c3.9,0,6.7,3.2,6.7,7.2
			C895.8,733,893.1,736.2,889.5,736.2z M888.9,723c-2.5,0-4.2,1.6-4.2,1.6v8c0.1,0.1,1.7,2.3,4.7,2.3c2.9,0,5.1-2.8,5.1-6
			C894.5,725.7,892.1,723,888.9,723z"/>
		<path class="st0" d="M900.6,733.7c0.7,0,1.3,0.5,1.3,1.3c0,0.7-0.5,1.3-1.3,1.3c-0.7,0-1.3-0.6-1.3-1.3
			C899.4,734.2,899.9,733.7,900.6,733.7z"/>
		<path class="st0" d="M912.6,721.7c2.7,0,4.5,1.3,5.1,2.1c0.2,0.2,0.2,0.4,0,0.6l-0.2,0.2c-0.3,0.3-0.5,0.2-0.7-0.1
			c-0.3-0.4-1.9-1.6-4.1-1.6c-3.1,0-5.8,2.6-5.8,5.9c0,3.4,2.6,6,5.9,6c2.5,0,4-1.7,4.4-2.1c0.2-0.3,0.5-0.2,0.7,0l0.3,0.2
			c0.2,0.2,0.2,0.4,0.1,0.5c-0.6,0.8-2.5,2.7-5.4,2.7c-3.9,0-7.2-3.1-7.2-7.3C905.4,724.8,908.7,721.7,912.6,721.7z"/>
		<path class="st0" d="M927.9,721.7c3.9,0,7,3.3,7,7.2c0,4.1-3.1,7.3-7,7.3c-4,0-7-3.2-7-7.3C920.9,725,923.9,721.7,927.9,721.7z
			 M927.9,734.9c3.1,0,5.5-2.7,5.5-6c0-3.2-2.5-5.9-5.5-5.9c-3.1,0-5.6,2.7-5.6,5.9C922.2,732.3,924.7,734.9,927.9,734.9z"/>
		<path class="st0" d="M938.9,722.5c0-0.2,0.2-0.4,0.5-0.4h0.2c0.2,0,0.3,0.1,0.3,0.4l0.2,1.5c0.4-0.5,1.8-2.1,4.6-2.1
			c2.1,0,3.4,0.9,4.3,2.5c0.4-0.5,2-2.5,4.9-2.5c3.8,0,5,2.5,5,6.1v7.6c0,0.2-0.2,0.5-0.5,0.5h-0.5c-0.2,0-0.4-0.1-0.4-0.5v-7.6
			c0-3.2-1.2-4.8-3.8-4.8c-2.6,0-3.8,1.9-4.3,2.4c0.2,0.7,0.3,1.5,0.3,2.4v7.6c0,0.2-0.2,0.5-0.5,0.5h-0.5c-0.3,0-0.4-0.1-0.4-0.5
			v-7.6c0-3.2-1.2-4.8-3.8-4.8c-2.8,0-4.2,2.1-4.3,2.4v10c0,0.3-0.2,0.5-0.5,0.5h-0.5c-0.3,0-0.4-0.2-0.4-0.5V722.5z"/>
		<path class="st0" d="M964.5,733.7c0.7,0,1.3,0.5,1.3,1.3c0,0.7-0.5,1.3-1.3,1.3c-0.7,0-1.3-0.6-1.3-1.3
			C963.2,734.2,963.8,733.7,964.5,733.7z"/>
		<path class="st0" d="M976.4,721.7c2.7,0,4.5,1.3,5.1,2.1c0.2,0.2,0.2,0.4,0,0.6l-0.2,0.2c-0.3,0.3-0.5,0.2-0.8-0.1
			c-0.3-0.4-1.9-1.6-4.1-1.6c-3.1,0-5.8,2.6-5.8,5.9c0,3.4,2.6,6,5.9,6c2.5,0,4-1.7,4.4-2.1c0.2-0.3,0.5-0.2,0.7,0l0.3,0.2
			c0.2,0.2,0.2,0.4,0.1,0.5c-0.6,0.8-2.5,2.7-5.4,2.7c-3.9,0-7.2-3.1-7.2-7.3C969.3,724.8,972.5,721.7,976.4,721.7z"/>
		<path class="st0" d="M991.7,721.7c3.9,0,7,3.3,7,7.2c0,4.1-3.1,7.3-7,7.3c-4,0-7-3.2-7-7.3C984.8,725,987.8,721.7,991.7,721.7z
			 M991.7,734.9c3.1,0,5.5-2.7,5.5-6c0-3.2-2.5-5.9-5.5-5.9c-3.2,0-5.6,2.7-5.6,5.9C986.1,732.3,988.6,734.9,991.7,734.9z"/>
	</g>
	<g>
		<path class="st0" d="M546.6,762.7C546.6,762.7,546.6,762.7,546.6,762.7c-1.9-0.6-3.7-2.3-3.7-4.5c0-2.8,2-5,5.7-5
			c3.7,0,5.8,2.3,5.8,5c0,2.2-1.7,3.9-3.7,4.4c0,0,0,0,0,0.1c2.2,0.5,4.2,2.2,4.2,4.7c0,3.3-2.5,5.2-6.3,5.2c-3.6,0-6.2-1.9-6.2-5.2
			C542.5,765,544.4,763.2,546.6,762.7z M548.6,771.6c2.8,0,5-1.3,5-4c0-2.1-1.9-3.9-4.9-4.2c-3.1,0.3-5,2-5,4.2
			C543.7,770.2,545.9,771.6,548.6,771.6z M553.1,758.3c0-2.2-1.6-4-4.5-4c-2.9,0-4.4,1.8-4.4,4c0,2.1,1.7,3.6,4.5,3.8
			C551.4,761.9,553.1,760.4,553.1,758.3z"/>
		<path class="st0" d="M558.7,762.9c0-6.1,2.5-9.7,6.8-9.7c4.3,0,6.8,3.6,6.8,9.7c0,6.1-2.5,9.8-6.8,9.8
			C561.2,772.7,558.7,769,558.7,762.9z M571,762.9c0-5.4-1.9-8.5-5.5-8.5c-3.6,0-5.5,3.1-5.5,8.5c0,5.5,1.9,8.6,5.5,8.6
			C569.1,771.5,571,768.4,571,762.9z"/>
		<path class="st0" d="M576.4,769.7l0.4-0.4c0.2-0.1,0.3-0.1,0.5,0.1c0.5,0.6,1.9,2.1,4.6,2.1c3.1,0,5.2-2.5,5.2-5.3
			c0-2.8-1.8-4.6-5.2-4.6h-4.6c-0.3,0-0.5-0.3-0.5-0.6v-7.2c0-0.2,0.2-0.4,0.4-0.4h8.7c0.2,0,0.4,0.2,0.4,0.4v0.4
			c0,0.2-0.2,0.4-0.4,0.4h-7.9v5.8h4c4.3,0,6.5,2.1,6.5,5.8c0,3.5-2.7,6.4-6.5,6.4c-3.1,0-4.7-1.5-5.4-2.3
			C576.2,770,576.1,769.9,576.4,769.7z"/>
		<path class="st0" d="M607.5,754.6h-10.2c-0.3,0-0.4-0.2-0.4-0.4v-0.4c0-0.2,0.2-0.4,0.4-0.4h11.5c0.3,0,0.4,0.2,0.4,0.3
			c0,0.1,0,0.1-0.1,0.3l-8.1,17.8c-0.2,0.4-0.2,0.4-0.5,0.4h-0.6c-0.3,0-0.3-0.3-0.2-0.4L607.5,754.6L607.5,754.6z"/>
		<path class="st0" d="M614.4,755.4l-3.3,2.7c-0.1,0.1-0.3,0.1-0.4-0.1l-0.3-0.4c-0.1-0.1-0.1-0.3,0.1-0.4l4.2-3.6
			c0.1-0.1,0.3-0.2,0.5-0.2h0.2c0.2,0,0.4,0.1,0.4,0.3V772c0,0.2-0.2,0.4-0.3,0.4h-0.6c-0.2,0-0.4-0.2-0.4-0.4L614.4,755.4
			L614.4,755.4z"/>
		<path class="st0" d="M620.5,762.9c0-6.1,2.5-9.7,6.8-9.7c4.3,0,6.8,3.6,6.8,9.7c0,6.1-2.5,9.8-6.8,9.8
			C623,772.7,620.5,769,620.5,762.9z M632.8,762.9c0-5.4-1.9-8.5-5.5-8.5c-3.6,0-5.5,3.1-5.5,8.5c0,5.5,1.9,8.6,5.5,8.6
			C630.9,771.5,632.8,768.4,632.8,762.9z"/>
		<path class="st0" d="M638,762.9c0-6.1,2.5-9.7,6.8-9.7c4.3,0,6.8,3.6,6.8,9.7c0,6.1-2.5,9.8-6.8,9.8
			C640.5,772.7,638,769,638,762.9z M650.3,762.9c0-5.4-1.9-8.5-5.5-8.5c-3.6,0-5.5,3.1-5.5,8.5c0,5.5,1.9,8.6,5.5,8.6
			C648.4,771.5,650.3,768.4,650.3,762.9z"/>
		<path class="st0" d="M662.4,752.2c0-0.2,0.2-0.4,0.4-0.4h0.2c0.2,0,0.3,0.1,0.3,0.4v26.2c0,0.2-0.2,0.3-0.4,0.3h-0.1
			c-0.2,0-0.4-0.1-0.4-0.3V752.2z"/>
		<path class="st0" d="M683.2,753.2c2.8,0,4.8,0.9,6.6,2.5c0.1,0.1,0.2,0.4,0,0.5l-0.4,0.5c-0.2,0.2-0.3,0.1-0.5,0
			c-1.5-1.4-3.5-2.2-5.7-2.2c-4.7,0-8.4,3.9-8.4,8.5c0,4.6,3.7,8.5,8.4,8.5c2.3,0,4.1-0.9,5.7-2.3c0.2-0.1,0.3-0.2,0.4-0.1l0.5,0.5
			c0.1,0.1,0.1,0.3,0,0.5c-1.8,1.8-4.2,2.6-6.6,2.6c-5.4,0-9.8-4.3-9.8-9.7C673.4,757.6,677.8,753.2,683.2,753.2z"/>
		<path class="st0" d="M697.6,764.3c1.4,0,2.9,0.5,3.2,0.6c0-2.8-0.4-4.2-2.8-4.2c-2,0-3.5,0.8-3.7,0.8c-0.3,0.1-0.4,0-0.5-0.2
			l-0.1-0.4c-0.1-0.2,0-0.4,0.2-0.5c0.1-0.1,1.7-0.9,4.3-0.9c3.8,0,3.9,2.2,3.9,5.4v6.9c0,0.2-0.2,0.4-0.4,0.4h-0.2
			c-0.2,0-0.4-0.1-0.4-0.4l-0.1-1.1c-0.8,0.8-2.4,1.8-4.4,1.8c-2.3,0-4-1.6-4-4.1C692.4,766.1,694.3,764.3,697.6,764.3z
			 M696.6,771.5c1.9,0,3.6-1.1,4.2-1.9V766c-0.4-0.2-1.7-0.6-3.2-0.6c-2.4,0-4,1.3-4,3.1C693.6,770.3,694.9,771.5,696.6,771.5z"/>
		<path class="st0" d="M706.6,753.9c0-0.2,0.2-0.4,0.4-0.4h0.4c0.2,0,0.4,0.2,0.4,0.4V772c0,0.3-0.1,0.4-0.4,0.4h-0.4
			c-0.2,0-0.3-0.2-0.3-0.4V753.9z"/>
		<path class="st0" d="M712.6,753.9c0-0.2,0.2-0.4,0.4-0.4h0.4c0.2,0,0.4,0.2,0.4,0.4V772c0,0.3-0.1,0.4-0.4,0.4H713
			c-0.2,0-0.4-0.2-0.4-0.4V753.9z"/>
		<path class="st0" d="M723.7,759.6c3.3,0,5.6,2.5,5.6,5.7c0,0.5,0,1.2-0.5,1.2h-10c0.1,2.8,2.2,5,4.8,5c1.8,0,3.1-0.7,3.8-1.2
			c0.3-0.2,0.4-0.2,0.5,0l0.3,0.5c0.1,0.1,0.1,0.3-0.1,0.5c-0.7,0.6-2.6,1.5-4.5,1.5c-3.7,0-6-2.9-6-6.6
			C717.7,762.6,720,759.6,723.7,759.6z M728.1,765.4c0-2.5-1.6-4.6-4.4-4.6c-2.7,0-4.6,2-4.8,4.6H728.1z"/>
		<path class="st0" d="M741.8,755.4l-3.3,2.7c-0.1,0.1-0.3,0.1-0.4-0.1l-0.3-0.4c-0.1-0.1-0.1-0.3,0.1-0.4l4.2-3.6
			c0.1-0.1,0.3-0.2,0.5-0.2h0.2c0.2,0,0.4,0.1,0.4,0.3V772c0,0.2-0.2,0.4-0.4,0.4h-0.6c-0.2,0-0.4-0.2-0.4-0.4L741.8,755.4
			L741.8,755.4z"/>
		<path class="st0" d="M749.2,771.2h9.3c0.2,0,0.4,0.2,0.4,0.4v0.4c0,0.2-0.2,0.4-0.4,0.4h-10.9c-0.2,0-0.4-0.2-0.4-0.3v-0.2
			c0-0.2,0.1-0.3,0.2-0.5l7.2-7.2c1.9-1.9,3.1-3.7,3.1-5.5c0-2.1-1.5-4.2-4.7-4.2c-2.5,0-3.9,1.9-4.2,2.2c-0.2,0.2-0.4,0.2-0.6,0.1
			l-0.3-0.3c-0.1-0.1-0.2-0.3-0.1-0.5c0,0,1.7-2.8,5.2-2.8c3.9,0,6,2.5,6,5.4c0,2.5-1.5,4.3-3.5,6.3L749.2,771.2L749.2,771.2z"/>
		<path class="st0" d="M762.5,769.7l0.4-0.4c0.2-0.2,0.4-0.1,0.5,0.1c0.7,0.7,1.7,2.1,4.7,2.1c2.9,0,4.9-1.6,4.9-4.2
			c0-2.7-2.6-4.1-5-4.1h-2.6c-0.3,0-0.4-0.1-0.4-0.4v-0.5c0-0.2,0.1-0.3,0.4-0.3h2.6c2,0,4.5-1,4.5-3.8c0-2.3-1.9-3.9-4.2-3.9
			c-2.6,0-4,1.7-4.4,2.1c-0.1,0.1-0.3,0.2-0.5,0.1l-0.4-0.4c-0.2-0.1-0.2-0.3,0-0.5c0,0,1.9-2.5,5.3-2.5c3.2,0,5.5,2,5.5,4.9
			c0,2.2-1.6,3.9-3.2,4.5c0,0,0,0,0,0.1c1.8,0.5,3.6,2.4,3.6,4.6c0,3-2.4,5.3-6.3,5.3c-3.4,0-5-1.8-5.6-2.5
			C762.3,770,762.3,769.8,762.5,769.7z"/>
		<path class="st0" d="M786.6,766.8h-2.3c-0.2,0-0.3-0.2-0.3-0.4v-0.1c0-0.2,0.1-0.4,0.3-0.4h2.4l0.8-4.9h-2.4
			c-0.2,0-0.3-0.2-0.3-0.4v-0.2c0-0.2,0.2-0.4,0.3-0.4h2.6l1.1-6.4c0-0.2,0.2-0.3,0.4-0.3h0.2c0.2,0,0.3,0.2,0.3,0.4l-1.1,6.3h4.4
			l1.1-6.4c0-0.2,0.2-0.3,0.4-0.3h0.2c0.2,0,0.3,0.2,0.3,0.4l-1.1,6.3h2.2c0.2,0,0.3,0.2,0.3,0.4v0.2c0,0.2-0.1,0.4-0.3,0.4h-2.4
			l-0.8,4.9h2.4c0.2,0,0.4,0.2,0.4,0.4v0.1c0,0.2-0.1,0.4-0.3,0.4h-2.6l-0.9,5.3c0,0.2-0.2,0.3-0.4,0.3h-0.2c-0.2,0-0.4-0.1-0.3-0.4
			l0.9-5.2h-4.4l-0.9,5.3c0,0.2-0.2,0.3-0.4,0.3H786c-0.2,0-0.4-0.1-0.3-0.4L786.6,766.8z M792,766l0.8-4.9h-4.4l-0.8,4.9H792z"/>
		<path class="st0" d="M809,754.6h-10.2c-0.3,0-0.4-0.2-0.4-0.4v-0.4c0-0.2,0.2-0.4,0.4-0.4h11.5c0.3,0,0.4,0.2,0.4,0.3
			c0,0.1,0,0.1-0.1,0.3l-8.1,17.8c-0.2,0.4-0.2,0.4-0.5,0.4h-0.6c-0.3,0-0.3-0.3-0.2-0.4L809,754.6L809,754.6z"/>
		<path class="st0" d="M819.5,765.8v-0.3c0-0.2,0.1-0.4,0.3-0.4h6.1c0.2,0,0.4,0.1,0.4,0.4v0.3c0,0.2-0.2,0.4-0.4,0.4h-6.1
			C819.6,766.1,819.5,766,819.5,765.8z"/>
		<path class="st0" d="M836.8,769.7l0.4-0.4c0.2-0.1,0.3-0.1,0.5,0.1c0.5,0.6,1.9,2.1,4.6,2.1c3.1,0,5.2-2.5,5.2-5.3
			c0-2.8-1.8-4.6-5.2-4.6h-4.6c-0.3,0-0.5-0.3-0.5-0.6v-7.2c0-0.2,0.2-0.4,0.4-0.4h8.7c0.2,0,0.4,0.2,0.4,0.4v0.4
			c0,0.2-0.2,0.4-0.4,0.4h-7.9v5.8h4c4.3,0,6.5,2.1,6.5,5.8c0,3.5-2.7,6.4-6.5,6.4c-3.1,0-4.7-1.5-5.4-2.3
			C836.6,770,836.5,769.9,836.8,769.7z"/>
		<path class="st0" d="M854.9,755.4l-3.3,2.7c-0.1,0.1-0.3,0.1-0.4-0.1l-0.3-0.4c-0.1-0.1-0.1-0.3,0.1-0.4l4.2-3.6
			c0.1-0.1,0.3-0.2,0.5-0.2h0.2c0.2,0,0.4,0.1,0.4,0.3V772c0,0.2-0.2,0.4-0.4,0.4h-0.6c-0.2,0-0.4-0.2-0.4-0.4L854.9,755.4
			L854.9,755.4z"/>
		<path class="st0" d="M876.8,753.2c5.4,0,9.7,4.3,9.7,9.7c0,5.4-4.3,9.7-9.7,9.7c-5.4,0-9.7-4.3-9.7-9.7
			C867.1,757.6,871.4,753.2,876.8,753.2z M876.8,771.5c4.7,0,8.6-3.8,8.6-8.5s-3.8-8.6-8.6-8.6c-4.7,0-8.5,3.8-8.5,8.6
			S872.1,771.5,876.8,771.5z"/>
		<path class="st0" d="M891.1,761.1h-2c-0.3,0-0.4-0.2-0.4-0.4v-0.4c0-0.2,0.2-0.4,0.4-0.4h2V758c0-2.9,1.4-4.8,4.1-4.8
			c1.6,0,2.9,0.7,3.5,1.3c0.2,0.2,0.2,0.4,0.1,0.5l-0.3,0.3c-0.2,0.2-0.3,0.2-0.5,0c-0.7-0.6-1.6-1-2.8-1c-2,0-2.9,1.3-2.9,3.6v1.9
			h4.7c0.3,0,0.4,0.1,0.4,0.4v0.4c0,0.2-0.1,0.4-0.4,0.4h-4.7V772c0,0.2-0.2,0.4-0.4,0.4h-0.4c-0.2,0-0.4-0.2-0.4-0.4V761.1z"/>
		<path class="st0" d="M900.9,770.4c0.6,0,1.1,0.5,1.1,1.1c0,0.6-0.5,1.1-1.1,1.1s-1.2-0.5-1.2-1.1
			C899.7,770.9,900.2,770.4,900.9,770.4z"/>
		<path class="st0" d="M921.5,754.6h-10.2c-0.3,0-0.4-0.2-0.4-0.4v-0.4c0-0.2,0.2-0.4,0.4-0.4h11.5c0.3,0,0.4,0.2,0.4,0.3
			c0,0.1,0,0.1-0.1,0.3l-8.1,17.8c-0.2,0.4-0.2,0.4-0.5,0.4h-0.6c-0.3,0-0.3-0.3-0.2-0.4L921.5,754.6L921.5,754.6z"/>
		<path class="st0" d="M925.5,762.9c0-6.1,2.5-9.7,6.8-9.7c4.3,0,6.8,3.6,6.8,9.7c0,6.1-2.5,9.8-6.8,9.8
			C928,772.7,925.5,769,925.5,762.9z M937.8,762.9c0-5.4-1.9-8.5-5.5-8.5c-3.6,0-5.5,3.1-5.5,8.5c0,5.5,1.9,8.6,5.5,8.6
			C935.9,771.5,937.8,768.4,937.8,762.9z"/>
		<path class="st0" d="M944.4,771.2h9.3c0.2,0,0.4,0.2,0.4,0.4v0.4c0,0.2-0.2,0.4-0.4,0.4h-10.9c-0.2,0-0.4-0.2-0.4-0.3v-0.2
			c0-0.2,0.1-0.3,0.2-0.5l7.2-7.2c1.9-1.9,3.1-3.7,3.1-5.5c0-2.1-1.5-4.2-4.7-4.2c-2.5,0-3.9,1.9-4.2,2.2c-0.2,0.2-0.4,0.2-0.6,0.1
			l-0.3-0.3c-0.1-0.1-0.2-0.3-0.1-0.5c0,0,1.7-2.8,5.2-2.8c3.9,0,6,2.5,6,5.4c0,2.5-1.5,4.3-3.5,6.3L944.4,771.2L944.4,771.2z"/>
		<path class="st0" d="M964.7,752.2c0-0.2,0.2-0.4,0.4-0.4h0.2c0.2,0,0.3,0.1,0.3,0.4v26.2c0,0.2-0.2,0.3-0.3,0.3H965
			c-0.2,0-0.4-0.1-0.4-0.3V752.2z"/>
		<path class="st0" d="M977,753.9c0-0.2,0.2-0.4,0.4-0.4h0.5c0.2,0,0.4,0.2,0.4,0.4v8.4l9.2-8.6c0.2-0.2,0.3-0.2,0.5-0.2h0.8
			c0.3,0,0.3,0.3,0.2,0.5l-9.4,8.8l9.7,9.2c0.2,0.1,0.1,0.5-0.2,0.5h-0.9c-0.2,0-0.4-0.1-0.6-0.3l-9.2-8.9v8.8
			c0,0.3-0.2,0.4-0.4,0.4h-0.5c-0.2,0-0.4-0.1-0.4-0.4V753.9z"/>
		<path class="st0" d="M996,764.3c1.4,0,2.9,0.5,3.2,0.6c0-2.8-0.4-4.2-2.8-4.2c-2,0-3.5,0.8-3.7,0.8c-0.3,0.1-0.4,0-0.5-0.2
			l-0.1-0.4c-0.1-0.2,0-0.4,0.2-0.5c0.1-0.1,1.7-0.9,4.3-0.9c3.8,0,3.9,2.2,3.9,5.4v6.9c0,0.2-0.2,0.4-0.4,0.4h-0.2
			c-0.2,0-0.3-0.1-0.4-0.4l-0.1-1.1c-0.8,0.8-2.4,1.8-4.4,1.8c-2.3,0-4-1.6-4-4.1C990.9,766.1,992.8,764.3,996,764.3z M995,771.5
			c1.9,0,3.6-1.1,4.2-1.9V766c-0.4-0.2-1.7-0.6-3.2-0.6c-2.4,0-4,1.3-4,3.1C992,770.3,993.3,771.5,995,771.5z"/>
		<path class="st0" d="M1004.3,755.4c0-0.6,0.5-1.1,1.1-1.1s1.1,0.5,1.1,1.1c0,0.6-0.5,1-1.1,1S1004.3,756,1004.3,755.4z
			 M1004.9,760.3c0-0.2,0.2-0.4,0.4-0.4h0.4c0.2,0,0.4,0.2,0.4,0.4V772c0,0.3-0.1,0.4-0.4,0.4h-0.4c-0.2,0-0.4-0.2-0.4-0.4V760.3z"
			/>
		<path class="st0" d="M1009.3,760.4c-0.1-0.3-0.1-0.5,0.2-0.5h0.6c0.2,0,0.4,0.1,0.4,0.3l2.9,10h0.1l3.8-10.3
			c0.1-0.2,0.2-0.3,0.4-0.3h0.1c0.2,0,0.3,0.1,0.4,0.3l3.7,10.3h0.1l3-10c0.1-0.2,0.3-0.3,0.4-0.3h0.6c0.3,0,0.3,0.2,0.2,0.5
			l-3.7,12c-0.1,0.2-0.2,0.3-0.4,0.3h-0.1c-0.2,0-0.3-0.1-0.4-0.3l-3.7-10.6h-0.1l-3.8,10.6c-0.1,0.2-0.2,0.3-0.4,0.3h-0.1
			c-0.2,0-0.3-0.1-0.4-0.3L1009.3,760.4z"/>
		<path class="st0" d="M1033.5,764.3c1.4,0,2.9,0.5,3.2,0.6c0-2.8-0.4-4.2-2.8-4.2c-2,0-3.5,0.8-3.7,0.8c-0.3,0.1-0.4,0-0.5-0.2
			l-0.1-0.4c-0.1-0.2,0-0.4,0.2-0.5c0.1-0.1,1.7-0.9,4.3-0.9c3.8,0,3.9,2.2,3.9,5.4v6.9c0,0.2-0.2,0.4-0.4,0.4h-0.2
			c-0.2,0-0.4-0.1-0.4-0.4l-0.1-1.1c-0.8,0.8-2.4,1.8-4.4,1.8c-2.3,0-4-1.6-4-4.1C1028.4,766.1,1030.3,764.3,1033.5,764.3z
			 M1032.5,771.5c1.9,0,3.6-1.1,4.2-1.9V766c-0.4-0.2-1.7-0.6-3.2-0.6c-2.4,0-4,1.3-4,3.1C1029.5,770.3,1030.8,771.5,1032.5,771.5z"
			/>
		<path class="st0" d="M1058.1,762.8c1.9,0.5,3.4,1.9,3.4,4.5c0,3-2.4,5.1-5.9,5.1h-6c-0.2,0-0.4-0.2-0.4-0.4v-18.2
			c0-0.2,0.2-0.4,0.4-0.4h5.7c3.3,0,5.6,1.9,5.6,4.9C1061,760.5,1059.8,762,1058.1,762.8L1058.1,762.8z M1055.6,762.2
			c2.5,0,4-1.6,4-3.8c0-2.3-1.6-3.8-4.2-3.8h-4.9v7.6H1055.6z M1055.7,771.2c2.6,0,4.5-1.6,4.5-4c0-2.4-1.9-3.8-4.4-3.8h-5.2v7.9
			H1055.7z"/>
		<path class="st0" d="M1065.6,760.3c0-0.2,0.2-0.4,0.4-0.4h0.4c0.2,0,0.4,0.2,0.4,0.4v7c0,2.9,1,4.2,3.5,4.2c2.3,0,3.6-1.8,3.9-2.3
			v-8.9c0-0.3,0.1-0.4,0.4-0.4h0.4c0.2,0,0.4,0.2,0.4,0.4V772c0,0.2-0.2,0.4-0.4,0.4h-0.2c-0.2,0-0.4-0.2-0.4-0.4l-0.1-1.2
			c-0.3,0.4-1.6,1.9-4.1,1.9c-3.5,0-4.6-1.9-4.6-5.4V760.3z"/>
		<path class="st0" d="M1079.4,755.4c0-0.6,0.5-1.1,1.1-1.1s1.1,0.5,1.1,1.1c0,0.6-0.5,1-1.1,1S1079.4,756,1079.4,755.4z
			 M1079.9,760.3c0-0.2,0.2-0.4,0.4-0.4h0.4c0.2,0,0.4,0.2,0.4,0.4V772c0,0.3-0.1,0.4-0.4,0.4h-0.4c-0.2,0-0.4-0.2-0.4-0.4V760.3z"
			/>
		<path class="st0" d="M1085.8,753.9c0-0.2,0.2-0.4,0.4-0.4h0.4c0.2,0,0.4,0.2,0.4,0.4V772c0,0.3-0.1,0.4-0.4,0.4h-0.4
			c-0.2,0-0.4-0.2-0.4-0.4V753.9z"/>
		<path class="st0" d="M1096.9,759.6c2.4,0,3.9,1.2,3.9,1.2v-7c0-0.2,0.1-0.4,0.4-0.4h0.4c0.2,0,0.4,0.2,0.4,0.4V772
			c0,0.2-0.2,0.4-0.4,0.4h-0.2c-0.2,0-0.4-0.1-0.5-0.4l-0.1-1.1c-0.4,0.4-2,1.8-4.4,1.8c-3.2,0-5.7-2.9-5.7-6.5
			C1090.9,762.6,1093.3,759.6,1096.9,759.6z M1096.6,771.5c2.7,0,4.2-2,4.2-2.1v-7.2c0,0-1.5-1.4-3.8-1.4c-2.9,0-5,2.4-5,5.3
			C1092.1,769,1094,771.5,1096.6,771.5z"/>
		<path class="st0" d="M1106,755.4c0-0.6,0.5-1.1,1.1-1.1c0.6,0,1.1,0.5,1.1,1.1c0,0.6-0.5,1-1.1,1
			C1106.5,756.5,1106,756,1106,755.4z M1106.5,760.3c0-0.2,0.2-0.4,0.4-0.4h0.4c0.2,0,0.4,0.2,0.4,0.4V772c0,0.3-0.1,0.4-0.4,0.4
			h-0.4c-0.2,0-0.4-0.2-0.4-0.4V760.3z"/>
		<path class="st0" d="M1112.3,760.3c0-0.2,0.2-0.4,0.4-0.4h0.1c0.2,0,0.4,0.1,0.4,0.3l0.1,1.3c0.4-0.4,1.9-1.9,4.4-1.9
			c3.5,0,4.7,2.2,4.7,5.4v6.9c0,0.2-0.2,0.4-0.4,0.4h-0.4c-0.2,0-0.4-0.2-0.4-0.4v-6.8c0-2.9-1.2-4.3-3.6-4.3c-2.5,0-4.1,2-4.2,2.1
			v9c0,0.3-0.1,0.4-0.4,0.4h-0.4c-0.2,0-0.4-0.2-0.4-0.4V760.3z"/>
		<path class="st0" d="M1136,771.4c-0.4,0.3-1.7,1.3-3.8,1.3c-3.6,0-6.2-2.9-6.2-6.6c0-3.6,2.5-6.5,5.9-6.5c2.3,0,3.8,1.2,4.2,1.5
			l0.1-0.9c0-0.2,0.1-0.3,0.4-0.3h0.2c0.2,0,0.4,0.1,0.4,0.4v12.4c0,3.6-2.4,5.6-5.5,5.6c-2.1,0-3.7-1.1-4.2-1.6
			c-0.2-0.2-0.2-0.3-0.1-0.5l0.3-0.4c0.2-0.2,0.3-0.2,0.5,0c0.5,0.4,1.9,1.3,3.5,1.3c2.5,0,4.3-1.5,4.3-4.4V771.4z M1136,762.4
			c-0.2-0.2-1.6-1.6-4-1.6c-2.9,0-4.8,2.4-4.8,5.3c0,3,2,5.4,5,5.4c2.1,0,3.6-1.3,3.8-1.5V762.4z"/>
		<path class="st0" d="M746.7,793.4c1.6,0.5,3.2,1.8,3.2,4.3c0,3-2.6,5.2-5.9,5.2h-6.5c-0.3,0-0.5-0.2-0.5-0.5v-17.9
			c0-0.3,0.2-0.5,0.5-0.5h6.2c3.2,0,5.7,2.2,5.7,5c0,2-1.3,3.5-2.7,4.2V793.4z M743.4,792c1.4,0,2.3-1.1,2.3-2.4s-0.9-2.3-2.3-2.3
			h-2.9v4.7H743.4z M743.8,799.8c1.3,0,2.4-1.1,2.4-2.5c0-1.3-1-2.3-2.4-2.3h-3.3v4.8H743.8z"/>
		<path class="st0" d="M758.7,790.3c3.5,0,6.4,3,6.4,6.5c0,3.6-2.9,6.6-6.4,6.6c-3.5,0-6.4-3-6.4-6.6
			C752.3,793.2,755.2,790.3,758.7,790.3z M758.7,800.2c1.8,0,3.3-1.6,3.3-3.5c0-1.9-1.5-3.4-3.3-3.4c-1.8,0-3.2,1.5-3.2,3.4
			C755.4,798.7,756.9,800.2,758.7,800.2z"/>
		<path class="st0" d="M779.5,803.1c0,4-2.8,6-6.2,6c-2.1,0-3.9-0.9-4.5-1.4c-0.2-0.2-0.3-0.5-0.1-0.7l0.8-1.8
			c0.1-0.2,0.5-0.3,0.7-0.2c0.5,0.3,1.7,0.9,3,0.9c1.9,0,2.9-0.6,2.9-3v-0.4c-0.6,0.2-1.8,0.5-3,0.5c-3.7,0-6.2-2.9-6.2-6.5
			c0-3.8,2.6-6.5,6-6.5c2.6,0,4.1,1.9,4.1,1.9l0.3-1c0.1-0.4,0.3-0.6,0.6-0.6h1c0.3,0,0.6,0.3,0.6,0.6V803.1z M776.2,795.1
			c-0.3-0.7-1.1-1.7-2.8-1.7c-1.9,0-2.9,1.7-2.9,3.5c0,1.8,1.1,3.4,3.1,3.4c1.6,0,2.6-0.7,2.6-0.7V795.1z"/>
		<path class="st0" d="M788.6,790.3c3.5,0,6.4,3,6.4,6.5c0,3.6-2.9,6.6-6.4,6.6c-3.5,0-6.4-3-6.4-6.6
			C782.2,793.2,785.1,790.3,788.6,790.3z M788.6,800.2c1.8,0,3.3-1.6,3.3-3.5c0-1.9-1.5-3.4-3.3-3.4s-3.2,1.5-3.2,3.4
			C785.4,798.7,786.8,800.2,788.6,800.2z"/>
		<path class="st0" d="M798.5,793.6h-1.2c-0.3,0-0.6-0.3-0.6-0.6v-1.8c0-0.4,0.2-0.6,0.6-0.6h1.2v-3.5c0-0.3,0.3-0.6,0.6-0.6h2.2
			c0.3,0,0.6,0.3,0.6,0.6v3.5h2.9c0.3,0,0.6,0.2,0.6,0.6v1.8c0,0.3-0.3,0.6-0.6,0.6h-2.9v5.6c0,0.8,0.4,1,1,1c0.5,0,1.6-0.3,1.9-0.4
			c0.4-0.1,0.6,0,0.7,0.3l0.3,1.6c0.1,0.3-0.1,0.6-0.3,0.7c-0.4,0.2-2.2,0.8-3.5,0.8c-2.8,0-3.5-1.9-3.5-4V793.6z"/>
		<path class="st0" d="M812.3,795.1c1.3,0,2.4,0.4,2.4,0.4c0.1-1.6-0.4-2.3-1.7-2.3c-1.1,0-2.8,0.2-3.5,0.5
			c-0.4,0.1-0.6-0.2-0.7-0.5l-0.3-1.4c-0.1-0.5,0.1-0.7,0.4-0.8c0.3-0.1,2.2-0.6,4.3-0.6c3.9,0,4.7,2,4.7,5.4v6.7
			c0,0.3-0.3,0.6-0.6,0.6h-0.9c-0.2,0-0.4-0.1-0.5-0.4l-0.3-0.8c-0.7,0.7-2,1.6-3.9,1.6c-2.5,0-4.2-1.6-4.2-4.3
			C807.3,796.8,809.1,795.1,812.3,795.1z M812.4,800.8c1.1,0,2.1-0.9,2.2-1.3v-1.8c0,0-0.8-0.4-1.8-0.4c-1.4,0-2.2,0.7-2.2,1.8
			C810.6,800.1,811.2,800.8,812.4,800.8z M811.3,788.6l-0.5-1c-0.1-0.2,0-0.4,0.2-0.5l4.4-2.6c0.2-0.2,0.6-0.2,0.7,0.1l0.8,1.4
			c0.2,0.4,0.1,0.6-0.2,0.7l-4.7,2.1C811.6,788.9,811.4,788.8,811.3,788.6z"/>
		<path class="st0" d="M822.9,798.4c1.5,0,2.7,1.2,2.7,3.6c0,2.6-1.1,4.5-2.2,5.9c-0.2,0.2-0.4,0.2-0.6,0l-0.8-0.6
			c-0.2-0.2-0.2-0.5,0-0.7c0.8-1.1,1.5-2.4,1.5-3.7c0-0.2,0-0.4-0.1-0.6c-0.3,0.2-0.6,0.3-1,0.3c-1.2,0-1.9-0.9-1.9-2.1
			C820.5,799.3,821.5,798.4,822.9,798.4z"/>
		<path class="st0" d="M844.1,783.8c2.7,0,4.7,0.9,6.5,2.5c0.2,0.2,0.2,0.5,0,0.8l-1.6,1.7c-0.2,0.2-0.5,0.2-0.7,0
			c-1.1-1-2.6-1.6-4.2-1.6c-3.5,0-6,2.9-6,6.3c0,3.4,2.6,6.2,6,6.2c1.6,0,3-0.6,4.1-1.5c0.2-0.2,0.5-0.2,0.7,0l1.7,1.7
			c0.2,0.2,0.2,0.5,0,0.7c-1.8,1.8-4.2,2.6-6.6,2.6c-5.4,0-9.7-4.3-9.7-9.7S838.7,783.8,844.1,783.8z"/>
		<path class="st0" d="M859,790.3c3.5,0,6.4,3,6.4,6.5c0,3.6-2.9,6.6-6.4,6.6c-3.5,0-6.4-3-6.4-6.6
			C852.7,793.2,855.5,790.3,859,790.3z M859,800.2c1.8,0,3.3-1.6,3.3-3.5c0-1.9-1.5-3.4-3.3-3.4s-3.2,1.5-3.2,3.4
			C855.8,798.7,857.2,800.2,859,800.2z"/>
		<path class="st0" d="M868.1,784.7c0-0.3,0.3-0.6,0.6-0.6h2.2c0.3,0,0.6,0.3,0.6,0.6v17.7c0,0.3-0.3,0.6-0.6,0.6h-2.2
			c-0.3,0-0.6-0.3-0.6-0.6V784.7z"/>
		<path class="st0" d="M880.6,790.3c3.5,0,6.4,3,6.4,6.5c0,3.6-2.9,6.6-6.4,6.6c-3.5,0-6.4-3-6.4-6.6
			C874.2,793.2,877.1,790.3,880.6,790.3z M880.6,800.2c1.8,0,3.3-1.6,3.3-3.5c0-1.9-1.5-3.4-3.3-3.4c-1.8,0-3.2,1.5-3.2,3.4
			C877.4,798.7,878.8,800.2,880.6,800.2z"/>
		<path class="st0" d="M889.7,791.1c0-0.4,0.3-0.6,0.6-0.6h1c0.3,0,0.5,0.1,0.5,0.4l0.5,1.2c0.5-0.6,1.6-1.8,3.8-1.8
			c1.8,0,2.7,0.6,3.7,1.9c0.5-0.6,1.8-1.9,4-1.9c4,0,4.9,2.5,4.9,5.8v6.4c0,0.3-0.3,0.6-0.6,0.6h-2.2c-0.3,0-0.6-0.3-0.6-0.6V796
			c0-1.6-0.6-2.6-2.2-2.6c-1.8,0-2.3,1.3-2.3,1.3s0.1,0.6,0.1,1.2v6.6c0,0.3-0.3,0.6-0.6,0.6h-2.2c-0.4,0-0.6-0.3-0.6-0.6V796
			c0-1.6-0.5-2.6-2.1-2.6c-1.5,0-2.1,1.1-2.4,1.9v7.1c0,0.3-0.3,0.6-0.6,0.6h-2.2c-0.3,0-0.6-0.3-0.6-0.6V791.1z"/>
		<path class="st0" d="M912,784.7c0-0.3,0.3-0.6,0.6-0.6h2.2c0.3,0,0.6,0.3,0.6,0.6v6.1c0.6-0.2,1.8-0.5,3-0.5c3.7,0,6,2.9,6,6.5
			c0,3.6-2.5,6.5-5.9,6.5c-2.7,0-4.2-1.9-4.2-1.9l-0.3,1c-0.1,0.4-0.3,0.6-0.6,0.6h-0.9c-0.3,0-0.6-0.3-0.6-0.6V784.7z M918.1,800.2
			c1.9,0,2.9-1.7,2.9-3.5c0-1.8-1.1-3.4-3.1-3.4c-1.6,0-2.6,0.7-2.6,0.7v4.5C915.6,799.2,916.5,800.2,918.1,800.2z"/>
		<path class="st0" d="M926.7,786.2c0-1.2,0.9-2.1,2.1-2.1c1.2,0,2.2,0.9,2.2,2.1s-0.9,2.2-2.2,2.2
			C927.6,788.4,926.7,787.4,926.7,786.2z M927.2,791.1c0-0.4,0.3-0.6,0.6-0.6h2.2c0.3,0,0.6,0.2,0.6,0.6v11.3c0,0.3-0.3,0.6-0.6,0.6
			h-2.2c-0.3,0-0.6-0.3-0.6-0.6V791.1z"/>
		<path class="st0" d="M938.1,795.1c1.3,0,2.4,0.4,2.4,0.4c0.1-1.6-0.4-2.3-1.7-2.3c-1.1,0-2.8,0.2-3.5,0.5
			c-0.4,0.1-0.6-0.2-0.7-0.5l-0.3-1.4c-0.1-0.5,0.1-0.7,0.4-0.8c0.3-0.1,2.2-0.6,4.3-0.6c3.9,0,4.7,2,4.7,5.4v6.7
			c0,0.3-0.3,0.6-0.6,0.6h-0.9c-0.2,0-0.4-0.1-0.5-0.4l-0.4-0.8c-0.7,0.7-2,1.6-3.9,1.6c-2.5,0-4.2-1.6-4.2-4.3
			C933.1,796.8,934.9,795.1,938.1,795.1z M938.2,800.8c1.1,0,2.1-0.9,2.2-1.3v-1.8c0,0-0.8-0.4-1.8-0.4c-1.4,0-2.2,0.7-2.2,1.8
			C936.4,800.1,937,800.8,938.2,800.8z"/>
	</g>
</g>
<g>
	<g>
		<path class="st0" d="M659,962.5c7.2,0,11.3,4.5,11.3,10.6c0,3.3-1.6,6.7-5.5,6.7c-1.8,0-2.7-0.9-3-2c-0.5,0.7-1.7,2-3.8,2
			c-2.9,0-5-2.2-5-5.3c0-3.2,2.4-5.2,5.3-5.2c2.2,0,3.3,1.1,3.3,1.1l0.1-0.6c0-0.2,0.1-0.3,0.4-0.3h0.3c0.2,0,0.3,0.2,0.3,0.3v6.3
			c0,1.9,0.8,2.7,2.2,2.7c2.7,0,4.4-2.3,4.4-5.8c0-5.5-3.6-9.6-10.3-9.6c-6.9,0-11.3,4.5-11.3,11.3c0,5,3.1,8.6,7.5,10.3
			c0.2,0.1,0.3,0.2,0.2,0.4l-0.2,0.4c-0.1,0.2-0.2,0.2-0.4,0.2c-4.8-1.9-8.2-5.8-8.2-11.3C646.6,967.6,651.4,962.5,659,962.5z
			 M658,978.8c2.4,0,3.3-1.8,3.5-2.3v-4.7c-0.1-0.1-1.1-1.4-3.2-1.4c-2.3,0-4.2,1.7-4.2,4.2S655.8,978.8,658,978.8z"/>
		<path class="st0" d="M674.3,969.8h-1.5c-0.3,0-0.4-0.2-0.4-0.4V969c0-0.2,0.2-0.3,0.4-0.3h1.5v-3.2c0-0.2,0.2-0.4,0.4-0.4l0.3,0
			c0.2,0,0.4,0.2,0.4,0.4v3.2h4.4c0.3,0,0.4,0.2,0.4,0.4v0.3c0,0.2-0.2,0.4-0.4,0.4h-4.4v7.6c0,1.5,0.3,2.1,1.7,2.1
			c1.4,0,2.5-0.7,2.8-0.9c0.3-0.2,0.4,0,0.5,0.1l0.2,0.4c0.1,0.2,0.1,0.3-0.1,0.5c-0.5,0.3-1.9,1.1-3.6,1.1c-2.3,0-2.7-1.4-2.7-3.1
			V969.8z"/>
		<path class="st0" d="M683.5,963.1c0-0.2,0.2-0.4,0.4-0.4h0.3c0.2,0,0.4,0.2,0.4,0.4v7.1c0.4-0.4,1.9-1.8,4.3-1.8
			c3.3,0,4.7,1.9,4.7,5.1v6.3c0,0.2-0.2,0.4-0.4,0.4h-0.4c-0.2,0-0.4-0.2-0.4-0.4v-6.3c0-2.7-1.1-4-3.5-4c-2.4,0-3.9,1.7-4.2,2.1
			v8.3c0,0.3-0.1,0.4-0.4,0.4h-0.4c-0.2,0-0.3-0.2-0.3-0.4V963.1z"/>
		<path class="st0" d="M703.2,968.5c3.3,0,5.6,2.3,5.6,5.3c0,0.5,0,1.1-0.5,1.1h-9.9c0.1,2.6,2.2,4.6,4.8,4.6c1.7,0,3.1-0.7,3.8-1.2
			c0.3-0.2,0.4-0.2,0.5,0l0.3,0.4c0.1,0.1,0.1,0.3-0.1,0.5c-0.7,0.6-2.6,1.4-4.5,1.4c-3.7,0-6-2.7-6-6.1
			C697.2,971.2,699.5,968.5,703.2,968.5z M707.5,973.9c0-2.3-1.6-4.3-4.4-4.3c-2.7,0-4.6,1.9-4.8,4.3H707.5z"/>
		<path class="st0" d="M711.3,979.5c-0.2-0.1-0.3-0.4-0.2-0.6l0.8-1.5c0.1-0.3,0.4-0.4,0.7-0.2c0.6,0.3,1.5,0.8,2.7,0.8
			c0.9,0,1.4-0.3,1.4-0.8c0-0.5-0.7-1-2.3-1.6c-2.4-0.9-3.5-1.9-3.5-3.7c0-1.8,1.4-3.4,4.5-3.4c1.8,0,3,0.5,3.7,0.9
			c0.3,0.2,0.4,0.5,0.3,0.8l-0.7,1.3c-0.2,0.3-0.5,0.3-0.8,0.2c-0.6-0.3-1.5-0.6-2.5-0.6c-0.8,0-1.2,0.4-1.2,0.8
			c0,0.5,0.6,0.8,1.8,1.3c2.4,0.9,4.1,1.7,4.1,4c0,1.8-1.7,3.5-4.8,3.5C713.3,980.6,712,980,711.3,979.5z"/>
		<path class="st0" d="M722.3,964.7c0-1.1,0.9-2,2.1-2s2.2,0.9,2.2,2s-0.9,2-2.2,2S722.3,965.8,722.3,964.7z M722.8,969.3
			c0-0.3,0.3-0.6,0.6-0.6h2.2c0.3,0,0.6,0.2,0.6,0.6v10.5c0,0.3-0.3,0.6-0.6,0.6h-2.2c-0.3,0-0.6-0.3-0.6-0.6V969.3z"/>
		<path class="st0" d="M741.3,980.4c0,3.7-2.8,5.6-6.2,5.6c-2,0-3.9-0.9-4.5-1.3c-0.2-0.2-0.3-0.5-0.1-0.7l0.8-1.6
			c0.1-0.2,0.5-0.3,0.7-0.2c0.5,0.3,1.7,0.9,3,0.9c1.9,0,2.9-0.6,2.9-2.8v-0.3c-0.6,0.2-1.7,0.5-3,0.5c-3.7,0-6.2-2.7-6.2-6
			c0-3.5,2.6-6.1,5.9-6.1c2.6,0,4.1,1.7,4.1,1.7l0.3-0.9c0.1-0.3,0.3-0.6,0.6-0.6h1c0.3,0,0.6,0.3,0.6,0.6V980.4z M738,972.9
			c-0.3-0.7-1.1-1.6-2.7-1.6c-1.9,0-2.9,1.6-2.9,3.2s1,3.2,3.1,3.2c1.6,0,2.6-0.7,2.6-0.7V972.9z"/>
		<path class="st0" d="M744.8,969.3c0-0.3,0.3-0.6,0.6-0.6h1c0.3,0,0.4,0.1,0.5,0.4l0.5,1.1c0.5-0.5,1.6-1.7,4-1.7c4,0,5,2.5,5,5.3
			v6c0,0.3-0.3,0.6-0.6,0.6h-2.2c-0.3,0-0.6-0.3-0.6-0.6v-6c0-1.5-0.6-2.4-2.2-2.4c-1.6,0-2.4,1-2.7,1.8v6.6c0,0.4-0.2,0.6-0.8,0.6
			h-2c-0.3,0-0.6-0.3-0.6-0.6V969.3z"/>
		<path class="st0" d="M760.4,963.1c0-0.2,0.2-0.4,0.4-0.4h0.4c0.2,0,0.4,0.2,0.4,0.4v16.8c0,0.3-0.1,0.4-0.4,0.4h-0.4
			c-0.2,0-0.3-0.2-0.3-0.4V963.1z"/>
		<path class="st0" d="M770.3,972.8c1.4,0,2.9,0.4,3.2,0.5c0-2.6-0.3-3.9-2.8-3.9c-2,0-3.5,0.7-3.7,0.8c-0.3,0.1-0.4,0-0.5-0.2
			l-0.1-0.4c-0.1-0.2,0-0.4,0.2-0.4c0.1-0.1,1.7-0.9,4.3-0.9c3.8,0,3.9,2.1,3.9,5v6.4c0,0.2-0.2,0.4-0.4,0.4H774
			c-0.2,0-0.3-0.1-0.4-0.3l-0.1-1.1c-0.8,0.7-2.4,1.7-4.4,1.7c-2.3,0-4-1.5-4-3.8C765.1,974.5,767.1,972.8,770.3,972.8z
			 M769.3,979.5c1.9,0,3.6-1.1,4.2-1.8v-3.3c-0.4-0.2-1.7-0.6-3.2-0.6c-2.4,0-4,1.2-4,2.9C766.3,978.4,767.6,979.5,769.3,979.5z"/>
		<path class="st0" d="M784.6,980.6c-2.4,0-4-1.3-4.4-1.7l-0.1,1c-0.1,0.3-0.2,0.4-0.5,0.4h-0.2c-0.2,0-0.4-0.2-0.4-0.4v-16.8
			c0-0.2,0.2-0.4,0.4-0.4h0.4c0.3,0,0.4,0.2,0.4,0.4v6.5c0,0,1.5-1.1,3.9-1.1c3.5,0,6,2.7,6,6C790.2,977.9,787.8,980.6,784.6,980.6z
			 M784,969.6c-2.3,0-3.8,1.3-3.8,1.3v6.7c0.1,0.1,1.5,2,4.2,2c2.6,0,4.5-2.3,4.5-5C789,971.8,786.9,969.6,784,969.6z"/>
		<path class="st0" d="M799.5,968.5c2.4,0,4,1.1,4.6,1.8c0.2,0.2,0.1,0.4,0,0.5l-0.2,0.2c-0.2,0.2-0.5,0.2-0.7-0.1
			c-0.3-0.3-1.7-1.4-3.7-1.4c-2.8,0-5.2,2.2-5.2,4.9c0,2.8,2.3,5,5.3,5c2.3,0,3.6-1.4,3.9-1.8c0.2-0.2,0.4-0.2,0.6,0l0.2,0.2
			c0.2,0.2,0.2,0.3,0.1,0.5c-0.5,0.7-2.3,2.2-4.9,2.2c-3.5,0-6.4-2.6-6.4-6.1C793,971,795.9,968.5,799.5,968.5z"/>
		<path class="st0" d="M813.2,968.5c3.5,0,6.2,2.7,6.2,6c0,3.4-2.8,6.1-6.2,6.1c-3.5,0-6.2-2.7-6.2-6.1
			C806.9,971.2,809.6,968.5,813.2,968.5z M813.2,979.5c2.8,0,5-2.2,5-5c0-2.7-2.2-4.9-5-4.9c-2.8,0-5.1,2.2-5.1,4.9
			C808.1,977.3,810.3,979.5,813.2,979.5z"/>
	</g>
	<g>
		<path class="st0" d="M911,963.5c7.2,0,11.3,4.5,11.3,10.6c0,3.3-1.6,6.7-5.5,6.7c-1.8,0-2.7-0.9-3-2c-0.5,0.7-1.7,2-3.8,2
			c-2.9,0-5-2.2-5-5.3c0-3.2,2.4-5.2,5.3-5.2c2.2,0,3.3,1.1,3.3,1.1l0.1-0.6c0-0.2,0.1-0.3,0.4-0.3h0.3c0.2,0,0.3,0.2,0.3,0.3v6.3
			c0,1.9,0.8,2.7,2.2,2.7c2.7,0,4.4-2.3,4.4-5.8c0-5.5-3.6-9.6-10.3-9.6c-6.9,0-11.3,4.5-11.3,11.3c0,5,3.1,8.6,7.5,10.3
			c0.2,0.1,0.3,0.2,0.2,0.4l-0.2,0.4c-0.1,0.2-0.2,0.2-0.4,0.2c-4.8-1.9-8.2-5.8-8.2-11.3C898.6,968.6,903.4,963.5,911,963.5z
			 M910,979.8c2.4,0,3.3-1.8,3.5-2.3v-4.7c-0.1-0.1-1.1-1.4-3.2-1.4c-2.3,0-4.2,1.7-4.2,4.2S907.8,979.8,910,979.8z"/>
		<path class="st0" d="M926.3,970.8h-1.5c-0.3,0-0.4-0.2-0.4-0.4V970c0-0.2,0.2-0.3,0.4-0.3h1.5v-3.2c0-0.2,0.2-0.4,0.4-0.4l0.3,0
			c0.2,0,0.4,0.2,0.4,0.4v3.2h4.4c0.3,0,0.4,0.2,0.4,0.4v0.3c0,0.2-0.2,0.4-0.4,0.4h-4.4v7.6c0,1.5,0.3,2.1,1.7,2.1
			c1.4,0,2.5-0.7,2.8-0.9c0.3-0.2,0.4,0,0.5,0.1l0.2,0.4c0.1,0.2,0.1,0.3-0.1,0.5c-0.5,0.3-1.9,1.1-3.6,1.1c-2.3,0-2.7-1.4-2.7-3.1
			V970.8z"/>
		<path class="st0" d="M935.5,964.1c0-0.2,0.2-0.4,0.4-0.4h0.3c0.2,0,0.4,0.2,0.4,0.4v7.1c0.4-0.4,1.9-1.8,4.3-1.8
			c3.3,0,4.7,1.9,4.7,5.1v6.3c0,0.2-0.2,0.4-0.4,0.4h-0.4c-0.2,0-0.4-0.2-0.4-0.4v-6.3c0-2.7-1.1-4-3.5-4c-2.4,0-3.9,1.7-4.2,2.1
			v8.3c0,0.3-0.1,0.4-0.4,0.4h-0.4c-0.2,0-0.3-0.2-0.3-0.4V964.1z"/>
		<path class="st0" d="M955.2,969.5c3.3,0,5.6,2.3,5.6,5.3c0,0.5,0,1.1-0.5,1.1h-9.9c0.1,2.6,2.2,4.6,4.8,4.6c1.7,0,3.1-0.7,3.8-1.2
			c0.3-0.2,0.4-0.2,0.5,0l0.3,0.4c0.1,0.1,0.1,0.3-0.1,0.5c-0.7,0.6-2.6,1.4-4.5,1.4c-3.7,0-6-2.7-6-6.1
			C949.2,972.2,951.5,969.5,955.2,969.5z M959.5,974.9c0-2.3-1.6-4.3-4.4-4.3c-2.7,0-4.6,1.9-4.8,4.3H959.5z"/>
		<path class="st0" d="M963.3,980.5c-0.2-0.1-0.3-0.4-0.2-0.6l0.8-1.5c0.1-0.3,0.4-0.4,0.7-0.2c0.6,0.3,1.5,0.8,2.7,0.8
			c0.9,0,1.4-0.3,1.4-0.8c0-0.5-0.7-1-2.3-1.6c-2.4-0.9-3.5-1.9-3.5-3.7c0-1.8,1.4-3.4,4.5-3.4c1.8,0,3,0.5,3.7,0.9
			c0.3,0.2,0.4,0.5,0.3,0.8l-0.7,1.3c-0.2,0.3-0.5,0.3-0.8,0.2c-0.6-0.3-1.5-0.6-2.5-0.6c-0.8,0-1.2,0.4-1.2,0.8
			c0,0.5,0.6,0.8,1.8,1.3c2.4,0.9,4.1,1.7,4.1,4c0,1.8-1.7,3.5-4.8,3.5C965.3,981.6,964,981,963.3,980.5z"/>
		<path class="st0" d="M974.3,965.7c0-1.1,0.9-2,2.1-2s2.2,0.9,2.2,2s-0.9,2-2.2,2S974.3,966.8,974.3,965.7z M974.8,970.3
			c0-0.3,0.3-0.6,0.6-0.6h2.2c0.3,0,0.6,0.2,0.6,0.6v10.5c0,0.3-0.3,0.6-0.6,0.6h-2.2c-0.3,0-0.6-0.3-0.6-0.6V970.3z"/>
		<path class="st0" d="M993.3,981.4c0,3.7-2.8,5.6-6.2,5.6c-2,0-3.9-0.9-4.5-1.3c-0.2-0.2-0.3-0.5-0.1-0.7l0.8-1.6
			c0.1-0.2,0.5-0.3,0.7-0.2c0.5,0.3,1.7,0.9,3,0.9c1.9,0,2.9-0.6,2.9-2.8v-0.3c-0.6,0.2-1.7,0.5-3,0.5c-3.7,0-6.2-2.7-6.2-6
			c0-3.5,2.6-6.1,5.9-6.1c2.6,0,4.1,1.7,4.1,1.7l0.3-0.9c0.1-0.3,0.3-0.6,0.6-0.6h1c0.3,0,0.6,0.3,0.6,0.6V981.4z M990,973.9
			c-0.3-0.7-1.1-1.6-2.7-1.6c-1.9,0-2.9,1.6-2.9,3.2s1,3.2,3.1,3.2c1.6,0,2.6-0.7,2.6-0.7V973.9z"/>
		<path class="st0" d="M996.8,970.3c0-0.3,0.3-0.6,0.6-0.6h1c0.3,0,0.4,0.1,0.5,0.4l0.5,1.1c0.5-0.5,1.6-1.7,4-1.7c4,0,5,2.5,5,5.3
			v6c0,0.3-0.3,0.6-0.6,0.6h-2.2c-0.3,0-0.6-0.3-0.6-0.6v-6c0-1.5-0.6-2.4-2.2-2.4c-1.6,0-2.4,1-2.7,1.8v6.6c0,0.4-0.2,0.6-0.8,0.6
			h-2c-0.3,0-0.6-0.3-0.6-0.6V970.3z"/>
		<path class="st0" d="M1012.4,964.1c0-0.2,0.2-0.4,0.4-0.4h0.4c0.2,0,0.4,0.2,0.4,0.4v16.8c0,0.3-0.1,0.4-0.4,0.4h-0.4
			c-0.2,0-0.3-0.2-0.3-0.4V964.1z"/>
		<path class="st0" d="M1022.3,973.8c1.4,0,2.9,0.4,3.2,0.5c0-2.6-0.3-3.9-2.8-3.9c-2,0-3.5,0.7-3.7,0.8c-0.3,0.1-0.4,0-0.5-0.2
			l-0.1-0.4c-0.1-0.2,0-0.4,0.2-0.4c0.1-0.1,1.7-0.9,4.3-0.9c3.8,0,3.9,2.1,3.9,5v6.4c0,0.2-0.2,0.4-0.4,0.4h-0.2
			c-0.2,0-0.3-0.1-0.4-0.3l-0.1-1.1c-0.8,0.7-2.4,1.7-4.4,1.7c-2.3,0-4-1.5-4-3.8C1017.1,975.5,1019.1,973.8,1022.3,973.8z
			 M1021.3,980.5c1.9,0,3.6-1.1,4.2-1.8v-3.3c-0.4-0.2-1.7-0.6-3.2-0.6c-2.4,0-4,1.2-4,2.9C1018.3,979.4,1019.6,980.5,1021.3,980.5z
			"/>
		<path class="st0" d="M1036.6,981.6c-2.4,0-4-1.3-4.4-1.7l-0.1,1c-0.1,0.3-0.2,0.4-0.5,0.4h-0.2c-0.2,0-0.4-0.2-0.4-0.4v-16.8
			c0-0.2,0.2-0.4,0.4-0.4h0.4c0.3,0,0.4,0.2,0.4,0.4v6.5c0,0,1.5-1.1,3.9-1.1c3.5,0,6,2.7,6,6
			C1042.2,978.9,1039.8,981.6,1036.6,981.6z M1036,970.6c-2.3,0-3.8,1.3-3.8,1.3v6.7c0.1,0.1,1.5,2,4.2,2c2.6,0,4.5-2.3,4.5-5
			C1041,972.8,1038.9,970.6,1036,970.6z"/>
		<path class="st0" d="M1051.5,969.5c2.4,0,4,1.1,4.6,1.8c0.2,0.2,0.1,0.4,0,0.5l-0.2,0.2c-0.2,0.2-0.5,0.2-0.7-0.1
			c-0.3-0.3-1.7-1.4-3.7-1.4c-2.8,0-5.2,2.2-5.2,4.9c0,2.8,2.3,5,5.3,5c2.3,0,3.6-1.4,3.9-1.8c0.2-0.2,0.4-0.2,0.6,0l0.2,0.2
			c0.2,0.2,0.2,0.3,0.1,0.5c-0.5,0.7-2.3,2.2-4.9,2.2c-3.5,0-6.4-2.6-6.4-6.1C1045,972,1047.9,969.5,1051.5,969.5z"/>
		<path class="st0" d="M1065.2,969.5c3.5,0,6.2,2.7,6.2,6c0,3.4-2.8,6.1-6.2,6.1c-3.5,0-6.2-2.7-6.2-6.1
			C1058.9,972.2,1061.6,969.5,1065.2,969.5z M1065.2,980.5c2.8,0,5-2.2,5-5c0-2.7-2.2-4.9-5-4.9c-2.8,0-5.1,2.2-5.1,4.9
			C1060.1,978.3,1062.3,980.5,1065.2,980.5z"/>
	</g>
	<g>
		<path class="st0" d="M1164.9,971.8h-1.5c-0.3,0-0.4-0.2-0.4-0.4V971c0-0.2,0.2-0.3,0.4-0.3h1.5v-3.2c0-0.2,0.2-0.4,0.4-0.4l0.3,0
			c0.2,0,0.4,0.2,0.4,0.4v3.2h4.4c0.3,0,0.4,0.2,0.4,0.4v0.3c0,0.2-0.2,0.4-0.4,0.4h-4.4v7.6c0,1.5,0.3,2.1,1.7,2.1
			c1.4,0,2.5-0.7,2.8-0.9c0.3-0.2,0.4,0,0.5,0.1l0.2,0.4c0.1,0.2,0.1,0.3-0.1,0.5c-0.5,0.3-1.9,1.1-3.6,1.1c-2.3,0-2.7-1.4-2.7-3.1
			V971.8z"/>
		<path class="st0" d="M1174,965.1c0-0.2,0.2-0.4,0.4-0.4h0.3c0.2,0,0.4,0.2,0.4,0.4v7.1c0.4-0.4,1.9-1.8,4.3-1.8
			c3.3,0,4.7,1.9,4.7,5.1v6.3c0,0.2-0.2,0.4-0.4,0.4h-0.4c-0.2,0-0.4-0.2-0.4-0.4v-6.3c0-2.7-1.1-4-3.5-4c-2.4,0-3.9,1.7-4.2,2.1
			v8.3c0,0.3-0.1,0.4-0.4,0.4h-0.4c-0.2,0-0.3-0.2-0.3-0.4V965.1z"/>
		<path class="st0" d="M1193.7,970.5c3.3,0,5.6,2.3,5.6,5.3c0,0.5,0,1.1-0.5,1.1h-9.9c0.1,2.6,2.2,4.6,4.8,4.6
			c1.7,0,3.1-0.7,3.8-1.2c0.3-0.2,0.4-0.2,0.5,0l0.3,0.4c0.1,0.1,0.1,0.3-0.1,0.5c-0.7,0.6-2.6,1.4-4.5,1.4c-3.7,0-6-2.7-6-6.1
			C1187.7,973.2,1190,970.5,1193.7,970.5z M1198.1,975.9c0-2.3-1.6-4.3-4.4-4.3c-2.7,0-4.6,1.9-4.8,4.3H1198.1z"/>
		<path class="st0" d="M1208.3,981.5c-0.2-0.1-0.3-0.4-0.2-0.6l0.8-1.5c0.1-0.3,0.4-0.4,0.7-0.2c0.6,0.3,1.5,0.8,2.7,0.8
			c0.9,0,1.4-0.3,1.4-0.8c0-0.5-0.7-1-2.3-1.6c-2.4-0.9-3.5-1.9-3.5-3.7c0-1.8,1.4-3.4,4.5-3.4c1.8,0,3,0.5,3.7,0.9
			c0.3,0.2,0.4,0.5,0.3,0.8l-0.7,1.3c-0.2,0.3-0.5,0.3-0.8,0.2c-0.6-0.3-1.5-0.6-2.5-0.6c-0.8,0-1.2,0.4-1.2,0.8
			c0,0.5,0.6,0.8,1.8,1.3c2.4,0.9,4.1,1.7,4.1,4c0,1.8-1.7,3.5-4.8,3.5C1210.3,982.6,1209,982,1208.3,981.5z"/>
		<path class="st0" d="M1219.3,966.7c0-1.1,0.9-2,2.1-2c1.2,0,2.2,0.9,2.2,2s-0.9,2-2.2,2C1220.2,968.8,1219.3,967.8,1219.3,966.7z
			 M1219.8,971.3c0-0.3,0.3-0.6,0.6-0.6h2.2c0.3,0,0.6,0.2,0.6,0.6v10.5c0,0.3-0.3,0.6-0.6,0.6h-2.2c-0.3,0-0.6-0.3-0.6-0.6V971.3z"
			/>
		<path class="st0" d="M1238.3,982.4c0,3.7-2.8,5.6-6.2,5.6c-2,0-3.9-0.9-4.5-1.3c-0.2-0.2-0.3-0.5-0.1-0.7l0.8-1.6
			c0.1-0.2,0.5-0.3,0.7-0.2c0.5,0.3,1.7,0.9,3,0.9c1.9,0,2.9-0.6,2.9-2.8v-0.3c-0.6,0.2-1.7,0.5-3,0.5c-3.7,0-6.2-2.7-6.2-6
			c0-3.5,2.6-6.1,5.9-6.1c2.6,0,4.1,1.7,4.1,1.7l0.3-0.9c0.1-0.3,0.3-0.6,0.6-0.6h1c0.3,0,0.6,0.3,0.6,0.6V982.4z M1235,974.9
			c-0.3-0.7-1.1-1.6-2.7-1.6c-1.9,0-2.9,1.6-2.9,3.2s1,3.2,3.1,3.2c1.6,0,2.6-0.7,2.6-0.7V974.9z"/>
		<path class="st0" d="M1241.8,971.3c0-0.3,0.3-0.6,0.6-0.6h1c0.3,0,0.4,0.1,0.5,0.4l0.5,1.1c0.5-0.5,1.6-1.7,4-1.7c4,0,5,2.5,5,5.3
			v6c0,0.3-0.3,0.6-0.6,0.6h-2.2c-0.3,0-0.6-0.3-0.6-0.6v-6c0-1.5-0.6-2.4-2.2-2.4c-1.6,0-2.4,1-2.7,1.8v6.6c0,0.4-0.2,0.6-0.8,0.6
			h-2c-0.3,0-0.6-0.3-0.6-0.6V971.3z"/>
		<path class="st0" d="M1263.8,965.1c0-0.2,0.2-0.4,0.4-0.4h0.4c0.2,0,0.4,0.2,0.4,0.4v16.8c0,0.3-0.1,0.4-0.4,0.4h-0.4
			c-0.2,0-0.3-0.2-0.3-0.4V965.1z"/>
		<path class="st0" d="M1273.8,974.8c1.4,0,2.9,0.4,3.2,0.5c0-2.6-0.3-3.9-2.8-3.9c-2,0-3.5,0.7-3.7,0.8c-0.3,0.1-0.4,0-0.5-0.2
			l-0.1-0.4c-0.1-0.2,0-0.4,0.2-0.4c0.1-0.1,1.7-0.9,4.3-0.9c3.8,0,3.9,2.1,3.9,5v6.4c0,0.2-0.2,0.4-0.4,0.4h-0.2
			c-0.2,0-0.3-0.1-0.4-0.3l-0.1-1.1c-0.8,0.7-2.4,1.7-4.4,1.7c-2.3,0-4-1.5-4-3.8C1268.6,976.5,1270.5,974.8,1273.8,974.8z
			 M1272.8,981.5c1.9,0,3.6-1.1,4.2-1.8v-3.3c-0.4-0.2-1.7-0.6-3.2-0.6c-2.4,0-4,1.2-4,2.9C1269.8,980.4,1271,981.5,1272.8,981.5z"
			/>
		<path class="st0" d="M1288,982.6c-2.4,0-4-1.3-4.4-1.7l-0.1,1c-0.1,0.3-0.2,0.4-0.5,0.4h-0.2c-0.2,0-0.4-0.2-0.4-0.4v-16.8
			c0-0.2,0.2-0.4,0.4-0.4h0.4c0.3,0,0.4,0.2,0.4,0.4v6.5c0,0,1.5-1.1,3.9-1.1c3.5,0,6,2.7,6,6C1293.7,979.9,1291.2,982.6,1288,982.6
			z M1287.5,971.6c-2.3,0-3.8,1.3-3.8,1.3v6.7c0.1,0.1,1.5,2,4.2,2c2.6,0,4.5-2.3,4.5-5C1292.5,973.8,1290.3,971.6,1287.5,971.6z"/>
	</g>
	<g>
		<path class="st0" d="M388.8,975.5h-2.3c-0.2,0-0.3-0.2-0.3-0.4V975c0-0.2,0.1-0.4,0.3-0.4h2.4l0.8-4.9h-2.4
			c-0.2,0-0.4-0.2-0.4-0.4v-0.2c0-0.2,0.2-0.4,0.4-0.4h2.6l1.1-6.5c0-0.2,0.2-0.3,0.4-0.3h0.2c0.2,0,0.3,0.2,0.3,0.4l-1.1,6.4h4.4
			l1.1-6.5c0-0.2,0.2-0.3,0.4-0.3h0.2c0.2,0,0.3,0.2,0.3,0.4l-1.1,6.4h2.3c0.2,0,0.3,0.2,0.3,0.4v0.2c0,0.2-0.1,0.4-0.3,0.4h-2.4
			l-0.8,4.9h2.4c0.2,0,0.4,0.2,0.4,0.4v0.1c0,0.2-0.1,0.4-0.3,0.4h-2.6l-0.9,5.3c0,0.2-0.2,0.3-0.4,0.3h-0.2c-0.2,0-0.4-0.1-0.3-0.4
			l0.9-5.2h-4.5l-0.9,5.3c0,0.2-0.2,0.3-0.4,0.3h-0.2c-0.2,0-0.4-0.1-0.3-0.4L388.8,975.5z M394.2,974.6l0.8-4.9h-4.4l-0.8,4.9
			H394.2z"/>
		<path class="st0" d="M401,969.1c-0.1-0.3-0.1-0.5,0.2-0.5h0.6c0.2,0,0.4,0.1,0.4,0.3l3,10.1h0.1l3.8-10.4c0.1-0.2,0.2-0.3,0.4-0.3
			h0.1c0.2,0,0.3,0.1,0.4,0.3l3.7,10.4h0.1l3-10.1c0.1-0.2,0.3-0.3,0.4-0.3h0.6c0.3,0,0.3,0.2,0.2,0.5l-3.7,12
			c-0.1,0.2-0.2,0.3-0.4,0.3h-0.1c-0.2,0-0.3-0.1-0.4-0.3l-3.7-10.7h-0.1l-3.8,10.7c-0.1,0.2-0.2,0.3-0.4,0.3h-0.1
			c-0.2,0-0.3-0.1-0.4-0.3L401,969.1z"/>
	</g>
	<g>
		<path class="st0" d="M426.3,968.3c3.3,0,5.6,2.5,5.6,5.7c0,0.5,0,1.2-0.5,1.2h-10c0.1,2.8,2.2,5,4.9,5c1.8,0,3.1-0.7,3.9-1.2
			c0.3-0.2,0.4-0.2,0.5,0l0.3,0.5c0.1,0.1,0.1,0.3-0.1,0.5c-0.7,0.6-2.6,1.5-4.6,1.5c-3.7,0-6.1-2.9-6.1-6.6
			C420.3,971.2,422.6,968.3,426.3,968.3z M430.7,974.1c0-2.5-1.6-4.6-4.4-4.6c-2.7,0-4.7,2-4.8,4.6H430.7z"/>
	</g>
	<g>
		<path class="st0" d="M434.5,980.2c-0.2-0.1-0.3-0.4-0.2-0.7l0.8-1.6c0.1-0.3,0.4-0.4,0.7-0.2c0.6,0.4,1.5,0.8,2.8,0.8
			c1,0,1.4-0.4,1.4-0.9c0-0.6-0.7-1.1-2.4-1.7c-2.4-0.9-3.5-2.1-3.5-4c0-1.9,1.4-3.7,4.5-3.7c1.8,0,3,0.5,3.7,0.9
			c0.3,0.2,0.4,0.5,0.3,0.9l-0.7,1.4c-0.2,0.3-0.5,0.4-0.8,0.2c-0.6-0.3-1.5-0.6-2.5-0.6c-0.8,0-1.2,0.4-1.2,0.8
			c0,0.6,0.6,0.9,1.8,1.4c2.4,1,4.2,1.8,4.2,4.3c0,2-1.7,3.7-4.8,3.7C436.5,981.4,435.2,980.7,434.5,980.2z"/>
		<path class="st0" d="M445.6,964.2c0-1.2,0.9-2.1,2.1-2.1c1.2,0,2.2,1,2.2,2.1s-1,2.2-2.2,2.2C446.6,966.4,445.6,965.4,445.6,964.2
			z M446.1,969.1c0-0.4,0.3-0.6,0.6-0.6h2.2c0.3,0,0.6,0.2,0.6,0.6v11.4c0,0.3-0.3,0.6-0.6,0.6h-2.2c-0.3,0-0.6-0.3-0.6-0.6V969.1z"
			/>
		<path class="st0" d="M464.9,981.2c0,4-2.8,6.1-6.2,6.1c-2.1,0-3.9-1-4.5-1.4c-0.2-0.2-0.3-0.5-0.1-0.7l0.8-1.8
			c0.1-0.2,0.5-0.3,0.7-0.2c0.5,0.3,1.7,1,3,1c1.9,0,3-0.7,3-3v-0.4c-0.6,0.2-1.8,0.5-3,0.5c-3.7,0-6.2-2.9-6.2-6.5
			c0-3.8,2.6-6.6,6-6.6c2.7,0,4.1,1.9,4.1,1.9l0.3-1c0.1-0.4,0.3-0.6,0.6-0.6h1c0.3,0,0.6,0.3,0.6,0.6V981.2z M461.5,973.1
			c-0.3-0.7-1.1-1.7-2.8-1.7c-2,0-3,1.7-3,3.5s1.1,3.4,3.1,3.4c1.6,0,2.6-0.7,2.6-0.7V973.1z"/>
		<path class="st0" d="M468.3,969.1c0-0.4,0.3-0.6,0.6-0.6h1c0.3,0,0.4,0.1,0.5,0.4l0.5,1.2c0.5-0.5,1.6-1.8,4-1.8c4,0,5,2.7,5,5.7
			v6.5c0,0.3-0.3,0.6-0.6,0.6h-2.2c-0.3,0-0.6-0.3-0.6-0.6V974c0-1.6-0.7-2.6-2.2-2.6c-1.6,0-2.4,1.1-2.7,2v7.2
			c0,0.5-0.2,0.6-0.8,0.6h-2c-0.3,0-0.6-0.3-0.6-0.6V969.1z"/>
	</g>
	<g>
		<path class="st0" d="M489.3,968.3c3.5,0,6.3,3,6.3,6.5c0,3.7-2.8,6.6-6.3,6.6c-3.6,0-6.3-2.9-6.3-6.6
			C483,971.2,485.8,968.3,489.3,968.3z M489.3,980.2c2.8,0,5-2.4,5-5.4c0-2.9-2.2-5.4-5-5.4c-2.9,0-5.1,2.4-5.1,5.4
			C484.2,977.8,486.5,980.2,489.3,980.2z"/>
		<path class="st0" d="M499.2,968.9c0-0.2,0.2-0.4,0.4-0.4h0.4c0.2,0,0.4,0.2,0.4,0.4v7c0,2.9,1,4.2,3.6,4.2c2.4,0,3.6-1.8,4-2.3
			v-8.9c0-0.3,0.1-0.4,0.4-0.4h0.4c0.2,0,0.4,0.2,0.4,0.4v11.7c0,0.2-0.2,0.4-0.4,0.4h-0.2c-0.2,0-0.4-0.2-0.4-0.4l-0.1-1.2
			c-0.3,0.4-1.7,1.9-4.1,1.9c-3.5,0-4.7-1.9-4.7-5.4V968.9z"/>
		<path class="st0" d="M513.7,968.9c0-0.2,0.2-0.4,0.4-0.4h0.2c0.2,0,0.3,0.1,0.4,0.4l0.1,1.3c0.3-0.4,1.7-1.9,4-1.9
			c1,0,1.7,0.3,2,0.4c0.3,0.1,0.4,0.3,0.3,0.6l-0.2,0.5c-0.1,0.2-0.3,0.3-0.5,0.2c-0.1-0.1-0.8-0.4-1.7-0.4c-2.4,0-3.7,2-3.8,2.1
			v9.1c0,0.3-0.1,0.4-0.4,0.4H514c-0.2,0-0.4-0.2-0.4-0.4V968.9z"/>
		<path class="st0" d="M522.6,969.1c-0.1-0.3-0.1-0.5,0.2-0.5h0.6c0.2,0,0.4,0.1,0.4,0.3l3,10.1h0.1l3.8-10.4
			c0.1-0.2,0.2-0.3,0.4-0.3h0.1c0.2,0,0.3,0.1,0.4,0.3l3.7,10.4h0.1l3-10.1c0.1-0.2,0.3-0.3,0.4-0.3h0.6c0.3,0,0.3,0.2,0.2,0.5
			l-3.7,12c-0.1,0.2-0.2,0.3-0.4,0.3h-0.1c-0.2,0-0.3-0.1-0.4-0.3l-3.7-10.7H531l-3.8,10.7c-0.1,0.2-0.2,0.3-0.4,0.3h-0.1
			c-0.2,0-0.3-0.1-0.4-0.3L522.6,969.1z"/>
	</g>
	<g>
		<path class="st0" d="M548.1,968.3c3.5,0,6.3,3,6.3,6.5c0,3.7-2.8,6.6-6.3,6.6c-3.6,0-6.3-2.9-6.3-6.6
			C541.8,971.2,544.5,968.3,548.1,968.3z M548.1,980.2c2.8,0,5-2.4,5-5.4c0-2.9-2.2-5.4-5-5.4c-2.9,0-5.1,2.4-5.1,5.4
			C543,977.8,545.2,980.2,548.1,980.2z"/>
		<path class="st0" d="M558.1,968.9c0-0.2,0.2-0.4,0.4-0.4h0.2c0.2,0,0.3,0.1,0.4,0.4l0.1,1.3c0.3-0.4,1.7-1.9,4-1.9
			c1,0,1.7,0.3,2,0.4c0.3,0.1,0.4,0.3,0.3,0.6l-0.2,0.5c-0.1,0.2-0.3,0.3-0.5,0.2c-0.1-0.1-0.8-0.4-1.7-0.4c-2.4,0-3.7,2-3.8,2.1
			v9.1c0,0.3-0.1,0.4-0.4,0.4h-0.4c-0.2,0-0.4-0.2-0.4-0.4V968.9z"/>
		<path class="st0" d="M568.4,962.5c0-0.2,0.2-0.4,0.4-0.4h0.4c0.2,0,0.4,0.2,0.4,0.4v18.2c0,0.3-0.1,0.4-0.4,0.4h-0.4
			c-0.2,0-0.4-0.2-0.4-0.4V962.5z"/>
		<path class="st0" d="M579.5,968.3c2.4,0,4,1.2,4,1.2v-7c0-0.2,0.1-0.4,0.4-0.4h0.4c0.2,0,0.4,0.2,0.4,0.4v18.2
			c0,0.2-0.2,0.4-0.4,0.4h-0.2c-0.2,0-0.4-0.1-0.5-0.4l-0.1-1.1c-0.4,0.4-2,1.8-4.4,1.8c-3.3,0-5.7-2.9-5.7-6.6
			C573.5,971.2,576,968.3,579.5,968.3z M579.3,980.2c2.7,0,4.2-2,4.2-2.1v-7.3c0,0-1.5-1.4-3.8-1.4c-2.9,0-5,2.4-5,5.4
			C574.7,977.7,576.6,980.2,579.3,980.2z"/>
		<path class="st0" d="M595.8,960.8c0-0.2,0.2-0.4,0.4-0.4h0.2c0.2,0,0.3,0.1,0.3,0.4v26.4c0,0.2-0.2,0.3-0.4,0.3h-0.1
			c-0.2,0-0.4-0.1-0.4-0.3V960.8z"/>
	</g>
	<g>
		<path class="st0" d="M627.5,957.7c0,0.1,0,0.2,0,0.3c0,1.5,0,3,0,4.6c0,0.2-0.1,0.3-0.3,0.3c-0.8,0-1.7,0-2.5,0
			c-0.3,0-0.6,0-0.8,0.1c-0.5,0.1-0.9,0.5-0.9,1.1c0,1.1,0,2.1-0.1,3.2c0,0.2,0.1,0.2,0.2,0.2c1.3,0,2.7,0,4,0c0.1,0,0.2,0,0.3,0
			c-0.2,1.7-0.4,3.4-0.5,5.1c-1.4,0-2.7,0-4,0c0,0.1,0,0.2,0,0.3c0,4.7,0,9.5,0,14.2c0,0.1,0,0.2,0,0.3c-1.8,0-3.7,0-5.5,0
			c0-0.4,0-0.9,0-1.3c0-4.4,0-8.7,0-13.1c0-0.1,0-0.2,0-0.4c-1.2,0-2.5,0-3.7,0c0-0.1,0-0.2,0-0.3c0-1.5,0-3.1,0-4.6
			c0-0.2,0.1-0.3,0.3-0.3c1.1,0,2.1,0,3.2,0c0.2,0,0.3-0.1,0.3-0.3c0-1.4,0-2.7,0-4.1c0-1,0.2-2,0.7-2.9c0.5-1,1.3-1.7,2.3-2
			c0.6-0.2,1.2-0.3,1.8-0.4c0.1,0,0.2,0,0.3-0.1C624.2,957.7,625.9,957.7,627.5,957.7z"/>
	</g>
	<g>
		<path class="st0" d="M1120.7,971.3c0.6,0.4,1,0.6,1.4,0.9c2.2,1.7,2.5,4,2,6.4c-0.6,3.2-3.1,5.4-6.4,5.6
			c-4.2,0.2-8.5,0.1-12.7,0.2c-0.8,0-0.7-0.5-0.7-1c0-6.6,0-13.1,0-19.7c0-1,0-2,0-3c0-0.5,0.2-0.7,0.7-0.7c4.4,0.1,8.7,0,13.1,0.2
			c3.4,0.1,5.7,3.1,5.4,6.5c-0.1,1.8-0.8,3.2-2.3,4.1C1121,970.9,1120.9,971.1,1120.7,971.3z M1113.1,973.5
			C1113.1,973.5,1113.1,973.5,1113.1,973.5c-1.1,0-2.1,0-3.2,0c-0.6,0-0.9,0.2-0.9,0.9c0,1.7,0,3.4,0,5.1c0,0.6,0.3,0.9,0.9,0.9
			c1.8,0,3.6,0,5.4-0.1c0.9-0.1,1.9-0.2,2.7-0.6c1.3-0.7,1.8-2.6,1.3-4c-0.4-1.2-1.6-2.1-3.1-2.2
			C1115.2,973.5,1114.1,973.5,1113.1,973.5z M1112.7,969.8C1112.7,969.8,1112.7,969.8,1112.7,969.8c1.2,0,2.4,0,3.6-0.2
			c0.8-0.1,1.7-0.5,2.1-1.1c1.4-1.7,0.3-4.2-1.9-4.3c-2.2-0.1-4.4-0.1-6.7-0.2c-0.6,0-0.8,0.3-0.8,0.9c0,1.4,0,2.7,0,4.1
			c0,0.7,0.3,0.9,0.9,0.9C1110.8,969.7,1111.8,969.8,1112.7,969.8z"/>
		<path class="st0" d="M1143.7,979.6c-0.5,0.8-0.9,1.7-1.4,2.4c-1.3,1.6-3,2.6-5.1,2.8c-2.2,0.2-4.4,0.2-6.4-0.8
			c-2.5-1.2-4-3.2-4.4-5.8c-0.5-2.6-0.3-5.2,0.8-7.6c1.3-2.8,3.7-4.2,6.7-4.5c1.3-0.1,2.7,0,4,0.3c3.5,0.8,5.3,3.2,5.9,6.6
			c0.2,0.9,0.1,1.8,0.2,2.6c0.1,0.8-0.2,1-1,1c-2.8,0-5.6,0-8.4,0c-1.1,0-2.2,0.1-3.3,0.1c-0.6,0-0.7,0.3-0.6,0.8
			c0.4,1.8,1.2,3.2,3.1,3.7c1.9,0.5,3.6,0.2,5-1.4c0.2-0.2,0.5-0.4,0.7-0.4c1.3,0,2.7,0,4,0C1143.5,979.4,1143.6,979.5,1143.7,979.6
			z M1134.9,973.7c1.2,0,2.4,0,3.6,0c0.6,0,0.8-0.2,0.6-0.8c-0.4-2.2-1.9-3.3-4.4-3.3c-2,0-3.6,1.4-3.9,3.3
			c-0.1,0.5,0.1,0.8,0.6,0.8C1132.6,973.7,1133.8,973.7,1134.9,973.7z"/>
		<path class="st0" d="M1134.7,963.5c-1.4,0-2.8,0-4.3,0c-0.9,0-0.8-0.5-0.8-1.1c0-0.6,0-1.1,0.9-1.1c2.9,0,5.7,0,8.6,0
			c0.9,0,0.8,0.6,0.8,1.1c0,0.6,0,1.1-0.8,1C1137.6,963.5,1136.1,963.5,1134.7,963.5z"/>
	</g>
	<g>
		<path class="st1" d="M873.8,987.5c-4.1,0-8.3,0-12.4,0c-0.2,0-0.4,0-0.5-0.1c-0.8-0.1-1.6-0.3-2.3-0.6c-1.1-0.5-2-1.1-2.8-2
			c-1.4-1.5-2.1-3.3-2.1-5.3c0-4,0-7.9,0-11.9c0-0.7,0.1-1.3,0.3-1.9c0.5-1.9,1.6-3.5,3.3-4.6c1.3-0.9,2.8-1.4,4.4-1.4
			c3.9,0,7.9,0,11.8,0c0.8,0,1.7,0.1,2.5,0.4c2,0.6,3.5,1.9,4.5,3.7c0.6,1,0.9,2,1.1,3.2c0,0.2,0,0.3,0,0.5c0,4.2,0,8.3,0,12.5
			c0,0,0,0.1,0,0.1c-0.1,0.9-0.2,1.8-0.6,2.6c-0.7,1.7-1.9,3.1-3.6,4c-0.9,0.5-2,0.9-3,1C874.2,987.5,874,987.5,873.8,987.5z
			 M867.6,961.7L867.6,961.7c-1.9,0-3.9,0-5.8,0c-1,0-2,0.2-2.9,0.7c-2,1.2-3.1,2.9-3.1,5.3c0,3.9,0,7.8,0,11.7c0,0.4,0,0.9,0.1,1.3
			c0.6,2.7,3,4.7,5.8,4.7c3.9,0,7.8,0,11.7,0c0.3,0,0.6,0,0.8,0c1.2-0.1,2.3-0.6,3.2-1.4c1.4-1.2,2-2.7,2-4.5c0-3.9,0-7.8,0-11.6
			c0-0.2,0-0.5,0-0.7c-0.1-1.2-0.6-2.2-1.3-3.1c-1.2-1.4-2.7-2.1-4.5-2.2C871.6,961.7,869.6,961.7,867.6,961.7z"/>
		<path class="st1" d="M875.1,973.5c0,4.1-3.4,7.5-7.5,7.5c-4.1,0-7.5-3.4-7.5-7.5c0-4.1,3.4-7.5,7.5-7.5
			C871.8,966,875.2,969.4,875.1,973.5z M873,973.5c0-3-2.4-5.4-5.4-5.4c-3,0-5.4,2.4-5.4,5.4c0,3,2.4,5.4,5.4,5.4
			C870.6,978.9,873,976.5,873,973.5z"/>
		<path class="st1" d="M875.7,963.9c0.9,0,1.6,0.7,1.6,1.6c0,0.9-0.7,1.6-1.6,1.6c-0.9,0-1.6-0.7-1.6-1.6
			C874.1,964.6,874.8,963.9,875.7,963.9z"/>
	</g>
	<g>
		<path class="st0" d="M834.6,957.6c0-0.2,0.2-0.4,0.4-0.4h0.2c0.2,0,0.4,0.2,0.4,0.4v29.2c0,0.2-0.2,0.4-0.4,0.4H835
			c-0.2,0-0.4-0.2-0.4-0.4V957.6z"/>
	</g>
	<g>
		<path class="st0" d="M1084.6,957.6c0-0.2,0.2-0.4,0.4-0.4h0.2c0.2,0,0.4,0.2,0.4,0.4v29.2c0,0.2-0.2,0.4-0.4,0.4h-0.2
			c-0.2,0-0.4-0.2-0.4-0.4V957.6z"/>
	</g>
</g>
<g>
	<rect x="-181.1" y="-305.8" style="fill:none;" width="1335.1" height="237.8"/>
	<text transform="matrix(1 0 0 1 158.7871 -220.6484)"><tspan x="0" y="0" style="fill:#FFFFFF;stroke:#FFFFFF;stroke-width:6;stroke-miterlimit:10; font-family:'MyriadPro-Regular'; font-size:120px; letter-spacing:12;">PGINA EN </tspan><tspan x="-149.2" y="117" style="fill:#FFFFFF;stroke:#FFFFFF;stroke-width:6;stroke-miterlimit:10; font-family:'MyriadPro-Regular'; font-size:120px; letter-spacing:12;">CONSTRUCCIN</tspan></text>
</g>
</svg>
