<?xml version="1.0" standalone="no"?>
<!DOCTYPE svg PUBLIC "-//W3C//DTD SVG 20010904//EN"
 "http://www.w3.org/TR/2001/REC-SVG-20010904/DTD/svg10.dtd">
<svg version="1.0" xmlns="http://www.w3.org/2000/svg"
 width="1288.000000pt" height="1288.000000pt" viewBox="0 0 1288.000000 1288.000000"
 preserveAspectRatio="xMidYMid meet">
<metadata>
Created by potrace 1.11, written by Peter Selinger 2001-2013
</metadata>
<g transform="translate(0.000000,1288.000000) scale(0.100000,-0.100000)"
fill="#000000" stroke="none">
<path d="M3161 9063 c-18 -9 -45 -34 -60 -56 l-26 -41 -3 -497 -3 -498 -200
-3 -200 -3 -39 -41 c-50 -54 -53 -78 -48 -409 3 -247 4 -262 25 -295 12 -20
40 -46 61 -58 37 -20 52 -22 221 -22 l181 0 0 -817 c0 -814 5 -980 36 -1133
57 -284 192 -490 398 -605 284 -158 741 -150 1271 21 219 71 304 127 319 209
8 40 -98 547 -121 582 -20 31 -64 53 -103 53 -16 0 -82 -16 -146 -35 -292 -89
-516 -109 -614 -55 -36 20 -51 38 -75 85 l-30 60 -3 817 -3 817 429 3 429 3
36 28 c67 51 67 52 67 389 0 285 -1 305 -20 336 -11 18 -34 41 -52 52 -32 19
-52 20 -460 20 l-428 0 0 496 c0 553 1 542 -69 590 l-36 24 -350 0 c-305 0
-354 -3 -384 -17z"/>
<path d="M9649 8455 c-188 -46 -356 -180 -440 -350 -53 -109 -69 -179 -69
-305 0 -127 16 -195 72 -310 33 -69 57 -101 127 -170 139 -138 276 -194 476
-194 135 0 193 13 314 71 179 85 313 255 356 449 23 101 16 271 -14 364 -68
212 -254 383 -477 440 -91 24 -258 26 -345 5z"/>
<path d="M6937 8100 c-352 -31 -620 -147 -813 -353 -187 -199 -273 -460 -245
-745 15 -144 35 -221 86 -327 131 -273 370 -454 857 -650 390 -158 583 -279
634 -400 29 -70 11 -160 -44 -218 -100 -106 -363 -127 -655 -53 -124 32 -231
75 -350 143 -193 109 -198 106 -374 -245 -73 -145 -133 -275 -133 -289 0 -58
38 -110 113 -157 296 -185 650 -276 1068 -276 767 0 1289 388 1316 977 15 324
-79 572 -294 772 -157 147 -374 269 -787 441 -367 153 -465 211 -510 302 -31
61 -32 98 -7 153 24 52 64 88 126 117 40 18 72 23 168 26 193 7 384 -35 632
-139 125 -51 184 -51 244 4 13 12 72 120 132 240 90 180 109 226 109 263 0
109 -78 182 -300 276 -249 107 -661 165 -973 138z"/>
<path d="M9685 5876 c-206 -40 -384 -174 -474 -358 -55 -112 -71 -181 -71
-308 0 -129 19 -210 70 -309 177 -339 572 -467 920 -298 68 33 102 58 170 127
140 139 200 285 200 480 0 193 -61 341 -195 476 -68 68 -97 89 -176 127 -52
25 -116 50 -142 56 -78 19 -225 22 -302 7z"/>
</g>
</svg>
