<?xml version="1.0" encoding="utf-8"?>
<!-- Generator: Adobe Illustrator 22.0.1, SVG Export Plug-In . SVG Version: 6.00 Build 0)  -->
<svg version="1.1" id="Capa_1" xmlns="http://www.w3.org/2000/svg" xmlns:xlink="http://www.w3.org/1999/xlink" x="0px" y="0px"
	 viewBox="0 0 320 480" style="enable-background:new 0 0 320 480;" xml:space="preserve">
<style type="text/css">
	.st0{fill:#FFFFFF;}
	.st1{fill:#FFFFFF;stroke:#000000;stroke-width:0.2288;stroke-miterlimit:10;}
</style>
<g>
	<rect x="-29.1" y="-60.8" style="fill:none;" width="244.1" height="40.8"/>
	
		<text transform="matrix(1 0 0 1 -3.8018 -50.9077)" class="st0" style="font-family:'MyriadPro-Regular'; font-size:14px; letter-spacing:1;">PÁGINA EN CONSTRUCCIÓN</text>
</g>
<rect x="-3.8" y="-4.3" width="327.5" height="488.5"/>
<g>
	<g>
		<g>
			<path class="st0" d="M121,118.2h-1.2c-0.3,0-0.5-0.3-0.5-0.6v-1.7c0-0.3,0.2-0.6,0.5-0.6h1.2v-3.3c0-0.3,0.3-0.6,0.6-0.6h2.1
				c0.3,0,0.5,0.3,0.5,0.6v3.3h2.8c0.3,0,0.6,0.2,0.6,0.6v1.7c0,0.3-0.3,0.6-0.6,0.6h-2.8v5.3c0,0.8,0.4,1,1,1
				c0.5,0,1.5-0.3,1.8-0.4c0.3-0.1,0.6,0,0.7,0.3l0.3,1.6c0.1,0.3-0.1,0.5-0.3,0.7c-0.4,0.2-2.1,0.8-3.3,0.8c-2.6,0-3.3-1.8-3.3-3.8
				V118.2z"/>
			<path class="st0" d="M130.2,109.8c0-0.3,0.3-0.6,0.6-0.6h2.1c0.3,0,0.6,0.3,0.6,0.6v6.3c0.6-0.5,1.6-1,3-1c3.8,0,4.8,2.6,4.8,5.6
				v5.9c0,0.3-0.3,0.6-0.6,0.6h-2.1c-0.3,0-0.6-0.3-0.6-0.6v-6c0-1.6-0.7-2.6-2.2-2.6c-1.4,0-2.2,0.9-2.5,2.1v6.5
				c0,0.3-0.2,0.6-0.6,0.6h-2c-0.3,0-0.6-0.3-0.6-0.6V109.8z"/>
			<path class="st0" d="M149.6,115.1c3.1,0,5.4,2.3,5.4,5.5c0,0.2,0,0.6-0.1,0.8c0,0.3-0.3,0.5-0.6,0.5h-7.6c0,1.5,1.2,2.7,2.9,2.7
				c1.2,0,2-0.4,2.5-0.9c0.3-0.2,0.6-0.3,0.8,0l1,1.3c0.2,0.2,0.2,0.5-0.1,0.8c-1,0.9-2.5,1.6-4.4,1.6c-3.5,0-6-2.8-6-6.2
				C143.6,117.9,146.1,115.1,149.6,115.1z M151.8,119.8c-0.1-1.2-1-2-2.3-2c-1.4,0-2.4,0.9-2.5,2H151.8z"/>
			<path class="st0" d="M157,126.4c-0.2-0.1-0.3-0.4-0.2-0.6l0.8-1.5c0.1-0.3,0.4-0.4,0.7-0.2c0.5,0.3,1.4,0.8,2.6,0.8
				c0.9,0,1.3-0.3,1.3-0.8c0-0.5-0.7-1-2.2-1.6c-2.3-0.9-3.3-1.9-3.3-3.7c0-1.8,1.4-3.5,4.3-3.5c1.7,0,2.9,0.5,3.5,0.9
				c0.3,0.2,0.4,0.5,0.3,0.8l-0.7,1.4c-0.2,0.3-0.5,0.3-0.7,0.2c-0.6-0.3-1.4-0.6-2.4-0.6c-0.8,0-1.1,0.4-1.1,0.8
				c0,0.5,0.6,0.8,1.7,1.3c2.3,0.9,3.9,1.7,3.9,4.1c0,1.9-1.6,3.5-4.6,3.5C158.9,127.4,157.7,126.8,157,126.4z"/>
			<path class="st0" d="M167.8,117.2c0-1.2,0.9-2.1,2.1-2.1c1.2,0,2.2,0.9,2.2,2.1c0,1.2-0.9,2.1-2.2,2.1
				C168.8,119.3,167.8,118.4,167.8,117.2z M169.9,123.2c1.2,0,2.2,0.9,2.2,2.1c0,1.2-0.9,2.1-2.2,2.1c-1.2,0-2.1-0.9-2.1-2.1
				C167.8,124.1,168.8,123.2,169.9,123.2z"/>
			<path class="st0" d="M186.4,127.3c0,3.8-2.7,5.7-5.9,5.7c-1.9,0-3.7-0.9-4.3-1.3c-0.2-0.2-0.3-0.5-0.1-0.7l0.8-1.7
				c0.1-0.2,0.4-0.3,0.7-0.2c0.4,0.3,1.6,0.9,2.8,0.9c1.8,0,2.8-0.6,2.8-2.8V127c-0.5,0.2-1.7,0.5-2.8,0.5c-3.5,0-5.9-2.7-5.9-6.2
				c0-3.6,2.4-6.2,5.7-6.2c2.5,0,3.9,1.8,3.9,1.8l0.3-0.9c0.1-0.3,0.3-0.6,0.6-0.6h0.9c0.3,0,0.6,0.3,0.6,0.6V127.3z M183.2,119.6
				c-0.3-0.7-1.1-1.6-2.6-1.6c-1.8,0-2.8,1.6-2.8,3.3c0,1.7,1,3.3,2.9,3.3c1.5,0,2.5-0.7,2.5-0.7V119.6z"/>
			<path class="st0" d="M189.7,115.9c0-0.3,0.3-0.6,0.6-0.6h1c0.3,0,0.4,0.1,0.5,0.4l0.4,1.1c0.4-0.5,1.5-1.7,3.8-1.7
				c3.8,0,4.7,2.5,4.7,5.4v6.1c0,0.3-0.3,0.6-0.6,0.6h-2.1c-0.3,0-0.6-0.3-0.6-0.6v-6.1c0-1.5-0.6-2.5-2-2.5c-1.5,0-2.3,1-2.6,1.8
				v6.8c0,0.4-0.2,0.6-0.7,0.6h-1.9c-0.3,0-0.6-0.3-0.6-0.6V115.9z"/>
		</g>
	</g>
</g>
<g>
	<g>
		<path class="st0" d="M39.2,165.3c0-0.1,0.1-0.3,0.3-0.3h0.3c0.1,0,0.3,0.1,0.3,0.3v12.1c0,0.2-0.1,0.3-0.3,0.3h-0.3
			c-0.2,0-0.2-0.1-0.2-0.3V165.3z"/>
		<path class="st0" d="M45.8,172.2c1,0,1.9,0.3,2.1,0.4c0-1.8-0.2-2.8-1.9-2.8c-1.4,0-2.3,0.5-2.5,0.6c-0.2,0.1-0.3,0-0.3-0.1
			l-0.1-0.3c-0.1-0.2,0-0.3,0.1-0.3c0.1,0,1.1-0.6,2.9-0.6c2.5,0,2.6,1.5,2.6,3.6v4.6c0,0.1-0.1,0.3-0.3,0.3h-0.1
			c-0.1,0-0.2-0.1-0.3-0.2l-0.1-0.8c-0.5,0.5-1.6,1.2-2.9,1.2c-1.5,0-2.7-1-2.7-2.8C42.4,173.5,43.7,172.2,45.8,172.2z M45.2,177
			c1.3,0,2.4-0.8,2.8-1.3v-2.4c-0.3-0.1-1.2-0.4-2.1-0.4c-1.6,0-2.7,0.9-2.7,2.1C43.2,176.2,44,177,45.2,177z"/>
		<path class="st0" d="M51.2,176.6l0.2-0.3c0.1-0.1,0.2-0.1,0.4,0c0.2,0.2,1.1,0.8,2.3,0.8c1.3,0,2.1-0.6,2.1-1.5c0-1-1-1.4-2.4-1.9
			c-1.5-0.5-2.5-1.1-2.5-2.4c0-0.9,0.8-2.1,2.7-2.1c1.1,0,1.9,0.4,2.3,0.6c0.1,0.1,0.2,0.2,0.1,0.4l-0.1,0.2
			c-0.1,0.1-0.2,0.1-0.4,0.1c-0.2-0.1-1.1-0.5-2-0.5c-1.3,0-1.9,0.7-1.9,1.4c0,0.8,0.8,1.3,2.1,1.7c1.5,0.6,2.8,1,2.8,2.6
			c0,1.3-1.2,2.2-2.9,2.2c-1.4,0-2.3-0.6-2.7-0.9C51.2,176.8,51.1,176.7,51.2,176.6z"/>
		<path class="st0" d="M69.6,176.9c-0.2,0.2-1.1,0.9-2.5,0.9c-2.4,0-4.1-1.9-4.1-4.4c0-2.4,1.6-4.3,3.9-4.3c1.5,0,2.6,0.8,2.8,1
			l0.1-0.6c0-0.2,0.1-0.2,0.2-0.2h0.1c0.1,0,0.3,0.1,0.3,0.3v8.3c0,2.4-1.6,3.7-3.7,3.7c-1.4,0-2.4-0.7-2.8-1.1
			c-0.1-0.1-0.1-0.2,0-0.3l0.2-0.2c0.1-0.1,0.2-0.1,0.4,0c0.3,0.3,1.3,0.8,2.3,0.8c1.6,0,2.9-1,2.9-3V176.9z M69.6,171
			c-0.1-0.1-1.1-1.1-2.7-1.1c-1.9,0-3.2,1.6-3.2,3.5c0,2,1.4,3.6,3.4,3.6c1.4,0,2.4-0.9,2.5-1V171z"/>
		<path class="st0" d="M73.4,169.6c0-0.1,0.1-0.3,0.3-0.3h0.1c0.1,0,0.2,0.1,0.2,0.2l0.1,0.8c0.2-0.3,1.1-1.3,2.6-1.3
			c0.7,0,1.1,0.2,1.3,0.2c0.2,0.1,0.3,0.2,0.2,0.4l-0.1,0.3c-0.1,0.2-0.2,0.2-0.3,0.1c-0.1-0.1-0.5-0.3-1.1-0.3
			c-1.6,0-2.5,1.3-2.5,1.4v6c0,0.2-0.1,0.3-0.3,0.3h-0.3c-0.2,0-0.2-0.1-0.2-0.3V169.6z"/>
		<path class="st0" d="M82.9,172.2c1,0,1.9,0.3,2.1,0.4c0-1.8-0.2-2.8-1.9-2.8c-1.4,0-2.3,0.5-2.5,0.6c-0.2,0.1-0.3,0-0.3-0.1
			l-0.1-0.3c-0.1-0.2,0-0.3,0.1-0.3c0.1,0,1.1-0.6,2.9-0.6c2.5,0,2.6,1.5,2.6,3.6v4.6c0,0.1-0.1,0.3-0.3,0.3h-0.1
			c-0.1,0-0.2-0.1-0.3-0.2l-0.1-0.8c-0.5,0.5-1.6,1.2-2.9,1.2c-1.5,0-2.7-1-2.7-2.8C79.4,173.5,80.7,172.2,82.9,172.2z M82.2,177
			c1.3,0,2.4-0.8,2.8-1.3v-2.4c-0.3-0.1-1.2-0.4-2.1-0.4c-1.6,0-2.7,0.9-2.7,2.1C80.2,176.2,81.1,177,82.2,177z"/>
		<path class="st0" d="M88.8,169.6c0-0.1,0.1-0.3,0.3-0.3h0.1c0.2,0,0.2,0.1,0.3,0.2l0.1,0.9c0.3-0.3,1.3-1.3,2.9-1.3
			c2.4,0,3.1,1.5,3.1,3.6v4.6c0,0.1-0.1,0.3-0.3,0.3H95c-0.1,0-0.3-0.1-0.3-0.3v-4.6c0-1.9-0.8-2.9-2.4-2.9c-1.7,0-2.8,1.3-2.8,1.4
			v6c0,0.2-0.1,0.3-0.3,0.3H89c-0.2,0-0.2-0.1-0.2-0.3V169.6z"/>
		<path class="st0" d="M101.9,169.1c1.6,0,2.6,0.8,2.6,0.8v-4.6c0-0.1,0.1-0.3,0.3-0.3h0.3c0.1,0,0.3,0.1,0.3,0.3v12.1
			c0,0.1-0.1,0.3-0.3,0.3H105c-0.2,0-0.3-0.1-0.3-0.3l-0.1-0.7c-0.2,0.3-1.3,1.2-2.9,1.2c-2.2,0-3.8-1.9-3.8-4.4
			C97.9,171.1,99.6,169.1,101.9,169.1z M101.8,177c1.8,0,2.8-1.3,2.8-1.4v-4.8c0,0-1-0.9-2.5-0.9c-1.9,0-3.3,1.6-3.3,3.6
			C98.7,175.4,100,177,101.8,177z"/>
		<path class="st0" d="M111.8,169.1c2.2,0,3.7,1.7,3.7,3.8c0,0.3,0,0.8-0.3,0.8h-6.6c0,1.9,1.4,3.3,3.2,3.3c1.2,0,2.1-0.5,2.6-0.8
			c0.2-0.1,0.3-0.1,0.4,0l0.2,0.3c0.1,0.1,0.1,0.2-0.1,0.3c-0.5,0.4-1.7,1-3,1c-2.4,0-4-1.9-4-4.4
			C107.8,171.1,109.4,169.1,111.8,169.1z M114.8,173c0-1.6-1.1-3.1-2.9-3.1c-1.8,0-3.1,1.4-3.2,3.1H114.8z"/>
		<path class="st0" d="M117.4,176.6l0.2-0.3c0.1-0.1,0.2-0.1,0.4,0c0.2,0.2,1.1,0.8,2.3,0.8c1.3,0,2.1-0.6,2.1-1.5
			c0-1-1-1.4-2.4-1.9c-1.5-0.5-2.5-1.1-2.5-2.4c0-0.9,0.8-2.1,2.7-2.1c1.1,0,1.9,0.4,2.3,0.6c0.1,0.1,0.2,0.2,0.1,0.4l-0.1,0.2
			c-0.1,0.1-0.2,0.1-0.4,0.1c-0.2-0.1-1.1-0.5-2-0.5c-1.3,0-1.9,0.7-1.9,1.4c0,0.8,0.8,1.3,2.1,1.7c1.5,0.6,2.8,1,2.8,2.6
			c0,1.3-1.2,2.2-2.9,2.2c-1.4,0-2.3-0.6-2.7-0.9C117.4,176.8,117.3,176.7,117.4,176.6z"/>
		<path class="st0" d="M129,166.4c0-0.8,0.6-1.4,1.4-1.4c0.8,0,1.4,0.6,1.4,1.4s-0.6,1.4-1.4,1.4C129.6,167.9,129,167.2,129,166.4z
			 M129.3,169.7c0-0.2,0.2-0.4,0.4-0.4h1.5c0.2,0,0.4,0.2,0.4,0.4v7.5c0,0.2-0.2,0.4-0.4,0.4h-1.5c-0.2,0-0.4-0.2-0.4-0.4V169.7z"/>
		<path class="st0" d="M137.5,169.1c0.8,0,1.6,0.2,2,0.3v-4.1c0-0.2,0.2-0.4,0.4-0.4h1.5c0.2,0,0.4,0.2,0.4,0.4v11.8
			c0,0.2-0.2,0.4-0.4,0.4h-0.7c-0.2,0-0.3-0.2-0.4-0.4l-0.2-0.6c0,0-1,1.2-2.7,1.2c-2.3,0-4-1.8-4-4.4
			C133.4,171,135,169.1,137.5,169.1z M139.5,171.6c0,0-0.7-0.5-1.7-0.5c-1.4,0-2.1,1.1-2.1,2.3c0,1.2,0.7,2.3,2,2.3
			c1.1,0,1.7-0.7,1.8-1.2V171.6z"/>
		<path class="st0" d="M147.7,169.1c2.2,0,3.8,1.6,3.8,3.9c0,0.1,0,0.4,0,0.5c0,0.2-0.2,0.4-0.4,0.4h-5.3c0,1,0.9,1.9,2.1,1.9
			c0.8,0,1.4-0.3,1.8-0.6c0.2-0.2,0.4-0.2,0.5,0l0.7,0.9c0.1,0.2,0.2,0.4,0,0.5c-0.7,0.6-1.7,1.1-3.1,1.1c-2.5,0-4.2-2-4.2-4.4
			C143.5,171.1,145.3,169.1,147.7,169.1z M149.3,172.4c0-0.8-0.7-1.4-1.6-1.4c-1,0-1.7,0.6-1.8,1.4H149.3z"/>
		<path class="st0" d="M156,172.4c0.8,0,1.6,0.2,1.6,0.2c0-1.1-0.3-1.6-1.2-1.6c-0.8,0-1.9,0.2-2.3,0.3c-0.3,0.1-0.4-0.1-0.5-0.4
			l-0.2-0.9c-0.1-0.3,0.1-0.5,0.3-0.5c0.2-0.1,1.5-0.4,2.8-0.4c2.6,0,3.1,1.4,3.1,3.6v4.5c0,0.2-0.2,0.4-0.4,0.4h-0.6
			c-0.1,0-0.3-0.1-0.4-0.3l-0.2-0.6c-0.5,0.5-1.3,1-2.6,1c-1.7,0-2.8-1.1-2.8-2.8C152.7,173.5,153.9,172.4,156,172.4z M156,176.1
			c0.7,0,1.4-0.6,1.5-0.9V174c0,0-0.6-0.3-1.2-0.3c-1,0-1.5,0.4-1.5,1.2C154.8,175.7,155.3,176.1,156,176.1z"/>
		<path class="st0" d="M161.7,177.1c-0.1-0.1-0.2-0.3-0.1-0.5l0.5-1.1c0.1-0.2,0.3-0.3,0.5-0.1c0.4,0.2,1,0.5,1.8,0.5
			c0.6,0,0.9-0.2,0.9-0.6c0-0.4-0.5-0.7-1.6-1.2c-1.6-0.6-2.3-1.4-2.3-2.6c0-1.3,1-2.4,3-2.4c1.2,0,2,0.3,2.5,0.6
			c0.2,0.1,0.3,0.4,0.2,0.6l-0.5,1c-0.1,0.2-0.3,0.2-0.5,0.2c-0.4-0.2-1-0.4-1.7-0.4c-0.6,0-0.8,0.3-0.8,0.5c0,0.4,0.4,0.6,1.2,0.9
			c1.6,0.6,2.8,1.2,2.8,2.9c0,1.3-1.1,2.5-3.2,2.5C163,177.8,162.1,177.4,161.7,177.1z"/>
		<path class="st0" d="M174.4,170.1h-1c-0.2,0-0.3-0.1-0.3-0.3v-0.3c0-0.2,0.1-0.2,0.3-0.2h1V167c0-0.2,0.1-0.3,0.3-0.3l0.2,0
			c0.1,0,0.3,0.1,0.3,0.3v2.3h2.9c0.2,0,0.3,0.1,0.3,0.3v0.2c0,0.2-0.1,0.3-0.3,0.3h-2.9v5.4c0,1.1,0.2,1.5,1.1,1.5
			c0.9,0,1.7-0.5,1.9-0.7c0.2-0.1,0.3,0,0.3,0.1l0.1,0.3c0.1,0.1,0,0.2-0.1,0.3c-0.3,0.2-1.3,0.8-2.4,0.8c-1.5,0-1.8-1-1.8-2.2
			V170.1z"/>
		<path class="st0" d="M184.2,169.1c2.3,0,4.2,2,4.2,4.3c0,2.4-1.9,4.4-4.2,4.4c-2.4,0-4.2-1.9-4.2-4.4
			C180,171.1,181.8,169.1,184.2,169.1z M184.2,177c1.9,0,3.3-1.6,3.3-3.6c0-1.9-1.5-3.5-3.3-3.5c-1.9,0-3.4,1.6-3.4,3.5
			C180.8,175.4,182.3,177,184.2,177z"/>
		<path class="st0" d="M190.8,169.6c0-0.1,0.1-0.3,0.3-0.3h0.1c0.1,0,0.2,0.1,0.2,0.2l0.1,0.9c0.2-0.3,1.1-1.3,2.8-1.3
			c1.3,0,2,0.5,2.6,1.5c0.3-0.3,1.2-1.5,2.9-1.5c2.3,0,3,1.5,3,3.7v4.6c0,0.1-0.1,0.3-0.3,0.3h-0.3c-0.1,0-0.2-0.1-0.2-0.3v-4.6
			c0-1.9-0.7-2.9-2.3-2.9c-1.5,0-2.3,1.1-2.6,1.5c0.1,0.4,0.2,0.9,0.2,1.4v4.6c0,0.1-0.1,0.3-0.3,0.3h-0.3c-0.2,0-0.3-0.1-0.3-0.3
			v-4.6c0-1.9-0.7-2.9-2.3-2.9c-1.7,0-2.5,1.2-2.6,1.4v6c0,0.2-0.1,0.3-0.3,0.3H191c-0.2,0-0.2-0.1-0.2-0.3V169.6z"/>
		<path class="st0" d="M208.4,172.2c1,0,1.9,0.3,2.1,0.4c0-1.8-0.2-2.8-1.9-2.8c-1.4,0-2.3,0.5-2.5,0.6c-0.2,0.1-0.3,0-0.3-0.1
			l-0.1-0.3c-0.1-0.2,0-0.3,0.1-0.3c0.1,0,1.1-0.6,2.9-0.6c2.5,0,2.6,1.5,2.6,3.6v4.6c0,0.1-0.1,0.3-0.3,0.3h-0.1
			c-0.1,0-0.2-0.1-0.3-0.2l-0.1-0.8c-0.5,0.5-1.6,1.2-2.9,1.2c-1.5,0-2.7-1-2.7-2.8C205,173.5,206.2,172.2,208.4,172.2z M207.8,177
			c1.3,0,2.4-0.8,2.8-1.3v-2.4c-0.3-0.1-1.2-0.4-2.1-0.4c-1.6,0-2.7,0.9-2.7,2.1C205.7,176.2,206.6,177,207.8,177z"/>
		<path class="st0" d="M214.3,169.6c0-0.1,0.1-0.3,0.3-0.3h0.1c0.2,0,0.2,0.1,0.3,0.2l0.1,0.9c0.3-0.3,1.3-1.3,2.9-1.3
			c2.4,0,3.1,1.5,3.1,3.6v4.6c0,0.1-0.1,0.3-0.3,0.3h-0.3c-0.1,0-0.3-0.1-0.3-0.3v-4.6c0-1.9-0.8-2.9-2.4-2.9
			c-1.7,0-2.8,1.3-2.8,1.4v6c0,0.2-0.1,0.3-0.3,0.3h-0.3c-0.2,0-0.2-0.1-0.2-0.3V169.6z"/>
		<path class="st0" d="M228.7,170.1h-1c-0.2,0-0.3-0.1-0.3-0.3v-0.3c0-0.2,0.1-0.2,0.3-0.2h1V167c0-0.2,0.1-0.3,0.3-0.3l0.2,0
			c0.1,0,0.3,0.1,0.3,0.3v2.3h2.9c0.2,0,0.3,0.1,0.3,0.3v0.2c0,0.2-0.1,0.3-0.3,0.3h-2.9v5.4c0,1.1,0.2,1.5,1.1,1.5
			c0.9,0,1.7-0.5,1.9-0.7c0.2-0.1,0.3,0,0.3,0.1l0.1,0.3c0.1,0.1,0,0.2-0.1,0.3c-0.3,0.2-1.3,0.8-2.4,0.8c-1.5,0-1.8-1-1.8-2.2
			V170.1z"/>
		<path class="st0" d="M234.5,166.3c0-0.4,0.3-0.7,0.7-0.7s0.7,0.3,0.7,0.7c0,0.4-0.3,0.7-0.7,0.7S234.5,166.7,234.5,166.3z
			 M234.9,169.6c0-0.1,0.1-0.3,0.3-0.3h0.3c0.1,0,0.3,0.1,0.3,0.3v7.8c0,0.2-0.1,0.3-0.3,0.3h-0.3c-0.2,0-0.2-0.1-0.2-0.3V169.6z"/>
		<path class="st0" d="M242.2,169.1c2.2,0,3.7,1.7,3.7,3.8c0,0.3,0,0.8-0.3,0.8h-6.6c0,1.9,1.4,3.3,3.2,3.3c1.2,0,2.1-0.5,2.6-0.8
			c0.2-0.1,0.3-0.1,0.4,0l0.2,0.3c0.1,0.1,0.1,0.2-0.1,0.3c-0.5,0.4-1.7,1-3,1c-2.4,0-4-1.9-4-4.4
			C238.1,171.1,239.7,169.1,242.2,169.1z M245.1,173c0-1.6-1.1-3.1-2.9-3.1c-1.8,0-3.1,1.4-3.2,3.1H245.1z"/>
		<path class="st0" d="M248.2,169.6c0-0.1,0.1-0.3,0.3-0.3h0.1c0.1,0,0.2,0.1,0.2,0.2l0.1,0.9c0.2-0.3,1.1-1.3,2.8-1.3
			c1.3,0,2,0.5,2.6,1.5c0.3-0.3,1.2-1.5,2.9-1.5c2.3,0,3,1.5,3,3.7v4.6c0,0.1-0.1,0.3-0.3,0.3h-0.3c-0.1,0-0.2-0.1-0.2-0.3v-4.6
			c0-1.9-0.7-2.9-2.3-2.9c-1.5,0-2.3,1.1-2.6,1.5c0.1,0.4,0.2,0.9,0.2,1.4v4.6c0,0.1-0.1,0.3-0.3,0.3h-0.3c-0.2,0-0.3-0.1-0.3-0.3
			v-4.6c0-1.9-0.7-2.9-2.3-2.9c-1.7,0-2.5,1.2-2.6,1.4v6c0,0.2-0.1,0.3-0.3,0.3h-0.3c-0.2,0-0.2-0.1-0.2-0.3V169.6z"/>
		<path class="st0" d="M263.9,181.6c0,0.1-0.2,0.3-0.3,0.3h-0.2c-0.2,0-0.3-0.1-0.3-0.3v-12.1c0-0.2,0.1-0.3,0.3-0.3h0.1
			c0.1,0,0.2,0.1,0.2,0.2l0.1,0.6c0.3-0.2,1.3-1,2.8-1c2.3,0,3.9,1.9,3.9,4.3c0,2.4-1.7,4.4-4.1,4.4c-1.4,0-2.3-0.7-2.5-0.9V181.6z
			 M266.4,177c2,0,3.4-1.6,3.4-3.6c0-1.9-1.3-3.5-3.2-3.5c-1.6,0-2.6,1-2.7,1.1v5C264,176.1,265,177,266.4,177z"/>
		<path class="st0" d="M276.6,169.1c2.3,0,4.2,2,4.2,4.3c0,2.4-1.9,4.4-4.2,4.4c-2.4,0-4.2-1.9-4.2-4.4
			C272.5,171.1,274.3,169.1,276.6,169.1z M276.6,177c1.9,0,3.3-1.6,3.3-3.6c0-1.9-1.5-3.5-3.3-3.5c-1.9,0-3.4,1.6-3.4,3.5
			C273.3,175.4,274.8,177,276.6,177z"/>
	</g>
</g>
<g>
	<g>
		<path class="st0" d="M108,341.1c0-0.1,0.1-0.2,0.2-0.2h0.8c0.1,0,0.2,0.1,0.2,0.2v2.4c0.2-0.2,0.6-0.4,1.2-0.4
			c1.4,0,1.8,1,1.8,2.2v2.3c0,0.1-0.1,0.2-0.2,0.2h-0.8c-0.1,0-0.2-0.1-0.2-0.2v-2.3c0-0.6-0.3-1-0.8-1c-0.5,0-0.8,0.3-0.9,0.8v2.5
			c0,0.1-0.1,0.2-0.2,0.2h-0.8c-0.1,0-0.2-0.1-0.2-0.2V341.1z"/>
		<path class="st0" d="M115.5,343.2c1.2,0,2.1,0.9,2.1,2.1c0,0.1,0,0.2,0,0.3c0,0.1-0.1,0.2-0.2,0.2h-2.9c0,0.6,0.5,1.1,1.1,1.1
			c0.5,0,0.8-0.2,1-0.3c0.1-0.1,0.2-0.1,0.3,0l0.4,0.5c0.1,0.1,0.1,0.2,0,0.3c-0.4,0.3-1,0.6-1.7,0.6c-1.4,0-2.3-1.1-2.3-2.4
			C113.2,344.3,114.1,343.2,115.5,343.2z M116.3,345c0-0.4-0.4-0.8-0.9-0.8c-0.6,0-0.9,0.3-1,0.8H116.3z"/>
		<path class="st0" d="M118.5,341.1c0-0.1,0.1-0.2,0.2-0.2h0.8c0.1,0,0.2,0.1,0.2,0.2v6.5c0,0.1-0.1,0.2-0.2,0.2h-0.8
			c-0.1,0-0.2-0.1-0.2-0.2V341.1z"/>
		<path class="st0" d="M121,341.1c0-0.1,0.1-0.2,0.2-0.2h0.8c0.1,0,0.2,0.1,0.2,0.2v6.5c0,0.1-0.1,0.2-0.2,0.2h-0.8
			c-0.1,0-0.2-0.1-0.2-0.2V341.1z"/>
		<path class="st0" d="M125.6,343.2c1.3,0,2.3,1.1,2.3,2.4c0,1.3-1,2.4-2.3,2.4c-1.3,0-2.3-1.1-2.3-2.4
			C123.2,344.2,124.3,343.2,125.6,343.2z M125.6,346.8c0.7,0,1.2-0.6,1.2-1.3c0-0.7-0.5-1.2-1.2-1.2c-0.7,0-1.2,0.6-1.2,1.2
			C124.4,346.2,124.9,346.8,125.6,346.8z"/>
		<path class="st0" d="M133.4,348.4c-0.5,0.3-1.1,0.4-1.8,0.4c-1.6,0-3-1.2-3-3.1c0-2,1.4-3.8,3.6-3.8c1.7,0,2.9,1.2,2.9,2.9
			c0,1.5-0.8,2.3-1.8,2.3c-0.4,0-0.8-0.3-0.7-0.9h0c-0.3,0.6-0.8,0.9-1.4,0.9c-0.6,0-1.1-0.5-1.1-1.2c0-1.2,1-2.3,2.3-2.3
			c0.4,0,0.8,0.1,1.1,0.2l-0.3,1.8c-0.1,0.7,0,1.1,0.3,1.1c0.5,0,1.1-0.7,1.1-1.8c0-1.4-0.9-2.5-2.4-2.5c-1.6,0-3,1.3-3,3.3
			c0,1.6,1.1,2.7,2.5,2.7c0.6,0,1.1-0.1,1.5-0.3L133.4,348.4z M132.9,344.2c-0.1,0-0.3-0.1-0.5-0.1c-0.9,0-1.6,0.8-1.6,1.8
			c0,0.4,0.2,0.7,0.7,0.7c0.6,0,1.1-0.7,1.2-1.3L132.9,344.2z"/>
		<path class="st0" d="M136.6,343.7H136c-0.1,0-0.1-0.1-0.1-0.1v-0.2c0-0.1,0.1-0.1,0.1-0.1h0.6V342c0-0.1,0.1-0.1,0.2-0.1l0.1,0
			c0.1,0,0.1,0.1,0.1,0.1v1.3h1.6c0.1,0,0.2,0.1,0.2,0.1v0.1c0,0.1-0.1,0.1-0.2,0.1H137v3c0,0.6,0.1,0.8,0.6,0.8
			c0.5,0,0.9-0.3,1-0.4c0.1-0.1,0.1,0,0.2,0l0.1,0.1c0,0.1,0,0.1,0,0.2c-0.2,0.1-0.7,0.4-1.3,0.4c-0.8,0-1-0.6-1-1.2V343.7z"/>
		<path class="st0" d="M139.9,341.1c0-0.1,0.1-0.1,0.2-0.1h0.1c0.1,0,0.1,0.1,0.1,0.1v2.8c0.1-0.1,0.7-0.7,1.6-0.7
			c1.2,0,1.7,0.7,1.7,2v2.5c0,0.1-0.1,0.1-0.1,0.1h-0.1c-0.1,0-0.1-0.1-0.1-0.1v-2.5c0-1.1-0.4-1.6-1.3-1.6c-0.9,0-1.4,0.7-1.5,0.8
			v3.2c0,0.1,0,0.1-0.1,0.1h-0.2c-0.1,0-0.1-0.1-0.1-0.1V341.1z"/>
		<path class="st0" d="M147.1,343.2c1.2,0,2,0.9,2,2.1c0,0.2,0,0.4-0.2,0.4h-3.6c0,1,0.8,1.8,1.8,1.8c0.6,0,1.1-0.3,1.4-0.5
			c0.1-0.1,0.1-0.1,0.2,0l0.1,0.2c0,0,0,0.1,0,0.2c-0.3,0.2-0.9,0.5-1.7,0.5c-1.3,0-2.2-1.1-2.2-2.4
			C144.9,344.2,145.8,343.2,147.1,343.2z M148.8,345.3c0-0.9-0.6-1.7-1.6-1.7c-1,0-1.7,0.7-1.8,1.7H148.8z"/>
		<path class="st0" d="M150.2,347.2l0.1-0.2c0-0.1,0.1-0.1,0.2,0c0.1,0.1,0.6,0.4,1.2,0.4c0.7,0,1.1-0.3,1.1-0.8
			c0-0.5-0.6-0.8-1.3-1.1c-0.8-0.3-1.4-0.6-1.4-1.3c0-0.5,0.4-1.2,1.5-1.2c0.6,0,1.1,0.2,1.3,0.3c0.1,0,0.1,0.1,0.1,0.2l-0.1,0.1
			c0,0.1-0.1,0.1-0.2,0c-0.1-0.1-0.6-0.3-1.1-0.3c-0.7,0-1,0.4-1,0.7c0,0.5,0.5,0.7,1.1,0.9c0.8,0.3,1.6,0.6,1.6,1.4
			c0,0.7-0.7,1.2-1.6,1.2c-0.8,0-1.2-0.3-1.5-0.5C150.2,347.4,150.1,347.3,150.2,347.2z"/>
		<path class="st0" d="M154.4,341.6c0-0.2,0.2-0.4,0.4-0.4c0.2,0,0.4,0.2,0.4,0.4c0,0.2-0.2,0.4-0.4,0.4
			C154.5,342,154.4,341.8,154.4,341.6z M154.6,343.4c0-0.1,0.1-0.1,0.1-0.1h0.1c0.1,0,0.1,0.1,0.1,0.1v4.3c0,0.1,0,0.1-0.1,0.1h-0.2
			c-0.1,0-0.1-0.1-0.1-0.1V343.4z"/>
		<path class="st0" d="M160,347.4c-0.1,0.1-0.6,0.5-1.4,0.5c-1.3,0-2.3-1.1-2.3-2.4c0-1.3,0.9-2.4,2.2-2.4c0.8,0,1.4,0.4,1.5,0.5
			l0-0.3c0-0.1,0-0.1,0.1-0.1h0.1c0.1,0,0.2,0,0.2,0.1v4.5c0,1.3-0.9,2-2,2c-0.8,0-1.3-0.4-1.5-0.6c-0.1-0.1-0.1-0.1,0-0.2l0.1-0.1
			c0.1-0.1,0.1-0.1,0.2,0c0.2,0.1,0.7,0.5,1.3,0.5c0.9,0,1.6-0.5,1.6-1.6V347.4z M160,344.2c-0.1-0.1-0.6-0.6-1.5-0.6
			c-1,0-1.7,0.9-1.7,1.9c0,1.1,0.7,2,1.8,2c0.8,0,1.3-0.5,1.4-0.6V344.2z"/>
		<path class="st0" d="M162.1,343.4c0-0.1,0.1-0.1,0.2-0.1h0c0.1,0,0.1,0,0.1,0.1l0,0.5c0.1-0.2,0.7-0.7,1.6-0.7
			c1.3,0,1.7,0.8,1.7,2v2.5c0,0.1-0.1,0.1-0.1,0.1h-0.1c-0.1,0-0.1-0.1-0.1-0.1v-2.5c0-1.1-0.4-1.6-1.3-1.6c-0.9,0-1.5,0.7-1.5,0.8
			v3.3c0,0.1,0,0.1-0.1,0.1h-0.2c-0.1,0-0.1-0.1-0.1-0.1V343.4z"/>
		<path class="st0" d="M167.5,341.1c0-0.1,0.1-0.1,0.1-0.1h0.1c0.1,0,0.1,0.1,0.1,0.1v6.6c0,0.1,0,0.1-0.1,0.1h-0.2
			c-0.1,0-0.1-0.1-0.1-0.1V341.1z"/>
		<path class="st0" d="M171.1,344.9c0.5,0,1.1,0.2,1.2,0.2c0-1-0.1-1.5-1-1.5c-0.7,0-1.3,0.3-1.4,0.3c-0.1,0-0.2,0-0.2-0.1l0-0.1
			c0-0.1,0-0.1,0.1-0.2c0,0,0.6-0.3,1.6-0.3c1.4,0,1.4,0.8,1.4,2v2.5c0,0.1-0.1,0.1-0.2,0.1h-0.1c-0.1,0-0.1,0-0.1-0.1l0-0.4
			c-0.3,0.3-0.9,0.7-1.6,0.7c-0.8,0-1.5-0.6-1.5-1.5C169.2,345.5,169.9,344.9,171.1,344.9z M170.7,347.5c0.7,0,1.3-0.4,1.5-0.7v-1.3
			c-0.1-0.1-0.6-0.2-1.2-0.2c-0.9,0-1.5,0.5-1.5,1.1C169.6,347.1,170.1,347.5,170.7,347.5z"/>
		<path class="st0" d="M176.3,347.9c-0.9,0-1.5-0.5-1.6-0.7l0,0.4c0,0.1-0.1,0.1-0.2,0.1h-0.1c-0.1,0-0.1-0.1-0.1-0.1v-6.6
			c0-0.1,0.1-0.1,0.1-0.1h0.1c0.1,0,0.1,0.1,0.1,0.1v2.5c0,0,0.6-0.4,1.4-0.4c1.3,0,2.2,1.1,2.2,2.4
			C178.4,346.9,177.5,347.9,176.3,347.9z M176.2,343.6c-0.8,0-1.4,0.5-1.4,0.5v2.6c0,0,0.5,0.8,1.5,0.8c1,0,1.7-0.9,1.7-2
			C178,344.5,177.2,343.6,176.2,343.6z"/>
		<path class="st0" d="M180,347.1c0.2,0,0.4,0.2,0.4,0.4c0,0.2-0.2,0.4-0.4,0.4c-0.2,0-0.4-0.2-0.4-0.4
			C179.6,347.3,179.8,347.1,180,347.1z"/>
		<path class="st0" d="M183.9,343.2c0.9,0,1.5,0.4,1.7,0.7c0.1,0.1,0,0.1,0,0.2l-0.1,0.1c-0.1,0.1-0.2,0.1-0.2,0
			c-0.1-0.1-0.6-0.5-1.3-0.5c-1,0-1.9,0.9-1.9,1.9c0,1.1,0.8,2,1.9,2c0.8,0,1.3-0.6,1.4-0.7c0.1-0.1,0.1-0.1,0.2,0l0.1,0.1
			c0.1,0.1,0.1,0.1,0,0.2c-0.2,0.3-0.8,0.9-1.8,0.9c-1.3,0-2.4-1-2.4-2.4C181.6,344.2,182.6,343.2,183.9,343.2z"/>
		<path class="st0" d="M189,343.2c1.3,0,2.3,1.1,2.3,2.4c0,1.3-1,2.4-2.3,2.4c-1.3,0-2.3-1.1-2.3-2.4
			C186.7,344.2,187.7,343.2,189,343.2z M189,347.5c1,0,1.8-0.9,1.8-2c0-1.1-0.8-1.9-1.8-1.9c-1,0-1.9,0.9-1.9,1.9
			C187.1,346.6,187.9,347.5,189,347.5z"/>
		<path class="st0" d="M192.6,343.4c0-0.1,0.1-0.1,0.1-0.1h0.1c0.1,0,0.1,0,0.1,0.1l0.1,0.5c0.1-0.2,0.6-0.7,1.5-0.7
			c0.7,0,1.1,0.3,1.4,0.8c0.1-0.2,0.7-0.8,1.6-0.8c1.2,0,1.6,0.8,1.6,2v2.5c0,0.1-0.1,0.1-0.1,0.1h-0.2c-0.1,0-0.1,0-0.1-0.1v-2.5
			c0-1.1-0.4-1.6-1.3-1.6c-0.8,0-1.3,0.6-1.4,0.8c0.1,0.2,0.1,0.5,0.1,0.8v2.5c0,0.1-0.1,0.1-0.1,0.1h-0.1c-0.1,0-0.1,0-0.1-0.1
			v-2.5c0-1.1-0.4-1.6-1.3-1.6c-0.9,0-1.4,0.7-1.4,0.8v3.3c0,0.1,0,0.1-0.1,0.1h-0.2c-0.1,0-0.1-0.1-0.1-0.1V343.4z"/>
		<path class="st0" d="M201,347.1c0.2,0,0.4,0.2,0.4,0.4c0,0.2-0.2,0.4-0.4,0.4c-0.2,0-0.4-0.2-0.4-0.4
			C200.6,347.3,200.8,347.1,201,347.1z"/>
		<path class="st0" d="M204.9,343.2c0.9,0,1.5,0.4,1.7,0.7c0.1,0.1,0,0.1,0,0.2l-0.1,0.1c-0.1,0.1-0.2,0.1-0.2,0
			c-0.1-0.1-0.6-0.5-1.3-0.5c-1,0-1.9,0.9-1.9,1.9c0,1.1,0.8,2,1.9,2c0.8,0,1.3-0.6,1.4-0.7c0.1-0.1,0.1-0.1,0.2,0l0.1,0.1
			c0.1,0.1,0.1,0.1,0,0.2c-0.2,0.3-0.8,0.9-1.8,0.9c-1.3,0-2.4-1-2.4-2.4C202.6,344.2,203.6,343.2,204.9,343.2z"/>
		<path class="st0" d="M209.9,343.2c1.3,0,2.3,1.1,2.3,2.4c0,1.3-1,2.4-2.3,2.4c-1.3,0-2.3-1.1-2.3-2.4
			C207.7,344.2,208.6,343.2,209.9,343.2z M209.9,347.5c1,0,1.8-0.9,1.8-2c0-1.1-0.8-1.9-1.8-1.9c-1,0-1.9,0.9-1.9,1.9
			C208.1,346.6,208.9,347.5,209.9,347.5z"/>
	</g>
	<g>
		<path class="st0" d="M63.6,356.6C63.6,356.6,63.6,356.6,63.6,356.6c-0.6-0.2-1.2-0.7-1.2-1.5c0-0.9,0.7-1.6,1.9-1.6
			c1.2,0,1.9,0.7,1.9,1.6c0,0.7-0.6,1.3-1.2,1.5c0,0,0,0,0,0c0.7,0.2,1.4,0.7,1.4,1.6c0,1.1-0.8,1.7-2.1,1.7c-1.2,0-2-0.6-2-1.7
			C62.2,357.4,62.9,356.8,63.6,356.6z M64.3,359.5c0.9,0,1.6-0.4,1.6-1.3c0-0.7-0.6-1.3-1.6-1.4c-1,0.1-1.6,0.6-1.6,1.4
			C62.6,359.1,63.4,359.5,64.3,359.5z M65.7,355.2c0-0.7-0.5-1.3-1.5-1.3c-0.9,0-1.4,0.6-1.4,1.3c0,0.7,0.6,1.2,1.5,1.2
			C65.2,356.3,65.7,355.9,65.7,355.2z"/>
		<path class="st0" d="M67.6,356.7c0-2,0.8-3.2,2.2-3.2c1.4,0,2.2,1.2,2.2,3.2c0,2-0.8,3.2-2.2,3.2
			C68.4,359.9,67.6,358.7,67.6,356.7z M71.6,356.7c0-1.8-0.6-2.8-1.8-2.8c-1.2,0-1.8,1-1.8,2.8c0,1.8,0.6,2.8,1.8,2.8
			C71,359.5,71.6,358.5,71.6,356.7z"/>
		<path class="st0" d="M73.4,358.9l0.1-0.1c0.1,0,0.1,0,0.2,0c0.2,0.2,0.6,0.7,1.5,0.7c1,0,1.7-0.8,1.7-1.7c0-0.9-0.6-1.5-1.7-1.5
			h-1.5c-0.1,0-0.2-0.1-0.2-0.2v-2.4c0-0.1,0.1-0.1,0.1-0.1h2.9c0.1,0,0.1,0.1,0.1,0.1v0.1c0,0.1-0.1,0.1-0.1,0.1h-2.6v1.9h1.3
			c1.4,0,2.1,0.7,2.1,1.9c0,1.2-0.9,2.1-2.1,2.1c-1,0-1.5-0.5-1.8-0.8C73.3,359,73.3,359,73.4,358.9z"/>
		<path class="st0" d="M83.6,354h-3.4c-0.1,0-0.1-0.1-0.1-0.1v-0.1c0-0.1,0.1-0.1,0.1-0.1H84c0.1,0,0.1,0.1,0.1,0.1c0,0,0,0,0,0.1
			l-2.7,5.9c-0.1,0.1-0.1,0.1-0.2,0.1h-0.2c-0.1,0-0.1-0.1-0.1-0.1L83.6,354L83.6,354z"/>
		<path class="st0" d="M85.9,354.2l-1.1,0.9c0,0-0.1,0-0.1,0l-0.1-0.1c0,0,0-0.1,0-0.1l1.4-1.2c0,0,0.1-0.1,0.2-0.1h0.1
			c0.1,0,0.1,0,0.1,0.1v6c0,0.1-0.1,0.1-0.1,0.1H86c-0.1,0-0.1-0.1-0.1-0.1L85.9,354.2L85.9,354.2z"/>
		<path class="st0" d="M87.9,356.7c0-2,0.8-3.2,2.2-3.2c1.4,0,2.2,1.2,2.2,3.2c0,2-0.8,3.2-2.2,3.2
			C88.7,359.9,87.9,358.7,87.9,356.7z M91.9,356.7c0-1.8-0.6-2.8-1.8-2.8c-1.2,0-1.8,1-1.8,2.8c0,1.8,0.6,2.8,1.8,2.8
			C91.3,359.5,91.9,358.5,91.9,356.7z"/>
		<path class="st0" d="M93.7,356.7c0-2,0.8-3.2,2.2-3.2c1.4,0,2.2,1.2,2.2,3.2c0,2-0.8,3.2-2.2,3.2
			C94.5,359.9,93.7,358.7,93.7,356.7z M97.7,356.7c0-1.8-0.6-2.8-1.8-2.8c-1.2,0-1.8,1-1.8,2.8c0,1.8,0.6,2.8,1.8,2.8
			C97.1,359.5,97.7,358.5,97.7,356.7z"/>
		<path class="st0" d="M101.7,353.2c0-0.1,0.1-0.1,0.1-0.1h0.1c0.1,0,0.1,0,0.1,0.1v8.6c0,0.1-0.1,0.1-0.1,0.1h0
			c-0.1,0-0.1,0-0.1-0.1V353.2z"/>
		<path class="st0" d="M108.5,353.5c0.9,0,1.6,0.3,2.2,0.8c0,0,0.1,0.1,0,0.2l-0.1,0.2c-0.1,0.1-0.1,0-0.2,0
			c-0.5-0.5-1.1-0.7-1.9-0.7c-1.6,0-2.8,1.3-2.8,2.8c0,1.5,1.2,2.8,2.8,2.8c0.8,0,1.3-0.3,1.9-0.7c0.1,0,0.1-0.1,0.1,0l0.2,0.2
			c0,0,0,0.1,0,0.2c-0.6,0.6-1.4,0.9-2.2,0.9c-1.8,0-3.2-1.4-3.2-3.2C105.3,354.9,106.7,353.5,108.5,353.5z"/>
		<path class="st0" d="M113.2,357.2c0.5,0,0.9,0.2,1.1,0.2c0-0.9-0.1-1.4-0.9-1.4c-0.7,0-1.1,0.2-1.2,0.3c-0.1,0-0.1,0-0.2-0.1
			l0-0.1c0-0.1,0-0.1,0.1-0.2c0,0,0.5-0.3,1.4-0.3c1.2,0,1.3,0.7,1.3,1.8v2.3c0,0.1-0.1,0.1-0.1,0.1h-0.1c-0.1,0-0.1,0-0.1-0.1
			l0-0.4c-0.3,0.3-0.8,0.6-1.4,0.6c-0.8,0-1.3-0.5-1.3-1.4C111.5,357.8,112.2,357.2,113.2,357.2z M112.9,359.5
			c0.6,0,1.2-0.4,1.4-0.6v-1.2c-0.1-0.1-0.6-0.2-1.1-0.2c-0.8,0-1.3,0.4-1.3,1C111.9,359.1,112.3,359.5,112.9,359.5z"/>
		<path class="st0" d="M116.2,353.7c0-0.1,0.1-0.1,0.1-0.1h0.1c0.1,0,0.1,0.1,0.1,0.1v5.9c0,0.1,0,0.1-0.1,0.1h-0.1
			c-0.1,0-0.1-0.1-0.1-0.1V353.7z"/>
		<path class="st0" d="M118.2,353.7c0-0.1,0.1-0.1,0.1-0.1h0.1c0.1,0,0.1,0.1,0.1,0.1v5.9c0,0.1,0,0.1-0.1,0.1h-0.1
			c-0.1,0-0.1-0.1-0.1-0.1V353.7z"/>
		<path class="st0" d="M121.8,355.6c1.1,0,1.8,0.8,1.8,1.9c0,0.2,0,0.4-0.2,0.4h-3.3c0,0.9,0.7,1.6,1.6,1.6c0.6,0,1-0.2,1.3-0.4
			c0.1-0.1,0.1-0.1,0.2,0l0.1,0.2c0,0,0,0.1,0,0.2c-0.2,0.2-0.8,0.5-1.5,0.5c-1.2,0-2-1-2-2.2C119.8,356.6,120.6,355.6,121.8,355.6z
			 M123.3,357.5c0-0.8-0.5-1.5-1.4-1.5c-0.9,0-1.5,0.7-1.6,1.5H123.3z"/>
		<path class="st0" d="M127.8,354.2l-1.1,0.9c0,0-0.1,0-0.1,0l-0.1-0.1c0,0,0-0.1,0-0.1l1.4-1.2c0,0,0.1-0.1,0.2-0.1h0.1
			c0.1,0,0.1,0,0.1,0.1v6c0,0.1-0.1,0.1-0.1,0.1h-0.2c-0.1,0-0.1-0.1-0.1-0.1L127.8,354.2L127.8,354.2z"/>
		<path class="st0" d="M130.2,359.4h3.1c0.1,0,0.1,0.1,0.1,0.1v0.1c0,0.1-0.1,0.1-0.1,0.1h-3.6c-0.1,0-0.1-0.1-0.1-0.1v-0.1
			c0-0.1,0-0.1,0.1-0.2l2.4-2.4c0.6-0.6,1-1.2,1-1.8c0-0.7-0.5-1.4-1.5-1.4c-0.8,0-1.3,0.6-1.4,0.7c-0.1,0.1-0.1,0.1-0.2,0l-0.1-0.1
			c0,0-0.1-0.1,0-0.2c0,0,0.6-0.9,1.7-0.9c1.3,0,2,0.8,2,1.8c0,0.8-0.5,1.4-1.2,2.1L130.2,359.4L130.2,359.4z"/>
		<path class="st0" d="M134.6,358.9l0.1-0.1c0.1-0.1,0.1,0,0.2,0c0.2,0.2,0.6,0.7,1.6,0.7c0.9,0,1.6-0.5,1.6-1.4
			c0-0.9-0.8-1.3-1.6-1.3h-0.9c-0.1,0-0.1,0-0.1-0.1v-0.2c0-0.1,0-0.1,0.1-0.1h0.8c0.7,0,1.5-0.3,1.5-1.3c0-0.8-0.6-1.3-1.4-1.3
			c-0.9,0-1.3,0.6-1.4,0.7c0,0-0.1,0.1-0.2,0l-0.1-0.1c-0.1,0-0.1-0.1,0-0.2c0,0,0.6-0.8,1.7-0.8c1,0,1.8,0.6,1.8,1.6
			c0,0.7-0.5,1.3-1,1.5c0,0,0,0,0,0c0.6,0.2,1.2,0.8,1.2,1.5c0,1-0.8,1.8-2.1,1.8c-1.1,0-1.6-0.6-1.8-0.8
			C134.5,359,134.5,359,134.6,358.9z"/>
		<path class="st0" d="M142.5,358h-0.7c-0.1,0-0.1-0.1-0.1-0.1v0c0-0.1,0-0.1,0.1-0.1h0.8l0.3-1.6H142c-0.1,0-0.1-0.1-0.1-0.1v-0.1
			c0-0.1,0.1-0.1,0.1-0.1h0.8l0.4-2.1c0-0.1,0.1-0.1,0.1-0.1h0.1c0.1,0,0.1,0.1,0.1,0.1l-0.3,2.1h1.4l0.4-2.1c0-0.1,0.1-0.1,0.1-0.1
			h0.1c0.1,0,0.1,0.1,0.1,0.1l-0.3,2.1h0.7c0.1,0,0.1,0.1,0.1,0.1v0.1c0,0.1,0,0.1-0.1,0.1h-0.8l-0.3,1.6h0.8c0.1,0,0.1,0.1,0.1,0.1
			v0c0,0.1,0,0.1-0.1,0.1h-0.8l-0.3,1.7c0,0.1-0.1,0.1-0.1,0.1H144c-0.1,0-0.1,0-0.1-0.1l0.3-1.7h-1.5l-0.3,1.7
			c0,0.1-0.1,0.1-0.1,0.1h-0.1c-0.1,0-0.1,0-0.1-0.1L142.5,358z M144.3,357.7l0.3-1.6h-1.4l-0.3,1.6H144.3z"/>
		<path class="st0" d="M149.9,354h-3.4c-0.1,0-0.1-0.1-0.1-0.1v-0.1c0-0.1,0.1-0.1,0.1-0.1h3.8c0.1,0,0.1,0.1,0.1,0.1c0,0,0,0,0,0.1
			l-2.7,5.9c-0.1,0.1-0.1,0.1-0.2,0.1h-0.2c-0.1,0-0.1-0.1-0.1-0.1L149.9,354L149.9,354z"/>
		<path class="st0" d="M153.3,357.6L153.3,357.6c0-0.2,0-0.2,0.1-0.2h2c0.1,0,0.1,0,0.1,0.1v0.1c0,0.1-0.1,0.1-0.1,0.1h-2
			C153.4,357.8,153.3,357.7,153.3,357.6z"/>
		<path class="st0" d="M159,358.9l0.1-0.1c0.1,0,0.1,0,0.2,0c0.2,0.2,0.6,0.7,1.5,0.7c1,0,1.7-0.8,1.7-1.7c0-0.9-0.6-1.5-1.7-1.5
			h-1.5c-0.1,0-0.2-0.1-0.2-0.2v-2.4c0-0.1,0.1-0.1,0.1-0.1h2.9c0.1,0,0.1,0.1,0.1,0.1v0.1c0,0.1-0.1,0.1-0.1,0.1h-2.6v1.9h1.3
			c1.4,0,2.1,0.7,2.1,1.9c0,1.2-0.9,2.1-2.1,2.1c-1,0-1.5-0.5-1.8-0.8C158.9,359,158.9,359,159,358.9z"/>
		<path class="st0" d="M165,354.2l-1.1,0.9c0,0-0.1,0-0.1,0l-0.1-0.1c0,0,0-0.1,0-0.1l1.4-1.2c0,0,0.1-0.1,0.2-0.1h0.1
			c0.1,0,0.1,0,0.1,0.1v6c0,0.1-0.1,0.1-0.1,0.1h-0.2c-0.1,0-0.1-0.1-0.1-0.1L165,354.2L165,354.2z"/>
		<path class="st0" d="M172.2,353.5c1.8,0,3.2,1.4,3.2,3.2c0,1.8-1.4,3.2-3.2,3.2c-1.8,0-3.2-1.4-3.2-3.2
			C169,354.9,170.4,353.5,172.2,353.5z M172.2,359.5c1.6,0,2.8-1.2,2.8-2.8c0-1.6-1.3-2.8-2.8-2.8c-1.6,0-2.8,1.3-2.8,2.8
			C169.4,358.3,170.6,359.5,172.2,359.5z"/>
		<path class="st0" d="M176.9,356.1h-0.6c-0.1,0-0.1-0.1-0.1-0.1v-0.1c0-0.1,0.1-0.1,0.1-0.1h0.6v-0.6c0-1,0.5-1.6,1.3-1.6
			c0.5,0,1,0.2,1.1,0.4c0.1,0.1,0.1,0.1,0,0.2l-0.1,0.1c-0.1,0.1-0.1,0.1-0.2,0c-0.2-0.2-0.5-0.3-0.9-0.3c-0.6,0-0.9,0.4-0.9,1.2
			v0.6h1.5c0.1,0,0.1,0,0.1,0.1v0.1c0,0.1,0,0.1-0.1,0.1h-1.5v3.6c0,0.1-0.1,0.1-0.1,0.1H177c-0.1,0-0.1-0.1-0.1-0.1V356.1z"/>
		<path class="st0" d="M180.1,359.2c0.2,0,0.4,0.2,0.4,0.4c0,0.2-0.2,0.4-0.4,0.4c-0.2,0-0.4-0.2-0.4-0.4
			C179.7,359.3,179.9,359.2,180.1,359.2z"/>
		<path class="st0" d="M186.9,354h-3.4c-0.1,0-0.1-0.1-0.1-0.1v-0.1c0-0.1,0.1-0.1,0.1-0.1h3.8c0.1,0,0.1,0.1,0.1,0.1c0,0,0,0,0,0.1
			l-2.7,5.9c-0.1,0.1-0.1,0.1-0.2,0.1h-0.2c-0.1,0-0.1-0.1-0.1-0.1L186.9,354L186.9,354z"/>
		<path class="st0" d="M188.2,356.7c0-2,0.8-3.2,2.2-3.2c1.4,0,2.2,1.2,2.2,3.2c0,2-0.8,3.2-2.2,3.2
			C189,359.9,188.2,358.7,188.2,356.7z M192.2,356.7c0-1.8-0.6-2.8-1.8-2.8c-1.2,0-1.8,1-1.8,2.8c0,1.8,0.6,2.8,1.8,2.8
			C191.6,359.5,192.2,358.5,192.2,356.7z"/>
		<path class="st0" d="M194.4,359.4h3.1c0.1,0,0.1,0.1,0.1,0.1v0.1c0,0.1-0.1,0.1-0.1,0.1h-3.6c-0.1,0-0.1-0.1-0.1-0.1v-0.1
			c0-0.1,0-0.1,0.1-0.2l2.4-2.4c0.6-0.6,1-1.2,1-1.8c0-0.7-0.5-1.4-1.5-1.4c-0.8,0-1.3,0.6-1.4,0.7c-0.1,0.1-0.1,0.1-0.2,0l-0.1-0.1
			c0,0-0.1-0.1,0-0.2c0,0,0.6-0.9,1.7-0.9c1.3,0,2,0.8,2,1.8c0,0.8-0.5,1.4-1.2,2.1L194.4,359.4L194.4,359.4z"/>
		<path class="st0" d="M201.1,353.2c0-0.1,0.1-0.1,0.1-0.1h0.1c0.1,0,0.1,0,0.1,0.1v8.6c0,0.1-0.1,0.1-0.1,0.1h0
			c-0.1,0-0.1,0-0.1-0.1V353.2z"/>
		<path class="st0" d="M205.1,353.7c0-0.1,0.1-0.1,0.1-0.1h0.2c0.1,0,0.1,0.1,0.1,0.1v2.8l3-2.8c0.1-0.1,0.1-0.1,0.2-0.1h0.2
			c0.1,0,0.1,0.1,0.1,0.2l-3.1,2.9l3.2,3c0.1,0,0,0.2-0.1,0.2h-0.3c-0.1,0-0.1,0-0.2-0.1l-3-2.9v2.9c0,0.1-0.1,0.1-0.1,0.1h-0.2
			c-0.1,0-0.1,0-0.1-0.1V353.7z"/>
		<path class="st0" d="M211.4,357.2c0.5,0,0.9,0.2,1.1,0.2c0-0.9-0.1-1.4-0.9-1.4c-0.7,0-1.1,0.2-1.2,0.3c-0.1,0-0.1,0-0.2-0.1
			l0-0.1c0-0.1,0-0.1,0.1-0.2c0,0,0.6-0.3,1.4-0.3c1.2,0,1.3,0.7,1.3,1.8v2.3c0,0.1-0.1,0.1-0.1,0.1h-0.1c-0.1,0-0.1,0-0.1-0.1
			l0-0.4c-0.3,0.3-0.8,0.6-1.4,0.6c-0.8,0-1.3-0.5-1.3-1.4C209.7,357.8,210.3,357.2,211.4,357.2z M211,359.5c0.6,0,1.2-0.4,1.4-0.6
			v-1.2c-0.1-0.1-0.6-0.2-1.1-0.2c-0.8,0-1.3,0.4-1.3,1C210,359.1,210.5,359.5,211,359.5z"/>
		<path class="st0" d="M214.1,354.2c0-0.2,0.2-0.3,0.4-0.3c0.2,0,0.3,0.2,0.3,0.3c0,0.2-0.2,0.3-0.3,0.3
			C214.3,354.6,214.1,354.4,214.1,354.2z M214.3,355.8c0-0.1,0.1-0.1,0.1-0.1h0.1c0.1,0,0.1,0.1,0.1,0.1v3.8c0,0.1,0,0.1-0.1,0.1
			h-0.1c-0.1,0-0.1-0.1-0.1-0.1V355.8z"/>
		<path class="st0" d="M215.7,355.9c0-0.1,0-0.2,0.1-0.2h0.2c0.1,0,0.1,0,0.1,0.1l1,3.3h0l1.2-3.4c0-0.1,0.1-0.1,0.1-0.1h0
			c0.1,0,0.1,0,0.1,0.1l1.2,3.4h0l1-3.3c0-0.1,0.1-0.1,0.1-0.1h0.2c0.1,0,0.1,0.1,0.1,0.2l-1.2,3.9c0,0.1-0.1,0.1-0.1,0.1h0
			c-0.1,0-0.1,0-0.1-0.1l-1.2-3.5h0l-1.2,3.5c0,0.1-0.1,0.1-0.1,0.1h0c-0.1,0-0.1,0-0.1-0.1L215.7,355.9z"/>
		<path class="st0" d="M223.7,357.2c0.5,0,0.9,0.2,1.1,0.2c0-0.9-0.1-1.4-0.9-1.4c-0.7,0-1.1,0.2-1.2,0.3c-0.1,0-0.1,0-0.2-0.1
			l0-0.1c0-0.1,0-0.1,0.1-0.2c0,0,0.6-0.3,1.4-0.3c1.2,0,1.3,0.7,1.3,1.8v2.3c0,0.1-0.1,0.1-0.1,0.1h-0.1c-0.1,0-0.1,0-0.1-0.1
			l0-0.4c-0.3,0.3-0.8,0.6-1.4,0.6c-0.8,0-1.3-0.5-1.3-1.4C222,357.8,222.6,357.2,223.7,357.2z M223.4,359.5c0.6,0,1.2-0.4,1.4-0.6
			v-1.2c-0.1-0.1-0.6-0.2-1.1-0.2c-0.8,0-1.3,0.4-1.3,1C222.4,359.1,222.8,359.5,223.4,359.5z"/>
		<path class="st0" d="M231.8,356.6c0.6,0.2,1.1,0.6,1.1,1.5c0,1-0.8,1.7-2,1.7h-2c-0.1,0-0.1-0.1-0.1-0.1v-6c0-0.1,0.1-0.1,0.1-0.1
			h1.9c1.1,0,1.8,0.6,1.8,1.6C232.7,355.9,232.3,356.4,231.8,356.6L231.8,356.6z M230.9,356.5c0.8,0,1.3-0.5,1.3-1.3
			c0-0.8-0.5-1.2-1.4-1.2h-1.6v2.5H230.9z M231,359.4c0.9,0,1.5-0.5,1.5-1.3c0-0.8-0.6-1.3-1.5-1.3h-1.7v2.6H231z"/>
		<path class="st0" d="M234.2,355.8c0-0.1,0.1-0.1,0.1-0.1h0.1c0.1,0,0.1,0.1,0.1,0.1v2.3c0,0.9,0.3,1.4,1.2,1.4
			c0.8,0,1.2-0.6,1.3-0.8v-2.9c0-0.1,0-0.1,0.1-0.1h0.1c0.1,0,0.1,0.1,0.1,0.1v3.8c0,0.1-0.1,0.1-0.1,0.1h-0.1
			c-0.1,0-0.1-0.1-0.1-0.1l0-0.4c-0.1,0.1-0.5,0.6-1.3,0.6c-1.2,0-1.5-0.6-1.5-1.8V355.8z"/>
		<path class="st0" d="M238.8,354.2c0-0.2,0.2-0.3,0.4-0.3c0.2,0,0.3,0.2,0.3,0.3c0,0.2-0.2,0.3-0.3,0.3
			C238.9,354.6,238.8,354.4,238.8,354.2z M239,355.8c0-0.1,0.1-0.1,0.1-0.1h0.1c0.1,0,0.1,0.1,0.1,0.1v3.8c0,0.1,0,0.1-0.1,0.1h-0.1
			c-0.1,0-0.1-0.1-0.1-0.1V355.8z"/>
		<path class="st0" d="M240.9,353.7c0-0.1,0.1-0.1,0.1-0.1h0.1c0.1,0,0.1,0.1,0.1,0.1v5.9c0,0.1,0,0.1-0.1,0.1H241
			c-0.1,0-0.1-0.1-0.1-0.1V353.7z"/>
		<path class="st0" d="M244.5,355.6c0.8,0,1.3,0.4,1.3,0.4v-2.3c0-0.1,0-0.1,0.1-0.1h0.1c0.1,0,0.1,0.1,0.1,0.1v5.9
			c0,0.1-0.1,0.1-0.1,0.1H246c-0.1,0-0.1,0-0.2-0.1l0-0.4c-0.1,0.1-0.6,0.6-1.4,0.6c-1.1,0-1.9-0.9-1.9-2.1
			C242.5,356.6,243.4,355.6,244.5,355.6z M244.4,359.5c0.9,0,1.4-0.6,1.4-0.7v-2.4c0,0-0.5-0.5-1.2-0.5c-0.9,0-1.6,0.8-1.6,1.8
			C242.9,358.7,243.6,359.5,244.4,359.5z"/>
		<path class="st0" d="M247.5,354.2c0-0.2,0.2-0.3,0.4-0.3c0.2,0,0.3,0.2,0.3,0.3c0,0.2-0.2,0.3-0.3,0.3
			C247.7,354.6,247.5,354.4,247.5,354.2z M247.7,355.8c0-0.1,0.1-0.1,0.1-0.1h0.1c0.1,0,0.1,0.1,0.1,0.1v3.8c0,0.1,0,0.1-0.1,0.1
			h-0.1c-0.1,0-0.1-0.1-0.1-0.1V355.8z"/>
		<path class="st0" d="M249.6,355.8c0-0.1,0.1-0.1,0.1-0.1h0c0.1,0,0.1,0,0.1,0.1l0,0.4c0.1-0.1,0.6-0.6,1.4-0.6
			c1.2,0,1.5,0.7,1.5,1.8v2.3c0,0.1-0.1,0.1-0.1,0.1h-0.1c-0.1,0-0.1-0.1-0.1-0.1v-2.2c0-0.9-0.4-1.4-1.2-1.4
			c-0.8,0-1.4,0.6-1.4,0.7v3c0,0.1,0,0.1-0.1,0.1h-0.1c-0.1,0-0.1-0.1-0.1-0.1V355.8z"/>
		<path class="st0" d="M257.4,359.5c-0.1,0.1-0.6,0.4-1.2,0.4c-1.2,0-2-0.9-2-2.2c0-1.2,0.8-2.1,1.9-2.1c0.8,0,1.3,0.4,1.4,0.5
			l0-0.3c0-0.1,0-0.1,0.1-0.1h0.1c0.1,0,0.1,0,0.1,0.1v4.1c0,1.2-0.8,1.8-1.8,1.8c-0.7,0-1.2-0.4-1.4-0.5c-0.1-0.1-0.1-0.1,0-0.2
			l0.1-0.1c0.1-0.1,0.1-0.1,0.2,0c0.2,0.1,0.6,0.4,1.1,0.4c0.8,0,1.4-0.5,1.4-1.5V359.5z M257.4,356.5c-0.1-0.1-0.5-0.5-1.3-0.5
			c-0.9,0-1.6,0.8-1.6,1.7c0,1,0.7,1.8,1.7,1.8c0.7,0,1.2-0.4,1.2-0.5V356.5z"/>
		<path class="st0" d="M129.4,366.7c0.5,0.2,1.1,0.6,1.1,1.4c0,1-0.9,1.7-1.9,1.7h-2.1c-0.1,0-0.2-0.1-0.2-0.2v-5.9
			c0-0.1,0.1-0.2,0.2-0.2h2c1.1,0,1.9,0.7,1.9,1.6C130.3,366,129.8,366.5,129.4,366.7L129.4,366.7z M128.3,366.3
			c0.5,0,0.7-0.4,0.7-0.8c0-0.4-0.3-0.8-0.7-0.8h-1v1.6H128.3z M128.4,368.8c0.4,0,0.8-0.3,0.8-0.8c0-0.4-0.3-0.8-0.8-0.8h-1.1v1.6
			H128.4z"/>
		<path class="st0" d="M133.3,365.7c1.2,0,2.1,1,2.1,2.1c0,1.2-0.9,2.2-2.1,2.2c-1.2,0-2.1-1-2.1-2.2
			C131.2,366.7,132.2,365.7,133.3,365.7z M133.3,369c0.6,0,1.1-0.5,1.1-1.1c0-0.6-0.5-1.1-1.1-1.1c-0.6,0-1.1,0.5-1.1,1.1
			C132.3,368.4,132.7,369,133.3,369z"/>
		<path class="st0" d="M140.2,369.9c0,1.3-0.9,2-2,2c-0.7,0-1.3-0.3-1.5-0.5c-0.1-0.1-0.1-0.2,0-0.2l0.3-0.6c0-0.1,0.2-0.1,0.2-0.1
			c0.2,0.1,0.5,0.3,1,0.3c0.6,0,1-0.2,1-1v-0.1c-0.2,0.1-0.6,0.2-1,0.2c-1.2,0-2-0.9-2-2.1c0-1.2,0.8-2.1,2-2.1
			c0.9,0,1.3,0.6,1.3,0.6l0.1-0.3c0-0.1,0.1-0.2,0.2-0.2h0.3c0.1,0,0.2,0.1,0.2,0.2V369.9z M139.1,367.3c-0.1-0.2-0.4-0.6-0.9-0.6
			c-0.6,0-1,0.6-1,1.1s0.3,1.1,1,1.1c0.5,0,0.9-0.2,0.9-0.2V367.3z"/>
		<path class="st0" d="M143.2,365.7c1.2,0,2.1,1,2.1,2.1c0,1.2-0.9,2.2-2.1,2.2c-1.2,0-2.1-1-2.1-2.2
			C141.1,366.7,142,365.7,143.2,365.7z M143.2,369c0.6,0,1.1-0.5,1.1-1.1c0-0.6-0.5-1.1-1.1-1.1s-1.1,0.5-1.1,1.1
			C142.1,368.4,142.6,369,143.2,369z"/>
		<path class="st0" d="M146.4,366.8H146c-0.1,0-0.2-0.1-0.2-0.2V366c0-0.1,0.1-0.2,0.2-0.2h0.4v-1.1c0-0.1,0.1-0.2,0.2-0.2h0.7
			c0.1,0,0.2,0.1,0.2,0.2v1.1h1c0.1,0,0.2,0.1,0.2,0.2v0.6c0,0.1-0.1,0.2-0.2,0.2h-1v1.8c0,0.3,0.1,0.3,0.3,0.3
			c0.2,0,0.5-0.1,0.6-0.1c0.1,0,0.2,0,0.2,0.1l0.1,0.5c0,0.1,0,0.2-0.1,0.2c-0.1,0.1-0.7,0.3-1.2,0.3c-0.9,0-1.1-0.6-1.1-1.3V366.8z
			"/>
		<path class="st0" d="M150.9,367.3c0.4,0,0.8,0.1,0.8,0.1c0-0.5-0.1-0.8-0.6-0.8c-0.4,0-0.9,0.1-1.2,0.2c-0.1,0-0.2-0.1-0.2-0.2
			l-0.1-0.5c0-0.2,0-0.2,0.1-0.2c0.1,0,0.7-0.2,1.4-0.2c1.3,0,1.5,0.7,1.5,1.8v2.2c0,0.1-0.1,0.2-0.2,0.2h-0.3c-0.1,0-0.1,0-0.2-0.1
			l-0.1-0.3c-0.2,0.2-0.6,0.5-1.3,0.5c-0.8,0-1.4-0.5-1.4-1.4C149.3,367.8,149.9,367.3,150.9,367.3z M151,369.1
			c0.4,0,0.7-0.3,0.7-0.4v-0.6c0,0-0.3-0.1-0.6-0.1c-0.5,0-0.7,0.2-0.7,0.6C150.4,368.9,150.6,369.1,151,369.1z M150.6,365.1
			l-0.2-0.3c0-0.1,0-0.1,0.1-0.2l1.4-0.9c0.1-0.1,0.2-0.1,0.2,0l0.3,0.5c0.1,0.1,0,0.2-0.1,0.2l-1.6,0.7
			C150.7,365.2,150.7,365.2,150.6,365.1z"/>
		<path class="st0" d="M154.4,368.4c0.5,0,0.9,0.4,0.9,1.2c0,0.9-0.4,1.5-0.7,1.9c-0.1,0.1-0.1,0.1-0.2,0l-0.3-0.2
			c-0.1-0.1-0.1-0.2,0-0.2c0.3-0.3,0.5-0.8,0.5-1.2c0-0.1,0-0.1,0-0.2c-0.1,0.1-0.2,0.1-0.3,0.1c-0.4,0-0.6-0.3-0.6-0.7
			C153.7,368.7,154,368.4,154.4,368.4z"/>
		<path class="st0" d="M161.4,363.6c0.9,0,1.5,0.3,2.1,0.8c0.1,0.1,0.1,0.2,0,0.2l-0.5,0.6c-0.1,0.1-0.2,0.1-0.2,0
			c-0.4-0.3-0.9-0.5-1.4-0.5c-1.1,0-2,0.9-2,2.1c0,1.1,0.9,2,2,2c0.5,0,1-0.2,1.4-0.5c0.1-0.1,0.2-0.1,0.2,0l0.6,0.6
			c0.1,0.1,0.1,0.2,0,0.2c-0.6,0.6-1.4,0.9-2.2,0.9c-1.8,0-3.2-1.4-3.2-3.2C158.2,365,159.6,363.6,161.4,363.6z"/>
		<path class="st0" d="M166.3,365.7c1.2,0,2.1,1,2.1,2.1c0,1.2-0.9,2.2-2.1,2.2c-1.2,0-2.1-1-2.1-2.2
			C164.2,366.7,165.2,365.7,166.3,365.7z M166.3,369c0.6,0,1.1-0.5,1.1-1.1c0-0.6-0.5-1.1-1.1-1.1c-0.6,0-1.1,0.5-1.1,1.1
			C165.3,368.4,165.7,369,166.3,369z"/>
		<path class="st0" d="M169.3,363.9c0-0.1,0.1-0.2,0.2-0.2h0.7c0.1,0,0.2,0.1,0.2,0.2v5.8c0,0.1-0.1,0.2-0.2,0.2h-0.7
			c-0.1,0-0.2-0.1-0.2-0.2V363.9z"/>
		<path class="st0" d="M173.4,365.7c1.2,0,2.1,1,2.1,2.1c0,1.2-0.9,2.2-2.1,2.2c-1.2,0-2.1-1-2.1-2.2
			C171.3,366.7,172.3,365.7,173.4,365.7z M173.4,369c0.6,0,1.1-0.5,1.1-1.1c0-0.6-0.5-1.1-1.1-1.1s-1.1,0.5-1.1,1.1
			C172.3,368.4,172.8,369,173.4,369z"/>
		<path class="st0" d="M176.4,366c0-0.1,0.1-0.2,0.2-0.2h0.3c0.1,0,0.2,0,0.2,0.1l0.2,0.4c0.2-0.2,0.5-0.6,1.3-0.6
			c0.6,0,0.9,0.2,1.2,0.6c0.2-0.2,0.6-0.6,1.3-0.6c1.3,0,1.6,0.8,1.6,1.9v2.1c0,0.1-0.1,0.2-0.2,0.2h-0.7c-0.1,0-0.2-0.1-0.2-0.2
			v-2.1c0-0.5-0.2-0.9-0.7-0.9c-0.6,0-0.8,0.4-0.8,0.4s0,0.2,0,0.4v2.2c0,0.1-0.1,0.2-0.2,0.2h-0.7c-0.1,0-0.2-0.1-0.2-0.2v-2.1
			c0-0.5-0.2-0.9-0.7-0.9c-0.5,0-0.7,0.4-0.8,0.6v2.3c0,0.1-0.1,0.2-0.2,0.2h-0.7c-0.1,0-0.2-0.1-0.2-0.2V366z"/>
		<path class="st0" d="M183.7,363.9c0-0.1,0.1-0.2,0.2-0.2h0.7c0.1,0,0.2,0.1,0.2,0.2v2c0.2-0.1,0.6-0.2,1-0.2c1.2,0,2,0.9,2,2.1
			c0,1.2-0.8,2.1-1.9,2.1c-0.9,0-1.4-0.6-1.4-0.6l-0.1,0.3c0,0.1-0.1,0.2-0.2,0.2h-0.3c-0.1,0-0.2-0.1-0.2-0.2V363.9z M185.7,369
			c0.6,0,1-0.6,1-1.1s-0.3-1.1-1-1.1c-0.5,0-0.9,0.2-0.9,0.2v1.5C184.9,368.6,185.2,369,185.7,369z"/>
		<path class="st0" d="M188.6,364.4c0-0.4,0.3-0.7,0.7-0.7c0.4,0,0.7,0.3,0.7,0.7c0,0.4-0.3,0.7-0.7,0.7
			C188.9,365.1,188.6,364.8,188.6,364.4z M188.7,366c0-0.1,0.1-0.2,0.2-0.2h0.7c0.1,0,0.2,0.1,0.2,0.2v3.7c0,0.1-0.1,0.2-0.2,0.2
			h-0.7c-0.1,0-0.2-0.1-0.2-0.2V366z"/>
		<path class="st0" d="M192.3,367.3c0.4,0,0.8,0.1,0.8,0.1c0-0.5-0.1-0.8-0.6-0.8c-0.4,0-0.9,0.1-1.2,0.2c-0.1,0-0.2-0.1-0.2-0.2
			l-0.1-0.5c0-0.2,0-0.2,0.1-0.2c0.1,0,0.7-0.2,1.4-0.2c1.3,0,1.5,0.7,1.5,1.8v2.2c0,0.1-0.1,0.2-0.2,0.2h-0.3c-0.1,0-0.1,0-0.2-0.1
			l-0.1-0.3c-0.2,0.2-0.6,0.5-1.3,0.5c-0.8,0-1.4-0.5-1.4-1.4C190.7,367.8,191.3,367.3,192.3,367.3z M192.3,369.1
			c0.4,0,0.7-0.3,0.7-0.4v-0.6c0,0-0.3-0.1-0.6-0.1c-0.5,0-0.7,0.2-0.7,0.6C191.8,368.9,192,369.1,192.3,369.1z"/>
	</g>
</g>
<g>
	<g>
		<path class="st0" d="M104.8,445.3c2.2,0,3.5,1.4,3.5,3.2c0,1-0.5,2.1-1.7,2.1c-0.5,0-0.8-0.3-0.9-0.6c-0.1,0.2-0.5,0.6-1.2,0.6
			c-0.9,0-1.5-0.7-1.5-1.6c0-1,0.7-1.6,1.6-1.6c0.7,0,1,0.3,1,0.3l0-0.2c0-0.1,0-0.1,0.1-0.1h0.1c0.1,0,0.1,0,0.1,0.1v1.9
			c0,0.6,0.2,0.8,0.7,0.8c0.8,0,1.3-0.7,1.3-1.8c0-1.7-1.1-2.9-3.1-2.9c-2.1,0-3.4,1.4-3.4,3.4c0,1.5,1,2.6,2.3,3.2
			c0.1,0,0.1,0.1,0,0.1l-0.1,0.1c0,0.1-0.1,0.1-0.1,0c-1.5-0.6-2.5-1.8-2.5-3.4C101,446.8,102.5,445.3,104.8,445.3z M104.5,450.2
			c0.7,0,1-0.6,1.1-0.7v-1.4c0,0-0.3-0.4-1-0.4c-0.7,0-1.3,0.5-1.3,1.3C103.3,449.7,103.8,450.2,104.5,450.2z"/>
		<path class="st0" d="M109.5,447.5H109c-0.1,0-0.1,0-0.1-0.1v-0.1c0-0.1,0-0.1,0.1-0.1h0.5v-1c0-0.1,0.1-0.1,0.1-0.1l0.1,0
			c0.1,0,0.1,0.1,0.1,0.1v1h1.3c0.1,0,0.1,0.1,0.1,0.1v0.1c0,0.1,0,0.1-0.1,0.1h-1.3v2.3c0,0.5,0.1,0.7,0.5,0.7
			c0.4,0,0.8-0.2,0.9-0.3c0.1,0,0.1,0,0.1,0l0.1,0.1c0,0.1,0,0.1,0,0.1c-0.1,0.1-0.6,0.3-1.1,0.3c-0.7,0-0.8-0.4-0.8-0.9V447.5z"/>
		<path class="st0" d="M112.3,445.5c0-0.1,0-0.1,0.1-0.1h0.1c0.1,0,0.1,0.1,0.1,0.1v2.2c0.1-0.1,0.6-0.6,1.3-0.6
			c1,0,1.4,0.6,1.4,1.6v1.9c0,0.1-0.1,0.1-0.1,0.1h-0.1c-0.1,0-0.1-0.1-0.1-0.1v-1.9c0-0.8-0.3-1.2-1.1-1.2c-0.7,0-1.2,0.5-1.3,0.7
			v2.5c0,0.1,0,0.1-0.1,0.1h-0.1c-0.1,0-0.1-0.1-0.1-0.1V445.5z"/>
		<path class="st0" d="M118.3,447.1c1,0,1.7,0.7,1.7,1.6c0,0.1,0,0.3-0.1,0.3h-3c0,0.8,0.7,1.4,1.5,1.4c0.5,0,0.9-0.2,1.2-0.4
			c0.1,0,0.1-0.1,0.2,0l0.1,0.1c0,0,0,0.1,0,0.1c-0.2,0.2-0.8,0.4-1.4,0.4c-1.1,0-1.8-0.8-1.8-1.9
			C116.5,447.9,117.2,447.1,118.3,447.1z M119.6,448.7c0-0.7-0.5-1.3-1.3-1.3c-0.8,0-1.4,0.6-1.5,1.3H119.6z"/>
		<path class="st0" d="M120.8,450.5c0,0-0.1-0.1,0-0.2l0.2-0.5c0-0.1,0.1-0.1,0.2-0.1c0.2,0.1,0.4,0.2,0.8,0.2
			c0.3,0,0.4-0.1,0.4-0.3c0-0.2-0.2-0.3-0.7-0.5c-0.7-0.3-1.1-0.6-1.1-1.1c0-0.5,0.4-1,1.4-1c0.6,0,0.9,0.1,1.1,0.3
			c0.1,0.1,0.1,0.2,0.1,0.2L123,448c-0.1,0.1-0.2,0.1-0.2,0.1c-0.2-0.1-0.4-0.2-0.8-0.2c-0.3,0-0.4,0.1-0.4,0.2
			c0,0.2,0.2,0.2,0.5,0.4c0.7,0.3,1.3,0.5,1.3,1.2c0,0.6-0.5,1.1-1.5,1.1C121.4,450.8,121,450.6,120.8,450.5z"/>
		<path class="st0" d="M124.1,446c0-0.3,0.3-0.6,0.6-0.6c0.4,0,0.7,0.3,0.7,0.6c0,0.3-0.3,0.6-0.7,0.6
			C124.4,446.6,124.1,446.3,124.1,446z M124.3,447.3c0-0.1,0.1-0.2,0.2-0.2h0.7c0.1,0,0.2,0.1,0.2,0.2v3.2c0,0.1-0.1,0.2-0.2,0.2
			h-0.7c-0.1,0-0.2-0.1-0.2-0.2V447.3z"/>
		<path class="st0" d="M129.9,450.7c0,1.1-0.9,1.7-1.9,1.7c-0.6,0-1.2-0.3-1.4-0.4c-0.1,0-0.1-0.1,0-0.2l0.2-0.5
			c0-0.1,0.1-0.1,0.2,0c0.1,0.1,0.5,0.3,0.9,0.3c0.6,0,0.9-0.2,0.9-0.8v-0.1c-0.2,0.1-0.5,0.1-0.9,0.1c-1.1,0-1.9-0.8-1.9-1.8
			c0-1.1,0.8-1.9,1.8-1.9c0.8,0,1.2,0.5,1.2,0.5l0.1-0.3c0-0.1,0.1-0.2,0.2-0.2h0.3c0.1,0,0.2,0.1,0.2,0.2V450.7z M128.9,448.5
			c-0.1-0.2-0.3-0.5-0.8-0.5c-0.6,0-0.9,0.5-0.9,1c0,0.5,0.3,1,0.9,1c0.5,0,0.8-0.2,0.8-0.2V448.5z"/>
		<path class="st0" d="M131,447.3c0-0.1,0.1-0.2,0.2-0.2h0.3c0.1,0,0.1,0,0.2,0.1l0.1,0.3c0.1-0.1,0.5-0.5,1.2-0.5
			c1.2,0,1.5,0.8,1.5,1.6v1.8c0,0.1-0.1,0.2-0.2,0.2h-0.7c-0.1,0-0.2-0.1-0.2-0.2v-1.8c0-0.5-0.2-0.7-0.7-0.7
			c-0.5,0-0.7,0.3-0.8,0.6v2c0,0.1-0.1,0.2-0.2,0.2h-0.6c-0.1,0-0.2-0.1-0.2-0.2V447.3z"/>
		<path class="st0" d="M135.7,445.5c0-0.1,0-0.1,0.1-0.1h0.1c0.1,0,0.1,0.1,0.1,0.1v5.1c0,0.1,0,0.1-0.1,0.1h-0.1
			c-0.1,0-0.1-0.1-0.1-0.1V445.5z"/>
		<path class="st0" d="M138.8,448.4c0.4,0,0.9,0.1,1,0.2c0-0.8-0.1-1.2-0.9-1.2c-0.6,0-1.1,0.2-1.1,0.2c-0.1,0-0.1,0-0.1-0.1l0-0.1
			c0-0.1,0-0.1,0-0.1c0,0,0.5-0.3,1.3-0.3c1.1,0,1.2,0.6,1.2,1.5v2c0,0.1-0.1,0.1-0.1,0.1h-0.1c-0.1,0-0.1,0-0.1-0.1l0-0.3
			c-0.2,0.2-0.7,0.5-1.3,0.5c-0.7,0-1.2-0.4-1.2-1.2C137.2,448.9,137.8,448.4,138.8,448.4z M138.5,450.5c0.6,0,1.1-0.3,1.3-0.5v-1
			c-0.1-0.1-0.5-0.2-1-0.2c-0.7,0-1.2,0.4-1.2,0.9C137.5,450.1,137.9,450.5,138.5,450.5z"/>
		<path class="st0" d="M143.1,450.8c-0.7,0-1.2-0.4-1.3-0.5l0,0.3c0,0.1-0.1,0.1-0.1,0.1h0c-0.1,0-0.1-0.1-0.1-0.1v-5.1
			c0-0.1,0.1-0.1,0.1-0.1h0.1c0.1,0,0.1,0.1,0.1,0.1v2c0,0,0.5-0.3,1.2-0.3c1.1,0,1.8,0.8,1.8,1.8
			C144.8,450,144.1,450.8,143.1,450.8z M143,447.4c-0.7,0-1.1,0.4-1.1,0.4v2c0,0,0.5,0.6,1.3,0.6c0.8,0,1.4-0.7,1.4-1.5
			C144.5,448.1,143.8,447.4,143,447.4z"/>
		<path class="st0" d="M147.7,447.1c0.7,0,1.2,0.3,1.4,0.5c0,0.1,0,0.1,0,0.2l-0.1,0.1c-0.1,0.1-0.1,0-0.2,0
			c-0.1-0.1-0.5-0.4-1.1-0.4c-0.9,0-1.6,0.7-1.6,1.5c0,0.9,0.7,1.5,1.6,1.5c0.7,0,1.1-0.4,1.2-0.5c0.1-0.1,0.1-0.1,0.2,0l0.1,0.1
			c0,0,0.1,0.1,0,0.1c-0.2,0.2-0.7,0.7-1.5,0.7c-1.1,0-2-0.8-2-1.9C145.7,447.9,146.6,447.1,147.7,447.1z"/>
		<path class="st0" d="M151.8,447.1c1.1,0,1.9,0.8,1.9,1.8c0,1-0.8,1.9-1.9,1.9c-1.1,0-1.9-0.8-1.9-1.9
			C149.9,447.9,150.8,447.1,151.8,447.1z M151.8,450.5c0.8,0,1.5-0.7,1.5-1.5c0-0.8-0.7-1.5-1.5-1.5c-0.9,0-1.5,0.7-1.5,1.5
			C150.3,449.8,151,450.5,151.8,450.5z"/>
	</g>
	<g>
		<path class="st0" d="M181.7,445.6c2.2,0,3.5,1.4,3.5,3.2c0,1-0.5,2.1-1.7,2.1c-0.5,0-0.8-0.3-0.9-0.6c-0.1,0.2-0.5,0.6-1.2,0.6
			c-0.9,0-1.5-0.7-1.5-1.6c0-1,0.7-1.6,1.6-1.6c0.7,0,1,0.3,1,0.3l0-0.2c0-0.1,0-0.1,0.1-0.1h0.1c0.1,0,0.1,0,0.1,0.1v1.9
			c0,0.6,0.2,0.8,0.7,0.8c0.8,0,1.3-0.7,1.3-1.8c0-1.7-1.1-2.9-3.1-2.9c-2.1,0-3.4,1.4-3.4,3.4c0,1.5,1,2.6,2.3,3.2
			c0.1,0,0.1,0.1,0,0.1l-0.1,0.1c0,0.1-0.1,0.1-0.1,0c-1.5-0.6-2.5-1.8-2.5-3.4C177.9,447.1,179.4,445.6,181.7,445.6z M181.4,450.5
			c0.7,0,1-0.6,1.1-0.7v-1.4c0,0-0.3-0.4-1-0.4c-0.7,0-1.3,0.5-1.3,1.3S180.7,450.5,181.4,450.5z"/>
		<path class="st0" d="M186.3,447.8h-0.5c-0.1,0-0.1,0-0.1-0.1v-0.1c0-0.1,0-0.1,0.1-0.1h0.5v-1c0-0.1,0.1-0.1,0.1-0.1l0.1,0
			c0.1,0,0.1,0.1,0.1,0.1v1h1.3c0.1,0,0.1,0.1,0.1,0.1v0.1c0,0.1,0,0.1-0.1,0.1h-1.3v2.3c0,0.5,0.1,0.7,0.5,0.7
			c0.4,0,0.8-0.2,0.9-0.3c0.1,0,0.1,0,0.1,0l0.1,0.1c0,0.1,0,0.1,0,0.1c-0.1,0.1-0.6,0.3-1.1,0.3c-0.7,0-0.8-0.4-0.8-0.9V447.8z"/>
		<path class="st0" d="M189.2,445.8c0-0.1,0-0.1,0.1-0.1h0.1c0.1,0,0.1,0.1,0.1,0.1v2.2c0.1-0.1,0.6-0.6,1.3-0.6
			c1,0,1.4,0.6,1.4,1.6v1.9c0,0.1-0.1,0.1-0.1,0.1H192c-0.1,0-0.1-0.1-0.1-0.1V449c0-0.8-0.3-1.2-1.1-1.2c-0.7,0-1.2,0.5-1.3,0.7
			v2.5c0,0.1,0,0.1-0.1,0.1h-0.1c-0.1,0-0.1-0.1-0.1-0.1V445.8z"/>
		<path class="st0" d="M195.1,447.4c1,0,1.7,0.7,1.7,1.6c0,0.1,0,0.3-0.1,0.3h-3c0,0.8,0.7,1.4,1.5,1.4c0.5,0,0.9-0.2,1.2-0.4
			c0.1,0,0.1-0.1,0.2,0l0.1,0.1c0,0,0,0.1,0,0.1c-0.2,0.2-0.8,0.4-1.4,0.4c-1.1,0-1.8-0.8-1.8-1.9
			C193.3,448.2,194,447.4,195.1,447.4z M196.5,449c0-0.7-0.5-1.3-1.3-1.3c-0.8,0-1.4,0.6-1.5,1.3H196.5z"/>
		<path class="st0" d="M197.6,450.8c0,0-0.1-0.1,0-0.2l0.2-0.5c0-0.1,0.1-0.1,0.2-0.1c0.2,0.1,0.4,0.2,0.8,0.2
			c0.3,0,0.4-0.1,0.4-0.3c0-0.2-0.2-0.3-0.7-0.5c-0.7-0.3-1.1-0.6-1.1-1.1c0-0.5,0.4-1,1.4-1c0.6,0,0.9,0.1,1.1,0.3
			c0.1,0.1,0.1,0.2,0.1,0.2l-0.2,0.4c-0.1,0.1-0.2,0.1-0.2,0.1c-0.2-0.1-0.4-0.2-0.8-0.2c-0.3,0-0.4,0.1-0.4,0.2
			c0,0.2,0.2,0.2,0.5,0.4c0.7,0.3,1.3,0.5,1.3,1.2c0,0.6-0.5,1.1-1.5,1.1C198.2,451.1,197.8,450.9,197.6,450.8z"/>
		<path class="st0" d="M201,446.3c0-0.3,0.3-0.6,0.6-0.6c0.4,0,0.7,0.3,0.7,0.6c0,0.3-0.3,0.6-0.7,0.6
			C201.3,446.9,201,446.6,201,446.3z M201.1,447.6c0-0.1,0.1-0.2,0.2-0.2h0.7c0.1,0,0.2,0.1,0.2,0.2v3.2c0,0.1-0.1,0.2-0.2,0.2h-0.7
			c-0.1,0-0.2-0.1-0.2-0.2V447.6z"/>
		<path class="st0" d="M206.8,451c0,1.1-0.9,1.7-1.9,1.7c-0.6,0-1.2-0.3-1.4-0.4c-0.1,0-0.1-0.1,0-0.2l0.2-0.5c0-0.1,0.1-0.1,0.2,0
			c0.1,0.1,0.5,0.3,0.9,0.3c0.6,0,0.9-0.2,0.9-0.8v-0.1c-0.2,0.1-0.5,0.1-0.9,0.1c-1.1,0-1.9-0.8-1.9-1.8c0-1.1,0.8-1.9,1.8-1.9
			c0.8,0,1.2,0.5,1.2,0.5l0.1-0.3c0-0.1,0.1-0.2,0.2-0.2h0.3c0.1,0,0.2,0.1,0.2,0.2V451z M205.8,448.8c-0.1-0.2-0.3-0.5-0.8-0.5
			c-0.6,0-0.9,0.5-0.9,1c0,0.5,0.3,1,0.9,1c0.5,0,0.8-0.2,0.8-0.2V448.8z"/>
		<path class="st0" d="M207.8,447.6c0-0.1,0.1-0.2,0.2-0.2h0.3c0.1,0,0.1,0,0.2,0.1l0.1,0.3c0.1-0.1,0.5-0.5,1.2-0.5
			c1.2,0,1.5,0.8,1.5,1.6v1.8c0,0.1-0.1,0.2-0.2,0.2h-0.7c-0.1,0-0.2-0.1-0.2-0.2V449c0-0.5-0.2-0.7-0.7-0.7c-0.5,0-0.7,0.3-0.8,0.6
			v2c0,0.1-0.1,0.2-0.2,0.2H208c-0.1,0-0.2-0.1-0.2-0.2V447.6z"/>
		<path class="st0" d="M212.6,445.8c0-0.1,0-0.1,0.1-0.1h0.1c0.1,0,0.1,0.1,0.1,0.1v5.1c0,0.1,0,0.1-0.1,0.1h-0.1
			c-0.1,0-0.1-0.1-0.1-0.1V445.8z"/>
		<path class="st0" d="M215.6,448.7c0.4,0,0.9,0.1,1,0.2c0-0.8-0.1-1.2-0.9-1.2c-0.6,0-1.1,0.2-1.1,0.2c-0.1,0-0.1,0-0.1-0.1l0-0.1
			c0-0.1,0-0.1,0-0.1c0,0,0.5-0.3,1.3-0.3c1.1,0,1.2,0.6,1.2,1.5v2c0,0.1-0.1,0.1-0.1,0.1h-0.1c-0.1,0-0.1,0-0.1-0.1l0-0.3
			c-0.2,0.2-0.7,0.5-1.3,0.5c-0.7,0-1.2-0.4-1.2-1.2C214.1,449.2,214.6,448.7,215.6,448.7z M215.3,450.8c0.6,0,1.1-0.3,1.3-0.5v-1
			c-0.1-0.1-0.5-0.2-1-0.2c-0.7,0-1.2,0.4-1.2,0.9C214.4,450.4,214.8,450.8,215.3,450.8z"/>
		<path class="st0" d="M220,451.1c-0.7,0-1.2-0.4-1.3-0.5l0,0.3c0,0.1-0.1,0.1-0.1,0.1h0c-0.1,0-0.1-0.1-0.1-0.1v-5.1
			c0-0.1,0.1-0.1,0.1-0.1h0.1c0.1,0,0.1,0.1,0.1,0.1v2c0,0,0.5-0.3,1.2-0.3c1.1,0,1.8,0.8,1.8,1.8C221.7,450.3,221,451.1,220,451.1z
			 M219.8,447.7c-0.7,0-1.1,0.4-1.1,0.4v2c0,0,0.5,0.6,1.3,0.6c0.8,0,1.4-0.7,1.4-1.5C221.3,448.4,220.7,447.7,219.8,447.7z"/>
		<path class="st0" d="M224.5,447.4c0.7,0,1.2,0.3,1.4,0.5c0,0.1,0,0.1,0,0.2l-0.1,0.1c-0.1,0.1-0.1,0-0.2,0
			c-0.1-0.1-0.5-0.4-1.1-0.4c-0.9,0-1.6,0.7-1.6,1.5c0,0.9,0.7,1.5,1.6,1.5c0.7,0,1.1-0.4,1.2-0.5c0.1-0.1,0.1-0.1,0.2,0l0.1,0.1
			c0,0,0.1,0.1,0,0.1c-0.2,0.2-0.7,0.7-1.5,0.7c-1.1,0-2-0.8-2-1.9C222.6,448.2,223.4,447.4,224.5,447.4z"/>
		<path class="st0" d="M228.7,447.4c1.1,0,1.9,0.8,1.9,1.8c0,1-0.8,1.9-1.9,1.9c-1.1,0-1.9-0.8-1.9-1.9
			C226.8,448.2,227.6,447.4,228.7,447.4z M228.7,450.8c0.8,0,1.5-0.7,1.5-1.5c0-0.8-0.7-1.5-1.5-1.5c-0.9,0-1.5,0.7-1.5,1.5
			C227.2,450.1,227.8,450.8,228.7,450.8z"/>
	</g>
	<g>
		<path class="st0" d="M259.1,448.1h-0.5c-0.1,0-0.1,0-0.1-0.1v-0.1c0-0.1,0-0.1,0.1-0.1h0.5v-1c0-0.1,0.1-0.1,0.1-0.1l0.1,0
			c0.1,0,0.1,0.1,0.1,0.1v1h1.3c0.1,0,0.1,0.1,0.1,0.1v0.1c0,0.1,0,0.1-0.1,0.1h-1.3v2.3c0,0.5,0.1,0.7,0.5,0.7
			c0.4,0,0.8-0.2,0.9-0.3c0.1,0,0.1,0,0.1,0l0.1,0.1c0,0.1,0,0.1,0,0.1c-0.1,0.1-0.6,0.3-1.1,0.3c-0.7,0-0.8-0.4-0.8-0.9V448.1z"/>
		<path class="st0" d="M261.9,446.1c0-0.1,0-0.1,0.1-0.1h0.1c0.1,0,0.1,0.1,0.1,0.1v2.2c0.1-0.1,0.6-0.6,1.3-0.6
			c1,0,1.4,0.6,1.4,1.6v1.9c0,0.1-0.1,0.1-0.1,0.1h-0.1c-0.1,0-0.1-0.1-0.1-0.1v-1.9c0-0.8-0.3-1.2-1.1-1.2c-0.7,0-1.2,0.5-1.3,0.7
			v2.5c0,0.1,0,0.1-0.1,0.1H262c-0.1,0-0.1-0.1-0.1-0.1V446.1z"/>
		<path class="st0" d="M267.9,447.7c1,0,1.7,0.7,1.7,1.6c0,0.1,0,0.3-0.1,0.3h-3c0,0.8,0.7,1.4,1.5,1.4c0.5,0,0.9-0.2,1.2-0.4
			c0.1,0,0.1-0.1,0.2,0l0.1,0.1c0,0,0,0.1,0,0.1c-0.2,0.2-0.8,0.4-1.4,0.4c-1.1,0-1.8-0.8-1.8-1.9
			C266.1,448.5,266.8,447.7,267.9,447.7z M269.2,449.3c0-0.7-0.5-1.3-1.3-1.3c-0.8,0-1.4,0.6-1.5,1.3H269.2z"/>
		<path class="st0" d="M272.4,451.1c0,0-0.1-0.1,0-0.2l0.2-0.5c0-0.1,0.1-0.1,0.2-0.1c0.2,0.1,0.4,0.2,0.8,0.2
			c0.3,0,0.4-0.1,0.4-0.3c0-0.2-0.2-0.3-0.7-0.5c-0.7-0.3-1.1-0.6-1.1-1.1c0-0.5,0.4-1,1.4-1c0.6,0,0.9,0.1,1.1,0.3
			c0.1,0.1,0.1,0.2,0.1,0.2l-0.2,0.4c-0.1,0.1-0.2,0.1-0.2,0.1c-0.2-0.1-0.4-0.2-0.8-0.2c-0.3,0-0.4,0.1-0.4,0.2
			c0,0.2,0.2,0.2,0.5,0.4c0.7,0.3,1.3,0.5,1.3,1.2c0,0.6-0.5,1.1-1.5,1.1C273,451.4,272.6,451.2,272.4,451.1z"/>
		<path class="st0" d="M275.7,446.6c0-0.3,0.3-0.6,0.6-0.6c0.4,0,0.7,0.3,0.7,0.6c0,0.3-0.3,0.6-0.7,0.6
			C276,447.2,275.7,446.9,275.7,446.6z M275.9,447.9c0-0.1,0.1-0.2,0.2-0.2h0.7c0.1,0,0.2,0.1,0.2,0.2v3.2c0,0.1-0.1,0.2-0.2,0.2
			H276c-0.1,0-0.2-0.1-0.2-0.2V447.9z"/>
		<path class="st0" d="M281.5,451.4c0,1.1-0.9,1.7-1.9,1.7c-0.6,0-1.2-0.3-1.4-0.4c-0.1,0-0.1-0.1,0-0.2l0.2-0.5
			c0-0.1,0.1-0.1,0.2,0c0.1,0.1,0.5,0.3,0.9,0.3c0.6,0,0.9-0.2,0.9-0.8v-0.1c-0.2,0.1-0.5,0.1-0.9,0.1c-1.1,0-1.9-0.8-1.9-1.8
			c0-1.1,0.8-1.9,1.8-1.9c0.8,0,1.2,0.5,1.2,0.5l0.1-0.3c0-0.1,0.1-0.2,0.2-0.2h0.3c0.1,0,0.2,0.1,0.2,0.2V451.4z M280.5,449.1
			c-0.1-0.2-0.3-0.5-0.8-0.5c-0.6,0-0.9,0.5-0.9,1c0,0.5,0.3,1,0.9,1c0.5,0,0.8-0.2,0.8-0.2V449.1z"/>
		<path class="st0" d="M282.6,447.9c0-0.1,0.1-0.2,0.2-0.2h0.3c0.1,0,0.1,0,0.2,0.1l0.1,0.3c0.1-0.1,0.5-0.5,1.2-0.5
			c1.2,0,1.5,0.8,1.5,1.6v1.8c0,0.1-0.1,0.2-0.2,0.2h-0.7c-0.1,0-0.2-0.1-0.2-0.2v-1.8c0-0.5-0.2-0.7-0.7-0.7
			c-0.5,0-0.7,0.3-0.8,0.6v2c0,0.1-0.1,0.2-0.2,0.2h-0.6c-0.1,0-0.2-0.1-0.2-0.2V447.9z"/>
		<path class="st0" d="M289.3,446.1c0-0.1,0-0.1,0.1-0.1h0.1c0.1,0,0.1,0.1,0.1,0.1v5.1c0,0.1,0,0.1-0.1,0.1h-0.1
			c-0.1,0-0.1-0.1-0.1-0.1V446.1z"/>
		<path class="st0" d="M292.3,449c0.4,0,0.9,0.1,1,0.2c0-0.8-0.1-1.2-0.9-1.2c-0.6,0-1.1,0.2-1.1,0.2c-0.1,0-0.1,0-0.1-0.1l0-0.1
			c0-0.1,0-0.1,0-0.1c0,0,0.5-0.3,1.3-0.3c1.1,0,1.2,0.6,1.2,1.5v2c0,0.1-0.1,0.1-0.1,0.1h-0.1c-0.1,0-0.1,0-0.1-0.1l0-0.3
			c-0.2,0.2-0.7,0.5-1.3,0.5c-0.7,0-1.2-0.4-1.2-1.2C290.7,449.5,291.3,449,292.3,449z M292,451.1c0.6,0,1.1-0.3,1.3-0.5v-1
			c-0.1-0.1-0.5-0.2-1-0.2c-0.7,0-1.2,0.4-1.2,0.9C291.1,450.7,291.5,451.1,292,451.1z"/>
		<path class="st0" d="M296.7,451.4c-0.7,0-1.2-0.4-1.3-0.5l0,0.3c0,0.1-0.1,0.1-0.1,0.1h0c-0.1,0-0.1-0.1-0.1-0.1v-5.1
			c0-0.1,0.1-0.1,0.1-0.1h0.1c0.1,0,0.1,0.1,0.1,0.1v2c0,0,0.5-0.3,1.2-0.3c1.1,0,1.8,0.8,1.8,1.8
			C298.4,450.6,297.7,451.4,296.7,451.4z M296.5,448c-0.7,0-1.1,0.4-1.1,0.4v2c0,0,0.5,0.6,1.3,0.6c0.8,0,1.4-0.7,1.4-1.5
			C298,448.7,297.4,448,296.5,448z"/>
	</g>
	<g>
		<path class="st0" d="M22.4,449.2h-0.7c-0.1,0-0.1,0-0.1-0.1v0c0-0.1,0-0.1,0.1-0.1h0.7l0.3-1.5H22c-0.1,0-0.1,0-0.1-0.1v0
			c0-0.1,0-0.1,0.1-0.1h0.8l0.3-2c0-0.1,0.1-0.1,0.1-0.1h0c0.1,0,0.1,0.1,0.1,0.1l-0.3,1.9h1.4l0.3-2c0-0.1,0.1-0.1,0.1-0.1h0.1
			c0.1,0,0.1,0.1,0.1,0.1l-0.3,1.9h0.7c0.1,0,0.1,0,0.1,0.1v0c0,0.1,0,0.1-0.1,0.1h-0.7l-0.3,1.5H25c0.1,0,0.1,0,0.1,0.1v0
			c0,0.1,0,0.1-0.1,0.1h-0.8l-0.3,1.6c0,0-0.1,0.1-0.1,0.1h0c-0.1,0-0.1,0-0.1-0.1l0.3-1.6h-1.4l-0.3,1.6c0,0-0.1,0.1-0.1,0.1h0
			c-0.1,0-0.1,0-0.1-0.1L22.4,449.2z M24.1,449l0.2-1.5H23l-0.3,1.5H24.1z"/>
		<path class="st0" d="M26.1,447.3c0-0.1,0-0.2,0.1-0.2h0.2c0.1,0,0.1,0,0.1,0.1l0.9,3.1h0l1.2-3.2c0-0.1,0-0.1,0.1-0.1h0
			c0,0,0.1,0,0.1,0.1l1.1,3.2h0l0.9-3.1c0-0.1,0.1-0.1,0.1-0.1h0.2c0.1,0,0.1,0.1,0,0.2l-1.1,3.7c0,0.1,0,0.1-0.1,0.1h0
			c0,0-0.1,0-0.1-0.1l-1.1-3.3h0l-1.2,3.3c0,0.1-0.1,0.1-0.1,0.1h0c-0.1,0-0.1,0-0.1-0.1L26.1,447.3z"/>
	</g>
	<g>
		<path class="st0" d="M33.8,447c1,0,1.7,0.8,1.7,1.7c0,0.1,0,0.4-0.1,0.4h-3.1c0,0.9,0.7,1.5,1.5,1.5c0.5,0,0.9-0.2,1.2-0.4
			c0.1,0,0.1-0.1,0.2,0l0.1,0.1c0,0,0,0.1,0,0.1c-0.2,0.2-0.8,0.4-1.4,0.4c-1.1,0-1.8-0.9-1.8-2C32,447.9,32.7,447,33.8,447z
			 M35.2,448.8c0-0.8-0.5-1.4-1.4-1.4c-0.8,0-1.4,0.6-1.5,1.4H35.2z"/>
	</g>
	<g>
		<path class="st0" d="M36.3,450.7c0,0-0.1-0.1,0-0.2l0.2-0.5c0-0.1,0.1-0.1,0.2-0.1c0.2,0.1,0.4,0.2,0.8,0.2c0.3,0,0.4-0.1,0.4-0.3
			c0-0.2-0.2-0.3-0.7-0.5c-0.7-0.3-1.1-0.6-1.1-1.2c0-0.6,0.4-1.1,1.4-1.1c0.6,0,0.9,0.1,1.1,0.3c0.1,0.1,0.1,0.2,0.1,0.3l-0.2,0.4
			c-0.1,0.1-0.2,0.1-0.2,0.1c-0.2-0.1-0.4-0.2-0.8-0.2c-0.3,0-0.4,0.1-0.4,0.2c0,0.2,0.2,0.3,0.5,0.4c0.7,0.3,1.3,0.6,1.3,1.3
			c0,0.6-0.5,1.1-1.5,1.1C37,451,36.6,450.8,36.3,450.7z"/>
		<path class="st0" d="M39.7,445.8c0-0.4,0.3-0.7,0.7-0.7c0.4,0,0.7,0.3,0.7,0.7c0,0.4-0.3,0.7-0.7,0.7
			C40,446.5,39.7,446.2,39.7,445.8z M39.9,447.3c0-0.1,0.1-0.2,0.2-0.2h0.7c0.1,0,0.2,0.1,0.2,0.2v3.5c0,0.1-0.1,0.2-0.2,0.2h-0.7
			c-0.1,0-0.2-0.1-0.2-0.2V447.3z"/>
		<path class="st0" d="M45.6,451c0,1.2-0.9,1.9-1.9,1.9c-0.6,0-1.2-0.3-1.4-0.4c-0.1,0-0.1-0.1,0-0.2l0.2-0.5c0-0.1,0.1-0.1,0.2,0
			c0.1,0.1,0.5,0.3,0.9,0.3c0.6,0,0.9-0.2,0.9-0.9v-0.1c-0.2,0.1-0.5,0.2-0.9,0.2c-1.1,0-1.9-0.9-1.9-2c0-1.2,0.8-2,1.8-2
			c0.8,0,1.3,0.6,1.3,0.6l0.1-0.3c0-0.1,0.1-0.2,0.2-0.2h0.3c0.1,0,0.2,0.1,0.2,0.2V451z M44.6,448.5c-0.1-0.2-0.3-0.5-0.8-0.5
			c-0.6,0-0.9,0.5-0.9,1.1c0,0.5,0.3,1.1,1,1.1c0.5,0,0.8-0.2,0.8-0.2V448.5z"/>
		<path class="st0" d="M46.7,447.3c0-0.1,0.1-0.2,0.2-0.2h0.3c0.1,0,0.1,0,0.2,0.1l0.1,0.4c0.1-0.2,0.5-0.6,1.2-0.6
			c1.2,0,1.5,0.8,1.5,1.7v2c0,0.1-0.1,0.2-0.2,0.2h-0.7c-0.1,0-0.2-0.1-0.2-0.2v-2c0-0.5-0.2-0.8-0.7-0.8c-0.5,0-0.7,0.3-0.8,0.6
			v2.2c0,0.1-0.1,0.2-0.2,0.2h-0.6c-0.1,0-0.2-0.1-0.2-0.2V447.3z"/>
	</g>
	<g>
		<path class="st0" d="M53.1,447c1.1,0,1.9,0.9,1.9,2c0,1.1-0.9,2-1.9,2c-1.1,0-1.9-0.9-1.9-2C51.1,447.9,52,447,53.1,447z
			 M53.1,450.7c0.9,0,1.5-0.7,1.5-1.7c0-0.9-0.7-1.6-1.5-1.6c-0.9,0-1.6,0.7-1.6,1.6C51.5,449.9,52.2,450.7,53.1,450.7z"/>
		<path class="st0" d="M56.1,447.2c0-0.1,0.1-0.1,0.1-0.1h0.1c0.1,0,0.1,0.1,0.1,0.1v2.1c0,0.9,0.3,1.3,1.1,1.3
			c0.7,0,1.1-0.5,1.2-0.7v-2.7c0-0.1,0-0.1,0.1-0.1H59c0.1,0,0.1,0.1,0.1,0.1v3.6c0,0.1-0.1,0.1-0.1,0.1h-0.1
			c-0.1,0-0.1-0.1-0.1-0.1l0-0.4c-0.1,0.1-0.5,0.6-1.3,0.6c-1.1,0-1.4-0.6-1.4-1.6V447.2z"/>
		<path class="st0" d="M60.5,447.2c0-0.1,0-0.1,0.1-0.1h0.1c0.1,0,0.1,0,0.1,0.1l0,0.4c0.1-0.1,0.5-0.6,1.2-0.6
			c0.3,0,0.5,0.1,0.6,0.1c0.1,0,0.1,0.1,0.1,0.2l0,0.1c0,0.1-0.1,0.1-0.2,0c0,0-0.2-0.1-0.5-0.1c-0.7,0-1.1,0.6-1.2,0.7v2.8
			c0,0.1,0,0.1-0.1,0.1h-0.1c-0.1,0-0.1-0.1-0.1-0.1V447.2z"/>
		<path class="st0" d="M63.2,447.3c0-0.1,0-0.2,0.1-0.2h0.2c0.1,0,0.1,0,0.1,0.1l0.9,3.1h0l1.2-3.2c0-0.1,0-0.1,0.1-0.1h0
			c0,0,0.1,0,0.1,0.1l1.1,3.2h0l0.9-3.1c0-0.1,0.1-0.1,0.1-0.1h0.2c0.1,0,0.1,0.1,0,0.2l-1.1,3.7c0,0.1,0,0.1-0.1,0.1h0
			c0,0-0.1,0-0.1-0.1l-1.1-3.3h0l-1.2,3.3c0,0.1-0.1,0.1-0.1,0.1h0c-0.1,0-0.1,0-0.1-0.1L63.2,447.3z"/>
	</g>
	<g>
		<path class="st0" d="M71,447c1.1,0,1.9,0.9,1.9,2c0,1.1-0.9,2-1.9,2c-1.1,0-1.9-0.9-1.9-2C69.1,447.9,69.9,447,71,447z M71,450.7
			c0.9,0,1.5-0.7,1.5-1.7c0-0.9-0.7-1.6-1.5-1.6c-0.9,0-1.6,0.7-1.6,1.6C69.4,449.9,70.1,450.7,71,450.7z"/>
		<path class="st0" d="M74,447.2c0-0.1,0-0.1,0.1-0.1h0.1c0.1,0,0.1,0,0.1,0.1l0,0.4c0.1-0.1,0.5-0.6,1.2-0.6c0.3,0,0.5,0.1,0.6,0.1
			c0.1,0,0.1,0.1,0.1,0.2l0,0.1c0,0.1-0.1,0.1-0.2,0c0,0-0.2-0.1-0.5-0.1c-0.7,0-1.1,0.6-1.2,0.7v2.8c0,0.1,0,0.1-0.1,0.1h-0.1
			c-0.1,0-0.1-0.1-0.1-0.1V447.2z"/>
		<path class="st0" d="M77.2,445.3c0-0.1,0-0.1,0.1-0.1h0.1c0.1,0,0.1,0.1,0.1,0.1v5.6c0,0.1,0,0.1-0.1,0.1h-0.1
			c-0.1,0-0.1-0.1-0.1-0.1V445.3z"/>
		<path class="st0" d="M80.6,447c0.7,0,1.2,0.4,1.2,0.4v-2.1c0-0.1,0-0.1,0.1-0.1H82c0,0,0.1,0.1,0.1,0.1v5.6c0,0.1-0.1,0.1-0.1,0.1
			h0c-0.1,0-0.1,0-0.1-0.1l0-0.3c-0.1,0.1-0.6,0.6-1.3,0.6c-1,0-1.7-0.9-1.7-2C78.7,447.9,79.5,447,80.6,447z M80.5,450.7
			c0.8,0,1.3-0.6,1.3-0.6v-2.2c0,0-0.5-0.4-1.2-0.4c-0.9,0-1.5,0.7-1.5,1.6C79.1,449.9,79.7,450.7,80.5,450.7z"/>
		<path class="st0" d="M85.5,444.8c0-0.1,0-0.1,0.1-0.1h0c0.1,0,0.1,0,0.1,0.1v8.1c0,0.1,0,0.1-0.1,0.1h0c-0.1,0-0.1,0-0.1-0.1
			V444.8z"/>
	</g>
	<g>
		<path class="st0" d="M95.2,443.8C95.2,443.8,95.2,443.9,95.2,443.8c0,0.5,0,1,0,1.5c0,0.1,0,0.1-0.1,0.1c-0.3,0-0.5,0-0.8,0
			c-0.1,0-0.2,0-0.3,0c-0.2,0-0.3,0.2-0.3,0.3c0,0.3,0,0.7,0,1c0,0.1,0,0,0.1,0c0.4,0,0.8,0,1.2,0c0,0,0.1,0,0.1,0
			c-0.1,0.5-0.1,1-0.2,1.6c-0.4,0-0.8,0-1.2,0c0,0,0,0.1,0,0.1c0,1.4,0,2.9,0,4.3c0,0,0,0.1,0,0.1c-0.6,0-1.1,0-1.7,0
			c0-0.1,0-0.3,0-0.4c0-1.3,0-2.7,0-4c0,0,0-0.1,0-0.1c-0.4,0-0.7,0-1.1,0c0,0,0-0.1,0-0.1c0-0.5,0-0.9,0-1.4c0-0.1,0-0.1,0.1-0.1
			c0.3,0,0.6,0,1,0c0.1,0,0.1,0,0.1-0.1c0-0.4,0-0.8,0-1.3c0-0.3,0.1-0.6,0.2-0.9c0.2-0.3,0.4-0.5,0.7-0.6c0.2-0.1,0.4-0.1,0.5-0.1
			c0,0,0.1,0,0.1,0C94.2,443.8,94.7,443.8,95.2,443.8z"/>
	</g>
	<g>
		<path class="st0" d="M245.6,448c0.2,0.1,0.3,0.2,0.4,0.3c0.7,0.5,0.8,1.2,0.6,2c-0.2,1-1,1.6-2,1.7c-1.3,0.1-2.6,0-3.9,0.1
			c-0.2,0-0.2-0.2-0.2-0.3c0-2,0-4,0-6c0-0.3,0-0.6,0-0.9c0-0.2,0.1-0.2,0.2-0.2c1.3,0,2.7,0,4,0.1c1,0,1.7,0.9,1.7,2
			c0,0.5-0.2,1-0.7,1.3C245.7,447.8,245.7,447.9,245.6,448z M243.3,448.6C243.3,448.6,243.3,448.6,243.3,448.6c-0.3,0-0.6,0-1,0
			c-0.2,0-0.3,0.1-0.3,0.3c0,0.5,0,1,0,1.6c0,0.2,0.1,0.3,0.3,0.3c0.6,0,1.1,0,1.7,0c0.3,0,0.6-0.1,0.8-0.2c0.4-0.2,0.5-0.8,0.4-1.2
			c-0.1-0.4-0.5-0.6-1-0.7C243.9,448.6,243.6,448.6,243.3,448.6z M243.2,447.5C243.2,447.5,243.2,447.5,243.2,447.5
			c0.4,0,0.7,0,1.1-0.1c0.2,0,0.5-0.2,0.6-0.3c0.4-0.5,0.1-1.3-0.6-1.3c-0.7,0-1.4,0-2-0.1c-0.2,0-0.3,0.1-0.3,0.3
			c0,0.4,0,0.8,0,1.2c0,0.2,0.1,0.3,0.3,0.3C242.6,447.5,242.9,447.5,243.2,447.5z"/>
		<path class="st0" d="M252.6,450.5c-0.1,0.2-0.3,0.5-0.4,0.7c-0.4,0.5-0.9,0.8-1.5,0.9c-0.7,0.1-1.3,0.1-2-0.2
			c-0.8-0.4-1.2-1-1.4-1.8c-0.1-0.8-0.1-1.6,0.3-2.3c0.4-0.9,1.1-1.3,2-1.4c0.4,0,0.8,0,1.2,0.1c1.1,0.2,1.6,1,1.8,2
			c0.1,0.3,0,0.5,0.1,0.8c0,0.2-0.1,0.3-0.3,0.3c-0.8,0-1.7,0-2.6,0c-0.3,0-0.7,0-1,0c-0.2,0-0.2,0.1-0.2,0.2c0.1,0.6,0.4,1,1,1.1
			c0.6,0.1,1.1,0.1,1.5-0.4c0.1-0.1,0.1-0.1,0.2-0.1C251.8,450.4,252.2,450.4,252.6,450.5C252.6,450.4,252.6,450.5,252.6,450.5z
			 M250,448.7c0.4,0,0.7,0,1.1,0c0.2,0,0.2-0.1,0.2-0.3c-0.1-0.7-0.6-1-1.3-1c-0.6,0-1.1,0.4-1.2,1c0,0.2,0,0.2,0.2,0.2
			C249.3,448.7,249.6,448.7,250,448.7z"/>
		<path class="st0" d="M249.9,445.6c-0.4,0-0.9,0-1.3,0c-0.3,0-0.3-0.2-0.3-0.3c0-0.2,0-0.3,0.3-0.3c0.9,0,1.8,0,2.6,0
			c0.3,0,0.2,0.2,0.2,0.3c0,0.2,0,0.3-0.2,0.3C250.8,445.6,250.3,445.6,249.9,445.6z"/>
	</g>
	<g>
		<path class="st1" d="M170.3,452.9c-1.3,0-2.5,0-3.8,0c-0.1,0-0.1,0-0.2,0c-0.2,0-0.5-0.1-0.7-0.2c-0.3-0.1-0.6-0.3-0.9-0.6
			c-0.4-0.5-0.6-1-0.6-1.6c0-1.2,0-2.4,0-3.6c0-0.2,0-0.4,0.1-0.6c0.2-0.6,0.5-1.1,1-1.4c0.4-0.3,0.9-0.4,1.4-0.4c1.2,0,2.4,0,3.6,0
			c0.3,0,0.5,0,0.8,0.1c0.6,0.2,1.1,0.6,1.4,1.1c0.2,0.3,0.3,0.6,0.3,1c0,0.1,0,0.1,0,0.2c0,1.3,0,2.5,0,3.8c0,0,0,0,0,0
			c0,0.3-0.1,0.5-0.2,0.8c-0.2,0.5-0.6,0.9-1.1,1.2c-0.3,0.2-0.6,0.3-0.9,0.3C170.4,452.9,170.4,452.9,170.3,452.9z M168.4,445
			L168.4,445c-0.6,0-1.2,0-1.8,0c-0.3,0-0.6,0.1-0.9,0.2c-0.6,0.4-0.9,0.9-0.9,1.6c0,1.2,0,2.4,0,3.6c0,0.1,0,0.3,0,0.4
			c0.2,0.8,0.9,1.4,1.8,1.4c1.2,0,2.4,0,3.6,0c0.1,0,0.2,0,0.3,0c0.4,0,0.7-0.2,1-0.4c0.4-0.4,0.6-0.8,0.6-1.4c0-1.2,0-2.4,0-3.5
			c0-0.1,0-0.1,0-0.2c0-0.4-0.2-0.7-0.4-0.9c-0.4-0.4-0.8-0.7-1.4-0.7C169.7,445,169,445,168.4,445z"/>
		<path class="st1" d="M170.7,448.6c0,1.3-1,2.3-2.3,2.3c-1.3,0-2.3-1-2.3-2.3c0-1.3,1-2.3,2.3-2.3
			C169.7,446.3,170.7,447.4,170.7,448.6z M170.1,448.6c0-0.9-0.7-1.6-1.6-1.6c-0.9,0-1.6,0.7-1.6,1.6c0,0.9,0.7,1.6,1.6,1.6
			C169.4,450.3,170.1,449.5,170.1,448.6z"/>
		<path class="st1" d="M170.9,445.7c0.3,0,0.5,0.2,0.5,0.5c0,0.3-0.2,0.5-0.5,0.5c-0.3,0-0.5-0.2-0.5-0.5
			C170.4,445.9,170.6,445.7,170.9,445.7z"/>
	</g>
	<g>
		<path class="st0" d="M158.4,443.8c0-0.1,0.1-0.1,0.1-0.1h0.1c0.1,0,0.1,0,0.1,0.1v8.9c0,0.1-0.1,0.1-0.1,0.1h0
			c-0.1,0-0.1,0-0.1-0.1V443.8z"/>
	</g>
	<g>
		<path class="st0" d="M234.6,443.8c0-0.1,0.1-0.1,0.1-0.1h0.1c0.1,0,0.1,0,0.1,0.1v8.9c0,0.1-0.1,0.1-0.1,0.1h0
			c-0.1,0-0.1,0-0.1-0.1V443.8z"/>
	</g>
</g>
<g>
	<path class="st0" d="M39.1,217.6c0-0.1,0.1-0.2,0.2-0.2H44c0.1,0,0.2,0.1,0.2,0.2v0.2c0,0.1-0.1,0.2-0.2,0.2h-4.4v3.3h3.8
		c0.1,0,0.2,0.1,0.2,0.2v0.2c0,0.1-0.1,0.2-0.2,0.2h-3.8v3.5H44c0.1,0,0.2,0.1,0.2,0.2v0.2c0,0.1-0.1,0.2-0.2,0.2h-4.8
		c-0.1,0-0.2-0.1-0.2-0.2V217.6z"/>
	<path class="st0" d="M45.5,225.2l0.1-0.2c0-0.1,0.2-0.1,0.3,0c0.1,0.1,0.7,0.5,1.5,0.5c0.8,0,1.4-0.4,1.4-1c0-0.6-0.7-0.9-1.6-1.3
		c-1-0.3-1.7-0.7-1.7-1.6c0-0.6,0.5-1.4,1.8-1.4c0.7,0,1.3,0.3,1.6,0.4c0.1,0.1,0.1,0.2,0.1,0.3l-0.1,0.1c0,0.1-0.1,0.1-0.2,0
		c-0.1-0.1-0.7-0.4-1.3-0.4c-0.9,0-1.2,0.5-1.2,0.9c0,0.6,0.6,0.9,1.4,1.2c1,0.4,1.9,0.7,1.9,1.8c0,0.8-0.8,1.5-1.9,1.5
		c-0.9,0-1.5-0.4-1.8-0.6C45.5,225.3,45.4,225.2,45.5,225.2z"/>
	<path class="st0" d="M51,220.8h-0.7c-0.1,0-0.2-0.1-0.2-0.2v-0.2c0-0.1,0.1-0.1,0.2-0.1H51v-1.5c0-0.1,0.1-0.2,0.2-0.2l0.2,0
		c0.1,0,0.2,0.1,0.2,0.2v1.5h2c0.1,0,0.2,0.1,0.2,0.2v0.2c0,0.1-0.1,0.2-0.2,0.2h-2v3.6c0,0.7,0.1,1,0.8,1c0.6,0,1.1-0.3,1.3-0.4
		c0.1-0.1,0.2,0,0.2,0l0.1,0.2c0,0.1,0,0.2,0,0.2c-0.2,0.2-0.9,0.5-1.6,0.5c-1,0-1.2-0.7-1.2-1.5V220.8z"/>
	<path class="st0" d="M57,222.3c0.6,0,1.3,0.2,1.4,0.3c0-1.2-0.2-1.8-1.2-1.8c-0.9,0-1.5,0.3-1.7,0.4c-0.1,0-0.2,0-0.2-0.1l-0.1-0.2
		c-0.1-0.1,0-0.2,0.1-0.2c0,0,0.7-0.4,1.9-0.4c1.7,0,1.7,1,1.7,2.4v3.1c0,0.1-0.1,0.2-0.2,0.2h-0.1c-0.1,0-0.2,0-0.2-0.2l-0.1-0.5
		c-0.3,0.3-1.1,0.8-1.9,0.8c-1,0-1.8-0.7-1.8-1.8C54.7,223.1,55.5,222.3,57,222.3z M56.5,225.5c0.8,0,1.6-0.5,1.9-0.8V223
		c-0.2-0.1-0.8-0.3-1.4-0.3c-1.1,0-1.8,0.6-1.8,1.4C55.2,224.9,55.7,225.5,56.5,225.5z"/>
	<path class="st0" d="M60.9,220.5c0-0.1,0.1-0.2,0.2-0.2h0.1c0.1,0,0.1,0,0.1,0.1l0.1,0.6c0.2-0.2,0.7-0.9,1.8-0.9
		c0.9,0,1.3,0.4,1.7,1c0.2-0.2,0.8-1,1.9-1c1.5,0,2,1,2,2.4v3c0,0.1-0.1,0.2-0.2,0.2h-0.2c-0.1,0-0.1-0.1-0.1-0.2v-3
		c0-1.3-0.5-1.9-1.5-1.9c-1,0-1.5,0.8-1.7,1c0.1,0.3,0.1,0.6,0.1,1v3c0,0.1-0.1,0.2-0.2,0.2h-0.2c-0.1,0-0.2-0.1-0.2-0.2v-3
		c0-1.3-0.5-1.9-1.5-1.9c-1.1,0-1.7,0.8-1.7,0.9v4c0,0.1-0.1,0.2-0.2,0.2H61c-0.1,0-0.2-0.1-0.2-0.2V220.5z"/>
	<path class="st0" d="M73.2,220.2c1.5,0,2.8,1.3,2.8,2.9c0,1.6-1.2,2.9-2.8,2.9c-1.6,0-2.8-1.3-2.8-2.9
		C70.4,221.5,71.6,220.2,73.2,220.2z M73.2,225.5c1.2,0,2.2-1.1,2.2-2.4c0-1.3-1-2.4-2.2-2.4c-1.3,0-2.3,1.1-2.3,2.4
		C71,224.4,72,225.5,73.2,225.5z"/>
	<path class="st0" d="M77.3,225.2l0.1-0.2c0-0.1,0.2-0.1,0.3,0c0.1,0.1,0.7,0.5,1.5,0.5c0.8,0,1.4-0.4,1.4-1c0-0.6-0.7-0.9-1.6-1.3
		c-1-0.3-1.7-0.7-1.7-1.6c0-0.6,0.5-1.4,1.8-1.4c0.7,0,1.3,0.3,1.6,0.4c0.1,0.1,0.1,0.2,0.1,0.3l-0.1,0.1c0,0.1-0.1,0.1-0.2,0
		c-0.1-0.1-0.7-0.4-1.3-0.4c-0.9,0-1.2,0.5-1.2,0.9c0,0.6,0.6,0.9,1.4,1.2c1,0.4,1.9,0.7,1.9,1.8c0,0.8-0.8,1.5-1.9,1.5
		c-0.9,0-1.5-0.4-1.8-0.6C77.3,225.3,77.2,225.2,77.3,225.2z"/>
	<path class="st0" d="M88,220.2c1.1,0,1.8,0.5,2,0.9c0.1,0.1,0.1,0.2,0,0.3l-0.1,0.1c-0.1,0.1-0.2,0.1-0.3,0
		c-0.1-0.1-0.8-0.7-1.6-0.7c-1.3,0-2.3,1-2.3,2.4c0,1.3,1,2.4,2.4,2.4c1,0,1.6-0.7,1.8-0.9c0.1-0.1,0.2-0.1,0.3,0l0.1,0.1
		c0.1,0.1,0.1,0.1,0,0.2c-0.2,0.3-1,1.1-2.2,1.1c-1.6,0-2.9-1.2-2.9-2.9C85.1,221.4,86.4,220.2,88,220.2z"/>
	<path class="st0" d="M93.5,222.3c0.6,0,1.3,0.2,1.4,0.3c0-1.2-0.2-1.8-1.2-1.8c-0.9,0-1.5,0.3-1.7,0.4c-0.1,0-0.2,0-0.2-0.1
		l-0.1-0.2c-0.1-0.1,0-0.2,0.1-0.2c0,0,0.7-0.4,1.9-0.4c1.7,0,1.7,1,1.7,2.4v3.1c0,0.1-0.1,0.2-0.2,0.2h-0.1c-0.1,0-0.2,0-0.2-0.2
		l-0.1-0.5c-0.3,0.3-1.1,0.8-1.9,0.8c-1,0-1.8-0.7-1.8-1.8C91.2,223.1,92.1,222.3,93.5,222.3z M93.1,225.5c0.8,0,1.6-0.5,1.9-0.8
		V223c-0.2-0.1-0.8-0.3-1.4-0.3c-1.1,0-1.8,0.6-1.8,1.4C91.7,224.9,92.3,225.5,93.1,225.5z"/>
	<path class="st0" d="M97.4,220.5c0-0.1,0.1-0.2,0.2-0.2h0.1c0.1,0,0.1,0,0.2,0.2l0.1,0.6c0.1-0.2,0.7-0.8,1.8-0.8
		c0.4,0,0.8,0.1,0.9,0.2c0.1,0,0.2,0.1,0.1,0.3l-0.1,0.2c0,0.1-0.1,0.1-0.2,0.1c-0.1,0-0.4-0.2-0.7-0.2c-1.1,0-1.6,0.9-1.7,0.9v4
		c0,0.1-0.1,0.2-0.2,0.2h-0.2c-0.1,0-0.2-0.1-0.2-0.2V220.5z"/>
	<path class="st0" d="M105.8,225.4c-0.2,0.1-0.8,0.6-1.7,0.6c-1.6,0-2.8-1.3-2.8-2.9c0-1.6,1.1-2.9,2.6-2.9c1,0,1.7,0.5,1.9,0.6
		l0-0.4c0-0.1,0.1-0.1,0.2-0.1h0.1c0.1,0,0.2,0.1,0.2,0.2v5.5c0,1.6-1.1,2.5-2.5,2.5c-0.9,0-1.6-0.5-1.9-0.7c-0.1-0.1-0.1-0.1,0-0.2
		l0.1-0.2c0.1-0.1,0.1-0.1,0.2,0c0.2,0.2,0.8,0.6,1.5,0.6c1.1,0,1.9-0.7,1.9-2V225.4z M105.8,221.4c-0.1-0.1-0.7-0.7-1.8-0.7
		c-1.3,0-2.1,1.1-2.1,2.4c0,1.4,0.9,2.4,2.2,2.4c0.9,0,1.6-0.6,1.7-0.7V221.4z"/>
	<path class="st0" d="M110.1,222.3c0.6,0,1.3,0.2,1.4,0.3c0-1.2-0.2-1.8-1.2-1.8c-0.9,0-1.5,0.3-1.7,0.4c-0.1,0-0.2,0-0.2-0.1
		l-0.1-0.2c-0.1-0.1,0-0.2,0.1-0.2c0,0,0.7-0.4,1.9-0.4c1.7,0,1.7,1,1.7,2.4v3.1c0,0.1-0.1,0.2-0.2,0.2h-0.1c-0.1,0-0.2,0-0.2-0.2
		l-0.1-0.5c-0.3,0.3-1.1,0.8-1.9,0.8c-1,0-1.8-0.7-1.8-1.8C107.8,223.1,108.7,222.3,110.1,222.3z M109.7,225.5
		c0.8,0,1.6-0.5,1.9-0.8V223c-0.2-0.1-0.8-0.3-1.4-0.3c-1.1,0-1.8,0.6-1.8,1.4C108.3,224.9,108.9,225.5,109.7,225.5z"/>
	<path class="st0" d="M114.1,220.5c0-0.1,0.1-0.2,0.2-0.2h0.1c0.1,0,0.2,0,0.2,0.1l0.1,0.6c0.2-0.2,0.9-0.9,2-0.9
		c1.6,0,2.1,1,2.1,2.4v3.1c0,0.1-0.1,0.2-0.2,0.2h-0.2c-0.1,0-0.2-0.1-0.2-0.2v-3c0-1.3-0.5-1.9-1.6-1.9c-1.1,0-1.8,0.9-1.9,0.9v4
		c0,0.1-0.1,0.2-0.2,0.2h-0.2c-0.1,0-0.2-0.1-0.2-0.2V220.5z"/>
	<path class="st0" d="M122.8,220.2c1.1,0,1.8,0.5,1.8,0.5v-3.1c0-0.1,0.1-0.2,0.2-0.2h0.2c0.1,0,0.2,0.1,0.2,0.2v8
		c0,0.1-0.1,0.2-0.2,0.2h-0.1c-0.1,0-0.2,0-0.2-0.2l0-0.5c-0.2,0.2-0.9,0.8-1.9,0.8c-1.4,0-2.5-1.3-2.5-2.9
		C120.2,221.5,121.3,220.2,122.8,220.2z M122.7,225.5c1.2,0,1.8-0.9,1.9-0.9v-3.2c0,0-0.7-0.6-1.7-0.6c-1.3,0-2.2,1.1-2.2,2.4
		C120.7,224.4,121.6,225.5,122.7,225.5z"/>
	<path class="st0" d="M129.5,220.2c1.5,0,2.8,1.3,2.8,2.9c0,1.6-1.2,2.9-2.8,2.9c-1.6,0-2.8-1.3-2.8-2.9
		C126.8,221.5,128,220.2,129.5,220.2z M129.5,225.5c1.2,0,2.2-1.1,2.2-2.4c0-1.3-1-2.4-2.2-2.4c-1.3,0-2.3,1.1-2.3,2.4
		C127.3,224.4,128.3,225.5,129.5,225.5z"/>
	<path class="st0" d="M136.9,217.6c0-0.1,0.1-0.2,0.2-0.2h0.2c0.1,0,0.2,0.1,0.2,0.2v8c0,0.1-0.1,0.2-0.2,0.2h-0.2
		c-0.1,0-0.2-0.1-0.2-0.2V217.6z"/>
	<path class="st0" d="M141.9,220.2c1.5,0,2.8,1.3,2.8,2.9c0,1.6-1.2,2.9-2.8,2.9c-1.6,0-2.8-1.3-2.8-2.9
		C139.1,221.5,140.3,220.2,141.9,220.2z M141.9,225.5c1.2,0,2.2-1.1,2.2-2.4c0-1.3-1-2.4-2.2-2.4c-1.3,0-2.3,1.1-2.3,2.4
		C139.7,224.4,140.7,225.5,141.9,225.5z"/>
	<path class="st0" d="M146,225.2l0.1-0.2c0-0.1,0.2-0.1,0.3,0c0.1,0.1,0.7,0.5,1.5,0.5c0.8,0,1.4-0.4,1.4-1c0-0.6-0.7-0.9-1.6-1.3
		c-1-0.3-1.7-0.7-1.7-1.6c0-0.6,0.5-1.4,1.8-1.4c0.7,0,1.3,0.3,1.6,0.4c0.1,0.1,0.1,0.2,0.1,0.3l-0.1,0.1c0,0.1-0.1,0.1-0.2,0
		c-0.1-0.1-0.7-0.4-1.3-0.4c-0.9,0-1.2,0.5-1.2,0.9c0,0.6,0.6,0.9,1.4,1.2c1,0.4,1.9,0.7,1.9,1.8c0,0.8-0.8,1.5-1.9,1.5
		c-0.9,0-1.5-0.4-1.8-0.6C146,225.3,145.9,225.2,146,225.2z"/>
	<path class="st0" d="M156.7,220.2c1.1,0,1.8,0.5,2,0.9c0.1,0.1,0.1,0.2,0,0.3l-0.1,0.1c-0.1,0.1-0.2,0.1-0.3,0
		c-0.1-0.1-0.8-0.7-1.6-0.7c-1.3,0-2.3,1-2.3,2.4c0,1.3,1,2.4,2.4,2.4c1,0,1.6-0.7,1.8-0.9c0.1-0.1,0.2-0.1,0.3,0l0.1,0.1
		c0.1,0.1,0.1,0.1,0,0.2c-0.2,0.3-1,1.1-2.2,1.1c-1.6,0-2.9-1.2-2.9-2.9C153.8,221.4,155.1,220.2,156.7,220.2z"/>
	<path class="st0" d="M162.7,220.2c1.5,0,2.8,1.3,2.8,2.9c0,1.6-1.2,2.9-2.8,2.9c-1.6,0-2.8-1.3-2.8-2.9
		C159.9,221.5,161.1,220.2,162.7,220.2z M162.7,225.5c1.2,0,2.2-1.1,2.2-2.4c0-1.3-1-2.4-2.2-2.4c-1.3,0-2.3,1.1-2.3,2.4
		C160.5,224.4,161.5,225.5,162.7,225.5z"/>
	<path class="st0" d="M167.1,220.5c0-0.1,0.1-0.2,0.2-0.2h0.1c0.1,0,0.2,0,0.2,0.1l0.1,0.6c0.2-0.2,0.9-0.9,2-0.9
		c1.6,0,2.1,1,2.1,2.4v3.1c0,0.1-0.1,0.2-0.2,0.2h-0.2c-0.1,0-0.2-0.1-0.2-0.2v-3c0-1.3-0.5-1.9-1.6-1.9c-1.1,0-1.8,0.9-1.9,0.9v4
		c0,0.1-0.1,0.2-0.2,0.2h-0.2c-0.1,0-0.2-0.1-0.2-0.2V220.5z"/>
	<path class="st0" d="M176.1,220.2c1.1,0,1.8,0.5,2,0.9c0.1,0.1,0.1,0.2,0,0.3l-0.1,0.1c-0.1,0.1-0.2,0.1-0.3,0
		c-0.1-0.1-0.8-0.7-1.6-0.7c-1.3,0-2.3,1-2.3,2.4c0,1.3,1,2.4,2.3,2.4c1,0,1.6-0.7,1.8-0.9c0.1-0.1,0.2-0.1,0.3,0l0.1,0.1
		c0.1,0.1,0.1,0.1,0,0.2c-0.2,0.3-1,1.1-2.2,1.1c-1.6,0-2.9-1.2-2.9-2.9C173.2,221.4,174.5,220.2,176.1,220.2z"/>
	<path class="st0" d="M182,220.2c1.5,0,2.5,1.1,2.5,2.5c0,0.2,0,0.5-0.2,0.5h-4.4c0,1.2,1,2.2,2.1,2.2c0.8,0,1.4-0.3,1.7-0.6
		c0.1-0.1,0.2-0.1,0.2,0l0.1,0.2c0,0,0,0.1-0.1,0.2c-0.3,0.3-1.1,0.6-2,0.6c-1.6,0-2.7-1.3-2.7-2.9
		C179.4,221.5,180.4,220.2,182,220.2z M184,222.7c0-1.1-0.7-2.1-2-2.1c-1.2,0-2.1,0.9-2.1,2.1H184z"/>
	<path class="st0" d="M186.6,228.5c0,0.1-0.1,0.2-0.2,0.2h-0.2c-0.1,0-0.2-0.1-0.2-0.2v-8c0-0.1,0.1-0.2,0.2-0.2h0.1
		c0.1,0,0.1,0,0.2,0.1l0,0.4c0.2-0.1,0.9-0.6,1.9-0.6c1.5,0,2.6,1.3,2.6,2.9c0,1.6-1.2,2.9-2.8,2.9c-0.9,0-1.5-0.4-1.7-0.6V228.5z
		 M188.3,225.5c1.3,0,2.2-1.1,2.2-2.4c0-1.3-0.9-2.4-2.1-2.4c-1.1,0-1.7,0.6-1.8,0.7v3.4C186.7,224.9,187.3,225.5,188.3,225.5z"/>
	<path class="st0" d="M192.9,220.8h-0.7c-0.1,0-0.2-0.1-0.2-0.2v-0.2c0-0.1,0.1-0.1,0.2-0.1h0.7v-1.5c0-0.1,0.1-0.2,0.2-0.2l0.2,0
		c0.1,0,0.2,0.1,0.2,0.2v1.5h2c0.1,0,0.2,0.1,0.2,0.2v0.2c0,0.1-0.1,0.2-0.2,0.2h-2v3.6c0,0.7,0.1,1,0.8,1c0.6,0,1.1-0.3,1.3-0.4
		c0.1-0.1,0.2,0,0.2,0l0.1,0.2c0,0.1,0,0.2,0,0.2c-0.2,0.2-0.9,0.5-1.6,0.5c-1,0-1.2-0.7-1.2-1.5V220.8z"/>
	<path class="st0" d="M199.4,220.2c1.5,0,2.8,1.3,2.8,2.9c0,1.6-1.2,2.9-2.8,2.9c-1.6,0-2.8-1.3-2.8-2.9
		C196.6,221.5,197.8,220.2,199.4,220.2z M199.4,225.5c1.2,0,2.2-1.1,2.2-2.4c0-1.3-1-2.4-2.2-2.4c-1.3,0-2.3,1.1-2.3,2.4
		C197.1,224.4,198.1,225.5,199.4,225.5z"/>
	<path class="st0" d="M203.5,225.2l0.1-0.2c0-0.1,0.2-0.1,0.3,0c0.1,0.1,0.7,0.5,1.5,0.5c0.8,0,1.4-0.4,1.4-1c0-0.6-0.7-0.9-1.6-1.3
		c-1-0.3-1.7-0.7-1.7-1.6c0-0.6,0.5-1.4,1.8-1.4c0.7,0,1.3,0.3,1.6,0.4c0.1,0.1,0.1,0.2,0.1,0.3l-0.1,0.1c0,0.1-0.1,0.1-0.2,0
		c-0.1-0.1-0.7-0.4-1.3-0.4c-0.9,0-1.2,0.5-1.2,0.9c0,0.6,0.6,0.9,1.4,1.2c1,0.4,1.9,0.7,1.9,1.8c0,0.8-0.8,1.5-1.9,1.5
		c-0.9,0-1.5-0.4-1.8-0.6C203.5,225.3,203.4,225.2,203.5,225.2z"/>
	<path class="st0" d="M209.1,225c0.5,0,0.8,0.6,0.8,1.2c0,0.8-0.3,1.3-0.7,1.7c-0.1,0.1-0.1,0.1-0.2,0l-0.1-0.1
		c-0.1-0.1,0-0.1,0-0.2c0.3-0.3,0.6-0.7,0.6-1.2c0-0.2,0-0.4-0.1-0.5c-0.1,0.1-0.2,0.1-0.3,0.1c-0.3,0-0.4-0.2-0.4-0.5
		C208.6,225.2,208.8,225,209.1,225z"/>
	<path class="st0" d="M214.6,220.8h-0.7c-0.1,0-0.2-0.1-0.2-0.2v-0.2c0-0.1,0.1-0.1,0.2-0.1h0.7v-1.5c0-0.1,0.1-0.2,0.2-0.2l0.2,0
		c0.1,0,0.2,0.1,0.2,0.2v1.5h2c0.1,0,0.2,0.1,0.2,0.2v0.2c0,0.1-0.1,0.2-0.2,0.2h-2v3.6c0,0.7,0.1,1,0.8,1c0.6,0,1.1-0.3,1.3-0.4
		c0.1-0.1,0.2,0,0.2,0l0.1,0.2c0,0.1,0,0.2,0,0.2c-0.2,0.2-0.9,0.5-1.6,0.5c-1,0-1.2-0.7-1.2-1.5V220.8z"/>
	<path class="st0" d="M221,220.2c1.5,0,2.5,1.1,2.5,2.5c0,0.2,0,0.5-0.2,0.5h-4.4c0,1.2,1,2.2,2.1,2.2c0.8,0,1.4-0.3,1.7-0.6
		c0.1-0.1,0.2-0.1,0.2,0l0.1,0.2c0,0,0,0.1-0.1,0.2c-0.3,0.3-1.1,0.6-2,0.6c-1.6,0-2.7-1.3-2.7-2.9
		C218.3,221.5,219.4,220.2,221,220.2z M223,222.7c0-1.1-0.7-2.1-2-2.1c-1.2,0-2.1,0.9-2.1,2.1H223z"/>
	<path class="st0" d="M225.1,220.5c0-0.1,0.1-0.2,0.2-0.2h0.1c0.1,0,0.2,0,0.2,0.1l0.1,0.6c0.2-0.2,0.9-0.9,2-0.9
		c1.6,0,2.1,1,2.1,2.4v3.1c0,0.1-0.1,0.2-0.2,0.2h-0.2c-0.1,0-0.2-0.1-0.2-0.2v-3c0-1.3-0.5-1.9-1.6-1.9c-1.1,0-1.8,0.9-1.9,0.9v4
		c0,0.1-0.1,0.2-0.2,0.2h-0.2c-0.1,0-0.2-0.1-0.2-0.2V220.5z"/>
	<path class="st0" d="M233.8,220.2c1.1,0,1.8,0.5,1.8,0.5v-3.1c0-0.1,0.1-0.2,0.2-0.2h0.2c0.1,0,0.2,0.1,0.2,0.2v8
		c0,0.1-0.1,0.2-0.2,0.2h-0.1c-0.1,0-0.2,0-0.2-0.2l0-0.5c-0.2,0.2-0.9,0.8-1.9,0.8c-1.4,0-2.5-1.3-2.5-2.9
		C231.2,221.5,232.3,220.2,233.8,220.2z M233.7,225.5c1.2,0,1.8-0.9,1.9-0.9v-3.2c0,0-0.7-0.6-1.7-0.6c-1.3,0-2.2,1.1-2.2,2.4
		C231.7,224.4,232.6,225.5,233.7,225.5z"/>
	<path class="st0" d="M240.4,220.2c1.5,0,2.5,1.1,2.5,2.5c0,0.2,0,0.5-0.2,0.5h-4.4c0,1.2,1,2.2,2.1,2.2c0.8,0,1.4-0.3,1.7-0.6
		c0.1-0.1,0.2-0.1,0.2,0l0.1,0.2c0,0,0,0.1-0.1,0.2c-0.3,0.3-1.1,0.6-2,0.6c-1.6,0-2.7-1.3-2.7-2.9
		C237.8,221.5,238.8,220.2,240.4,220.2z M242.4,222.7c0-1.1-0.7-2.1-2-2.1c-1.2,0-2.1,0.9-2.1,2.1H242.4z"/>
	<path class="st0" d="M244.5,220.5c0-0.1,0.1-0.2,0.2-0.2h0.1c0.1,0,0.2,0,0.2,0.1l0.1,0.6c0.2-0.2,0.9-0.9,2-0.9
		c1.6,0,2.1,1,2.1,2.4v3.1c0,0.1-0.1,0.2-0.2,0.2h-0.2c-0.1,0-0.2-0.1-0.2-0.2v-3c0-1.3-0.5-1.9-1.6-1.9c-1.1,0-1.8,0.9-1.9,0.9v4
		c0,0.1-0.1,0.2-0.2,0.2h-0.2c-0.1,0-0.2-0.1-0.2-0.2V220.5z"/>
	<path class="st0" d="M253.5,220.2c1.1,0,1.8,0.5,2,0.9c0.1,0.1,0.1,0.2,0,0.3l-0.1,0.1c-0.1,0.1-0.2,0.1-0.3,0
		c-0.1-0.1-0.8-0.7-1.6-0.7c-1.3,0-2.3,1-2.3,2.4c0,1.3,1,2.4,2.4,2.4c1,0,1.6-0.7,1.8-0.9c0.1-0.1,0.2-0.1,0.3,0l0.1,0.1
		c0.1,0.1,0.1,0.1,0,0.2c-0.2,0.3-1,1.1-2.2,1.1c-1.6,0-2.9-1.2-2.9-2.9C250.6,221.4,251.9,220.2,253.5,220.2z"/>
	<path class="st0" d="M256.9,218.3c0-0.3,0.2-0.5,0.5-0.5s0.5,0.2,0.5,0.5c0,0.3-0.2,0.5-0.5,0.5S256.9,218.6,256.9,218.3z
		 M257.2,220.5c0-0.1,0.1-0.2,0.2-0.2h0.2c0.1,0,0.2,0.1,0.2,0.2v5.2c0,0.1-0.1,0.2-0.2,0.2h-0.2c-0.1,0-0.2-0.1-0.2-0.2V220.5z"/>
	<path class="st0" d="M261.5,222.3c0.6,0,1.3,0.2,1.4,0.3c0-1.2-0.2-1.8-1.2-1.8c-0.9,0-1.5,0.3-1.7,0.4c-0.1,0-0.2,0-0.2-0.1
		l-0.1-0.2c-0.1-0.1,0-0.2,0.1-0.2c0,0,0.7-0.4,1.9-0.4c1.7,0,1.7,1,1.7,2.4v3.1c0,0.1-0.1,0.2-0.2,0.2h-0.1c-0.1,0-0.2,0-0.2-0.2
		l-0.1-0.5c-0.3,0.3-1.1,0.8-1.9,0.8c-1,0-1.8-0.7-1.8-1.8C259.2,223.1,260.1,222.3,261.5,222.3z M261.1,225.5
		c0.8,0,1.6-0.5,1.9-0.8V223c-0.2-0.1-0.8-0.3-1.4-0.3c-1.1,0-1.8,0.6-1.8,1.4C259.8,224.9,260.3,225.5,261.1,225.5z"/>
	<path class="st0" d="M265.1,225.2l0.1-0.2c0-0.1,0.2-0.1,0.3,0c0.1,0.1,0.7,0.5,1.5,0.5c0.8,0,1.4-0.4,1.4-1c0-0.6-0.7-0.9-1.6-1.3
		c-1-0.3-1.7-0.7-1.7-1.6c0-0.6,0.5-1.4,1.8-1.4c0.7,0,1.3,0.3,1.6,0.4c0.1,0.1,0.1,0.2,0.1,0.3l-0.1,0.1c0,0.1-0.1,0.1-0.2,0
		c-0.1-0.1-0.7-0.4-1.3-0.4c-0.9,0-1.2,0.5-1.2,0.9c0,0.6,0.6,0.9,1.4,1.2c1,0.4,1.9,0.7,1.9,1.8c0,0.8-0.8,1.5-1.9,1.5
		c-0.9,0-1.5-0.4-1.8-0.6C265.1,225.3,265.1,225.2,265.1,225.2z"/>
	<path class="st0" d="M270.7,225c0.5,0,0.8,0.6,0.8,1.2c0,0.8-0.3,1.3-0.7,1.7c-0.1,0.1-0.1,0.1-0.2,0l-0.1-0.1
		c-0.1-0.1,0-0.1,0-0.2c0.3-0.3,0.6-0.7,0.6-1.2c0-0.2,0-0.4-0.1-0.5c-0.1,0.1-0.2,0.1-0.3,0.1c-0.3,0-0.4-0.2-0.4-0.5
		C270.2,225.2,270.4,225,270.7,225z"/>
	<path class="st0" d="M101.4,238.3c0.6,0,1.3,0.2,1.4,0.3c0-1.2-0.2-1.8-1.2-1.8c-0.9,0-1.5,0.3-1.7,0.4c-0.1,0-0.2,0-0.2-0.1
		l-0.1-0.2c-0.1-0.1,0-0.2,0.1-0.2c0,0,0.7-0.4,1.9-0.4c1.7,0,1.7,1,1.7,2.4v3.1c0,0.1-0.1,0.2-0.2,0.2H103c-0.1,0-0.2,0-0.2-0.2
		l-0.1-0.5c-0.3,0.3-1.1,0.8-1.9,0.8c-1,0-1.8-0.7-1.8-1.8C99.1,239.1,99.9,238.3,101.4,238.3z M100.9,241.5c0.8,0,1.6-0.5,1.9-0.8
		V239c-0.2-0.1-0.8-0.3-1.4-0.3c-1.1,0-1.8,0.6-1.8,1.4C99.6,240.9,100.2,241.5,100.9,241.5z"/>
	<path class="st0" d="M105.8,244.5c0,0.1-0.1,0.2-0.2,0.2h-0.2c-0.1,0-0.2-0.1-0.2-0.2v-8c0-0.1,0.1-0.2,0.2-0.2h0.1
		c0.1,0,0.1,0,0.2,0.1l0,0.4c0.2-0.1,0.9-0.6,1.9-0.6c1.5,0,2.6,1.3,2.6,2.9c0,1.6-1.2,2.9-2.8,2.9c-0.9,0-1.5-0.4-1.7-0.6V244.5z
		 M107.5,241.5c1.3,0,2.2-1.1,2.2-2.4c0-1.3-0.9-2.4-2.1-2.4c-1.1,0-1.7,0.6-1.8,0.7v3.4C105.9,240.9,106.5,241.5,107.5,241.5z"/>
	<path class="st0" d="M111.9,236.5c0-0.1,0.1-0.2,0.2-0.2h0.1c0.1,0,0.1,0,0.2,0.2l0.1,0.6c0.1-0.2,0.7-0.8,1.8-0.8
		c0.4,0,0.8,0.1,0.9,0.2c0.1,0,0.2,0.1,0.1,0.3l-0.1,0.2c0,0.1-0.1,0.1-0.2,0.1c-0.1,0-0.4-0.2-0.7-0.2c-1.1,0-1.6,0.9-1.7,0.9v4
		c0,0.1-0.1,0.2-0.2,0.2h-0.2c-0.1,0-0.2-0.1-0.2-0.2V236.5z"/>
	<path class="st0" d="M118.5,236.2c1.5,0,2.5,1.1,2.5,2.5c0,0.2,0,0.5-0.2,0.5h-4.4c0,1.2,1,2.2,2.1,2.2c0.8,0,1.4-0.3,1.7-0.6
		c0.1-0.1,0.2-0.1,0.2,0l0.1,0.2c0,0,0,0.1-0.1,0.2c-0.3,0.3-1.1,0.6-2,0.6c-1.6,0-2.7-1.3-2.7-2.9
		C115.8,237.5,116.8,236.2,118.5,236.2z M120.4,238.7c0-1.1-0.7-2.1-2-2.1c-1.2,0-2.1,0.9-2.1,2.1H120.4z"/>
	<path class="st0" d="M122.5,236.5c0-0.1,0.1-0.2,0.2-0.2h0.1c0.1,0,0.2,0,0.2,0.1l0.1,0.6c0.2-0.2,0.9-0.9,2-0.9
		c1.6,0,2.1,1,2.1,2.4v3.1c0,0.1-0.1,0.2-0.2,0.2h-0.2c-0.1,0-0.2-0.1-0.2-0.2v-3c0-1.3-0.5-1.9-1.6-1.9c-1.1,0-1.8,0.9-1.9,0.9v4
		c0,0.1-0.1,0.2-0.2,0.2h-0.2c-0.1,0-0.2-0.1-0.2-0.2V236.5z"/>
	<path class="st0" d="M131.3,236.2c1.1,0,1.8,0.5,1.8,0.5v-3.1c0-0.1,0.1-0.2,0.2-0.2h0.2c0.1,0,0.2,0.1,0.2,0.2v8
		c0,0.1-0.1,0.2-0.2,0.2h-0.1c-0.1,0-0.2,0-0.2-0.2l0-0.5c-0.2,0.2-0.9,0.8-1.9,0.8c-1.4,0-2.5-1.3-2.5-2.9
		C128.6,237.5,129.7,236.2,131.3,236.2z M131.2,241.5c1.2,0,1.8-0.9,1.9-0.9v-3.2c0,0-0.7-0.6-1.7-0.6c-1.3,0-2.2,1.1-2.2,2.4
		C129.1,240.4,130,241.5,131.2,241.5z"/>
	<path class="st0" d="M135.4,234.3c0-0.3,0.2-0.5,0.5-0.5c0.3,0,0.5,0.2,0.5,0.5c0,0.3-0.2,0.5-0.5,0.5
		C135.6,234.8,135.4,234.6,135.4,234.3z M135.6,236.5c0-0.1,0.1-0.2,0.2-0.2h0.2c0.1,0,0.2,0.1,0.2,0.2v5.2c0,0.1-0.1,0.2-0.2,0.2
		h-0.2c-0.1,0-0.2-0.1-0.2-0.2V236.5z"/>
	<path class="st0" d="M137.5,241.7c0-0.1,0-0.1,0.1-0.2l3.3-4.6v0H138c-0.1,0-0.2-0.1-0.2-0.2v-0.2c0-0.1,0.1-0.2,0.2-0.2h3.6
		c0.1,0,0.2,0.1,0.2,0.2c0,0,0,0.1-0.1,0.2l-3.3,4.7v0h3c0.1,0,0.2,0.1,0.2,0.2v0.2c0,0.1-0.1,0.2-0.2,0.2h-3.6
		C137.6,241.8,137.5,241.8,137.5,241.7L137.5,241.7z"/>
	<path class="st0" d="M145,238.3c0.6,0,1.3,0.2,1.4,0.3c0-1.2-0.2-1.8-1.2-1.8c-0.9,0-1.5,0.3-1.7,0.4c-0.1,0-0.2,0-0.2-0.1
		l-0.1-0.2c-0.1-0.1,0-0.2,0.1-0.2c0,0,0.7-0.4,1.9-0.4c1.7,0,1.7,1,1.7,2.4v3.1c0,0.1-0.1,0.2-0.2,0.2h-0.1c-0.1,0-0.2,0-0.2-0.2
		l-0.1-0.5c-0.3,0.3-1.1,0.8-1.9,0.8c-1,0-1.8-0.7-1.8-1.8C142.7,239.1,143.5,238.3,145,238.3z M144.5,241.5c0.8,0,1.6-0.5,1.9-0.8
		V239c-0.2-0.1-0.8-0.3-1.4-0.3c-1.1,0-1.8,0.6-1.8,1.4C143.2,240.9,143.8,241.5,144.5,241.5z"/>
	<path class="st0" d="M149.4,242.7c0,1.3-0.5,1.8-1.4,2.1c-0.1,0-0.2,0-0.3-0.1l0-0.1c0-0.1,0-0.2,0.1-0.3c0.6-0.2,1.1-0.6,1.1-1.5
		v-6.3c0-0.1,0.1-0.2,0.2-0.2h0.2c0.1,0,0.2,0.1,0.2,0.2V242.7z M148.7,234.3c0-0.3,0.2-0.5,0.5-0.5c0.3,0,0.5,0.2,0.5,0.5
		c0,0.3-0.2,0.5-0.5,0.5C148.9,234.8,148.7,234.6,148.7,234.3z"/>
	<path class="st0" d="M153.7,236.2c1.5,0,2.5,1.1,2.5,2.5c0,0.2,0,0.5-0.2,0.5h-4.4c0,1.2,1,2.2,2.1,2.2c0.8,0,1.4-0.3,1.7-0.6
		c0.1-0.1,0.2-0.1,0.2,0l0.1,0.2c0,0,0,0.1-0.1,0.2c-0.3,0.3-1.1,0.6-2,0.6c-1.6,0-2.7-1.3-2.7-2.9
		C151.1,237.5,152.1,236.2,153.7,236.2z M155.7,238.7c0-1.1-0.7-2.1-2-2.1c-1.2,0-2.1,0.9-2.1,2.1H155.7z"/>
	<path class="st0" d="M157.4,241.2l0.1-0.2c0-0.1,0.2-0.1,0.3,0c0.1,0.1,0.7,0.5,1.5,0.5c0.8,0,1.4-0.4,1.4-1c0-0.6-0.7-0.9-1.6-1.3
		c-1-0.3-1.7-0.7-1.7-1.6c0-0.6,0.5-1.4,1.8-1.4c0.7,0,1.3,0.3,1.6,0.4c0.1,0.1,0.1,0.2,0.1,0.3l-0.1,0.1c0,0.1-0.1,0.1-0.2,0
		c-0.1-0.1-0.7-0.4-1.3-0.4c-0.9,0-1.2,0.5-1.2,0.9c0,0.6,0.6,0.9,1.4,1.2c1,0.4,1.9,0.7,1.9,1.8c0,0.8-0.8,1.5-1.9,1.5
		c-0.9,0-1.5-0.4-1.8-0.6C157.4,241.3,157.4,241.2,157.4,241.2z"/>
	<path class="st0" d="M165,236.5c0-0.1,0-0.2,0.1-0.2h0.3c0.1,0,0.2,0,0.2,0.1l2,4.8h0l2-4.8c0-0.1,0.1-0.1,0.2-0.1h0.3
		c0.1,0,0.1,0.1,0.1,0.2l-3.5,8.1c0,0.1-0.1,0.1-0.2,0.1h-0.3c-0.1,0-0.2-0.1-0.1-0.2l1.2-2.7L165,236.5z"/>
	<path class="st0" d="M173.6,241.2l0.1-0.2c0-0.1,0.2-0.1,0.3,0c0.1,0.1,0.7,0.5,1.5,0.5c0.8,0,1.4-0.4,1.4-1c0-0.6-0.7-0.9-1.6-1.3
		c-1-0.3-1.7-0.7-1.7-1.6c0-0.6,0.5-1.4,1.8-1.4c0.7,0,1.3,0.3,1.6,0.4c0.1,0.1,0.1,0.2,0.1,0.3l-0.1,0.1c0,0.1-0.1,0.1-0.2,0
		c-0.1-0.1-0.7-0.4-1.3-0.4c-0.9,0-1.2,0.5-1.2,0.9c0,0.6,0.6,0.9,1.4,1.2c1,0.4,1.9,0.7,1.9,1.8c0,0.8-0.8,1.5-1.9,1.5
		c-0.9,0-1.5-0.4-1.8-0.6C173.6,241.3,173.6,241.2,173.6,241.2z"/>
	<path class="st0" d="M178.9,236.5c0-0.1,0.1-0.2,0.2-0.2h0.2c0.1,0,0.2,0.1,0.2,0.2v3.1c0,1.3,0.4,1.9,1.6,1.9c1,0,1.6-0.8,1.8-1
		v-3.9c0-0.1,0.1-0.2,0.2-0.2h0.2c0.1,0,0.2,0.1,0.2,0.2v5.2c0,0.1-0.1,0.2-0.2,0.2H183c-0.1,0-0.2-0.1-0.2-0.2l0-0.5
		c-0.1,0.2-0.7,0.8-1.8,0.8c-1.6,0-2.1-0.8-2.1-2.4V236.5z"/>
	<path class="st0" d="M187.6,236.2c1.5,0,2.5,1.1,2.5,2.5c0,0.2,0,0.5-0.2,0.5h-4.4c0,1.2,1,2.2,2.1,2.2c0.8,0,1.4-0.3,1.7-0.6
		c0.1-0.1,0.2-0.1,0.2,0l0.1,0.2c0,0,0,0.1-0.1,0.2c-0.3,0.3-1.1,0.6-2,0.6c-1.6,0-2.7-1.3-2.7-2.9
		C184.9,237.5,185.9,236.2,187.6,236.2z M189.5,238.7c0-1.1-0.7-2.1-2-2.1c-1.2,0-2.1,0.9-2.1,2.1H189.5z"/>
	<path class="st0" d="M191.6,236.5c0-0.1,0.1-0.2,0.2-0.2h0.1c0.1,0,0.2,0,0.2,0.1l0.1,0.6c0.2-0.2,0.9-0.9,2-0.9
		c1.6,0,2.1,1,2.1,2.4v3.1c0,0.1-0.1,0.2-0.2,0.2h-0.2c-0.1,0-0.2-0.1-0.2-0.2v-3c0-1.3-0.5-1.9-1.6-1.9c-1.1,0-1.8,0.9-1.9,0.9v4
		c0,0.1-0.1,0.2-0.2,0.2h-0.2c-0.1,0-0.2-0.1-0.2-0.2V236.5z M192.2,234.8c-0.1,0-0.1-0.1-0.1-0.2c0.1-0.2,0.3-1,1.1-1
		c0.9,0,0.8,1.1,1.4,1.1c0.4,0,0.6-0.5,0.7-0.7c0-0.1,0.1-0.1,0.2-0.1l0.1,0c0,0,0.1,0.1,0.1,0.2c0,0.1-0.3,1-1.1,1
		c-0.8,0-0.8-1.1-1.4-1.1c-0.5,0-0.6,0.5-0.7,0.7c0,0.1-0.1,0.1-0.2,0.1L192.2,234.8z"/>
	<path class="st0" d="M200.5,236.2c1.5,0,2.8,1.3,2.8,2.9c0,1.6-1.2,2.9-2.8,2.9c-1.6,0-2.8-1.3-2.8-2.9
		C197.7,237.5,198.9,236.2,200.5,236.2z M200.5,241.5c1.2,0,2.2-1.1,2.2-2.4c0-1.3-1-2.4-2.2-2.4c-1.3,0-2.3,1.1-2.3,2.4
		C198.2,240.4,199.2,241.5,200.5,241.5z"/>
	<path class="st0" d="M204.6,241.2l0.1-0.2c0-0.1,0.2-0.1,0.3,0c0.1,0.1,0.7,0.5,1.5,0.5c0.8,0,1.4-0.4,1.4-1c0-0.6-0.7-0.9-1.6-1.3
		c-1-0.3-1.7-0.7-1.7-1.6c0-0.6,0.5-1.4,1.8-1.4c0.7,0,1.3,0.3,1.6,0.4c0.1,0.1,0.1,0.2,0.1,0.3l-0.1,0.1c0,0.1-0.1,0.1-0.2,0
		c-0.1-0.1-0.7-0.4-1.3-0.4c-0.9,0-1.2,0.5-1.2,0.9c0,0.6,0.6,0.9,1.4,1.2c1,0.4,1.9,0.7,1.9,1.8c0,0.8-0.8,1.5-1.9,1.5
		c-0.9,0-1.5-0.4-1.8-0.6C204.6,241.3,204.5,241.2,204.6,241.2z"/>
	<path class="st0" d="M210.2,241c0.3,0,0.5,0.2,0.5,0.5c0,0.3-0.2,0.5-0.5,0.5c-0.3,0-0.5-0.2-0.5-0.5
		C209.6,241.2,209.9,241,210.2,241z"/>
	<path class="st0" d="M48.4,249.6c0-0.1,0.1-0.2,0.2-0.2h2.6c1.5,0,2.7,1.1,2.7,2.7c0,1.6-1.2,2.7-2.7,2.7H49v2.8
		c0,0.1-0.1,0.2-0.2,0.2h-0.2c-0.1,0-0.2-0.1-0.2-0.2V249.6z M51.1,254.3c1.2,0,2.2-0.9,2.2-2.2c0-1.3-1-2.1-2.2-2.1H49v4.3H51.1z"
		/>
	<path class="st0" d="M55.2,252.5c0-0.1,0.1-0.2,0.2-0.2h0.1c0.1,0,0.1,0,0.2,0.2l0.1,0.6c0.1-0.2,0.7-0.8,1.8-0.8
		c0.4,0,0.8,0.1,0.9,0.2c0.1,0,0.2,0.1,0.1,0.3l-0.1,0.2c0,0.1-0.1,0.1-0.2,0.1c-0.1,0-0.4-0.2-0.7-0.2c-1.1,0-1.6,0.9-1.7,0.9v4
		c0,0.1-0.1,0.2-0.2,0.2h-0.2c-0.1,0-0.2-0.1-0.2-0.2V252.5z"/>
	<path class="st0" d="M61.9,252.2c1.5,0,2.8,1.3,2.8,2.9c0,1.6-1.2,2.9-2.8,2.9c-1.6,0-2.8-1.3-2.8-2.9
		C59.1,253.5,60.3,252.2,61.9,252.2z M61.9,257.5c1.2,0,2.2-1.1,2.2-2.4c0-1.3-1-2.4-2.2-2.4c-1.3,0-2.3,1.1-2.3,2.4
		C59.6,256.4,60.6,257.5,61.9,257.5z"/>
	<path class="st0" d="M66.3,252.5c0-0.1,0.1-0.2,0.2-0.2h0.1c0.1,0,0.2,0,0.2,0.1l0.1,0.6c0.2-0.2,0.9-0.9,2-0.9
		c1.6,0,2.1,1,2.1,2.4v3.1c0,0.1-0.1,0.2-0.2,0.2h-0.2c-0.1,0-0.2-0.1-0.2-0.2v-3c0-1.3-0.5-1.9-1.6-1.9c-1.1,0-1.8,0.9-1.9,0.9v4
		c0,0.1-0.1,0.2-0.2,0.2h-0.2c-0.1,0-0.2-0.1-0.2-0.2V252.5z"/>
	<path class="st0" d="M72.9,252.8h-0.7c-0.1,0-0.2-0.1-0.2-0.2v-0.2c0-0.1,0.1-0.1,0.2-0.1h0.7v-1.5c0-0.1,0.1-0.2,0.2-0.2l0.2,0
		c0.1,0,0.2,0.1,0.2,0.2v1.5h2c0.1,0,0.2,0.1,0.2,0.2v0.2c0,0.1-0.1,0.2-0.2,0.2h-2v3.6c0,0.7,0.1,1,0.8,1c0.6,0,1.1-0.3,1.3-0.4
		c0.1-0.1,0.2,0,0.2,0l0.1,0.2c0,0.1,0,0.2,0,0.2c-0.2,0.2-0.9,0.5-1.6,0.5c-1,0-1.2-0.7-1.2-1.5V252.8z"/>
	<path class="st0" d="M79.4,252.2c1.5,0,2.8,1.3,2.8,2.9c0,1.6-1.2,2.9-2.8,2.9c-1.6,0-2.8-1.3-2.8-2.9
		C76.7,253.5,77.9,252.2,79.4,252.2z M79.4,257.5c1.2,0,2.2-1.1,2.2-2.4c0-1.3-1-2.4-2.2-2.4c-1.3,0-2.3,1.1-2.3,2.4
		C77.2,256.4,78.2,257.5,79.4,257.5z"/>
	<path class="st0" d="M89,252.2c1.5,0,2.5,1.1,2.5,2.5c0,0.2,0,0.5-0.2,0.5h-4.4c0,1.2,1,2.2,2.1,2.2c0.8,0,1.4-0.3,1.7-0.6
		c0.1-0.1,0.2-0.1,0.2,0l0.1,0.2c0,0,0,0.1-0.1,0.2c-0.3,0.3-1.1,0.6-2,0.6c-1.6,0-2.7-1.3-2.7-2.9C86.4,253.5,87.4,252.2,89,252.2z
		 M91,254.7c0-1.1-0.7-2.1-2-2.1c-1.2,0-2.1,0.9-2.1,2.1H91z"/>
	<path class="st0" d="M93.1,252.5c0-0.1,0.1-0.2,0.2-0.2h0.1c0.1,0,0.2,0,0.2,0.1l0.1,0.6c0.2-0.2,0.9-0.9,2-0.9
		c1.6,0,2.1,1,2.1,2.4v3.1c0,0.1-0.1,0.2-0.2,0.2h-0.2c-0.1,0-0.2-0.1-0.2-0.2v-3c0-1.3-0.5-1.9-1.6-1.9c-1.1,0-1.8,0.9-1.9,0.9v4
		c0,0.1-0.1,0.2-0.2,0.2h-0.2c-0.1,0-0.2-0.1-0.2-0.2V252.5z"/>
	<path class="st0" d="M102,252.2c1.1,0,1.8,0.5,2,0.9c0.1,0.1,0.1,0.2,0,0.3l-0.1,0.1c-0.1,0.1-0.2,0.1-0.3,0
		c-0.1-0.1-0.8-0.7-1.6-0.7c-1.3,0-2.3,1-2.3,2.4c0,1.3,1,2.4,2.4,2.4c1,0,1.6-0.7,1.8-0.9c0.1-0.1,0.2-0.1,0.3,0l0.1,0.1
		c0.1,0.1,0.1,0.1,0,0.2c-0.2,0.3-1,1.1-2.2,1.1c-1.6,0-2.9-1.2-2.9-2.9C99.2,253.4,100.5,252.2,102,252.2z"/>
	<path class="st0" d="M108.1,252.2c1.5,0,2.8,1.3,2.8,2.9c0,1.6-1.2,2.9-2.8,2.9c-1.6,0-2.8-1.3-2.8-2.9
		C105.3,253.5,106.5,252.2,108.1,252.2z M108.1,257.5c1.2,0,2.2-1.1,2.2-2.4c0-1.3-1-2.4-2.2-2.4c-1.3,0-2.3,1.1-2.3,2.4
		C105.8,256.4,106.8,257.5,108.1,257.5z"/>
	<path class="st0" d="M112.5,252.5c0-0.1,0.1-0.2,0.2-0.2h0.1c0.1,0,0.2,0,0.2,0.1l0.1,0.6c0.2-0.2,0.9-0.9,2-0.9
		c1.6,0,2.1,1,2.1,2.4v3.1c0,0.1-0.1,0.2-0.2,0.2h-0.2c-0.1,0-0.2-0.1-0.2-0.2v-3c0-1.3-0.5-1.9-1.6-1.9c-1.1,0-1.8,0.9-1.9,0.9v4
		c0,0.1-0.1,0.2-0.2,0.2h-0.2c-0.1,0-0.2-0.1-0.2-0.2V252.5z"/>
	<path class="st0" d="M119.2,252.8h-0.7c-0.1,0-0.2-0.1-0.2-0.2v-0.2c0-0.1,0.1-0.1,0.2-0.1h0.7v-1.5c0-0.1,0.1-0.2,0.2-0.2l0.2,0
		c0.1,0,0.2,0.1,0.2,0.2v1.5h2c0.1,0,0.2,0.1,0.2,0.2v0.2c0,0.1-0.1,0.2-0.2,0.2h-2v3.6c0,0.7,0.1,1,0.8,1c0.6,0,1.1-0.3,1.3-0.4
		c0.1-0.1,0.2,0,0.2,0l0.1,0.2c0,0.1,0,0.2,0,0.2c-0.2,0.2-0.9,0.5-1.6,0.5c-1,0-1.2-0.7-1.2-1.5V252.8z"/>
	<path class="st0" d="M123.3,252.5c0-0.1,0.1-0.2,0.2-0.2h0.1c0.1,0,0.1,0,0.2,0.2l0.1,0.6c0.1-0.2,0.7-0.8,1.8-0.8
		c0.4,0,0.8,0.1,0.9,0.2c0.1,0,0.2,0.1,0.1,0.3l-0.1,0.2c0,0.1-0.1,0.1-0.2,0.1c-0.1,0-0.4-0.2-0.7-0.2c-1.1,0-1.6,0.9-1.7,0.9v4
		c0,0.1-0.1,0.2-0.2,0.2h-0.2c-0.1,0-0.2-0.1-0.2-0.2V252.5z"/>
	<path class="st0" d="M129.5,254.3c0.6,0,1.3,0.2,1.4,0.3c0-1.2-0.2-1.8-1.2-1.8c-0.9,0-1.5,0.3-1.7,0.4c-0.1,0-0.2,0-0.2-0.1
		l-0.1-0.2c-0.1-0.1,0-0.2,0.1-0.2c0,0,0.7-0.4,1.9-0.4c1.7,0,1.7,1,1.7,2.4v3.1c0,0.1-0.1,0.2-0.2,0.2h-0.1c-0.1,0-0.2,0-0.2-0.2
		l-0.1-0.5c-0.3,0.3-1.1,0.8-1.9,0.8c-1,0-1.8-0.7-1.8-1.8C127.2,255.1,128.1,254.3,129.5,254.3z M129.1,257.5
		c0.8,0,1.6-0.5,1.9-0.8V255c-0.2-0.1-0.8-0.3-1.4-0.3c-1.1,0-1.8,0.6-1.8,1.4C127.7,256.9,128.3,257.5,129.1,257.5z"/>
	<path class="st0" d="M133.4,252.5c0-0.1,0.1-0.2,0.2-0.2h0.1c0.1,0,0.1,0,0.2,0.2l0.1,0.6c0.1-0.2,0.7-0.8,1.8-0.8
		c0.4,0,0.8,0.1,0.9,0.2c0.1,0,0.2,0.1,0.1,0.3l-0.1,0.2c0,0.1-0.1,0.1-0.2,0.1c-0.1,0-0.4-0.2-0.7-0.2c-1.1,0-1.6,0.9-1.7,0.9v4
		c0,0.1-0.1,0.2-0.2,0.2h-0.2c-0.1,0-0.2-0.1-0.2-0.2V252.5z"/>
	<path class="st0" d="M139.7,254.3c0.6,0,1.3,0.2,1.4,0.3c0-1.2-0.2-1.8-1.2-1.8c-0.9,0-1.5,0.3-1.7,0.4c-0.1,0-0.2,0-0.2-0.1
		l-0.1-0.2c-0.1-0.1,0-0.2,0.1-0.2c0,0,0.7-0.4,1.9-0.4c1.7,0,1.7,1,1.7,2.4v3.1c0,0.1-0.1,0.2-0.2,0.2h-0.1c-0.1,0-0.2,0-0.2-0.2
		l-0.1-0.5c-0.3,0.3-1.1,0.8-1.9,0.8c-1,0-1.8-0.7-1.8-1.8C137.4,255.1,138.2,254.3,139.7,254.3z M139.2,257.5
		c0.8,0,1.6-0.5,1.9-0.8V255c-0.2-0.1-0.8-0.3-1.4-0.3c-1.1,0-1.8,0.6-1.8,1.4C137.9,256.9,138.5,257.5,139.2,257.5z M138.7,251.1
		l-0.1-0.2c0-0.1,0-0.1,0.1-0.2l2-1c0.1,0,0.2,0,0.2,0l0.1,0.2c0,0.1,0,0.2-0.1,0.2l-2,0.9C138.8,251.2,138.7,251.2,138.7,251.1z"/>
	<path class="st0" d="M143.2,257.2l0.1-0.2c0-0.1,0.2-0.1,0.3,0c0.1,0.1,0.7,0.5,1.5,0.5c0.8,0,1.4-0.4,1.4-1c0-0.6-0.7-0.9-1.6-1.3
		c-1-0.3-1.7-0.7-1.7-1.6c0-0.6,0.5-1.4,1.8-1.4c0.7,0,1.3,0.3,1.6,0.4c0.1,0.1,0.1,0.2,0.1,0.3l-0.1,0.1c0,0.1-0.1,0.1-0.2,0
		c-0.1-0.1-0.7-0.4-1.3-0.4c-0.9,0-1.2,0.5-1.2,0.9c0,0.6,0.6,0.9,1.4,1.2c1,0.4,1.9,0.7,1.9,1.8c0,0.8-0.8,1.5-1.9,1.5
		c-0.9,0-1.5-0.4-1.8-0.6C143.2,257.3,143.2,257.2,143.2,257.2z"/>
	<path class="st0" d="M153.3,254.3c0.6,0,1.3,0.2,1.4,0.3c0-1.2-0.2-1.8-1.2-1.8c-0.9,0-1.5,0.3-1.7,0.4c-0.1,0-0.2,0-0.2-0.1
		l-0.1-0.2c-0.1-0.1,0-0.2,0.1-0.2c0,0,0.7-0.4,1.9-0.4c1.7,0,1.7,1,1.7,2.4v3.1c0,0.1-0.1,0.2-0.2,0.2h-0.1c-0.1,0-0.2,0-0.2-0.2
		l-0.1-0.5c-0.3,0.3-1.1,0.8-1.9,0.8c-1,0-1.8-0.7-1.8-1.8C151,255.1,151.8,254.3,153.3,254.3z M152.8,257.5c0.8,0,1.6-0.5,1.9-0.8
		V255c-0.2-0.1-0.8-0.3-1.4-0.3c-1.1,0-1.8,0.6-1.8,1.4C151.5,256.9,152.1,257.5,152.8,257.5z"/>
	<path class="st0" d="M161.3,257.4c-0.2,0.1-0.8,0.6-1.7,0.6c-1.6,0-2.8-1.3-2.8-2.9c0-1.6,1.1-2.9,2.6-2.9c1,0,1.7,0.5,1.9,0.6
		l0-0.4c0-0.1,0.1-0.1,0.2-0.1h0.1c0.1,0,0.2,0.1,0.2,0.2v8c0,0.1-0.1,0.2-0.2,0.2h-0.2c-0.1,0-0.2-0.1-0.2-0.2V257.4z M161.3,253.4
		c-0.1-0.1-0.7-0.7-1.8-0.7c-1.3,0-2.1,1.1-2.1,2.4c0,1.4,0.9,2.4,2.2,2.4c0.9,0,1.6-0.6,1.7-0.7V253.4z"/>
	<path class="st0" d="M163.7,252.5c0-0.1,0.1-0.2,0.2-0.2h0.2c0.1,0,0.2,0.1,0.2,0.2v3.1c0,1.3,0.4,1.9,1.6,1.9c1,0,1.6-0.8,1.8-1
		v-3.9c0-0.1,0.1-0.2,0.2-0.2h0.2c0.1,0,0.2,0.1,0.2,0.2v5.2c0,0.1-0.1,0.2-0.2,0.2h-0.1c-0.1,0-0.2-0.1-0.2-0.2l0-0.5
		c-0.1,0.2-0.7,0.8-1.8,0.8c-1.6,0-2.1-0.8-2.1-2.4V252.5z"/>
	<path class="st0" d="M169.3,251.1l-0.1-0.2c0-0.1,0-0.1,0.1-0.2l2-1c0.1,0,0.2,0,0.2,0l0.1,0.2c0,0.1,0,0.2-0.1,0.2l-2,0.9
		C169.4,251.2,169.4,251.2,169.3,251.1z M170.1,252.5c0-0.1,0.1-0.2,0.2-0.2h0.2c0.1,0,0.2,0.1,0.2,0.2v5.2c0,0.1-0.1,0.2-0.2,0.2
		h-0.2c-0.1,0-0.2-0.1-0.2-0.2V252.5z"/>
	<path class="st0" d="M175.6,252.5c0-0.1,0.1-0.2,0.2-0.2h0.1c0.1,0,0.1,0,0.1,0.1l0.1,0.6c0.2-0.2,0.7-0.9,1.8-0.9
		c0.9,0,1.3,0.4,1.7,1c0.2-0.2,0.8-1,1.9-1c1.5,0,2,1,2,2.4v3c0,0.1-0.1,0.2-0.2,0.2h-0.2c-0.1,0-0.1-0.1-0.1-0.2v-3
		c0-1.3-0.5-1.9-1.5-1.9c-1,0-1.5,0.8-1.7,1c0.1,0.3,0.1,0.6,0.1,1v3c0,0.1-0.1,0.2-0.2,0.2h-0.2c-0.1,0-0.2-0.1-0.2-0.2v-3
		c0-1.3-0.5-1.9-1.5-1.9c-1.1,0-1.7,0.8-1.7,0.9v4c0,0.1-0.1,0.2-0.2,0.2h-0.2c-0.1,0-0.2-0.1-0.2-0.2V252.5z"/>
	<path class="st0" d="M187.3,254.3c0.6,0,1.3,0.2,1.4,0.3c0-1.2-0.2-1.8-1.2-1.8c-0.9,0-1.5,0.3-1.7,0.4c-0.1,0-0.2,0-0.2-0.1
		l-0.1-0.2c-0.1-0.1,0-0.2,0.1-0.2c0,0,0.7-0.4,1.9-0.4c1.7,0,1.7,1,1.7,2.4v3.1c0,0.1-0.1,0.2-0.2,0.2H189c-0.1,0-0.2,0-0.2-0.2
		l-0.1-0.5c-0.3,0.3-1.1,0.8-1.9,0.8c-1,0-1.8-0.7-1.8-1.8C185,255.1,185.9,254.3,187.3,254.3z M186.9,257.5c0.8,0,1.6-0.5,1.9-0.8
		V255c-0.2-0.1-0.8-0.3-1.4-0.3c-1.1,0-1.8,0.6-1.8,1.4C185.5,256.9,186.1,257.5,186.9,257.5z M186.4,251.1l-0.1-0.2
		c0-0.1,0-0.1,0.1-0.2l2-1c0.1,0,0.2,0,0.2,0l0.1,0.2c0,0.1,0,0.2-0.1,0.2l-2,0.9C186.4,251.2,186.4,251.2,186.4,251.1z"/>
	<path class="st0" d="M190.9,257.2l0.1-0.2c0-0.1,0.2-0.1,0.3,0c0.1,0.1,0.7,0.5,1.5,0.5c0.8,0,1.4-0.4,1.4-1c0-0.6-0.7-0.9-1.6-1.3
		c-1-0.3-1.7-0.7-1.7-1.6c0-0.6,0.5-1.4,1.8-1.4c0.7,0,1.3,0.3,1.6,0.4c0.1,0.1,0.1,0.2,0.1,0.3l-0.1,0.1c0,0.1-0.1,0.1-0.2,0
		c-0.1-0.1-0.7-0.4-1.3-0.4c-0.9,0-1.2,0.5-1.2,0.9c0,0.6,0.6,0.9,1.4,1.2c1,0.4,1.9,0.7,1.9,1.8c0,0.8-0.8,1.5-1.9,1.5
		c-0.9,0-1.5-0.4-1.8-0.6C190.9,257.3,190.9,257.2,190.9,257.2z"/>
	<path class="st0" d="M198.9,250.3c0-0.3,0.2-0.5,0.5-0.5s0.5,0.2,0.5,0.5c0,0.3-0.2,0.5-0.5,0.5S198.9,250.6,198.9,250.3z
		 M199.1,252.5c0-0.1,0.1-0.2,0.2-0.2h0.2c0.1,0,0.2,0.1,0.2,0.2v5.2c0,0.1-0.1,0.2-0.2,0.2h-0.2c-0.1,0-0.2-0.1-0.2-0.2V252.5z"/>
	<path class="st0" d="M201.6,252.5c0-0.1,0.1-0.2,0.2-0.2h0.1c0.1,0,0.2,0,0.2,0.1l0.1,0.6c0.2-0.2,0.9-0.9,2-0.9
		c1.6,0,2.1,1,2.1,2.4v3.1c0,0.1-0.1,0.2-0.2,0.2h-0.2c-0.1,0-0.2-0.1-0.2-0.2v-3c0-1.3-0.5-1.9-1.6-1.9c-1.1,0-1.8,0.9-1.9,0.9v4
		c0,0.1-0.1,0.2-0.2,0.2h-0.2c-0.1,0-0.2-0.1-0.2-0.2V252.5z"/>
	<path class="st0" d="M208.4,252.8h-0.9c-0.1,0-0.2-0.1-0.2-0.2v-0.2c0-0.1,0.1-0.2,0.2-0.2h0.9v-0.9c0-1.3,0.6-2.1,1.8-2.1
		c0.7,0,1.3,0.3,1.5,0.6c0.1,0.1,0.1,0.2,0,0.2l-0.1,0.1c-0.1,0.1-0.1,0.1-0.2,0c-0.3-0.3-0.7-0.5-1.2-0.5c-0.9,0-1.3,0.6-1.3,1.6
		v0.9h2.1c0.1,0,0.2,0.1,0.2,0.2v0.2c0,0.1-0.1,0.2-0.2,0.2h-2.1v4.8c0,0.1-0.1,0.2-0.2,0.2h-0.2c-0.1,0-0.2-0.1-0.2-0.2V252.8z"/>
	<path class="st0" d="M214.6,252.2c1.5,0,2.8,1.3,2.8,2.9c0,1.6-1.2,2.9-2.8,2.9c-1.6,0-2.8-1.3-2.8-2.9
		C211.8,253.5,213,252.2,214.6,252.2z M214.6,257.5c1.2,0,2.2-1.1,2.2-2.4c0-1.3-1-2.4-2.2-2.4c-1.3,0-2.3,1.1-2.3,2.4
		C212.3,256.4,213.3,257.5,214.6,257.5z"/>
	<path class="st0" d="M219,252.5c0-0.1,0.1-0.2,0.2-0.2h0.1c0.1,0,0.1,0,0.2,0.2l0.1,0.6c0.1-0.2,0.7-0.8,1.8-0.8
		c0.4,0,0.8,0.1,0.9,0.2c0.1,0,0.2,0.1,0.1,0.3l-0.1,0.2c0,0.1-0.1,0.1-0.2,0.1c-0.1,0-0.4-0.2-0.7-0.2c-1.1,0-1.6,0.9-1.7,0.9v4
		c0,0.1-0.1,0.2-0.2,0.2h-0.2c-0.1,0-0.2-0.1-0.2-0.2V252.5z"/>
	<path class="st0" d="M223.5,252.5c0-0.1,0.1-0.2,0.2-0.2h0.1c0.1,0,0.1,0,0.1,0.1l0.1,0.6c0.2-0.2,0.7-0.9,1.8-0.9
		c0.9,0,1.3,0.4,1.7,1c0.2-0.2,0.8-1,1.9-1c1.5,0,2,1,2,2.4v3c0,0.1-0.1,0.2-0.2,0.2h-0.2c-0.1,0-0.1-0.1-0.1-0.2v-3
		c0-1.3-0.5-1.9-1.5-1.9c-1,0-1.5,0.8-1.7,1c0.1,0.3,0.1,0.6,0.1,1v3c0,0.1-0.1,0.2-0.2,0.2h-0.2c-0.1,0-0.2-0.1-0.2-0.2v-3
		c0-1.3-0.5-1.9-1.5-1.9c-1.1,0-1.7,0.8-1.7,0.9v4c0,0.1-0.1,0.2-0.2,0.2h-0.2c-0.1,0-0.2-0.1-0.2-0.2V252.5z"/>
	<path class="st0" d="M235.3,254.3c0.6,0,1.3,0.2,1.4,0.3c0-1.2-0.2-1.8-1.2-1.8c-0.9,0-1.5,0.3-1.7,0.4c-0.1,0-0.2,0-0.2-0.1
		l-0.1-0.2c-0.1-0.1,0-0.2,0.1-0.2c0,0,0.7-0.4,1.9-0.4c1.7,0,1.7,1,1.7,2.4v3.1c0,0.1-0.1,0.2-0.2,0.2h-0.1c-0.1,0-0.2,0-0.2-0.2
		l-0.1-0.5c-0.3,0.3-1.1,0.8-1.9,0.8c-1,0-1.8-0.7-1.8-1.8C233,255.1,233.8,254.3,235.3,254.3z M234.8,257.5c0.8,0,1.6-0.5,1.9-0.8
		V255c-0.2-0.1-0.8-0.3-1.4-0.3c-1.1,0-1.8,0.6-1.8,1.4C233.5,256.9,234.1,257.5,234.8,257.5z"/>
	<path class="st0" d="M241.7,252.2c1.1,0,1.8,0.5,2,0.9c0.1,0.1,0.1,0.2,0,0.3l-0.1,0.1c-0.1,0.1-0.2,0.1-0.3,0
		c-0.1-0.1-0.8-0.7-1.6-0.7c-1.3,0-2.3,1-2.3,2.4c0,1.3,1,2.4,2.4,2.4c1,0,1.6-0.7,1.8-0.9c0.1-0.1,0.2-0.1,0.3,0l0.1,0.1
		c0.1,0.1,0.1,0.1,0,0.2c-0.2,0.3-1,1.1-2.2,1.1c-1.6,0-2.9-1.2-2.9-2.9C238.8,253.4,240.1,252.2,241.7,252.2z"/>
	<path class="st0" d="M245.2,250.3c0-0.3,0.2-0.5,0.5-0.5s0.5,0.2,0.5,0.5c0,0.3-0.2,0.5-0.5,0.5S245.2,250.6,245.2,250.3z
		 M245.4,252.5c0-0.1,0.1-0.2,0.2-0.2h0.2c0.1,0,0.2,0.1,0.2,0.2v5.2c0,0.1-0.1,0.2-0.2,0.2h-0.2c-0.1,0-0.2-0.1-0.2-0.2V252.5z"/>
	<path class="st0" d="M250.3,252.2c1.5,0,2.8,1.3,2.8,2.9c0,1.6-1.2,2.9-2.8,2.9c-1.6,0-2.8-1.3-2.8-2.9
		C247.6,253.5,248.8,252.2,250.3,252.2z M250.3,257.5c1.2,0,2.2-1.1,2.2-2.4c0-1.3-1-2.4-2.2-2.4c-1.3,0-2.3,1.1-2.3,2.4
		C248.1,256.4,249.1,257.5,250.3,257.5z M249.2,251.1l-0.1-0.2c0-0.1,0-0.1,0.1-0.2l2-1c0.1,0,0.2,0,0.2,0l0.1,0.2
		c0,0.1,0,0.2-0.1,0.2l-2,0.9C249.3,251.2,249.3,251.2,249.2,251.1z"/>
	<path class="st0" d="M254.8,252.5c0-0.1,0.1-0.2,0.2-0.2h0.1c0.1,0,0.2,0,0.2,0.1l0.1,0.6c0.2-0.2,0.9-0.9,2-0.9
		c1.6,0,2.1,1,2.1,2.4v3.1c0,0.1-0.1,0.2-0.2,0.2h-0.2c-0.1,0-0.2-0.1-0.2-0.2v-3c0-1.3-0.5-1.9-1.6-1.9c-1.1,0-1.8,0.9-1.9,0.9v4
		c0,0.1-0.1,0.2-0.2,0.2h-0.2c-0.1,0-0.2-0.1-0.2-0.2V252.5z"/>
	<path class="st0" d="M261.5,257c0.3,0,0.5,0.2,0.5,0.5c0,0.3-0.2,0.5-0.5,0.5c-0.3,0-0.5-0.2-0.5-0.5
		C261,257.2,261.2,257,261.5,257z"/>
</g>
<rect x="20" y="530.4" style="fill:none;" width="270" height="52.6"/>
<text transform="matrix(1 0 0 1 37.6411 538.8398)"><tspan x="0" y="0" class="st0" style="font-family:'BrandonText-Light'; font-size:12px;">Estamos cargando los conceptos, tendencias, </tspan><tspan x="60.6" y="16" class="st0" style="font-family:'BrandonText-Light'; font-size:12px;">aprendizajes y sueños.</tspan><tspan x="9" y="32" class="st0" style="font-family:'BrandonText-Light'; font-size:12px;">Pronto encontrarás aquí más información.</tspan></text>
</svg>
