<?xml version="1.0" encoding="utf-8"?>
<!-- Generator: Adobe Illustrator 22.0.1, SVG Export Plug-In . SVG Version: 6.00 Build 0)  -->
<svg version="1.1" id="Capa_1" xmlns="http://www.w3.org/2000/svg" xmlns:xlink="http://www.w3.org/1999/xlink" x="0px" y="0px"
	 viewBox="0 0 320 480" style="enable-background:new 0 0 320 480;" xml:space="preserve">
<style type="text/css">
	.st0{fill:#FFFFFF;}
	.st1{fill:#FFFFFF;stroke:#000000;stroke-width:0.2288;stroke-miterlimit:10;}
</style>
<g>
	<rect x="-29.1" y="-60.8" style="fill:none;" width="244.1" height="40.8"/>
	
		<text transform="matrix(1 0 0 1 -3.8018 -50.9077)" class="st0" style="font-family:'MyriadPro-Regular'; font-size:14px; letter-spacing:1;">PÁGINA EN CONSTRUCCIÓN</text>
</g>
<rect x="-3.8" y="-4.3" width="327.5" height="488.5"/>
<g>
	<g>
		<g>
			<path class="st0" d="M120.6,118.2h-1.2c-0.3,0-0.5-0.3-0.5-0.6v-1.7c0-0.3,0.2-0.6,0.5-0.6h1.2v-3.3c0-0.3,0.3-0.6,0.6-0.6h2.1
				c0.3,0,0.5,0.3,0.5,0.6v3.3h2.8c0.3,0,0.6,0.2,0.6,0.6v1.7c0,0.3-0.3,0.6-0.6,0.6h-2.8v5.3c0,0.8,0.4,1,1,1
				c0.5,0,1.5-0.3,1.8-0.4c0.3-0.1,0.6,0,0.7,0.3l0.3,1.6c0.1,0.3-0.1,0.5-0.3,0.7c-0.4,0.2-2.1,0.8-3.3,0.8c-2.6,0-3.3-1.8-3.3-3.8
				V118.2z"/>
			<path class="st0" d="M129.8,109.8c0-0.3,0.3-0.6,0.6-0.6h2.1c0.3,0,0.6,0.3,0.6,0.6v6.3c0.6-0.5,1.6-1,3-1c3.8,0,4.8,2.6,4.8,5.6
				v5.9c0,0.3-0.3,0.6-0.6,0.6h-2.1c-0.3,0-0.6-0.3-0.6-0.6v-6c0-1.6-0.7-2.6-2.2-2.6c-1.4,0-2.2,0.9-2.5,2.1v6.5
				c0,0.3-0.2,0.6-0.6,0.6h-2c-0.3,0-0.6-0.3-0.6-0.6V109.8z"/>
			<path class="st0" d="M149.2,115.1c3.1,0,5.4,2.3,5.4,5.5c0,0.2,0,0.6-0.1,0.8c0,0.3-0.3,0.5-0.6,0.5h-7.6c0,1.5,1.2,2.7,2.9,2.7
				c1.2,0,2-0.4,2.5-0.9c0.3-0.2,0.6-0.3,0.8,0l1,1.3c0.2,0.2,0.2,0.5-0.1,0.8c-1,0.9-2.5,1.6-4.4,1.6c-3.5,0-6-2.8-6-6.2
				C143.2,117.9,145.7,115.1,149.2,115.1z M151.4,119.8c-0.1-1.2-1-2-2.3-2c-1.4,0-2.4,0.9-2.5,2H151.4z"/>
			<path class="st0" d="M156.7,126.4c-0.2-0.1-0.3-0.4-0.2-0.6l0.8-1.5c0.1-0.3,0.4-0.4,0.7-0.2c0.5,0.3,1.4,0.8,2.6,0.8
				c0.9,0,1.3-0.3,1.3-0.8c0-0.5-0.7-1-2.2-1.6c-2.3-0.9-3.3-1.9-3.3-3.7c0-1.8,1.4-3.5,4.3-3.5c1.7,0,2.9,0.5,3.5,0.9
				c0.3,0.2,0.4,0.5,0.3,0.8l-0.7,1.4c-0.2,0.3-0.5,0.3-0.7,0.2c-0.6-0.3-1.4-0.6-2.4-0.6c-0.8,0-1.1,0.4-1.1,0.8
				c0,0.5,0.6,0.8,1.7,1.3c2.3,0.9,3.9,1.7,3.9,4.1c0,1.9-1.6,3.5-4.6,3.5C158.6,127.4,157.3,126.8,156.7,126.4z"/>
			<path class="st0" d="M167.4,117.2c0-1.2,0.9-2.1,2.1-2.1c1.2,0,2.2,0.9,2.2,2.1c0,1.2-0.9,2.1-2.2,2.1
				C168.4,119.3,167.4,118.4,167.4,117.2z M169.6,123.2c1.2,0,2.2,0.9,2.2,2.1c0,1.2-0.9,2.1-2.2,2.1c-1.2,0-2.1-0.9-2.1-2.1
				C167.4,124.1,168.4,123.2,169.6,123.2z"/>
			<path class="st0" d="M186,127.3c0,3.8-2.7,5.7-5.9,5.7c-1.9,0-3.7-0.9-4.3-1.3c-0.2-0.2-0.3-0.5-0.1-0.7l0.8-1.7
				c0.1-0.2,0.4-0.3,0.7-0.2c0.4,0.3,1.6,0.9,2.8,0.9c1.8,0,2.8-0.6,2.8-2.8V127c-0.5,0.2-1.7,0.5-2.8,0.5c-3.5,0-5.9-2.7-5.9-6.2
				c0-3.6,2.4-6.2,5.7-6.2c2.5,0,3.9,1.8,3.9,1.8l0.3-0.9c0.1-0.3,0.3-0.6,0.6-0.6h0.9c0.3,0,0.6,0.3,0.6,0.6V127.3z M182.8,119.6
				c-0.3-0.7-1.1-1.6-2.6-1.6c-1.8,0-2.8,1.6-2.8,3.3c0,1.7,1,3.3,2.9,3.3c1.5,0,2.5-0.7,2.5-0.7V119.6z"/>
			<path class="st0" d="M189.3,115.9c0-0.3,0.3-0.6,0.6-0.6h1c0.3,0,0.4,0.1,0.5,0.4l0.4,1.1c0.4-0.5,1.5-1.7,3.8-1.7
				c3.8,0,4.7,2.5,4.7,5.4v6.1c0,0.3-0.3,0.6-0.6,0.6h-2.1c-0.3,0-0.6-0.3-0.6-0.6v-6.1c0-1.5-0.6-2.5-2-2.5c-1.5,0-2.3,1-2.6,1.8
				v6.8c0,0.4-0.2,0.6-0.7,0.6h-1.9c-0.3,0-0.6-0.3-0.6-0.6V115.9z"/>
		</g>
	</g>
</g>
<g>
	<g>
		<path class="st0" d="M30.8,164.3c0-0.1,0.1-0.3,0.3-0.3h0.3c0.1,0,0.3,0.1,0.3,0.3v12.1c0,0.2-0.1,0.3-0.3,0.3H31
			c-0.2,0-0.2-0.1-0.2-0.3V164.3z"/>
		<path class="st0" d="M37.5,171.2c1,0,1.9,0.3,2.1,0.4c0-1.8-0.2-2.8-1.9-2.8c-1.4,0-2.3,0.5-2.5,0.6c-0.2,0.1-0.3,0-0.3-0.1
			l-0.1-0.3c-0.1-0.2,0-0.3,0.1-0.3c0.1,0,1.1-0.6,2.9-0.6c2.5,0,2.6,1.5,2.6,3.6v4.6c0,0.1-0.1,0.3-0.3,0.3H40
			c-0.1,0-0.2-0.1-0.3-0.2l-0.1-0.8c-0.5,0.5-1.6,1.2-2.9,1.2c-1.5,0-2.7-1-2.7-2.8C34,172.5,35.3,171.2,37.5,171.2z M36.8,176
			c1.3,0,2.4-0.8,2.8-1.3v-2.4c-0.3-0.1-1.2-0.4-2.1-0.4c-1.6,0-2.7,0.9-2.7,2.1C34.8,175.2,35.7,176,36.8,176z"/>
		<path class="st0" d="M42.8,175.6l0.2-0.3c0.1-0.1,0.2-0.1,0.4,0c0.2,0.2,1.1,0.8,2.3,0.8c1.3,0,2.1-0.6,2.1-1.5c0-1-1-1.4-2.4-1.9
			c-1.5-0.5-2.5-1.1-2.5-2.4c0-0.9,0.8-2.1,2.7-2.1c1.1,0,1.9,0.4,2.3,0.6c0.1,0.1,0.2,0.2,0.1,0.4l-0.1,0.2
			c-0.1,0.1-0.2,0.1-0.4,0.1c-0.2-0.1-1.1-0.5-2-0.5c-1.3,0-1.9,0.7-1.9,1.4c0,0.8,0.8,1.3,2.1,1.7c1.5,0.6,2.8,1,2.8,2.6
			c0,1.3-1.2,2.2-2.9,2.2c-1.4,0-2.3-0.6-2.7-0.9C42.8,175.8,42.8,175.7,42.8,175.6z"/>
		<path class="st0" d="M61.2,175.9c-0.2,0.2-1.1,0.9-2.5,0.9c-2.4,0-4.1-1.9-4.1-4.4c0-2.4,1.6-4.3,3.9-4.3c1.5,0,2.6,0.8,2.8,1
			l0.1-0.6c0-0.2,0.1-0.2,0.2-0.2h0.1c0.1,0,0.3,0.1,0.3,0.3v8.3c0,2.4-1.6,3.7-3.7,3.7c-1.4,0-2.4-0.7-2.8-1.1
			c-0.1-0.1-0.1-0.2,0-0.3l0.2-0.2c0.1-0.1,0.2-0.1,0.4,0c0.3,0.3,1.3,0.8,2.3,0.8c1.6,0,2.9-1,2.9-3V175.9z M61.2,170
			c-0.1-0.1-1.1-1.1-2.7-1.1c-1.9,0-3.2,1.6-3.2,3.5c0,2,1.4,3.6,3.4,3.6c1.4,0,2.4-0.9,2.5-1V170z"/>
		<path class="st0" d="M65,168.6c0-0.1,0.1-0.3,0.3-0.3h0.1c0.1,0,0.2,0.1,0.2,0.2l0.1,0.8c0.2-0.3,1.1-1.3,2.6-1.3
			c0.7,0,1.1,0.2,1.3,0.2c0.2,0.1,0.3,0.2,0.2,0.4l-0.1,0.3c-0.1,0.2-0.2,0.2-0.3,0.1c-0.1-0.1-0.5-0.3-1.1-0.3
			c-1.6,0-2.5,1.3-2.5,1.4v6c0,0.2-0.1,0.3-0.3,0.3h-0.3c-0.2,0-0.2-0.1-0.2-0.3V168.6z"/>
		<path class="st0" d="M74.5,171.2c1,0,1.9,0.3,2.1,0.4c0-1.8-0.2-2.8-1.9-2.8c-1.4,0-2.3,0.5-2.5,0.6c-0.2,0.1-0.3,0-0.3-0.1
			l-0.1-0.3c-0.1-0.2,0-0.3,0.1-0.3c0.1,0,1.1-0.6,2.9-0.6c2.5,0,2.6,1.5,2.6,3.6v4.6c0,0.1-0.1,0.3-0.3,0.3H77
			c-0.1,0-0.2-0.1-0.3-0.2l-0.1-0.8c-0.5,0.5-1.6,1.2-2.9,1.2c-1.5,0-2.7-1-2.7-2.8C71.1,172.5,72.3,171.2,74.5,171.2z M73.8,176
			c1.3,0,2.4-0.8,2.8-1.3v-2.4c-0.3-0.1-1.2-0.4-2.1-0.4c-1.6,0-2.7,0.9-2.7,2.1C71.8,175.2,72.7,176,73.8,176z"/>
		<path class="st0" d="M80.4,168.6c0-0.1,0.1-0.3,0.3-0.3h0.1c0.2,0,0.2,0.1,0.3,0.2l0.1,0.9c0.3-0.3,1.3-1.3,2.9-1.3
			c2.4,0,3.1,1.5,3.1,3.6v4.6c0,0.1-0.1,0.3-0.3,0.3h-0.3c-0.1,0-0.3-0.1-0.3-0.3v-4.6c0-1.9-0.8-2.9-2.4-2.9
			c-1.7,0-2.8,1.3-2.8,1.4v6c0,0.2-0.1,0.3-0.3,0.3h-0.3c-0.2,0-0.2-0.1-0.2-0.3V168.6z"/>
		<path class="st0" d="M93.6,168.1c1.6,0,2.6,0.8,2.6,0.8v-4.6c0-0.1,0.1-0.3,0.3-0.3h0.3c0.1,0,0.3,0.1,0.3,0.3v12.1
			c0,0.1-0.1,0.3-0.3,0.3h-0.1c-0.2,0-0.3-0.1-0.3-0.3l-0.1-0.7c-0.2,0.3-1.3,1.2-2.9,1.2c-2.2,0-3.8-1.9-3.8-4.4
			C89.6,170.1,91.2,168.1,93.6,168.1z M93.4,176c1.8,0,2.8-1.3,2.8-1.4v-4.8c0,0-1-0.9-2.5-0.9c-1.9,0-3.3,1.6-3.3,3.6
			C90.4,174.4,91.6,176,93.4,176z"/>
		<path class="st0" d="M103.5,168.1c2.2,0,3.7,1.7,3.7,3.8c0,0.3,0,0.8-0.3,0.8h-6.6c0,1.9,1.4,3.3,3.2,3.3c1.2,0,2.1-0.5,2.6-0.8
			c0.2-0.1,0.3-0.1,0.4,0l0.2,0.3c0.1,0.1,0.1,0.2-0.1,0.3c-0.5,0.4-1.7,1-3,1c-2.4,0-4-1.9-4-4.4C99.5,170.1,101,168.1,103.5,168.1
			z M106.4,172c0-1.6-1.1-3.1-2.9-3.1c-1.8,0-3.1,1.4-3.2,3.1H106.4z"/>
		<path class="st0" d="M109,175.6l0.2-0.3c0.1-0.1,0.2-0.1,0.4,0c0.2,0.2,1.1,0.8,2.3,0.8c1.3,0,2.1-0.6,2.1-1.5c0-1-1-1.4-2.4-1.9
			c-1.5-0.5-2.5-1.1-2.5-2.4c0-0.9,0.8-2.1,2.7-2.1c1.1,0,1.9,0.4,2.3,0.6c0.1,0.1,0.2,0.2,0.1,0.4l-0.1,0.2
			c-0.1,0.1-0.2,0.1-0.4,0.1c-0.2-0.1-1.1-0.5-2-0.5c-1.3,0-1.9,0.7-1.9,1.4c0,0.8,0.8,1.3,2.1,1.7c1.5,0.6,2.8,1,2.8,2.6
			c0,1.3-1.2,2.2-2.9,2.2c-1.4,0-2.3-0.6-2.7-0.9C109,175.8,108.9,175.7,109,175.6z"/>
		<path class="st0" d="M120.6,165.4c0-0.8,0.6-1.4,1.4-1.4c0.8,0,1.4,0.6,1.4,1.4s-0.6,1.4-1.4,1.4
			C121.2,166.9,120.6,166.2,120.6,165.4z M121,168.7c0-0.2,0.2-0.4,0.4-0.4h1.5c0.2,0,0.4,0.2,0.4,0.4v7.5c0,0.2-0.2,0.4-0.4,0.4
			h-1.5c-0.2,0-0.4-0.2-0.4-0.4V168.7z"/>
		<path class="st0" d="M129.1,168.1c0.8,0,1.6,0.2,2,0.3v-4.1c0-0.2,0.2-0.4,0.4-0.4h1.5c0.2,0,0.4,0.2,0.4,0.4v11.8
			c0,0.2-0.2,0.4-0.4,0.4h-0.7c-0.2,0-0.3-0.2-0.4-0.4l-0.2-0.6c0,0-1,1.2-2.7,1.2c-2.3,0-4-1.8-4-4.4
			C125,170,126.6,168.1,129.1,168.1z M131.1,170.6c0,0-0.7-0.5-1.7-0.5c-1.4,0-2.1,1.1-2.1,2.3c0,1.2,0.7,2.3,2,2.3
			c1.1,0,1.7-0.7,1.8-1.2V170.6z"/>
		<path class="st0" d="M139.4,168.1c2.2,0,3.8,1.6,3.8,3.9c0,0.1,0,0.4,0,0.5c0,0.2-0.2,0.4-0.4,0.4h-5.3c0,1,0.9,1.9,2.1,1.9
			c0.8,0,1.4-0.3,1.8-0.6c0.2-0.2,0.4-0.2,0.5,0l0.7,0.9c0.1,0.2,0.2,0.4,0,0.5c-0.7,0.6-1.7,1.1-3.1,1.1c-2.5,0-4.2-2-4.2-4.4
			C135.2,170.1,136.9,168.1,139.4,168.1z M140.9,171.4c0-0.8-0.7-1.4-1.6-1.4c-1,0-1.7,0.6-1.8,1.4H140.9z"/>
		<path class="st0" d="M147.6,171.4c0.8,0,1.6,0.2,1.6,0.2c0-1.1-0.3-1.6-1.2-1.6c-0.8,0-1.9,0.2-2.3,0.3c-0.3,0.1-0.4-0.1-0.5-0.4
			l-0.2-0.9c-0.1-0.3,0.1-0.5,0.3-0.5c0.2-0.1,1.5-0.4,2.8-0.4c2.6,0,3.1,1.4,3.1,3.6v4.5c0,0.2-0.2,0.4-0.4,0.4h-0.6
			c-0.1,0-0.3-0.1-0.4-0.3l-0.2-0.6c-0.5,0.5-1.3,1-2.6,1c-1.7,0-2.8-1.1-2.8-2.8C144.3,172.5,145.5,171.4,147.6,171.4z
			 M147.7,175.1c0.7,0,1.4-0.6,1.5-0.9V173c0,0-0.6-0.3-1.2-0.3c-1,0-1.5,0.4-1.5,1.2C146.5,174.7,146.9,175.1,147.7,175.1z"/>
		<path class="st0" d="M153.3,176.1c-0.1-0.1-0.2-0.3-0.1-0.5l0.5-1.1c0.1-0.2,0.3-0.3,0.5-0.1c0.4,0.2,1,0.5,1.8,0.5
			c0.6,0,0.9-0.2,0.9-0.6c0-0.4-0.5-0.7-1.6-1.2c-1.6-0.6-2.3-1.4-2.3-2.6c0-1.3,1-2.4,3-2.4c1.2,0,2,0.3,2.5,0.6
			c0.2,0.1,0.3,0.4,0.2,0.6l-0.5,1c-0.1,0.2-0.3,0.2-0.5,0.2c-0.4-0.2-1-0.4-1.7-0.4c-0.6,0-0.8,0.3-0.8,0.5c0,0.4,0.4,0.6,1.2,0.9
			c1.6,0.6,2.8,1.2,2.8,2.9c0,1.3-1.1,2.5-3.2,2.5C154.6,176.8,153.8,176.4,153.3,176.1z"/>
		<path class="st0" d="M166,169.1h-1c-0.2,0-0.3-0.1-0.3-0.3v-0.3c0-0.2,0.1-0.2,0.3-0.2h1V166c0-0.2,0.1-0.3,0.3-0.3l0.2,0
			c0.1,0,0.3,0.1,0.3,0.3v2.3h2.9c0.2,0,0.3,0.1,0.3,0.3v0.2c0,0.2-0.1,0.3-0.3,0.3h-2.9v5.4c0,1.1,0.2,1.5,1.1,1.5
			c0.9,0,1.7-0.5,1.9-0.7c0.2-0.1,0.3,0,0.3,0.1l0.1,0.3c0.1,0.1,0,0.2-0.1,0.3c-0.3,0.2-1.3,0.8-2.4,0.8c-1.5,0-1.8-1-1.8-2.2
			V169.1z"/>
		<path class="st0" d="M175.8,168.1c2.3,0,4.2,2,4.2,4.3c0,2.4-1.9,4.4-4.2,4.4c-2.4,0-4.2-1.9-4.2-4.4
			C171.6,170.1,173.4,168.1,175.8,168.1z M175.8,176c1.9,0,3.3-1.6,3.3-3.6c0-1.9-1.5-3.5-3.3-3.5c-1.9,0-3.4,1.6-3.4,3.5
			C172.4,174.4,173.9,176,175.8,176z"/>
		<path class="st0" d="M182.4,168.6c0-0.1,0.1-0.3,0.3-0.3h0.1c0.1,0,0.2,0.1,0.2,0.2l0.1,0.9c0.2-0.3,1.1-1.3,2.8-1.3
			c1.3,0,2,0.5,2.6,1.5c0.3-0.3,1.2-1.5,2.9-1.5c2.3,0,3,1.5,3,3.7v4.6c0,0.1-0.1,0.3-0.3,0.3h-0.3c-0.1,0-0.2-0.1-0.2-0.3v-4.6
			c0-1.9-0.7-2.9-2.3-2.9c-1.5,0-2.3,1.1-2.6,1.5c0.1,0.4,0.2,0.9,0.2,1.4v4.6c0,0.1-0.1,0.3-0.3,0.3h-0.3c-0.2,0-0.3-0.1-0.3-0.3
			v-4.6c0-1.9-0.7-2.9-2.3-2.9c-1.7,0-2.5,1.2-2.6,1.4v6c0,0.2-0.1,0.3-0.3,0.3h-0.3c-0.2,0-0.2-0.1-0.2-0.3V168.6z"/>
		<path class="st0" d="M200.1,171.2c1,0,1.9,0.3,2.1,0.4c0-1.8-0.2-2.8-1.9-2.8c-1.4,0-2.3,0.5-2.5,0.6c-0.2,0.1-0.3,0-0.3-0.1
			l-0.1-0.3c-0.1-0.2,0-0.3,0.1-0.3c0.1,0,1.1-0.6,2.9-0.6c2.5,0,2.6,1.5,2.6,3.6v4.6c0,0.1-0.1,0.3-0.3,0.3h-0.1
			c-0.1,0-0.2-0.1-0.3-0.2l-0.1-0.8c-0.5,0.5-1.6,1.2-2.9,1.2c-1.5,0-2.7-1-2.7-2.8C196.6,172.5,197.9,171.2,200.1,171.2z
			 M199.4,176c1.3,0,2.4-0.8,2.8-1.3v-2.4c-0.3-0.1-1.2-0.4-2.1-0.4c-1.6,0-2.7,0.9-2.7,2.1C197.4,175.2,198.2,176,199.4,176z"/>
		<path class="st0" d="M205.9,168.6c0-0.1,0.1-0.3,0.3-0.3h0.1c0.2,0,0.2,0.1,0.3,0.2l0.1,0.9c0.3-0.3,1.3-1.3,2.9-1.3
			c2.4,0,3.1,1.5,3.1,3.6v4.6c0,0.1-0.1,0.3-0.3,0.3h-0.3c-0.1,0-0.3-0.1-0.3-0.3v-4.6c0-1.9-0.8-2.9-2.4-2.9
			c-1.7,0-2.8,1.3-2.8,1.4v6c0,0.2-0.1,0.3-0.3,0.3h-0.3c-0.2,0-0.2-0.1-0.2-0.3V168.6z"/>
		<path class="st0" d="M220.4,169.1h-1c-0.2,0-0.3-0.1-0.3-0.3v-0.3c0-0.2,0.1-0.2,0.3-0.2h1V166c0-0.2,0.1-0.3,0.3-0.3l0.2,0
			c0.1,0,0.3,0.1,0.3,0.3v2.3h2.9c0.2,0,0.3,0.1,0.3,0.3v0.2c0,0.2-0.1,0.3-0.3,0.3h-2.9v5.4c0,1.1,0.2,1.5,1.1,1.5
			c0.9,0,1.7-0.5,1.9-0.7c0.2-0.1,0.3,0,0.3,0.1l0.1,0.3c0.1,0.1,0,0.2-0.1,0.3c-0.3,0.2-1.3,0.8-2.4,0.8c-1.5,0-1.8-1-1.8-2.2
			V169.1z"/>
		<path class="st0" d="M226.2,165.3c0-0.4,0.3-0.7,0.7-0.7s0.7,0.3,0.7,0.7c0,0.4-0.3,0.7-0.7,0.7S226.2,165.7,226.2,165.3z
			 M226.5,168.6c0-0.1,0.1-0.3,0.3-0.3h0.3c0.1,0,0.3,0.1,0.3,0.3v7.8c0,0.2-0.1,0.3-0.3,0.3h-0.3c-0.2,0-0.2-0.1-0.2-0.3V168.6z"/>
		<path class="st0" d="M233.8,168.1c2.2,0,3.7,1.7,3.7,3.8c0,0.3,0,0.8-0.3,0.8h-6.6c0,1.9,1.4,3.3,3.2,3.3c1.2,0,2.1-0.5,2.6-0.8
			c0.2-0.1,0.3-0.1,0.4,0l0.2,0.3c0.1,0.1,0.1,0.2-0.1,0.3c-0.5,0.4-1.7,1-3,1c-2.4,0-4-1.9-4-4.4
			C229.8,170.1,231.3,168.1,233.8,168.1z M236.7,172c0-1.6-1.1-3.1-2.9-3.1c-1.8,0-3.1,1.4-3.2,3.1H236.7z"/>
		<path class="st0" d="M239.9,168.6c0-0.1,0.1-0.3,0.3-0.3h0.1c0.1,0,0.2,0.1,0.2,0.2l0.1,0.9c0.2-0.3,1.1-1.3,2.8-1.3
			c1.3,0,2,0.5,2.6,1.5c0.3-0.3,1.2-1.5,2.9-1.5c2.3,0,3,1.5,3,3.7v4.6c0,0.1-0.1,0.3-0.3,0.3h-0.3c-0.1,0-0.2-0.1-0.2-0.3v-4.6
			c0-1.9-0.7-2.9-2.3-2.9c-1.5,0-2.3,1.1-2.6,1.5c0.1,0.4,0.2,0.9,0.2,1.4v4.6c0,0.1-0.1,0.3-0.3,0.3h-0.3c-0.2,0-0.3-0.1-0.3-0.3
			v-4.6c0-1.9-0.7-2.9-2.3-2.9c-1.7,0-2.5,1.2-2.6,1.4v6c0,0.2-0.1,0.3-0.3,0.3h-0.3c-0.2,0-0.2-0.1-0.2-0.3V168.6z"/>
		<path class="st0" d="M255.6,180.6c0,0.1-0.2,0.3-0.3,0.3H255c-0.2,0-0.3-0.1-0.3-0.3v-12.1c0-0.2,0.1-0.3,0.3-0.3h0.1
			c0.1,0,0.2,0.1,0.2,0.2l0.1,0.6c0.3-0.2,1.3-1,2.8-1c2.3,0,3.9,1.9,3.9,4.3c0,2.4-1.7,4.4-4.1,4.4c-1.4,0-2.3-0.7-2.5-0.9V180.6z
			 M258.1,176c2,0,3.4-1.6,3.4-3.6c0-1.9-1.3-3.5-3.2-3.5c-1.6,0-2.6,1-2.7,1.1v5C255.7,175.1,256.7,176,258.1,176z"/>
		<path class="st0" d="M268.3,168.1c2.3,0,4.2,2,4.2,4.3c0,2.4-1.9,4.4-4.2,4.4c-2.4,0-4.2-1.9-4.2-4.4
			C264.1,170.1,265.9,168.1,268.3,168.1z M268.3,176c1.9,0,3.3-1.6,3.3-3.6c0-1.9-1.5-3.5-3.3-3.5c-1.9,0-3.4,1.6-3.4,3.5
			C264.9,174.4,266.4,176,268.3,176z"/>
		<path class="st0" d="M275.3,175.3c0.4,0,0.8,0.3,0.8,0.8c0,0.4-0.3,0.8-0.8,0.8c-0.4,0-0.8-0.3-0.8-0.8
			C274.6,175.6,274.9,175.3,275.3,175.3z"/>
		<path class="st0" d="M279.2,175.3c0.4,0,0.8,0.3,0.8,0.8c0,0.4-0.3,0.8-0.8,0.8c-0.4,0-0.8-0.3-0.8-0.8
			C278.4,175.6,278.8,175.3,279.2,175.3z"/>
		<path class="st0" d="M283.1,175.3c0.4,0,0.8,0.3,0.8,0.8c0,0.4-0.3,0.8-0.8,0.8c-0.4,0-0.8-0.3-0.8-0.8
			C282.3,175.6,282.6,175.3,283.1,175.3z"/>
	</g>
</g>
<g>
	<path class="st0" d="M54.6,216.7c0-0.1,0.1-0.1,0.1-0.1h4.6c0.1,0,0.1,0.1,0.1,0.1v0.2c0,0.1-0.1,0.1-0.1,0.1h-4.2v3.2h3.6
		c0.1,0,0.1,0.1,0.1,0.2v0.2c0,0.1-0.1,0.1-0.1,0.1h-3.6v3.4h4.2c0.1,0,0.1,0.1,0.1,0.1v0.2c0,0.1-0.1,0.1-0.1,0.1h-4.6
		c-0.1,0-0.1-0.1-0.1-0.1V216.7z"/>
	<path class="st0" d="M60.7,224l0.1-0.2c0-0.1,0.1-0.1,0.2,0c0.1,0.1,0.7,0.5,1.5,0.5c0.8,0,1.3-0.4,1.3-1c0-0.6-0.6-0.9-1.5-1.2
		c-0.9-0.3-1.6-0.7-1.6-1.5c0-0.6,0.5-1.4,1.7-1.4c0.7,0,1.2,0.2,1.5,0.4c0.1,0.1,0.1,0.1,0.1,0.2l-0.1,0.1c0,0.1-0.1,0.1-0.2,0
		c-0.1-0.1-0.7-0.3-1.3-0.3c-0.8,0-1.2,0.5-1.2,0.9c0,0.5,0.5,0.8,1.3,1.1c1,0.4,1.8,0.7,1.8,1.7c0,0.8-0.8,1.4-1.8,1.4
		c-0.9,0-1.5-0.4-1.7-0.6C60.7,224.1,60.7,224.1,60.7,224z"/>
	<path class="st0" d="M66.1,219.8h-0.6c-0.1,0-0.2-0.1-0.2-0.2v-0.2c0-0.1,0.1-0.1,0.2-0.1h0.6v-1.4c0-0.1,0.1-0.2,0.2-0.2l0.1,0
		c0.1,0,0.2,0.1,0.2,0.2v1.5h1.9c0.1,0,0.2,0.1,0.2,0.2v0.1c0,0.1-0.1,0.2-0.2,0.2h-1.9v3.5c0,0.7,0.1,1,0.7,1
		c0.6,0,1.1-0.3,1.2-0.4c0.1-0.1,0.2,0,0.2,0l0.1,0.2c0,0.1,0,0.1,0,0.2c-0.2,0.1-0.8,0.5-1.5,0.5c-1,0-1.2-0.7-1.2-1.4V219.8z"/>
	<path class="st0" d="M71.7,221.2c0.6,0,1.2,0.2,1.4,0.2c0-1.2-0.1-1.8-1.2-1.8c-0.9,0-1.5,0.3-1.6,0.4c-0.1,0-0.2,0-0.2-0.1
		l-0.1-0.2c-0.1-0.1,0-0.2,0.1-0.2c0,0,0.7-0.4,1.8-0.4c1.6,0,1.7,0.9,1.7,2.3v2.9c0,0.1-0.1,0.2-0.2,0.2h-0.1c-0.1,0-0.1,0-0.2-0.1
		l-0.1-0.5c-0.3,0.3-1,0.8-1.9,0.8c-1,0-1.7-0.7-1.7-1.8C69.5,222,70.3,221.2,71.7,221.2z M71.3,224.3c0.8,0,1.5-0.5,1.8-0.8v-1.5
		c-0.2-0.1-0.7-0.3-1.4-0.3c-1,0-1.7,0.6-1.7,1.3C70,223.7,70.6,224.3,71.3,224.3z"/>
	<path class="st0" d="M75.5,219.5c0-0.1,0.1-0.2,0.2-0.2h0.1c0.1,0,0.1,0,0.1,0.1L76,220c0.1-0.2,0.7-0.8,1.8-0.8
		c0.8,0,1.3,0.3,1.6,0.9c0.2-0.2,0.8-0.9,1.9-0.9c1.4,0,1.9,1,1.9,2.3v2.9c0,0.1-0.1,0.2-0.2,0.2h-0.2c-0.1,0-0.1-0.1-0.1-0.2v-2.9
		c0-1.2-0.5-1.9-1.5-1.9c-1,0-1.5,0.7-1.6,0.9c0.1,0.3,0.1,0.6,0.1,0.9v2.9c0,0.1-0.1,0.2-0.2,0.2h-0.2c-0.1,0-0.2-0.1-0.2-0.2v-2.9
		c0-1.2-0.5-1.9-1.5-1.9c-1.1,0-1.6,0.8-1.7,0.9v3.9c0,0.1-0.1,0.2-0.2,0.2h-0.2c-0.1,0-0.1-0.1-0.1-0.2V219.5z"/>
	<path class="st0" d="M87.3,219.2c1.5,0,2.7,1.3,2.7,2.8c0,1.6-1.2,2.8-2.7,2.8c-1.5,0-2.7-1.2-2.7-2.8
		C84.6,220.5,85.8,219.2,87.3,219.2z M87.3,224.3c1.2,0,2.1-1,2.1-2.3c0-1.2-0.9-2.3-2.1-2.3c-1.2,0-2.2,1-2.2,2.3
		C85.2,223.2,86.1,224.3,87.3,224.3z"/>
	<path class="st0" d="M91.2,224l0.1-0.2c0-0.1,0.1-0.1,0.2,0c0.1,0.1,0.7,0.5,1.5,0.5c0.8,0,1.3-0.4,1.3-1c0-0.6-0.6-0.9-1.5-1.2
		c-0.9-0.3-1.6-0.7-1.6-1.5c0-0.6,0.5-1.4,1.7-1.4c0.7,0,1.2,0.2,1.5,0.4c0.1,0.1,0.1,0.1,0.1,0.2l-0.1,0.1c0,0.1-0.1,0.1-0.2,0
		c-0.1-0.1-0.7-0.3-1.3-0.3c-0.8,0-1.2,0.5-1.2,0.9c0,0.5,0.5,0.8,1.3,1.1c1,0.4,1.8,0.7,1.8,1.7c0,0.8-0.8,1.4-1.8,1.4
		c-0.9,0-1.5-0.4-1.7-0.6C91.2,224.1,91.2,224.1,91.2,224z"/>
	<path class="st0" d="M101.5,219.2c1,0,1.7,0.5,2,0.8c0.1,0.1,0.1,0.2,0,0.2l-0.1,0.1c-0.1,0.1-0.2,0.1-0.3,0
		c-0.1-0.1-0.7-0.6-1.6-0.6c-1.2,0-2.2,1-2.2,2.3c0,1.3,1,2.3,2.3,2.3c1,0,1.5-0.7,1.7-0.8c0.1-0.1,0.2-0.1,0.3,0l0.1,0.1
		c0.1,0.1,0.1,0.1,0,0.2c-0.2,0.3-1,1-2.1,1c-1.5,0-2.7-1.2-2.7-2.8C98.7,220.4,99.9,219.2,101.5,219.2z"/>
	<path class="st0" d="M106.8,221.2c0.6,0,1.2,0.2,1.4,0.2c0-1.2-0.1-1.8-1.2-1.8c-0.9,0-1.5,0.3-1.6,0.4c-0.1,0-0.2,0-0.2-0.1
		l-0.1-0.2c-0.1-0.1,0-0.2,0.1-0.2c0,0,0.7-0.4,1.8-0.4c1.6,0,1.7,0.9,1.7,2.3v2.9c0,0.1-0.1,0.2-0.2,0.2h-0.1c-0.1,0-0.1,0-0.2-0.1
		l-0.1-0.5c-0.3,0.3-1,0.8-1.9,0.8c-1,0-1.7-0.7-1.7-1.8C104.6,222,105.4,221.2,106.8,221.2z M106.3,224.3c0.8,0,1.5-0.5,1.8-0.8
		v-1.5c-0.2-0.1-0.7-0.3-1.4-0.3c-1,0-1.7,0.6-1.7,1.3C105,223.7,105.6,224.3,106.3,224.3z"/>
	<path class="st0" d="M110.5,219.5c0-0.1,0.1-0.2,0.2-0.2h0.1c0.1,0,0.1,0,0.1,0.1l0.1,0.5c0.1-0.2,0.7-0.8,1.7-0.8
		c0.4,0,0.7,0.1,0.8,0.1c0.1,0,0.2,0.1,0.1,0.2l-0.1,0.2c0,0.1-0.1,0.1-0.2,0.1c-0.1,0-0.3-0.2-0.7-0.2c-1,0-1.6,0.8-1.6,0.9v3.9
		c0,0.1-0.1,0.2-0.2,0.2h-0.2c-0.1,0-0.1-0.1-0.1-0.2V219.5z"/>
	<path class="st0" d="M118.7,224.2c-0.1,0.1-0.7,0.6-1.6,0.6c-1.5,0-2.6-1.2-2.6-2.8c0-1.6,1-2.8,2.5-2.8c1,0,1.6,0.5,1.8,0.6l0-0.4
		c0-0.1,0.1-0.1,0.1-0.1h0.1c0.1,0,0.2,0.1,0.2,0.2v5.3c0,1.5-1,2.4-2.4,2.4c-0.9,0-1.6-0.5-1.8-0.7c-0.1-0.1-0.1-0.1,0-0.2l0.1-0.1
		c0.1-0.1,0.1-0.1,0.2,0c0.2,0.2,0.8,0.5,1.5,0.5c1,0,1.9-0.6,1.9-1.9V224.2z M118.7,220.4c-0.1-0.1-0.7-0.7-1.7-0.7
		c-1.2,0-2,1-2,2.3c0,1.3,0.9,2.3,2.2,2.3c0.9,0,1.5-0.6,1.6-0.6V220.4z"/>
	<path class="st0" d="M122.9,221.2c0.6,0,1.2,0.2,1.4,0.2c0-1.2-0.1-1.8-1.2-1.8c-0.9,0-1.5,0.3-1.6,0.4c-0.1,0-0.2,0-0.2-0.1
		l-0.1-0.2c-0.1-0.1,0-0.2,0.1-0.2c0,0,0.7-0.4,1.8-0.4c1.6,0,1.7,0.9,1.7,2.3v2.9c0,0.1-0.1,0.2-0.2,0.2h-0.1c-0.1,0-0.1,0-0.2-0.1
		l-0.1-0.5c-0.3,0.3-1,0.8-1.9,0.8c-1,0-1.7-0.7-1.7-1.8C120.7,222,121.5,221.2,122.9,221.2z M122.5,224.3c0.8,0,1.5-0.5,1.8-0.8
		v-1.5c-0.2-0.1-0.7-0.3-1.4-0.3c-1,0-1.7,0.6-1.7,1.3C121.2,223.7,121.7,224.3,122.5,224.3z"/>
	<path class="st0" d="M126.7,219.5c0-0.1,0.1-0.2,0.2-0.2h0.1c0.1,0,0.1,0,0.2,0.1l0.1,0.6c0.2-0.2,0.8-0.8,1.9-0.8
		c1.5,0,2,0.9,2,2.3v2.9c0,0.1-0.1,0.2-0.2,0.2h-0.2c-0.1,0-0.2-0.1-0.2-0.2v-2.9c0-1.2-0.5-1.9-1.5-1.9c-1.1,0-1.8,0.8-1.8,0.9v3.9
		c0,0.1-0.1,0.2-0.2,0.2h-0.2c-0.1,0-0.1-0.1-0.1-0.2V219.5z"/>
	<path class="st0" d="M135.1,219.2c1,0,1.7,0.5,1.7,0.5v-3c0-0.1,0.1-0.2,0.2-0.2h0.2c0.1,0,0.2,0.1,0.2,0.2v7.7
		c0,0.1-0.1,0.2-0.2,0.2H137c-0.1,0-0.2,0-0.2-0.2l0-0.5c-0.1,0.2-0.8,0.8-1.9,0.8c-1.4,0-2.4-1.2-2.4-2.8
		C132.5,220.4,133.6,219.2,135.1,219.2z M135,224.3c1.2,0,1.8-0.8,1.8-0.9v-3.1c0,0-0.6-0.6-1.6-0.6c-1.2,0-2.1,1-2.1,2.3
		C133,223.2,133.9,224.3,135,224.3z"/>
	<path class="st0" d="M141.5,219.2c1.5,0,2.7,1.3,2.7,2.8c0,1.6-1.2,2.8-2.7,2.8c-1.5,0-2.7-1.2-2.7-2.8
		C138.8,220.5,140,219.2,141.5,219.2z M141.5,224.3c1.2,0,2.1-1,2.1-2.3c0-1.2-0.9-2.3-2.1-2.3c-1.2,0-2.2,1-2.2,2.3
		C139.3,223.2,140.3,224.3,141.5,224.3z"/>
	<path class="st0" d="M148.6,216.7c0-0.1,0.1-0.2,0.2-0.2h0.2c0.1,0,0.2,0.1,0.2,0.2v7.7c0,0.1-0.1,0.2-0.2,0.2h-0.2
		c-0.1,0-0.1-0.1-0.1-0.2V216.7z"/>
	<path class="st0" d="M152.8,221.2c0.6,0,1.2,0.2,1.4,0.2c0-1.2-0.1-1.8-1.2-1.8c-0.9,0-1.5,0.3-1.6,0.4c-0.1,0-0.2,0-0.2-0.1
		l-0.1-0.2c-0.1-0.1,0-0.2,0.1-0.2c0,0,0.7-0.4,1.8-0.4c1.6,0,1.7,0.9,1.7,2.3v2.9c0,0.1-0.1,0.2-0.2,0.2h-0.1c-0.1,0-0.1,0-0.2-0.1
		l-0.1-0.5c-0.3,0.3-1,0.8-1.9,0.8c-1,0-1.7-0.7-1.7-1.8C150.6,222,151.4,221.2,152.8,221.2z M152.4,224.3c0.8,0,1.5-0.5,1.8-0.8
		v-1.5c-0.2-0.1-0.7-0.3-1.4-0.3c-1,0-1.7,0.6-1.7,1.3C151.1,223.7,151.7,224.3,152.4,224.3z"/>
	<path class="st0" d="M159.1,217.4c0-0.3,0.2-0.4,0.5-0.4s0.4,0.2,0.4,0.4c0,0.2-0.2,0.4-0.4,0.4S159.1,217.6,159.1,217.4z
		 M159.3,219.5c0-0.1,0.1-0.2,0.2-0.2h0.2c0.1,0,0.2,0.1,0.2,0.2v5c0,0.1-0.1,0.2-0.2,0.2h-0.2c-0.1,0-0.1-0.1-0.1-0.2V219.5z"/>
	<path class="st0" d="M161.8,219.5c0-0.1,0.1-0.2,0.2-0.2h0.1c0.1,0,0.1,0,0.1,0.1l0.1,0.6c0.1-0.2,0.7-0.8,1.8-0.8
		c0.8,0,1.3,0.3,1.6,0.9c0.2-0.2,0.8-0.9,1.9-0.9c1.4,0,1.9,1,1.9,2.3v2.9c0,0.1-0.1,0.2-0.2,0.2h-0.2c-0.1,0-0.1-0.1-0.1-0.2v-2.9
		c0-1.2-0.5-1.9-1.5-1.9c-1,0-1.5,0.7-1.6,0.9c0.1,0.3,0.1,0.6,0.1,0.9v2.9c0,0.1-0.1,0.2-0.2,0.2h-0.2c-0.1,0-0.2-0.1-0.2-0.2v-2.9
		c0-1.2-0.5-1.9-1.5-1.9c-1.1,0-1.6,0.8-1.7,0.9v3.9c0,0.1-0.1,0.2-0.2,0.2h-0.2c-0.1,0-0.1-0.1-0.1-0.2V219.5z"/>
	<path class="st0" d="M173,221.2c0.6,0,1.2,0.2,1.4,0.2c0-1.2-0.1-1.8-1.2-1.8c-0.9,0-1.5,0.3-1.6,0.4c-0.1,0-0.2,0-0.2-0.1
		l-0.1-0.2c-0.1-0.1,0-0.2,0.1-0.2c0,0,0.7-0.4,1.8-0.4c1.6,0,1.7,0.9,1.7,2.3v2.9c0,0.1-0.1,0.2-0.2,0.2h-0.1c-0.1,0-0.1,0-0.2-0.1
		l-0.1-0.5c-0.3,0.3-1,0.8-1.9,0.8c-1,0-1.7-0.7-1.7-1.8C170.8,222,171.7,221.2,173,221.2z M172.6,224.3c0.8,0,1.5-0.5,1.8-0.8v-1.5
		c-0.2-0.1-0.7-0.3-1.4-0.3c-1,0-1.7,0.6-1.7,1.3C171.3,223.7,171.9,224.3,172.6,224.3z"/>
	<path class="st0" d="M180.7,224.2c-0.1,0.1-0.7,0.6-1.6,0.6c-1.5,0-2.6-1.2-2.6-2.8c0-1.6,1-2.8,2.5-2.8c1,0,1.6,0.5,1.8,0.6l0-0.4
		c0-0.1,0.1-0.1,0.2-0.1h0.1c0.1,0,0.2,0.1,0.2,0.2v5.3c0,1.5-1,2.4-2.4,2.4c-0.9,0-1.6-0.5-1.8-0.7c-0.1-0.1-0.1-0.1,0-0.2l0.1-0.1
		c0.1-0.1,0.1-0.1,0.2,0c0.2,0.2,0.8,0.5,1.5,0.5c1,0,1.9-0.6,1.9-1.9V224.2z M180.7,220.4c-0.1-0.1-0.7-0.7-1.7-0.7
		c-1.2,0-2,1-2,2.3c0,1.3,0.9,2.3,2.2,2.3c0.9,0,1.5-0.6,1.6-0.6V220.4z"/>
	<path class="st0" d="M182.9,217.4c0-0.3,0.2-0.4,0.5-0.4s0.4,0.2,0.4,0.4c0,0.2-0.2,0.4-0.4,0.4S182.9,217.6,182.9,217.4z
		 M183.1,219.5c0-0.1,0.1-0.2,0.2-0.2h0.2c0.1,0,0.2,0.1,0.2,0.2v5c0,0.1-0.1,0.2-0.2,0.2h-0.2c-0.1,0-0.1-0.1-0.1-0.2V219.5z"/>
	<path class="st0" d="M185.6,219.5c0-0.1,0.1-0.2,0.2-0.2h0.1c0.1,0,0.1,0,0.2,0.1l0.1,0.6c0.2-0.2,0.8-0.8,1.9-0.8
		c1.5,0,2,0.9,2,2.3v2.9c0,0.1-0.1,0.2-0.2,0.2h-0.2c-0.1,0-0.2-0.1-0.2-0.2v-2.9c0-1.2-0.5-1.9-1.5-1.9c-1.1,0-1.8,0.8-1.8,0.9v3.9
		c0,0.1-0.1,0.2-0.2,0.2h-0.2c-0.1,0-0.1-0.1-0.1-0.2V219.5z"/>
	<path class="st0" d="M193.5,221.2c0.6,0,1.2,0.2,1.4,0.2c0-1.2-0.1-1.8-1.2-1.8c-0.9,0-1.5,0.3-1.6,0.4c-0.1,0-0.2,0-0.2-0.1
		l-0.1-0.2c-0.1-0.1,0-0.2,0.1-0.2c0,0,0.7-0.4,1.8-0.4c1.6,0,1.7,0.9,1.7,2.3v2.9c0,0.1-0.1,0.2-0.2,0.2h-0.1c-0.1,0-0.1,0-0.2-0.1
		l-0.1-0.5c-0.3,0.3-1,0.8-1.9,0.8c-1,0-1.7-0.7-1.7-1.8C191.3,222,192.2,221.2,193.5,221.2z M193.1,224.3c0.8,0,1.5-0.5,1.8-0.8
		v-1.5c-0.2-0.1-0.7-0.3-1.4-0.3c-1,0-1.7,0.6-1.7,1.3C191.8,223.7,192.4,224.3,193.1,224.3z"/>
	<path class="st0" d="M199.7,219.2c1,0,1.7,0.5,2,0.8c0.1,0.1,0.1,0.2,0,0.2l-0.1,0.1c-0.1,0.1-0.2,0.1-0.3,0
		c-0.1-0.1-0.7-0.6-1.6-0.6c-1.2,0-2.2,1-2.2,2.3c0,1.3,1,2.3,2.3,2.3c1,0,1.5-0.7,1.7-0.8c0.1-0.1,0.2-0.1,0.3,0l0.1,0.1
		c0.1,0.1,0.1,0.1,0,0.2c-0.2,0.3-1,1-2.1,1c-1.5,0-2.7-1.2-2.7-2.8C196.9,220.4,198.2,219.2,199.7,219.2z"/>
	<path class="st0" d="M203,217.4c0-0.3,0.2-0.4,0.5-0.4s0.4,0.2,0.4,0.4c0,0.2-0.2,0.4-0.4,0.4S203,217.6,203,217.4z M203.2,219.5
		c0-0.1,0.1-0.2,0.2-0.2h0.2c0.1,0,0.2,0.1,0.2,0.2v5c0,0.1-0.1,0.2-0.2,0.2h-0.2c-0.1,0-0.1-0.1-0.1-0.2V219.5z"/>
	<path class="st0" d="M208,219.2c1.5,0,2.7,1.3,2.7,2.8c0,1.6-1.2,2.8-2.7,2.8c-1.5,0-2.7-1.2-2.7-2.8
		C205.3,220.5,206.5,219.2,208,219.2z M208,224.3c1.2,0,2.1-1,2.1-2.3c0-1.2-0.9-2.3-2.1-2.3c-1.2,0-2.2,1-2.2,2.3
		C205.8,223.2,206.8,224.3,208,224.3z M206.9,218.2l-0.1-0.1c0-0.1,0-0.1,0.1-0.2l1.9-1c0.1,0,0.1,0,0.2,0l0.1,0.2
		c0,0.1,0,0.2-0.1,0.2l-1.9,0.9C207,218.3,207,218.2,206.9,218.2z"/>
	<path class="st0" d="M212.2,219.5c0-0.1,0.1-0.2,0.2-0.2h0.1c0.1,0,0.1,0,0.2,0.1l0.1,0.6c0.2-0.2,0.8-0.8,1.9-0.8
		c1.5,0,2,0.9,2,2.3v2.9c0,0.1-0.1,0.2-0.2,0.2h-0.2c-0.1,0-0.2-0.1-0.2-0.2v-2.9c0-1.2-0.5-1.9-1.5-1.9c-1.1,0-1.8,0.8-1.8,0.9v3.9
		c0,0.1-0.1,0.2-0.2,0.2h-0.2c-0.1,0-0.1-0.1-0.1-0.2V219.5z"/>
	<path class="st0" d="M218.7,223.8c0.4,0,0.7,0.6,0.7,1.1c0,0.7-0.3,1.3-0.7,1.6c-0.1,0.1-0.1,0.1-0.1,0l-0.1-0.1
		c-0.1-0.1,0-0.1,0-0.2c0.3-0.3,0.6-0.7,0.6-1.2c0-0.2,0-0.4-0.1-0.5c-0.1,0.1-0.2,0.1-0.3,0.1c-0.2,0-0.4-0.2-0.4-0.4
		C218.2,224,218.4,223.8,218.7,223.8z"/>
	<path class="st0" d="M226,219.2c1.4,0,2.4,1.1,2.4,2.4c0,0.2,0,0.5-0.2,0.5h-4.2c0,1.2,0.9,2.1,2.1,2.1c0.7,0,1.3-0.3,1.6-0.5
		c0.1-0.1,0.2-0.1,0.2,0l0.1,0.2c0,0,0,0.1-0.1,0.2c-0.3,0.3-1.1,0.6-1.9,0.6c-1.6,0-2.6-1.2-2.6-2.8
		C223.4,220.5,224.4,219.2,226,219.2z M227.9,221.7c0-1-0.7-2-1.9-2c-1.2,0-2,0.9-2,2H227.9z"/>
	<path class="st0" d="M229.9,216.7c0-0.1,0.1-0.2,0.2-0.2h0.2c0.1,0,0.2,0.1,0.2,0.2v7.7c0,0.1-0.1,0.2-0.2,0.2h-0.2
		c-0.1,0-0.1-0.1-0.1-0.2V216.7z"/>
	<path class="st0" d="M237.4,219.2c1,0,1.7,0.5,1.7,0.5v-3c0-0.1,0.1-0.2,0.2-0.2h0.2c0.1,0,0.2,0.1,0.2,0.2v7.7
		c0,0.1-0.1,0.2-0.2,0.2h-0.1c-0.1,0-0.2,0-0.2-0.2l0-0.5c-0.1,0.2-0.8,0.8-1.9,0.8c-1.4,0-2.4-1.2-2.4-2.8
		C234.8,220.4,235.9,219.2,237.4,219.2z M237.3,224.3c1.2,0,1.8-0.8,1.8-0.9v-3.1c0,0-0.6-0.6-1.6-0.6c-1.2,0-2.1,1-2.1,2.3
		C235.3,223.2,236.2,224.3,237.3,224.3z"/>
	<path class="st0" d="M241.3,217.4c0-0.3,0.2-0.4,0.5-0.4s0.4,0.2,0.4,0.4c0,0.2-0.2,0.4-0.4,0.4S241.3,217.6,241.3,217.4z
		 M241.5,219.5c0-0.1,0.1-0.2,0.2-0.2h0.2c0.1,0,0.2,0.1,0.2,0.2v5c0,0.1-0.1,0.2-0.2,0.2h-0.2c-0.1,0-0.1-0.1-0.1-0.2V219.5z"/>
	<path class="st0" d="M243.6,224l0.1-0.2c0-0.1,0.1-0.1,0.2,0c0.1,0.1,0.7,0.5,1.5,0.5c0.8,0,1.3-0.4,1.3-1c0-0.6-0.6-0.9-1.5-1.2
		c-0.9-0.3-1.6-0.7-1.6-1.5c0-0.6,0.5-1.4,1.7-1.4c0.7,0,1.2,0.2,1.5,0.4c0.1,0.1,0.1,0.1,0.1,0.2l-0.1,0.1c0,0.1-0.1,0.1-0.2,0
		c-0.1-0.1-0.7-0.3-1.3-0.3c-0.8,0-1.2,0.5-1.2,0.9c0,0.5,0.5,0.8,1.3,1.1c1,0.4,1.8,0.7,1.8,1.7c0,0.8-0.8,1.4-1.8,1.4
		c-0.9,0-1.5-0.4-1.7-0.6C243.6,224.1,243.6,224.1,243.6,224z"/>
	<path class="st0" d="M250.9,219.2c1.4,0,2.4,1.1,2.4,2.4c0,0.2,0,0.5-0.2,0.5h-4.2c0,1.2,0.9,2.1,2.1,2.1c0.7,0,1.3-0.3,1.6-0.5
		c0.1-0.1,0.2-0.1,0.2,0l0.1,0.2c0,0,0,0.1-0.1,0.2c-0.3,0.3-1.1,0.6-1.9,0.6c-1.6,0-2.6-1.2-2.6-2.8
		C248.4,220.5,249.4,219.2,250.9,219.2z M252.8,221.7c0-1-0.7-2-1.9-2c-1.2,0-2,0.9-2,2H252.8z"/>
	<path class="st0" d="M254.8,219.5c0-0.1,0.1-0.2,0.2-0.2h0.1c0.1,0,0.1,0,0.2,0.1l0.1,0.6c0.2-0.2,0.8-0.8,1.9-0.8
		c1.5,0,2,0.9,2,2.3v2.9c0,0.1-0.1,0.2-0.2,0.2h-0.2c-0.1,0-0.2-0.1-0.2-0.2v-2.9c0-1.2-0.5-1.9-1.5-1.9c-1.1,0-1.8,0.8-1.8,0.9v3.9
		c0,0.1-0.1,0.2-0.2,0.2h-0.2c-0.1,0-0.1-0.1-0.1-0.2V219.5z M255.4,217.9c-0.1,0-0.1-0.1-0.1-0.2c0.1-0.2,0.3-1,1.1-1
		c0.8,0,0.7,1,1.3,1c0.4,0,0.6-0.5,0.7-0.7c0-0.1,0.1-0.1,0.2-0.1l0.1,0c0,0,0.1,0.1,0.1,0.1c0,0.1-0.3,1-1.1,1
		c-0.8,0-0.8-1.1-1.3-1.1c-0.4,0-0.6,0.5-0.7,0.7c0,0.1-0.1,0.1-0.2,0.1L255.4,217.9z"/>
	<path class="st0" d="M263.3,219.2c1.5,0,2.7,1.3,2.7,2.8c0,1.6-1.2,2.8-2.7,2.8c-1.5,0-2.7-1.2-2.7-2.8
		C260.6,220.5,261.8,219.2,263.3,219.2z M263.3,224.3c1.2,0,2.1-1,2.1-2.3c0-1.2-0.9-2.3-2.1-2.3c-1.2,0-2.2,1-2.2,2.3
		C261.1,223.2,262.1,224.3,263.3,224.3z"/>
	<path class="st0" d="M50.3,235.5c0-0.1,0-0.2,0.1-0.2h0.2c0.1,0,0.1,0,0.2,0.1l1.9,4.6h0l2-4.6c0-0.1,0.1-0.1,0.2-0.1h0.3
		c0.1,0,0.1,0.1,0.1,0.2l-3.3,7.7c0,0.1-0.1,0.1-0.2,0.1h-0.3c-0.1,0-0.2-0.1-0.1-0.2l1.1-2.6L50.3,235.5z"/>
	<path class="st0" d="M59.3,232.7c0-0.1,0.1-0.2,0.2-0.2h0.2c0.1,0,0.2,0.1,0.2,0.2v7.7c0,0.1-0.1,0.2-0.2,0.2h-0.2
		c-0.1,0-0.1-0.1-0.1-0.2V232.7z"/>
	<path class="st0" d="M64.1,235.2c1.5,0,2.7,1.3,2.7,2.8c0,1.6-1.2,2.8-2.7,2.8c-1.5,0-2.7-1.2-2.7-2.8
		C61.4,236.5,62.6,235.2,64.1,235.2z M64.1,240.3c1.2,0,2.1-1,2.1-2.3c0-1.2-0.9-2.3-2.1-2.3c-1.2,0-2.2,1-2.2,2.3
		C61.9,239.2,62.9,240.3,64.1,240.3z"/>
	<path class="st0" d="M68,240l0.1-0.2c0-0.1,0.1-0.1,0.2,0c0.1,0.1,0.7,0.5,1.5,0.5c0.8,0,1.3-0.4,1.3-1c0-0.6-0.6-0.9-1.5-1.2
		c-0.9-0.3-1.6-0.7-1.6-1.5c0-0.6,0.5-1.4,1.7-1.4c0.7,0,1.2,0.2,1.5,0.4c0.1,0.1,0.1,0.1,0.1,0.2l-0.1,0.1c0,0.1-0.1,0.1-0.2,0
		c-0.1-0.1-0.7-0.3-1.3-0.3c-0.8,0-1.2,0.5-1.2,0.9c0,0.5,0.5,0.8,1.3,1.1c1,0.4,1.8,0.7,1.8,1.7c0,0.8-0.8,1.4-1.8,1.4
		c-0.9,0-1.5-0.4-1.7-0.6C68,240.1,68,240.1,68,240z"/>
	<path class="st0" d="M78.2,235.2c1,0,1.7,0.5,2,0.8c0.1,0.1,0.1,0.2,0,0.2l-0.1,0.1c-0.1,0.1-0.2,0.1-0.3,0
		c-0.1-0.1-0.7-0.6-1.6-0.6c-1.2,0-2.2,1-2.2,2.3c0,1.3,1,2.3,2.3,2.3c1,0,1.5-0.7,1.7-0.8c0.1-0.1,0.2-0.1,0.3,0l0.1,0.1
		c0.1,0.1,0.1,0.1,0,0.2c-0.2,0.3-1,1-2.1,1c-1.5,0-2.7-1.2-2.7-2.8C75.5,236.4,76.7,235.2,78.2,235.2z"/>
	<path class="st0" d="M84.1,235.2c1.5,0,2.7,1.3,2.7,2.8c0,1.6-1.2,2.8-2.7,2.8c-1.5,0-2.7-1.2-2.7-2.8
		C81.4,236.5,82.6,235.2,84.1,235.2z M84.1,240.3c1.2,0,2.1-1,2.1-2.3c0-1.2-0.9-2.3-2.1-2.3c-1.2,0-2.2,1-2.2,2.3
		C81.9,239.2,82.9,240.3,84.1,240.3z"/>
	<path class="st0" d="M88.4,232.7c0-0.1,0.1-0.2,0.2-0.2h0.2c0.1,0,0.2,0.1,0.2,0.2v7.7c0,0.1-0.1,0.2-0.2,0.2h-0.2
		c-0.1,0-0.1-0.1-0.1-0.2V232.7z"/>
	<path class="st0" d="M93.2,235.2c1.5,0,2.7,1.3,2.7,2.8c0,1.6-1.2,2.8-2.7,2.8c-1.5,0-2.7-1.2-2.7-2.8
		C90.5,236.5,91.7,235.2,93.2,235.2z M93.2,240.3c1.2,0,2.1-1,2.1-2.3c0-1.2-0.9-2.3-2.1-2.3c-1.2,0-2.2,1-2.2,2.3
		C91.1,239.2,92,240.3,93.2,240.3z"/>
	<path class="st0" d="M97.5,235.5c0-0.1,0.1-0.2,0.2-0.2h0.1c0.1,0,0.1,0,0.1,0.1l0.1,0.5c0.1-0.2,0.7-0.8,1.7-0.8
		c0.4,0,0.7,0.1,0.8,0.1c0.1,0,0.2,0.1,0.1,0.2l-0.1,0.2c0,0.1-0.1,0.1-0.2,0.1c-0.1,0-0.3-0.2-0.7-0.2c-1,0-1.6,0.8-1.6,0.9v3.9
		c0,0.1-0.1,0.2-0.2,0.2h-0.2c-0.1,0-0.1-0.1-0.1-0.2V235.5z"/>
	<path class="st0" d="M104,235.2c1.4,0,2.4,1.1,2.4,2.4c0,0.2,0,0.5-0.2,0.5h-4.2c0,1.2,0.9,2.1,2.1,2.1c0.7,0,1.3-0.3,1.6-0.5
		c0.1-0.1,0.2-0.1,0.2,0l0.1,0.2c0,0,0,0.1-0.1,0.2c-0.3,0.3-1.1,0.6-1.9,0.6c-1.6,0-2.6-1.2-2.6-2.8
		C101.4,236.5,102.4,235.2,104,235.2z M105.8,237.7c0-1-0.7-2-1.9-2c-1.2,0-2,0.9-2,2H105.8z"/>
	<path class="st0" d="M107.5,240l0.1-0.2c0-0.1,0.1-0.1,0.2,0c0.1,0.1,0.7,0.5,1.5,0.5c0.8,0,1.3-0.4,1.3-1c0-0.6-0.6-0.9-1.5-1.2
		c-0.9-0.3-1.6-0.7-1.6-1.5c0-0.6,0.5-1.4,1.7-1.4c0.7,0,1.2,0.2,1.5,0.4c0.1,0.1,0.1,0.1,0.1,0.2l-0.1,0.1c0,0.1-0.1,0.1-0.2,0
		c-0.1-0.1-0.7-0.3-1.3-0.3c-0.8,0-1.2,0.5-1.2,0.9c0,0.5,0.5,0.8,1.3,1.1c1,0.4,1.8,0.7,1.8,1.7c0,0.8-0.8,1.4-1.8,1.4
		c-0.9,0-1.5-0.4-1.7-0.6C107.5,240.1,107.5,240.1,107.5,240z"/>
	<path class="st0" d="M115.9,243.2c0,0.1-0.1,0.2-0.2,0.2h-0.1c-0.1,0-0.2-0.1-0.2-0.2v-7.7c0-0.1,0.1-0.2,0.2-0.2h0.1
		c0.1,0,0.1,0,0.1,0.1l0,0.4c0.2-0.1,0.8-0.6,1.8-0.6c1.5,0,2.5,1.2,2.5,2.8c0,1.6-1.1,2.8-2.6,2.8c-0.9,0-1.5-0.4-1.6-0.6V243.2z
		 M117.5,240.3c1.3,0,2.2-1,2.2-2.3c0-1.2-0.8-2.3-2-2.3c-1,0-1.6,0.6-1.7,0.7v3.2C115.9,239.7,116.6,240.3,117.5,240.3z"/>
	<path class="st0" d="M123.4,237.2c0.6,0,1.2,0.2,1.4,0.2c0-1.2-0.1-1.8-1.2-1.8c-0.9,0-1.5,0.3-1.6,0.4c-0.1,0-0.2,0-0.2-0.1
		l-0.1-0.2c-0.1-0.1,0-0.2,0.1-0.2c0,0,0.7-0.4,1.8-0.4c1.6,0,1.7,0.9,1.7,2.3v2.9c0,0.1-0.1,0.2-0.2,0.2H125c-0.1,0-0.1,0-0.2-0.1
		l-0.1-0.5c-0.3,0.3-1,0.8-1.9,0.8c-1,0-1.7-0.7-1.7-1.8C121.2,238,122,237.2,123.4,237.2z M123,240.3c0.8,0,1.5-0.5,1.8-0.8v-1.5
		c-0.2-0.1-0.7-0.3-1.4-0.3c-1,0-1.7,0.6-1.7,1.3C121.7,239.7,122.3,240.3,123,240.3z"/>
	<path class="st0" d="M127.2,235.5c0-0.1,0.1-0.2,0.2-0.2h0.1c0.1,0,0.1,0,0.1,0.1l0.1,0.5c0.1-0.2,0.7-0.8,1.7-0.8
		c0.4,0,0.7,0.1,0.8,0.1c0.1,0,0.2,0.1,0.1,0.2l-0.1,0.2c0,0.1-0.1,0.1-0.2,0.1c-0.1,0-0.3-0.2-0.7-0.2c-1,0-1.6,0.8-1.6,0.9v3.9
		c0,0.1-0.1,0.2-0.2,0.2h-0.2c-0.1,0-0.1-0.1-0.1-0.2V235.5z"/>
	<path class="st0" d="M133.2,237.2c0.6,0,1.2,0.2,1.4,0.2c0-1.2-0.1-1.8-1.2-1.8c-0.9,0-1.5,0.3-1.6,0.4c-0.1,0-0.2,0-0.2-0.1
		l-0.1-0.2c-0.1-0.1,0-0.2,0.1-0.2c0,0,0.7-0.4,1.8-0.4c1.6,0,1.7,0.9,1.7,2.3v2.9c0,0.1-0.1,0.2-0.2,0.2h-0.1c-0.1,0-0.1,0-0.2-0.1
		l-0.1-0.5c-0.3,0.3-1,0.8-1.9,0.8c-1,0-1.7-0.7-1.7-1.8C131,238,131.9,237.2,133.2,237.2z M132.8,240.3c0.8,0,1.5-0.5,1.8-0.8v-1.5
		c-0.2-0.1-0.7-0.3-1.4-0.3c-1,0-1.7,0.6-1.7,1.3C131.5,239.7,132.1,240.3,132.8,240.3z"/>
	<path class="st0" d="M139.4,240l0.1-0.2c0-0.1,0.1-0.1,0.2,0c0.1,0.1,0.7,0.5,1.5,0.5c0.8,0,1.3-0.4,1.3-1c0-0.6-0.6-0.9-1.5-1.2
		c-0.9-0.3-1.6-0.7-1.6-1.5c0-0.6,0.5-1.4,1.7-1.4c0.7,0,1.2,0.2,1.5,0.4c0.1,0.1,0.1,0.1,0.1,0.2l-0.1,0.1c0,0.1-0.1,0.1-0.2,0
		c-0.1-0.1-0.7-0.3-1.3-0.3c-0.8,0-1.2,0.5-1.2,0.9c0,0.5,0.5,0.8,1.3,1.1c1,0.4,1.8,0.7,1.8,1.7c0,0.8-0.8,1.4-1.8,1.4
		c-0.9,0-1.5-0.4-1.7-0.6C139.4,240.1,139.4,240.1,139.4,240z"/>
	<path class="st0" d="M146.8,235.2c1.5,0,2.7,1.3,2.7,2.8c0,1.6-1.2,2.8-2.7,2.8c-1.5,0-2.7-1.2-2.7-2.8
		C144.2,236.5,145.3,235.2,146.8,235.2z M146.8,240.3c1.2,0,2.1-1,2.1-2.3c0-1.2-0.9-2.3-2.1-2.3c-1.2,0-2.2,1-2.2,2.3
		C144.7,239.2,145.6,240.3,146.8,240.3z"/>
	<path class="st0" d="M151.1,235.5c0-0.1,0.1-0.2,0.2-0.2h0.1c0.1,0,0.1,0,0.1,0.1l0.1,0.5c0.1-0.2,0.7-0.8,1.7-0.8
		c0.4,0,0.7,0.1,0.8,0.1c0.1,0,0.2,0.1,0.1,0.2l-0.1,0.2c0,0.1-0.1,0.1-0.2,0.1c-0.1,0-0.3-0.2-0.7-0.2c-1,0-1.6,0.8-1.6,0.9v3.9
		c0,0.1-0.1,0.2-0.2,0.2h-0.2c-0.1,0-0.1-0.1-0.1-0.2V235.5z"/>
	<path class="st0" d="M155.9,243.2c0,0.1-0.1,0.2-0.2,0.2h-0.2c-0.1,0-0.2-0.1-0.2-0.2v-7.7c0-0.1,0.1-0.2,0.2-0.2h0.1
		c0.1,0,0.1,0,0.1,0.1l0,0.4c0.2-0.1,0.8-0.6,1.8-0.6c1.5,0,2.5,1.2,2.5,2.8c0,1.6-1.1,2.8-2.6,2.8c-0.9,0-1.5-0.4-1.6-0.6V243.2z
		 M157.5,240.3c1.3,0,2.2-1,2.2-2.3c0-1.2-0.8-2.3-2-2.3c-1,0-1.6,0.6-1.7,0.7v3.2C155.9,239.7,156.6,240.3,157.5,240.3z"/>
	<path class="st0" d="M161.7,235.5c0-0.1,0.1-0.2,0.2-0.2h0.1c0.1,0,0.1,0,0.1,0.1l0.1,0.5c0.1-0.2,0.7-0.8,1.7-0.8
		c0.4,0,0.7,0.1,0.8,0.1c0.1,0,0.2,0.1,0.1,0.2l-0.1,0.2c0,0.1-0.1,0.1-0.2,0.1c-0.1,0-0.3-0.2-0.7-0.2c-1,0-1.6,0.8-1.6,0.9v3.9
		c0,0.1-0.1,0.2-0.2,0.2h-0.2c-0.1,0-0.1-0.1-0.1-0.2V235.5z"/>
	<path class="st0" d="M168.2,235.2c1.4,0,2.4,1.1,2.4,2.4c0,0.2,0,0.5-0.2,0.5h-4.2c0,1.2,0.9,2.1,2.1,2.1c0.7,0,1.3-0.3,1.6-0.5
		c0.1-0.1,0.2-0.1,0.2,0l0.1,0.2c0,0,0,0.1-0.1,0.2c-0.3,0.3-1.1,0.6-1.9,0.6c-1.6,0-2.6-1.2-2.6-2.8
		C165.6,236.5,166.6,235.2,168.2,235.2z M170.1,237.7c0-1-0.7-2-1.9-2c-1.2,0-2,0.9-2,2H170.1z"/>
	<path class="st0" d="M172.1,235.5c0-0.1,0.1-0.2,0.2-0.2h0.1c0.1,0,0.1,0,0.2,0.1l0.1,0.6c0.2-0.2,0.8-0.8,1.9-0.8
		c1.5,0,2,0.9,2,2.3v2.9c0,0.1-0.1,0.2-0.2,0.2h-0.2c-0.1,0-0.2-0.1-0.2-0.2v-2.9c0-1.2-0.5-1.9-1.5-1.9c-1.1,0-1.8,0.8-1.8,0.9v3.9
		c0,0.1-0.1,0.2-0.2,0.2h-0.2c-0.1,0-0.1-0.1-0.1-0.2V235.5z"/>
	<path class="st0" d="M180.5,235.2c1,0,1.7,0.5,1.7,0.5v-3c0-0.1,0.1-0.2,0.2-0.2h0.2c0.1,0,0.2,0.1,0.2,0.2v7.7
		c0,0.1-0.1,0.2-0.2,0.2h-0.1c-0.1,0-0.2,0-0.2-0.2l0-0.5c-0.1,0.2-0.8,0.8-1.9,0.8c-1.4,0-2.4-1.2-2.4-2.8
		C177.9,236.4,179,235.2,180.5,235.2z M180.4,240.3c1.2,0,1.8-0.8,1.8-0.9v-3.1c0,0-0.6-0.6-1.6-0.6c-1.2,0-2.1,1-2.1,2.3
		C178.4,239.2,179.3,240.3,180.4,240.3z"/>
	<path class="st0" d="M186.8,235.2c1.4,0,2.4,1.1,2.4,2.4c0,0.2,0,0.5-0.2,0.5h-4.2c0,1.2,0.9,2.1,2.1,2.1c0.7,0,1.3-0.3,1.6-0.5
		c0.1-0.1,0.2-0.1,0.2,0l0.1,0.2c0,0,0,0.1-0.1,0.2c-0.3,0.3-1.1,0.6-1.9,0.6c-1.6,0-2.6-1.2-2.6-2.8
		C184.3,236.5,185.3,235.2,186.8,235.2z M188.7,237.7c0-1-0.7-2-1.9-2c-1.2,0-2,0.9-2,2H188.7z"/>
	<path class="st0" d="M190.7,235.5c0-0.1,0.1-0.2,0.2-0.2h0.1c0.1,0,0.1,0,0.1,0.1l0.1,0.5c0.1-0.2,0.7-0.8,1.7-0.8
		c0.4,0,0.7,0.1,0.8,0.1c0.1,0,0.2,0.1,0.1,0.2l-0.1,0.2c0,0.1-0.1,0.1-0.2,0.1c-0.1,0-0.3-0.2-0.7-0.2c-1,0-1.6,0.8-1.6,0.9v3.9
		c0,0.1-0.1,0.2-0.2,0.2h-0.2c-0.1,0-0.1-0.1-0.1-0.2V235.5z"/>
	<path class="st0" d="M195.2,235.8h-0.6c-0.1,0-0.2-0.1-0.2-0.2v-0.2c0-0.1,0.1-0.1,0.2-0.1h0.6v-1.4c0-0.1,0.1-0.2,0.2-0.2l0.1,0
		c0.1,0,0.2,0.1,0.2,0.2v1.5h1.9c0.1,0,0.2,0.1,0.2,0.2v0.1c0,0.1-0.1,0.2-0.2,0.2h-1.9v3.5c0,0.7,0.1,1,0.7,1
		c0.6,0,1.1-0.3,1.2-0.4c0.1-0.1,0.2,0,0.2,0l0.1,0.2c0,0.1,0,0.1,0,0.2c-0.2,0.1-0.8,0.5-1.5,0.5c-1,0-1.2-0.7-1.2-1.4V235.8z"/>
	<path class="st0" d="M201.4,235.2c1.4,0,2.4,1.1,2.4,2.4c0,0.2,0,0.5-0.2,0.5h-4.2c0,1.2,0.9,2.1,2.1,2.1c0.7,0,1.3-0.3,1.6-0.5
		c0.1-0.1,0.2-0.1,0.2,0l0.1,0.2c0,0,0,0.1-0.1,0.2c-0.3,0.3-1.1,0.6-1.9,0.6c-1.6,0-2.6-1.2-2.6-2.8
		C198.8,236.5,199.8,235.2,201.4,235.2z M203.3,237.7c0-1-0.7-2-1.9-2c-1.2,0-2,0.9-2,2H203.3z"/>
	<path class="st0" d="M210.2,235.2c1.4,0,2.4,1.1,2.4,2.4c0,0.2,0,0.5-0.2,0.5h-4.2c0,1.2,0.9,2.1,2.1,2.1c0.7,0,1.3-0.3,1.6-0.5
		c0.1-0.1,0.2-0.1,0.2,0l0.1,0.2c0,0,0,0.1-0.1,0.2c-0.3,0.3-1.1,0.6-1.9,0.6c-1.6,0-2.6-1.2-2.6-2.8
		C207.7,236.5,208.7,235.2,210.2,235.2z M212.1,237.7c0-1-0.7-2-1.9-2c-1.2,0-2,0.9-2,2H212.1z"/>
	<path class="st0" d="M216.6,233.4c0-0.3,0.2-0.4,0.5-0.4s0.4,0.2,0.4,0.4c0,0.2-0.2,0.4-0.4,0.4S216.6,233.6,216.6,233.4z
		 M216.9,235.5c0-0.1,0.1-0.2,0.2-0.2h0.2c0.1,0,0.2,0.1,0.2,0.2v5c0,0.1-0.1,0.2-0.2,0.2H217c-0.1,0-0.1-0.1-0.1-0.2V235.5z"/>
	<path class="st0" d="M219.3,235.5c0-0.1,0.1-0.2,0.2-0.2h0.1c0.1,0,0.1,0,0.2,0.1l0.1,0.6c0.2-0.2,0.8-0.8,1.9-0.8
		c1.5,0,2,0.9,2,2.3v2.9c0,0.1-0.1,0.2-0.2,0.2h-0.2c-0.1,0-0.2-0.1-0.2-0.2v-2.9c0-1.2-0.5-1.9-1.5-1.9c-1.1,0-1.8,0.8-1.8,0.9v3.9
		c0,0.1-0.1,0.2-0.2,0.2h-0.2c-0.1,0-0.1-0.1-0.1-0.2V235.5z"/>
	<path class="st0" d="M225.2,240l0.1-0.2c0-0.1,0.1-0.1,0.2,0c0.1,0.1,0.7,0.5,1.5,0.5c0.8,0,1.3-0.4,1.3-1c0-0.6-0.6-0.9-1.5-1.2
		c-0.9-0.3-1.6-0.7-1.6-1.5c0-0.6,0.5-1.4,1.7-1.4c0.7,0,1.2,0.2,1.5,0.4c0.1,0.1,0.1,0.1,0.1,0.2l-0.1,0.1c0,0.1-0.1,0.1-0.2,0
		c-0.1-0.1-0.7-0.3-1.3-0.3c-0.8,0-1.2,0.5-1.2,0.9c0,0.5,0.5,0.8,1.3,1.1c1,0.4,1.8,0.7,1.8,1.7c0,0.8-0.8,1.4-1.8,1.4
		c-0.9,0-1.5-0.4-1.7-0.6C225.2,240.1,225.1,240.1,225.2,240z"/>
	<path class="st0" d="M230.8,243.2c0,0.1-0.1,0.2-0.2,0.2h-0.2c-0.1,0-0.2-0.1-0.2-0.2v-7.7c0-0.1,0.1-0.2,0.2-0.2h0.1
		c0.1,0,0.1,0,0.1,0.1l0,0.4c0.2-0.1,0.8-0.6,1.8-0.6c1.5,0,2.5,1.2,2.5,2.8c0,1.6-1.1,2.8-2.6,2.8c-0.9,0-1.5-0.4-1.6-0.6V243.2z
		 M232.4,240.3c1.3,0,2.2-1,2.2-2.3c0-1.2-0.8-2.3-2-2.3c-1,0-1.6,0.6-1.7,0.7v3.2C230.8,239.7,231.5,240.3,232.4,240.3z"/>
	<path class="st0" d="M236.4,233.4c0-0.3,0.2-0.4,0.5-0.4s0.4,0.2,0.4,0.4c0,0.2-0.2,0.4-0.4,0.4S236.4,233.6,236.4,233.4z
		 M236.6,235.5c0-0.1,0.1-0.2,0.2-0.2h0.2c0.1,0,0.2,0.1,0.2,0.2v5c0,0.1-0.1,0.2-0.2,0.2h-0.2c-0.1,0-0.1-0.1-0.1-0.2V235.5z"/>
	<path class="st0" d="M239,235.5c0-0.1,0.1-0.2,0.2-0.2h0.1c0.1,0,0.1,0,0.1,0.1l0.1,0.5c0.1-0.2,0.7-0.8,1.7-0.8
		c0.4,0,0.7,0.1,0.8,0.1c0.1,0,0.2,0.1,0.1,0.2l-0.1,0.2c0,0.1-0.1,0.1-0.2,0.1c-0.1,0-0.3-0.2-0.7-0.2c-1,0-1.6,0.8-1.6,0.9v3.9
		c0,0.1-0.1,0.2-0.2,0.2h-0.2c-0.1,0-0.1-0.1-0.1-0.2V235.5z"/>
	<path class="st0" d="M245.1,237.2c0.6,0,1.2,0.2,1.4,0.2c0-1.2-0.1-1.8-1.2-1.8c-0.9,0-1.5,0.3-1.6,0.4c-0.1,0-0.2,0-0.2-0.1
		l-0.1-0.2c-0.1-0.1,0-0.2,0.1-0.2c0,0,0.7-0.4,1.8-0.4c1.6,0,1.7,0.9,1.7,2.3v2.9c0,0.1-0.1,0.2-0.2,0.2h-0.1c-0.1,0-0.1,0-0.2-0.1
		l-0.1-0.5c-0.3,0.3-1,0.8-1.9,0.8c-1,0-1.7-0.7-1.7-1.8C242.9,238,243.7,237.2,245.1,237.2z M244.7,240.3c0.8,0,1.5-0.5,1.8-0.8
		v-1.5c-0.2-0.1-0.7-0.3-1.4-0.3c-1,0-1.7,0.6-1.7,1.3C243.4,239.7,243.9,240.3,244.7,240.3z"/>
	<path class="st0" d="M248.9,235.5c0-0.1,0.1-0.2,0.2-0.2h0.1c0.1,0,0.1,0,0.1,0.1l0.1,0.5c0.1-0.2,0.7-0.8,1.7-0.8
		c0.4,0,0.7,0.1,0.8,0.1c0.1,0,0.2,0.1,0.1,0.2l-0.1,0.2c0,0.1-0.1,0.1-0.2,0.1c-0.1,0-0.3-0.2-0.7-0.2c-1,0-1.6,0.8-1.6,0.9v3.9
		c0,0.1-0.1,0.2-0.2,0.2H249c-0.1,0-0.1-0.1-0.1-0.2V235.5z"/>
	<path class="st0" d="M253.4,235.8h-0.6c-0.1,0-0.2-0.1-0.2-0.2v-0.2c0-0.1,0.1-0.1,0.2-0.1h0.6v-1.4c0-0.1,0.1-0.2,0.2-0.2l0.1,0
		c0.1,0,0.2,0.1,0.2,0.2v1.5h1.9c0.1,0,0.2,0.1,0.2,0.2v0.1c0,0.1-0.1,0.2-0.2,0.2h-1.9v3.5c0,0.7,0.1,1,0.7,1
		c0.6,0,1.1-0.3,1.2-0.4c0.1-0.1,0.2,0,0.2,0l0.1,0.2c0,0.1,0,0.1,0,0.2c-0.2,0.1-0.8,0.5-1.5,0.5c-1,0-1.2-0.7-1.2-1.4V235.8z"/>
	<path class="st0" d="M259.5,235.2c1.4,0,2.4,1.1,2.4,2.4c0,0.2,0,0.5-0.2,0.5h-4.2c0,1.2,0.9,2.1,2.1,2.1c0.7,0,1.3-0.3,1.6-0.5
		c0.1-0.1,0.2-0.1,0.2,0l0.1,0.2c0,0,0,0.1-0.1,0.2c-0.3,0.3-1.1,0.6-1.9,0.6c-1.6,0-2.6-1.2-2.6-2.8
		C257,236.5,258,235.2,259.5,235.2z M261.4,237.7c0-1-0.7-2-1.9-2c-1.2,0-2,0.9-2,2H261.4z"/>
	<path class="st0" d="M263.7,239.8c0.3,0,0.5,0.2,0.5,0.5c0,0.3-0.2,0.5-0.5,0.5c-0.3,0-0.5-0.2-0.5-0.5
		C263.2,240,263.4,239.8,263.7,239.8z"/>
	<path class="st0" d="M266.2,239.8c0.3,0,0.5,0.2,0.5,0.5c0,0.3-0.2,0.5-0.5,0.5c-0.3,0-0.5-0.2-0.5-0.5
		C265.7,240,265.9,239.8,266.2,239.8z"/>
	<path class="st0" d="M268.6,239.8c0.3,0,0.5,0.2,0.5,0.5c0,0.3-0.2,0.5-0.5,0.5c-0.3,0-0.5-0.2-0.5-0.5
		C268.1,240,268.4,239.8,268.6,239.8z"/>
	<path class="st0" d="M84.3,255.6l0.1-0.1c0.1-0.1,0.2-0.1,0.3,0c0.1,0.1,1,0.9,2.1,0.9c1,0,1.9-0.6,1.9-1.5c0-1-0.8-1.5-2.2-2
		c-1.3-0.5-2.2-0.9-2.2-2.3c0-0.9,0.7-2,2.5-2c1.1,0,2,0.6,2,0.6c0,0,0.1,0.1,0,0.2l-0.1,0.1c-0.1,0.1-0.1,0.1-0.3,0.1
		c0,0-0.8-0.5-1.7-0.5c-1.4,0-1.9,0.9-1.9,1.5c0,1,0.7,1.4,1.9,1.8c1.6,0.5,2.6,1.1,2.6,2.4c0,1.3-1.2,2-2.5,2
		c-1.4,0-2.3-0.8-2.4-0.9C84.2,255.7,84.2,255.7,84.3,255.6z"/>
	<path class="st0" d="M93,251.2c1.5,0,2.7,1.3,2.7,2.8c0,1.6-1.2,2.8-2.7,2.8c-1.5,0-2.7-1.2-2.7-2.8
		C90.4,252.5,91.5,251.2,93,251.2z M93,256.3c1.2,0,2.1-1,2.1-2.3c0-1.2-0.9-2.3-2.1-2.3c-1.2,0-2.2,1-2.2,2.3
		C90.9,255.2,91.8,256.3,93,256.3z M92,250.2l-0.1-0.1c0-0.1,0-0.1,0.1-0.2l1.9-1c0.1,0,0.1,0,0.2,0l0.1,0.2c0,0.1,0,0.2-0.1,0.2
		l-1.9,0.9C92,250.3,92,250.2,92,250.2z"/>
	<path class="st0" d="M97.3,248.7c0-0.1,0.1-0.2,0.2-0.2h0.2c0.1,0,0.2,0.1,0.2,0.2v7.7c0,0.1-0.1,0.2-0.2,0.2h-0.2
		c-0.1,0-0.1-0.1-0.1-0.2V248.7z"/>
	<path class="st0" d="M102.1,251.2c1.5,0,2.7,1.3,2.7,2.8c0,1.6-1.2,2.8-2.7,2.8c-1.5,0-2.7-1.2-2.7-2.8
		C99.5,252.5,100.6,251.2,102.1,251.2z M102.1,256.3c1.2,0,2.1-1,2.1-2.3c0-1.2-0.9-2.3-2.1-2.3c-1.2,0-2.2,1-2.2,2.3
		C100,255.2,100.9,256.3,102.1,256.3z"/>
	<path class="st0" d="M109.4,251.8h-0.6c-0.1,0-0.2-0.1-0.2-0.2v-0.2c0-0.1,0.1-0.1,0.2-0.1h0.6v-1.4c0-0.1,0.1-0.2,0.2-0.2l0.1,0
		c0.1,0,0.2,0.1,0.2,0.2v1.5h1.9c0.1,0,0.2,0.1,0.2,0.2v0.1c0,0.1-0.1,0.2-0.2,0.2h-1.9v3.5c0,0.7,0.1,1,0.7,1
		c0.6,0,1.1-0.3,1.2-0.4c0.1-0.1,0.2,0,0.2,0l0.1,0.2c0,0.1,0,0.1,0,0.2c-0.2,0.1-0.8,0.5-1.5,0.5c-1,0-1.2-0.7-1.2-1.4V251.8z"/>
	<path class="st0" d="M115.1,253.2c0.6,0,1.2,0.2,1.4,0.2c0-1.2-0.1-1.8-1.2-1.8c-0.9,0-1.5,0.3-1.6,0.4c-0.1,0-0.2,0-0.2-0.1
		l-0.1-0.2c-0.1-0.1,0-0.2,0.1-0.2c0,0,0.7-0.4,1.8-0.4c1.6,0,1.7,0.9,1.7,2.3v2.9c0,0.1-0.1,0.2-0.2,0.2h-0.1c-0.1,0-0.1,0-0.2-0.1
		l-0.1-0.5c-0.3,0.3-1,0.8-1.9,0.8c-1,0-1.7-0.7-1.7-1.8C112.8,254,113.7,253.2,115.1,253.2z M114.6,256.3c0.8,0,1.5-0.5,1.8-0.8
		v-1.5c-0.2-0.1-0.7-0.3-1.4-0.3c-1,0-1.7,0.6-1.7,1.3C113.3,255.7,113.9,256.3,114.6,256.3z"/>
	<path class="st0" d="M118.8,251.5c0-0.1,0.1-0.2,0.2-0.2h0.1c0.1,0,0.1,0,0.1,0.1l0.1,0.5c0.1-0.2,0.7-0.8,1.7-0.8
		c0.4,0,0.7,0.1,0.8,0.1c0.1,0,0.2,0.1,0.1,0.2l-0.1,0.2c0,0.1-0.1,0.1-0.2,0.1c-0.1,0-0.3-0.2-0.7-0.2c-1,0-1.6,0.8-1.6,0.9v3.9
		c0,0.1-0.1,0.2-0.2,0.2H119c-0.1,0-0.1-0.1-0.1-0.2V251.5z"/>
	<path class="st0" d="M125.3,251.2c1,0,1.7,0.5,1.7,0.5v-3c0-0.1,0.1-0.2,0.2-0.2h0.2c0.1,0,0.2,0.1,0.2,0.2v7.7
		c0,0.1-0.1,0.2-0.2,0.2h-0.1c-0.1,0-0.2,0-0.2-0.2l0-0.5c-0.1,0.2-0.8,0.8-1.9,0.8c-1.4,0-2.4-1.2-2.4-2.8
		C122.8,252.4,123.8,251.2,125.3,251.2z M125.2,256.3c1.2,0,1.8-0.8,1.8-0.9v-3.1c0,0-0.6-0.6-1.6-0.6c-1.2,0-2.1,1-2.1,2.3
		C123.3,255.2,124.1,256.3,125.2,256.3z"/>
	<path class="st0" d="M131.2,253.2c0.6,0,1.2,0.2,1.4,0.2c0-1.2-0.1-1.8-1.2-1.8c-0.9,0-1.5,0.3-1.6,0.4c-0.1,0-0.2,0-0.2-0.1
		l-0.1-0.2c-0.1-0.1,0-0.2,0.1-0.2c0,0,0.7-0.4,1.8-0.4c1.6,0,1.7,0.9,1.7,2.3v2.9c0,0.1-0.1,0.2-0.2,0.2h-0.1c-0.1,0-0.1,0-0.2-0.1
		l-0.1-0.5c-0.3,0.3-1,0.8-1.9,0.8c-1,0-1.7-0.7-1.7-1.8C129,254,129.8,253.2,131.2,253.2z M130.8,256.3c0.8,0,1.5-0.5,1.8-0.8v-1.5
		c-0.2-0.1-0.7-0.3-1.4-0.3c-1,0-1.7,0.6-1.7,1.3C129.5,255.7,130,256.3,130.8,256.3z"/>
	<path class="st0" d="M135,251.5c0-0.1,0.1-0.2,0.2-0.2h0.1c0.1,0,0.1,0,0.1,0.1l0.1,0.5c0.1-0.2,0.7-0.8,1.7-0.8
		c0.4,0,0.7,0.1,0.8,0.1c0.1,0,0.2,0.1,0.1,0.2l-0.1,0.2c0,0.1-0.1,0.1-0.2,0.1c-0.1,0-0.3-0.2-0.7-0.2c-1,0-1.6,0.8-1.6,0.9v3.9
		c0,0.1-0.1,0.2-0.2,0.2h-0.2c-0.1,0-0.1-0.1-0.1-0.2V251.5z"/>
	<path class="st0" d="M141.5,251.2c1.4,0,2.4,1.1,2.4,2.4c0,0.2,0,0.5-0.2,0.5h-4.2c0,1.2,0.9,2.1,2.1,2.1c0.7,0,1.3-0.3,1.6-0.5
		c0.1-0.1,0.2-0.1,0.2,0l0.1,0.2c0,0,0,0.1-0.1,0.2c-0.3,0.3-1.1,0.6-1.9,0.6c-1.6,0-2.6-1.2-2.6-2.8
		C138.9,252.5,139.9,251.2,141.5,251.2z M143.3,253.7c0-1-0.7-2-1.9-2c-1.2,0-2,0.9-2,2H143.3z"/>
	<path class="st0" d="M145.3,251.5c0-0.1,0.1-0.2,0.2-0.2h0.1c0.1,0,0.1,0,0.1,0.1l0.1,0.6c0.1-0.2,0.7-0.8,1.8-0.8
		c0.8,0,1.3,0.3,1.6,0.9c0.2-0.2,0.8-0.9,1.9-0.9c1.4,0,1.9,1,1.9,2.3v2.9c0,0.1-0.1,0.2-0.2,0.2h-0.2c-0.1,0-0.1-0.1-0.1-0.2v-2.9
		c0-1.2-0.5-1.9-1.5-1.9c-1,0-1.5,0.7-1.6,0.9c0.1,0.3,0.1,0.6,0.1,0.9v2.9c0,0.1-0.1,0.2-0.2,0.2h-0.2c-0.1,0-0.2-0.1-0.2-0.2v-2.9
		c0-1.2-0.5-1.9-1.5-1.9c-1.1,0-1.6,0.8-1.7,0.9v3.9c0,0.1-0.1,0.2-0.2,0.2h-0.2c-0.1,0-0.1-0.1-0.1-0.2V251.5z"/>
	<path class="st0" d="M157.2,251.2c1.5,0,2.7,1.3,2.7,2.8c0,1.6-1.2,2.8-2.7,2.8c-1.5,0-2.7-1.2-2.7-2.8
		C154.5,252.5,155.6,251.2,157.2,251.2z M157.2,256.3c1.2,0,2.1-1,2.1-2.3c0-1.2-0.9-2.3-2.1-2.3c-1.2,0-2.2,1-2.2,2.3
		C155,255.2,155.9,256.3,157.2,256.3z"/>
	<path class="st0" d="M161.1,256l0.1-0.2c0-0.1,0.1-0.1,0.2,0c0.1,0.1,0.7,0.5,1.5,0.5c0.8,0,1.3-0.4,1.3-1c0-0.6-0.6-0.9-1.5-1.2
		c-0.9-0.3-1.6-0.7-1.6-1.5c0-0.6,0.5-1.4,1.7-1.4c0.7,0,1.2,0.2,1.5,0.4c0.1,0.1,0.1,0.1,0.1,0.2l-0.1,0.1c0,0.1-0.1,0.1-0.2,0
		c-0.1-0.1-0.7-0.3-1.3-0.3c-0.8,0-1.2,0.5-1.2,0.9c0,0.5,0.5,0.8,1.3,1.1c1,0.4,1.8,0.7,1.8,1.7c0,0.8-0.8,1.4-1.8,1.4
		c-0.9,0-1.5-0.4-1.7-0.6C161.1,256.1,161,256.1,161.1,256z"/>
	<path class="st0" d="M168.9,251.5c0-0.1,0.1-0.2,0.2-0.2h0.2c0.1,0,0.2,0.1,0.2,0.2v3c0,1.2,0.4,1.8,1.5,1.8c1,0,1.5-0.8,1.7-1
		v-3.8c0-0.1,0.1-0.2,0.2-0.2h0.2c0.1,0,0.2,0.1,0.2,0.2v5c0,0.1-0.1,0.2-0.2,0.2h-0.1c-0.1,0-0.1-0.1-0.2-0.2l0-0.5
		c-0.1,0.2-0.7,0.8-1.7,0.8c-1.5,0-2-0.8-2-2.3V251.5z"/>
	<path class="st0" d="M175,251.5c0-0.1,0.1-0.2,0.2-0.2h0.1c0.1,0,0.1,0,0.2,0.1l0.1,0.6c0.2-0.2,0.8-0.8,1.9-0.8c1.5,0,2,0.9,2,2.3
		v2.9c0,0.1-0.1,0.2-0.2,0.2H179c-0.1,0-0.2-0.1-0.2-0.2v-2.9c0-1.2-0.5-1.9-1.5-1.9c-1.1,0-1.8,0.8-1.8,0.9v3.9
		c0,0.1-0.1,0.2-0.2,0.2h-0.2c-0.1,0-0.1-0.1-0.1-0.2V251.5z"/>
	<path class="st0" d="M183.5,251.2c1.5,0,2.7,1.3,2.7,2.8c0,1.6-1.2,2.8-2.7,2.8c-1.5,0-2.7-1.2-2.7-2.8
		C180.8,252.5,182,251.2,183.5,251.2z M183.5,256.3c1.2,0,2.1-1,2.1-2.3c0-1.2-0.9-2.3-2.1-2.3c-1.2,0-2.2,1-2.2,2.3
		C181.3,255.2,182.3,256.3,183.5,256.3z"/>
	<path class="st0" d="M187.4,256l0.1-0.2c0-0.1,0.1-0.1,0.2,0c0.1,0.1,0.7,0.5,1.5,0.5c0.8,0,1.3-0.4,1.3-1c0-0.6-0.6-0.9-1.5-1.2
		c-0.9-0.3-1.6-0.7-1.6-1.5c0-0.6,0.5-1.4,1.7-1.4c0.7,0,1.2,0.2,1.5,0.4c0.1,0.1,0.1,0.1,0.1,0.2l-0.1,0.1c0,0.1-0.1,0.1-0.2,0
		c-0.1-0.1-0.7-0.3-1.3-0.3c-0.8,0-1.2,0.5-1.2,0.9c0,0.5,0.5,0.8,1.3,1.1c1,0.4,1.8,0.7,1.8,1.7c0,0.8-0.8,1.4-1.8,1.4
		c-0.9,0-1.5-0.4-1.7-0.6C187.4,256.1,187.3,256.1,187.4,256z"/>
	<path class="st0" d="M195.2,251.5c0-0.1,0.1-0.2,0.2-0.2h0.1c0.1,0,0.1,0,0.1,0.1l0.1,0.6c0.1-0.2,0.7-0.8,1.8-0.8
		c0.8,0,1.3,0.3,1.6,0.9c0.2-0.2,0.8-0.9,1.9-0.9c1.4,0,1.9,1,1.9,2.3v2.9c0,0.1-0.1,0.2-0.2,0.2h-0.2c-0.1,0-0.1-0.1-0.1-0.2v-2.9
		c0-1.2-0.5-1.9-1.5-1.9c-1,0-1.5,0.7-1.6,0.9c0.1,0.3,0.1,0.6,0.1,0.9v2.9c0,0.1-0.1,0.2-0.2,0.2H199c-0.1,0-0.2-0.1-0.2-0.2v-2.9
		c0-1.2-0.5-1.9-1.5-1.9c-1.1,0-1.6,0.8-1.7,0.9v3.9c0,0.1-0.1,0.2-0.2,0.2h-0.2c-0.1,0-0.1-0.1-0.1-0.2V251.5z"/>
	<path class="st0" d="M204.5,249.4c0-0.3,0.2-0.4,0.5-0.4s0.4,0.2,0.4,0.4c0,0.2-0.2,0.4-0.4,0.4S204.5,249.6,204.5,249.4z
		 M204.8,251.5c0-0.1,0.1-0.2,0.2-0.2h0.2c0.1,0,0.2,0.1,0.2,0.2v5c0,0.1-0.1,0.2-0.2,0.2h-0.2c-0.1,0-0.1-0.1-0.1-0.2V251.5z"/>
	<path class="st0" d="M207.2,251.5c0-0.1,0.1-0.2,0.2-0.2h0.1c0.1,0,0.1,0,0.2,0.1l0.1,0.6c0.2-0.2,0.8-0.8,1.9-0.8
		c1.5,0,2,0.9,2,2.3v2.9c0,0.1-0.1,0.2-0.2,0.2h-0.2c-0.1,0-0.2-0.1-0.2-0.2v-2.9c0-1.2-0.5-1.9-1.5-1.9c-1.1,0-1.8,0.8-1.8,0.9v3.9
		c0,0.1-0.1,0.2-0.2,0.2h-0.2c-0.1,0-0.1-0.1-0.1-0.2V251.5z"/>
	<path class="st0" d="M213.4,251.5c0-0.1,0.1-0.2,0.2-0.2h0.2c0.1,0,0.2,0.1,0.2,0.2v3c0,1.2,0.4,1.8,1.5,1.8c1,0,1.5-0.8,1.7-1
		v-3.8c0-0.1,0.1-0.2,0.2-0.2h0.2c0.1,0,0.2,0.1,0.2,0.2v5c0,0.1-0.1,0.2-0.2,0.2h-0.1c-0.1,0-0.1-0.1-0.2-0.2l0-0.5
		c-0.1,0.2-0.7,0.8-1.7,0.8c-1.5,0-2-0.8-2-2.3V251.5z"/>
	<path class="st0" d="M219.7,251.8h-0.6c-0.1,0-0.2-0.1-0.2-0.2v-0.2c0-0.1,0.1-0.1,0.2-0.1h0.6v-1.4c0-0.1,0.1-0.2,0.2-0.2l0.1,0
		c0.1,0,0.2,0.1,0.2,0.2v1.5h1.9c0.1,0,0.2,0.1,0.2,0.2v0.1c0,0.1-0.1,0.2-0.2,0.2h-1.9v3.5c0,0.7,0.1,1,0.7,1
		c0.6,0,1.1-0.3,1.2-0.4c0.1-0.1,0.2,0,0.2,0l0.1,0.2c0,0.1,0,0.1,0,0.2c-0.2,0.1-0.8,0.5-1.5,0.5c-1,0-1.2-0.7-1.2-1.4V251.8z"/>
	<path class="st0" d="M226,251.2c1.5,0,2.7,1.3,2.7,2.8c0,1.6-1.2,2.8-2.7,2.8c-1.5,0-2.7-1.2-2.7-2.8
		C223.3,252.5,224.4,251.2,226,251.2z M226,256.3c1.2,0,2.1-1,2.1-2.3c0-1.2-0.9-2.3-2.1-2.3c-1.2,0-2.2,1-2.2,2.3
		C223.8,255.2,224.8,256.3,226,256.3z"/>
	<path class="st0" d="M229.9,256l0.1-0.2c0-0.1,0.1-0.1,0.2,0c0.1,0.1,0.7,0.5,1.5,0.5c0.8,0,1.3-0.4,1.3-1c0-0.6-0.6-0.9-1.5-1.2
		c-0.9-0.3-1.6-0.7-1.6-1.5c0-0.6,0.5-1.4,1.7-1.4c0.7,0,1.2,0.2,1.5,0.4c0.1,0.1,0.1,0.1,0.1,0.2L233,252c0,0.1-0.1,0.1-0.2,0
		c-0.1-0.1-0.7-0.3-1.3-0.3c-0.8,0-1.2,0.5-1.2,0.9c0,0.5,0.5,0.8,1.3,1.1c1,0.4,1.8,0.7,1.8,1.7c0,0.8-0.8,1.4-1.8,1.4
		c-0.9,0-1.5-0.4-1.7-0.6C229.9,256.1,229.8,256.1,229.9,256z"/>
	<path class="st0" d="M235.2,255.8c0.3,0,0.5,0.2,0.5,0.5c0,0.3-0.2,0.5-0.5,0.5c-0.3,0-0.5-0.2-0.5-0.5
		C234.7,256,235,255.8,235.2,255.8z"/>
</g>
<g>
	<g>
		<path class="st0" d="M108,341.1c0-0.1,0.1-0.2,0.2-0.2h0.8c0.1,0,0.2,0.1,0.2,0.2v2.4c0.2-0.2,0.6-0.4,1.2-0.4
			c1.4,0,1.8,1,1.8,2.2v2.3c0,0.1-0.1,0.2-0.2,0.2h-0.8c-0.1,0-0.2-0.1-0.2-0.2v-2.3c0-0.6-0.3-1-0.8-1c-0.5,0-0.8,0.3-0.9,0.8v2.5
			c0,0.1-0.1,0.2-0.2,0.2h-0.8c-0.1,0-0.2-0.1-0.2-0.2V341.1z"/>
		<path class="st0" d="M115.5,343.2c1.2,0,2.1,0.9,2.1,2.1c0,0.1,0,0.2,0,0.3c0,0.1-0.1,0.2-0.2,0.2h-2.9c0,0.6,0.5,1.1,1.1,1.1
			c0.5,0,0.8-0.2,1-0.3c0.1-0.1,0.2-0.1,0.3,0l0.4,0.5c0.1,0.1,0.1,0.2,0,0.3c-0.4,0.3-1,0.6-1.7,0.6c-1.4,0-2.3-1.1-2.3-2.4
			C113.2,344.3,114.1,343.2,115.5,343.2z M116.3,345c0-0.4-0.4-0.8-0.9-0.8c-0.6,0-0.9,0.3-1,0.8H116.3z"/>
		<path class="st0" d="M118.5,341.1c0-0.1,0.1-0.2,0.2-0.2h0.8c0.1,0,0.2,0.1,0.2,0.2v6.5c0,0.1-0.1,0.2-0.2,0.2h-0.8
			c-0.1,0-0.2-0.1-0.2-0.2V341.1z"/>
		<path class="st0" d="M121,341.1c0-0.1,0.1-0.2,0.2-0.2h0.8c0.1,0,0.2,0.1,0.2,0.2v6.5c0,0.1-0.1,0.2-0.2,0.2h-0.8
			c-0.1,0-0.2-0.1-0.2-0.2V341.1z"/>
		<path class="st0" d="M125.6,343.2c1.3,0,2.3,1.1,2.3,2.4c0,1.3-1,2.4-2.3,2.4c-1.3,0-2.3-1.1-2.3-2.4
			C123.2,344.2,124.3,343.2,125.6,343.2z M125.6,346.8c0.7,0,1.2-0.6,1.2-1.3c0-0.7-0.5-1.2-1.2-1.2c-0.7,0-1.2,0.6-1.2,1.2
			C124.4,346.2,124.9,346.8,125.6,346.8z"/>
		<path class="st0" d="M133.4,348.4c-0.5,0.3-1.1,0.4-1.8,0.4c-1.6,0-3-1.2-3-3.1c0-2,1.4-3.8,3.6-3.8c1.7,0,2.9,1.2,2.9,2.9
			c0,1.5-0.8,2.3-1.8,2.3c-0.4,0-0.8-0.3-0.7-0.9h0c-0.3,0.6-0.8,0.9-1.4,0.9c-0.6,0-1.1-0.5-1.1-1.2c0-1.2,1-2.3,2.3-2.3
			c0.4,0,0.8,0.1,1.1,0.2l-0.3,1.8c-0.1,0.7,0,1.1,0.3,1.1c0.5,0,1.1-0.7,1.1-1.8c0-1.4-0.9-2.5-2.4-2.5c-1.6,0-3,1.3-3,3.3
			c0,1.6,1.1,2.7,2.5,2.7c0.6,0,1.1-0.1,1.5-0.3L133.4,348.4z M132.9,344.2c-0.1,0-0.3-0.1-0.5-0.1c-0.9,0-1.6,0.8-1.6,1.8
			c0,0.4,0.2,0.7,0.7,0.7c0.6,0,1.1-0.7,1.2-1.3L132.9,344.2z"/>
		<path class="st0" d="M136.6,343.7H136c-0.1,0-0.1-0.1-0.1-0.1v-0.2c0-0.1,0.1-0.1,0.1-0.1h0.6V342c0-0.1,0.1-0.1,0.2-0.1l0.1,0
			c0.1,0,0.1,0.1,0.1,0.1v1.3h1.6c0.1,0,0.2,0.1,0.2,0.1v0.1c0,0.1-0.1,0.1-0.2,0.1H137v3c0,0.6,0.1,0.8,0.6,0.8
			c0.5,0,0.9-0.3,1-0.4c0.1-0.1,0.1,0,0.2,0l0.1,0.1c0,0.1,0,0.1,0,0.2c-0.2,0.1-0.7,0.4-1.3,0.4c-0.8,0-1-0.6-1-1.2V343.7z"/>
		<path class="st0" d="M139.9,341.1c0-0.1,0.1-0.1,0.2-0.1h0.1c0.1,0,0.1,0.1,0.1,0.1v2.8c0.1-0.1,0.7-0.7,1.6-0.7
			c1.2,0,1.7,0.7,1.7,2v2.5c0,0.1-0.1,0.1-0.1,0.1h-0.1c-0.1,0-0.1-0.1-0.1-0.1v-2.5c0-1.1-0.4-1.6-1.3-1.6c-0.9,0-1.4,0.7-1.5,0.8
			v3.2c0,0.1,0,0.1-0.1,0.1h-0.2c-0.1,0-0.1-0.1-0.1-0.1V341.1z"/>
		<path class="st0" d="M147.1,343.2c1.2,0,2,0.9,2,2.1c0,0.2,0,0.4-0.2,0.4h-3.6c0,1,0.8,1.8,1.8,1.8c0.6,0,1.1-0.3,1.4-0.5
			c0.1-0.1,0.1-0.1,0.2,0l0.1,0.2c0,0,0,0.1,0,0.2c-0.3,0.2-0.9,0.5-1.7,0.5c-1.3,0-2.2-1.1-2.2-2.4
			C144.9,344.2,145.8,343.2,147.1,343.2z M148.8,345.3c0-0.9-0.6-1.7-1.6-1.7c-1,0-1.7,0.7-1.8,1.7H148.8z"/>
		<path class="st0" d="M150.2,347.2l0.1-0.2c0-0.1,0.1-0.1,0.2,0c0.1,0.1,0.6,0.4,1.2,0.4c0.7,0,1.1-0.3,1.1-0.8
			c0-0.5-0.6-0.8-1.3-1.1c-0.8-0.3-1.4-0.6-1.4-1.3c0-0.5,0.4-1.2,1.5-1.2c0.6,0,1.1,0.2,1.3,0.3c0.1,0,0.1,0.1,0.1,0.2l-0.1,0.1
			c0,0.1-0.1,0.1-0.2,0c-0.1-0.1-0.6-0.3-1.1-0.3c-0.7,0-1,0.4-1,0.7c0,0.5,0.5,0.7,1.1,0.9c0.8,0.3,1.6,0.6,1.6,1.4
			c0,0.7-0.7,1.2-1.6,1.2c-0.8,0-1.2-0.3-1.5-0.5C150.2,347.4,150.1,347.3,150.2,347.2z"/>
		<path class="st0" d="M154.4,341.6c0-0.2,0.2-0.4,0.4-0.4c0.2,0,0.4,0.2,0.4,0.4c0,0.2-0.2,0.4-0.4,0.4
			C154.5,342,154.4,341.8,154.4,341.6z M154.6,343.4c0-0.1,0.1-0.1,0.1-0.1h0.1c0.1,0,0.1,0.1,0.1,0.1v4.3c0,0.1,0,0.1-0.1,0.1h-0.2
			c-0.1,0-0.1-0.1-0.1-0.1V343.4z"/>
		<path class="st0" d="M160,347.4c-0.1,0.1-0.6,0.5-1.4,0.5c-1.3,0-2.3-1.1-2.3-2.4c0-1.3,0.9-2.4,2.2-2.4c0.8,0,1.4,0.4,1.5,0.5
			l0-0.3c0-0.1,0-0.1,0.1-0.1h0.1c0.1,0,0.2,0,0.2,0.1v4.5c0,1.3-0.9,2-2,2c-0.8,0-1.3-0.4-1.5-0.6c-0.1-0.1-0.1-0.1,0-0.2l0.1-0.1
			c0.1-0.1,0.1-0.1,0.2,0c0.2,0.1,0.7,0.5,1.3,0.5c0.9,0,1.6-0.5,1.6-1.6V347.4z M160,344.2c-0.1-0.1-0.6-0.6-1.5-0.6
			c-1,0-1.7,0.9-1.7,1.9c0,1.1,0.7,2,1.8,2c0.8,0,1.3-0.5,1.4-0.6V344.2z"/>
		<path class="st0" d="M162.1,343.4c0-0.1,0.1-0.1,0.2-0.1h0c0.1,0,0.1,0,0.1,0.1l0,0.5c0.1-0.2,0.7-0.7,1.6-0.7
			c1.3,0,1.7,0.8,1.7,2v2.5c0,0.1-0.1,0.1-0.1,0.1h-0.1c-0.1,0-0.1-0.1-0.1-0.1v-2.5c0-1.1-0.4-1.6-1.3-1.6c-0.9,0-1.5,0.7-1.5,0.8
			v3.3c0,0.1,0,0.1-0.1,0.1h-0.2c-0.1,0-0.1-0.1-0.1-0.1V343.4z"/>
		<path class="st0" d="M167.5,341.1c0-0.1,0.1-0.1,0.1-0.1h0.1c0.1,0,0.1,0.1,0.1,0.1v6.6c0,0.1,0,0.1-0.1,0.1h-0.2
			c-0.1,0-0.1-0.1-0.1-0.1V341.1z"/>
		<path class="st0" d="M171.1,344.9c0.5,0,1.1,0.2,1.2,0.2c0-1-0.1-1.5-1-1.5c-0.7,0-1.3,0.3-1.4,0.3c-0.1,0-0.2,0-0.2-0.1l0-0.1
			c0-0.1,0-0.1,0.1-0.2c0,0,0.6-0.3,1.6-0.3c1.4,0,1.4,0.8,1.4,2v2.5c0,0.1-0.1,0.1-0.2,0.1h-0.1c-0.1,0-0.1,0-0.1-0.1l0-0.4
			c-0.3,0.3-0.9,0.7-1.6,0.7c-0.8,0-1.5-0.6-1.5-1.5C169.2,345.5,169.9,344.9,171.1,344.9z M170.7,347.5c0.7,0,1.3-0.4,1.5-0.7v-1.3
			c-0.1-0.1-0.6-0.2-1.2-0.2c-0.9,0-1.5,0.5-1.5,1.1C169.6,347.1,170.1,347.5,170.7,347.5z"/>
		<path class="st0" d="M176.3,347.9c-0.9,0-1.5-0.5-1.6-0.7l0,0.4c0,0.1-0.1,0.1-0.2,0.1h-0.1c-0.1,0-0.1-0.1-0.1-0.1v-6.6
			c0-0.1,0.1-0.1,0.1-0.1h0.1c0.1,0,0.1,0.1,0.1,0.1v2.5c0,0,0.6-0.4,1.4-0.4c1.3,0,2.2,1.1,2.2,2.4
			C178.4,346.9,177.5,347.9,176.3,347.9z M176.2,343.6c-0.8,0-1.4,0.5-1.4,0.5v2.6c0,0,0.5,0.8,1.5,0.8c1,0,1.7-0.9,1.7-2
			C178,344.5,177.2,343.6,176.2,343.6z"/>
		<path class="st0" d="M180,347.1c0.2,0,0.4,0.2,0.4,0.4c0,0.2-0.2,0.4-0.4,0.4c-0.2,0-0.4-0.2-0.4-0.4
			C179.6,347.3,179.8,347.1,180,347.1z"/>
		<path class="st0" d="M183.9,343.2c0.9,0,1.5,0.4,1.7,0.7c0.1,0.1,0,0.1,0,0.2l-0.1,0.1c-0.1,0.1-0.2,0.1-0.2,0
			c-0.1-0.1-0.6-0.5-1.3-0.5c-1,0-1.9,0.9-1.9,1.9c0,1.1,0.8,2,1.9,2c0.8,0,1.3-0.6,1.4-0.7c0.1-0.1,0.1-0.1,0.2,0l0.1,0.1
			c0.1,0.1,0.1,0.1,0,0.2c-0.2,0.3-0.8,0.9-1.8,0.9c-1.3,0-2.4-1-2.4-2.4C181.6,344.2,182.6,343.2,183.9,343.2z"/>
		<path class="st0" d="M189,343.2c1.3,0,2.3,1.1,2.3,2.4c0,1.3-1,2.4-2.3,2.4c-1.3,0-2.3-1.1-2.3-2.4
			C186.7,344.2,187.7,343.2,189,343.2z M189,347.5c1,0,1.8-0.9,1.8-2c0-1.1-0.8-1.9-1.8-1.9c-1,0-1.9,0.9-1.9,1.9
			C187.1,346.6,187.9,347.5,189,347.5z"/>
		<path class="st0" d="M192.6,343.4c0-0.1,0.1-0.1,0.1-0.1h0.1c0.1,0,0.1,0,0.1,0.1l0.1,0.5c0.1-0.2,0.6-0.7,1.5-0.7
			c0.7,0,1.1,0.3,1.4,0.8c0.1-0.2,0.7-0.8,1.6-0.8c1.2,0,1.6,0.8,1.6,2v2.5c0,0.1-0.1,0.1-0.1,0.1h-0.2c-0.1,0-0.1,0-0.1-0.1v-2.5
			c0-1.1-0.4-1.6-1.3-1.6c-0.8,0-1.3,0.6-1.4,0.8c0.1,0.2,0.1,0.5,0.1,0.8v2.5c0,0.1-0.1,0.1-0.1,0.1h-0.1c-0.1,0-0.1,0-0.1-0.1
			v-2.5c0-1.1-0.4-1.6-1.3-1.6c-0.9,0-1.4,0.7-1.4,0.8v3.3c0,0.1,0,0.1-0.1,0.1h-0.2c-0.1,0-0.1-0.1-0.1-0.1V343.4z"/>
		<path class="st0" d="M201,347.1c0.2,0,0.4,0.2,0.4,0.4c0,0.2-0.2,0.4-0.4,0.4c-0.2,0-0.4-0.2-0.4-0.4
			C200.6,347.3,200.8,347.1,201,347.1z"/>
		<path class="st0" d="M204.9,343.2c0.9,0,1.5,0.4,1.7,0.7c0.1,0.1,0,0.1,0,0.2l-0.1,0.1c-0.1,0.1-0.2,0.1-0.2,0
			c-0.1-0.1-0.6-0.5-1.3-0.5c-1,0-1.9,0.9-1.9,1.9c0,1.1,0.8,2,1.9,2c0.8,0,1.3-0.6,1.4-0.7c0.1-0.1,0.1-0.1,0.2,0l0.1,0.1
			c0.1,0.1,0.1,0.1,0,0.2c-0.2,0.3-0.8,0.9-1.8,0.9c-1.3,0-2.4-1-2.4-2.4C202.6,344.2,203.6,343.2,204.9,343.2z"/>
		<path class="st0" d="M209.9,343.2c1.3,0,2.3,1.1,2.3,2.4c0,1.3-1,2.4-2.3,2.4c-1.3,0-2.3-1.1-2.3-2.4
			C207.7,344.2,208.6,343.2,209.9,343.2z M209.9,347.5c1,0,1.8-0.9,1.8-2c0-1.1-0.8-1.9-1.8-1.9c-1,0-1.9,0.9-1.9,1.9
			C208.1,346.6,208.9,347.5,209.9,347.5z"/>
	</g>
	<g>
		<path class="st0" d="M63.6,356.6C63.6,356.6,63.6,356.6,63.6,356.6c-0.6-0.2-1.2-0.7-1.2-1.5c0-0.9,0.7-1.6,1.9-1.6
			c1.2,0,1.9,0.7,1.9,1.6c0,0.7-0.6,1.3-1.2,1.5c0,0,0,0,0,0c0.7,0.2,1.4,0.7,1.4,1.6c0,1.1-0.8,1.7-2.1,1.7c-1.2,0-2-0.6-2-1.7
			C62.2,357.4,62.9,356.8,63.6,356.6z M64.3,359.5c0.9,0,1.6-0.4,1.6-1.3c0-0.7-0.6-1.3-1.6-1.4c-1,0.1-1.6,0.6-1.6,1.4
			C62.6,359.1,63.4,359.5,64.3,359.5z M65.7,355.2c0-0.7-0.5-1.3-1.5-1.3c-0.9,0-1.4,0.6-1.4,1.3c0,0.7,0.6,1.2,1.5,1.2
			C65.2,356.3,65.7,355.9,65.7,355.2z"/>
		<path class="st0" d="M67.6,356.7c0-2,0.8-3.2,2.2-3.2c1.4,0,2.2,1.2,2.2,3.2c0,2-0.8,3.2-2.2,3.2
			C68.4,359.9,67.6,358.7,67.6,356.7z M71.6,356.7c0-1.8-0.6-2.8-1.8-2.8c-1.2,0-1.8,1-1.8,2.8c0,1.8,0.6,2.8,1.8,2.8
			C71,359.5,71.6,358.5,71.6,356.7z"/>
		<path class="st0" d="M73.4,358.9l0.1-0.1c0.1,0,0.1,0,0.2,0c0.2,0.2,0.6,0.7,1.5,0.7c1,0,1.7-0.8,1.7-1.7c0-0.9-0.6-1.5-1.7-1.5
			h-1.5c-0.1,0-0.2-0.1-0.2-0.2v-2.4c0-0.1,0.1-0.1,0.1-0.1h2.9c0.1,0,0.1,0.1,0.1,0.1v0.1c0,0.1-0.1,0.1-0.1,0.1h-2.6v1.9h1.3
			c1.4,0,2.1,0.7,2.1,1.9c0,1.2-0.9,2.1-2.1,2.1c-1,0-1.5-0.5-1.8-0.8C73.3,359,73.3,359,73.4,358.9z"/>
		<path class="st0" d="M83.6,354h-3.4c-0.1,0-0.1-0.1-0.1-0.1v-0.1c0-0.1,0.1-0.1,0.1-0.1H84c0.1,0,0.1,0.1,0.1,0.1c0,0,0,0,0,0.1
			l-2.7,5.9c-0.1,0.1-0.1,0.1-0.2,0.1h-0.2c-0.1,0-0.1-0.1-0.1-0.1L83.6,354L83.6,354z"/>
		<path class="st0" d="M85.9,354.2l-1.1,0.9c0,0-0.1,0-0.1,0l-0.1-0.1c0,0,0-0.1,0-0.1l1.4-1.2c0,0,0.1-0.1,0.2-0.1h0.1
			c0.1,0,0.1,0,0.1,0.1v6c0,0.1-0.1,0.1-0.1,0.1H86c-0.1,0-0.1-0.1-0.1-0.1L85.9,354.2L85.9,354.2z"/>
		<path class="st0" d="M87.9,356.7c0-2,0.8-3.2,2.2-3.2c1.4,0,2.2,1.2,2.2,3.2c0,2-0.8,3.2-2.2,3.2
			C88.7,359.9,87.9,358.7,87.9,356.7z M91.9,356.7c0-1.8-0.6-2.8-1.8-2.8c-1.2,0-1.8,1-1.8,2.8c0,1.8,0.6,2.8,1.8,2.8
			C91.3,359.5,91.9,358.5,91.9,356.7z"/>
		<path class="st0" d="M93.7,356.7c0-2,0.8-3.2,2.2-3.2c1.4,0,2.2,1.2,2.2,3.2c0,2-0.8,3.2-2.2,3.2
			C94.5,359.9,93.7,358.7,93.7,356.7z M97.7,356.7c0-1.8-0.6-2.8-1.8-2.8c-1.2,0-1.8,1-1.8,2.8c0,1.8,0.6,2.8,1.8,2.8
			C97.1,359.5,97.7,358.5,97.7,356.7z"/>
		<path class="st0" d="M101.7,353.2c0-0.1,0.1-0.1,0.1-0.1h0.1c0.1,0,0.1,0,0.1,0.1v8.6c0,0.1-0.1,0.1-0.1,0.1h0
			c-0.1,0-0.1,0-0.1-0.1V353.2z"/>
		<path class="st0" d="M108.5,353.5c0.9,0,1.6,0.3,2.2,0.8c0,0,0.1,0.1,0,0.2l-0.1,0.2c-0.1,0.1-0.1,0-0.2,0
			c-0.5-0.5-1.1-0.7-1.9-0.7c-1.6,0-2.8,1.3-2.8,2.8c0,1.5,1.2,2.8,2.8,2.8c0.8,0,1.3-0.3,1.9-0.7c0.1,0,0.1-0.1,0.1,0l0.2,0.2
			c0,0,0,0.1,0,0.2c-0.6,0.6-1.4,0.9-2.2,0.9c-1.8,0-3.2-1.4-3.2-3.2C105.3,354.9,106.7,353.5,108.5,353.5z"/>
		<path class="st0" d="M113.2,357.2c0.5,0,0.9,0.2,1.1,0.2c0-0.9-0.1-1.4-0.9-1.4c-0.7,0-1.1,0.2-1.2,0.3c-0.1,0-0.1,0-0.2-0.1
			l0-0.1c0-0.1,0-0.1,0.1-0.2c0,0,0.5-0.3,1.4-0.3c1.2,0,1.3,0.7,1.3,1.8v2.3c0,0.1-0.1,0.1-0.1,0.1h-0.1c-0.1,0-0.1,0-0.1-0.1
			l0-0.4c-0.3,0.3-0.8,0.6-1.4,0.6c-0.8,0-1.3-0.5-1.3-1.4C111.5,357.8,112.2,357.2,113.2,357.2z M112.9,359.5
			c0.6,0,1.2-0.4,1.4-0.6v-1.2c-0.1-0.1-0.6-0.2-1.1-0.2c-0.8,0-1.3,0.4-1.3,1C111.9,359.1,112.3,359.5,112.9,359.5z"/>
		<path class="st0" d="M116.2,353.7c0-0.1,0.1-0.1,0.1-0.1h0.1c0.1,0,0.1,0.1,0.1,0.1v5.9c0,0.1,0,0.1-0.1,0.1h-0.1
			c-0.1,0-0.1-0.1-0.1-0.1V353.7z"/>
		<path class="st0" d="M118.2,353.7c0-0.1,0.1-0.1,0.1-0.1h0.1c0.1,0,0.1,0.1,0.1,0.1v5.9c0,0.1,0,0.1-0.1,0.1h-0.1
			c-0.1,0-0.1-0.1-0.1-0.1V353.7z"/>
		<path class="st0" d="M121.8,355.6c1.1,0,1.8,0.8,1.8,1.9c0,0.2,0,0.4-0.2,0.4h-3.3c0,0.9,0.7,1.6,1.6,1.6c0.6,0,1-0.2,1.3-0.4
			c0.1-0.1,0.1-0.1,0.2,0l0.1,0.2c0,0,0,0.1,0,0.2c-0.2,0.2-0.8,0.5-1.5,0.5c-1.2,0-2-1-2-2.2C119.8,356.6,120.6,355.6,121.8,355.6z
			 M123.3,357.5c0-0.8-0.5-1.5-1.4-1.5c-0.9,0-1.5,0.7-1.6,1.5H123.3z"/>
		<path class="st0" d="M127.8,354.2l-1.1,0.9c0,0-0.1,0-0.1,0l-0.1-0.1c0,0,0-0.1,0-0.1l1.4-1.2c0,0,0.1-0.1,0.2-0.1h0.1
			c0.1,0,0.1,0,0.1,0.1v6c0,0.1-0.1,0.1-0.1,0.1h-0.2c-0.1,0-0.1-0.1-0.1-0.1L127.8,354.2L127.8,354.2z"/>
		<path class="st0" d="M130.2,359.4h3.1c0.1,0,0.1,0.1,0.1,0.1v0.1c0,0.1-0.1,0.1-0.1,0.1h-3.6c-0.1,0-0.1-0.1-0.1-0.1v-0.1
			c0-0.1,0-0.1,0.1-0.2l2.4-2.4c0.6-0.6,1-1.2,1-1.8c0-0.7-0.5-1.4-1.5-1.4c-0.8,0-1.3,0.6-1.4,0.7c-0.1,0.1-0.1,0.1-0.2,0l-0.1-0.1
			c0,0-0.1-0.1,0-0.2c0,0,0.6-0.9,1.7-0.9c1.3,0,2,0.8,2,1.8c0,0.8-0.5,1.4-1.2,2.1L130.2,359.4L130.2,359.4z"/>
		<path class="st0" d="M134.6,358.9l0.1-0.1c0.1-0.1,0.1,0,0.2,0c0.2,0.2,0.6,0.7,1.6,0.7c0.9,0,1.6-0.5,1.6-1.4
			c0-0.9-0.8-1.3-1.6-1.3h-0.9c-0.1,0-0.1,0-0.1-0.1v-0.2c0-0.1,0-0.1,0.1-0.1h0.8c0.7,0,1.5-0.3,1.5-1.3c0-0.8-0.6-1.3-1.4-1.3
			c-0.9,0-1.3,0.6-1.4,0.7c0,0-0.1,0.1-0.2,0l-0.1-0.1c-0.1,0-0.1-0.1,0-0.2c0,0,0.6-0.8,1.7-0.8c1,0,1.8,0.6,1.8,1.6
			c0,0.7-0.5,1.3-1,1.5c0,0,0,0,0,0c0.6,0.2,1.2,0.8,1.2,1.5c0,1-0.8,1.8-2.1,1.8c-1.1,0-1.6-0.6-1.8-0.8
			C134.5,359,134.5,359,134.6,358.9z"/>
		<path class="st0" d="M142.5,358h-0.7c-0.1,0-0.1-0.1-0.1-0.1v0c0-0.1,0-0.1,0.1-0.1h0.8l0.3-1.6H142c-0.1,0-0.1-0.1-0.1-0.1v-0.1
			c0-0.1,0.1-0.1,0.1-0.1h0.8l0.4-2.1c0-0.1,0.1-0.1,0.1-0.1h0.1c0.1,0,0.1,0.1,0.1,0.1l-0.3,2.1h1.4l0.4-2.1c0-0.1,0.1-0.1,0.1-0.1
			h0.1c0.1,0,0.1,0.1,0.1,0.1l-0.3,2.1h0.7c0.1,0,0.1,0.1,0.1,0.1v0.1c0,0.1,0,0.1-0.1,0.1h-0.8l-0.3,1.6h0.8c0.1,0,0.1,0.1,0.1,0.1
			v0c0,0.1,0,0.1-0.1,0.1h-0.8l-0.3,1.7c0,0.1-0.1,0.1-0.1,0.1H144c-0.1,0-0.1,0-0.1-0.1l0.3-1.7h-1.5l-0.3,1.7
			c0,0.1-0.1,0.1-0.1,0.1h-0.1c-0.1,0-0.1,0-0.1-0.1L142.5,358z M144.3,357.7l0.3-1.6h-1.4l-0.3,1.6H144.3z"/>
		<path class="st0" d="M149.9,354h-3.4c-0.1,0-0.1-0.1-0.1-0.1v-0.1c0-0.1,0.1-0.1,0.1-0.1h3.8c0.1,0,0.1,0.1,0.1,0.1c0,0,0,0,0,0.1
			l-2.7,5.9c-0.1,0.1-0.1,0.1-0.2,0.1h-0.2c-0.1,0-0.1-0.1-0.1-0.1L149.9,354L149.9,354z"/>
		<path class="st0" d="M153.3,357.6L153.3,357.6c0-0.2,0-0.2,0.1-0.2h2c0.1,0,0.1,0,0.1,0.1v0.1c0,0.1-0.1,0.1-0.1,0.1h-2
			C153.4,357.8,153.3,357.7,153.3,357.6z"/>
		<path class="st0" d="M159,358.9l0.1-0.1c0.1,0,0.1,0,0.2,0c0.2,0.2,0.6,0.7,1.5,0.7c1,0,1.7-0.8,1.7-1.7c0-0.9-0.6-1.5-1.7-1.5
			h-1.5c-0.1,0-0.2-0.1-0.2-0.2v-2.4c0-0.1,0.1-0.1,0.1-0.1h2.9c0.1,0,0.1,0.1,0.1,0.1v0.1c0,0.1-0.1,0.1-0.1,0.1h-2.6v1.9h1.3
			c1.4,0,2.1,0.7,2.1,1.9c0,1.2-0.9,2.1-2.1,2.1c-1,0-1.5-0.5-1.8-0.8C158.9,359,158.9,359,159,358.9z"/>
		<path class="st0" d="M165,354.2l-1.1,0.9c0,0-0.1,0-0.1,0l-0.1-0.1c0,0,0-0.1,0-0.1l1.4-1.2c0,0,0.1-0.1,0.2-0.1h0.1
			c0.1,0,0.1,0,0.1,0.1v6c0,0.1-0.1,0.1-0.1,0.1h-0.2c-0.1,0-0.1-0.1-0.1-0.1L165,354.2L165,354.2z"/>
		<path class="st0" d="M172.2,353.5c1.8,0,3.2,1.4,3.2,3.2c0,1.8-1.4,3.2-3.2,3.2c-1.8,0-3.2-1.4-3.2-3.2
			C169,354.9,170.4,353.5,172.2,353.5z M172.2,359.5c1.6,0,2.8-1.2,2.8-2.8c0-1.6-1.3-2.8-2.8-2.8c-1.6,0-2.8,1.3-2.8,2.8
			C169.4,358.3,170.6,359.5,172.2,359.5z"/>
		<path class="st0" d="M176.9,356.1h-0.6c-0.1,0-0.1-0.1-0.1-0.1v-0.1c0-0.1,0.1-0.1,0.1-0.1h0.6v-0.6c0-1,0.5-1.6,1.3-1.6
			c0.5,0,1,0.2,1.1,0.4c0.1,0.1,0.1,0.1,0,0.2l-0.1,0.1c-0.1,0.1-0.1,0.1-0.2,0c-0.2-0.2-0.5-0.3-0.9-0.3c-0.6,0-0.9,0.4-0.9,1.2
			v0.6h1.5c0.1,0,0.1,0,0.1,0.1v0.1c0,0.1,0,0.1-0.1,0.1h-1.5v3.6c0,0.1-0.1,0.1-0.1,0.1H177c-0.1,0-0.1-0.1-0.1-0.1V356.1z"/>
		<path class="st0" d="M180.1,359.2c0.2,0,0.4,0.2,0.4,0.4c0,0.2-0.2,0.4-0.4,0.4c-0.2,0-0.4-0.2-0.4-0.4
			C179.7,359.3,179.9,359.2,180.1,359.2z"/>
		<path class="st0" d="M186.9,354h-3.4c-0.1,0-0.1-0.1-0.1-0.1v-0.1c0-0.1,0.1-0.1,0.1-0.1h3.8c0.1,0,0.1,0.1,0.1,0.1c0,0,0,0,0,0.1
			l-2.7,5.9c-0.1,0.1-0.1,0.1-0.2,0.1h-0.2c-0.1,0-0.1-0.1-0.1-0.1L186.9,354L186.9,354z"/>
		<path class="st0" d="M188.2,356.7c0-2,0.8-3.2,2.2-3.2c1.4,0,2.2,1.2,2.2,3.2c0,2-0.8,3.2-2.2,3.2
			C189,359.9,188.2,358.7,188.2,356.7z M192.2,356.7c0-1.8-0.6-2.8-1.8-2.8c-1.2,0-1.8,1-1.8,2.8c0,1.8,0.6,2.8,1.8,2.8
			C191.6,359.5,192.2,358.5,192.2,356.7z"/>
		<path class="st0" d="M194.4,359.4h3.1c0.1,0,0.1,0.1,0.1,0.1v0.1c0,0.1-0.1,0.1-0.1,0.1h-3.6c-0.1,0-0.1-0.1-0.1-0.1v-0.1
			c0-0.1,0-0.1,0.1-0.2l2.4-2.4c0.6-0.6,1-1.2,1-1.8c0-0.7-0.5-1.4-1.5-1.4c-0.8,0-1.3,0.6-1.4,0.7c-0.1,0.1-0.1,0.1-0.2,0l-0.1-0.1
			c0,0-0.1-0.1,0-0.2c0,0,0.6-0.9,1.7-0.9c1.3,0,2,0.8,2,1.8c0,0.8-0.5,1.4-1.2,2.1L194.4,359.4L194.4,359.4z"/>
		<path class="st0" d="M201.1,353.2c0-0.1,0.1-0.1,0.1-0.1h0.1c0.1,0,0.1,0,0.1,0.1v8.6c0,0.1-0.1,0.1-0.1,0.1h0
			c-0.1,0-0.1,0-0.1-0.1V353.2z"/>
		<path class="st0" d="M205.1,353.7c0-0.1,0.1-0.1,0.1-0.1h0.2c0.1,0,0.1,0.1,0.1,0.1v2.8l3-2.8c0.1-0.1,0.1-0.1,0.2-0.1h0.2
			c0.1,0,0.1,0.1,0.1,0.2l-3.1,2.9l3.2,3c0.1,0,0,0.2-0.1,0.2h-0.3c-0.1,0-0.1,0-0.2-0.1l-3-2.9v2.9c0,0.1-0.1,0.1-0.1,0.1h-0.2
			c-0.1,0-0.1,0-0.1-0.1V353.7z"/>
		<path class="st0" d="M211.4,357.2c0.5,0,0.9,0.2,1.1,0.2c0-0.9-0.1-1.4-0.9-1.4c-0.7,0-1.1,0.2-1.2,0.3c-0.1,0-0.1,0-0.2-0.1
			l0-0.1c0-0.1,0-0.1,0.1-0.2c0,0,0.6-0.3,1.4-0.3c1.2,0,1.3,0.7,1.3,1.8v2.3c0,0.1-0.1,0.1-0.1,0.1h-0.1c-0.1,0-0.1,0-0.1-0.1
			l0-0.4c-0.3,0.3-0.8,0.6-1.4,0.6c-0.8,0-1.3-0.5-1.3-1.4C209.7,357.8,210.3,357.2,211.4,357.2z M211,359.5c0.6,0,1.2-0.4,1.4-0.6
			v-1.2c-0.1-0.1-0.6-0.2-1.1-0.2c-0.8,0-1.3,0.4-1.3,1C210,359.1,210.5,359.5,211,359.5z"/>
		<path class="st0" d="M214.1,354.2c0-0.2,0.2-0.3,0.4-0.3c0.2,0,0.3,0.2,0.3,0.3c0,0.2-0.2,0.3-0.3,0.3
			C214.3,354.6,214.1,354.4,214.1,354.2z M214.3,355.8c0-0.1,0.1-0.1,0.1-0.1h0.1c0.1,0,0.1,0.1,0.1,0.1v3.8c0,0.1,0,0.1-0.1,0.1
			h-0.1c-0.1,0-0.1-0.1-0.1-0.1V355.8z"/>
		<path class="st0" d="M215.7,355.9c0-0.1,0-0.2,0.1-0.2h0.2c0.1,0,0.1,0,0.1,0.1l1,3.3h0l1.2-3.4c0-0.1,0.1-0.1,0.1-0.1h0
			c0.1,0,0.1,0,0.1,0.1l1.2,3.4h0l1-3.3c0-0.1,0.1-0.1,0.1-0.1h0.2c0.1,0,0.1,0.1,0.1,0.2l-1.2,3.9c0,0.1-0.1,0.1-0.1,0.1h0
			c-0.1,0-0.1,0-0.1-0.1l-1.2-3.5h0l-1.2,3.5c0,0.1-0.1,0.1-0.1,0.1h0c-0.1,0-0.1,0-0.1-0.1L215.7,355.9z"/>
		<path class="st0" d="M223.7,357.2c0.5,0,0.9,0.2,1.1,0.2c0-0.9-0.1-1.4-0.9-1.4c-0.7,0-1.1,0.2-1.2,0.3c-0.1,0-0.1,0-0.2-0.1
			l0-0.1c0-0.1,0-0.1,0.1-0.2c0,0,0.6-0.3,1.4-0.3c1.2,0,1.3,0.7,1.3,1.8v2.3c0,0.1-0.1,0.1-0.1,0.1h-0.1c-0.1,0-0.1,0-0.1-0.1
			l0-0.4c-0.3,0.3-0.8,0.6-1.4,0.6c-0.8,0-1.3-0.5-1.3-1.4C222,357.8,222.6,357.2,223.7,357.2z M223.4,359.5c0.6,0,1.2-0.4,1.4-0.6
			v-1.2c-0.1-0.1-0.6-0.2-1.1-0.2c-0.8,0-1.3,0.4-1.3,1C222.4,359.1,222.8,359.5,223.4,359.5z"/>
		<path class="st0" d="M231.8,356.6c0.6,0.2,1.1,0.6,1.1,1.5c0,1-0.8,1.7-2,1.7h-2c-0.1,0-0.1-0.1-0.1-0.1v-6c0-0.1,0.1-0.1,0.1-0.1
			h1.9c1.1,0,1.8,0.6,1.8,1.6C232.7,355.9,232.3,356.4,231.8,356.6L231.8,356.6z M230.9,356.5c0.8,0,1.3-0.5,1.3-1.3
			c0-0.8-0.5-1.2-1.4-1.2h-1.6v2.5H230.9z M231,359.4c0.9,0,1.5-0.5,1.5-1.3c0-0.8-0.6-1.3-1.5-1.3h-1.7v2.6H231z"/>
		<path class="st0" d="M234.2,355.8c0-0.1,0.1-0.1,0.1-0.1h0.1c0.1,0,0.1,0.1,0.1,0.1v2.3c0,0.9,0.3,1.4,1.2,1.4
			c0.8,0,1.2-0.6,1.3-0.8v-2.9c0-0.1,0-0.1,0.1-0.1h0.1c0.1,0,0.1,0.1,0.1,0.1v3.8c0,0.1-0.1,0.1-0.1,0.1h-0.1
			c-0.1,0-0.1-0.1-0.1-0.1l0-0.4c-0.1,0.1-0.5,0.6-1.3,0.6c-1.2,0-1.5-0.6-1.5-1.8V355.8z"/>
		<path class="st0" d="M238.8,354.2c0-0.2,0.2-0.3,0.4-0.3c0.2,0,0.3,0.2,0.3,0.3c0,0.2-0.2,0.3-0.3,0.3
			C238.9,354.6,238.8,354.4,238.8,354.2z M239,355.8c0-0.1,0.1-0.1,0.1-0.1h0.1c0.1,0,0.1,0.1,0.1,0.1v3.8c0,0.1,0,0.1-0.1,0.1h-0.1
			c-0.1,0-0.1-0.1-0.1-0.1V355.8z"/>
		<path class="st0" d="M240.9,353.7c0-0.1,0.1-0.1,0.1-0.1h0.1c0.1,0,0.1,0.1,0.1,0.1v5.9c0,0.1,0,0.1-0.1,0.1H241
			c-0.1,0-0.1-0.1-0.1-0.1V353.7z"/>
		<path class="st0" d="M244.5,355.6c0.8,0,1.3,0.4,1.3,0.4v-2.3c0-0.1,0-0.1,0.1-0.1h0.1c0.1,0,0.1,0.1,0.1,0.1v5.9
			c0,0.1-0.1,0.1-0.1,0.1H246c-0.1,0-0.1,0-0.2-0.1l0-0.4c-0.1,0.1-0.6,0.6-1.4,0.6c-1.1,0-1.9-0.9-1.9-2.1
			C242.5,356.6,243.4,355.6,244.5,355.6z M244.4,359.5c0.9,0,1.4-0.6,1.4-0.7v-2.4c0,0-0.5-0.5-1.2-0.5c-0.9,0-1.6,0.8-1.6,1.8
			C242.9,358.7,243.6,359.5,244.4,359.5z"/>
		<path class="st0" d="M247.5,354.2c0-0.2,0.2-0.3,0.4-0.3c0.2,0,0.3,0.2,0.3,0.3c0,0.2-0.2,0.3-0.3,0.3
			C247.7,354.6,247.5,354.4,247.5,354.2z M247.7,355.8c0-0.1,0.1-0.1,0.1-0.1h0.1c0.1,0,0.1,0.1,0.1,0.1v3.8c0,0.1,0,0.1-0.1,0.1
			h-0.1c-0.1,0-0.1-0.1-0.1-0.1V355.8z"/>
		<path class="st0" d="M249.6,355.8c0-0.1,0.1-0.1,0.1-0.1h0c0.1,0,0.1,0,0.1,0.1l0,0.4c0.1-0.1,0.6-0.6,1.4-0.6
			c1.2,0,1.5,0.7,1.5,1.8v2.3c0,0.1-0.1,0.1-0.1,0.1h-0.1c-0.1,0-0.1-0.1-0.1-0.1v-2.2c0-0.9-0.4-1.4-1.2-1.4
			c-0.8,0-1.4,0.6-1.4,0.7v3c0,0.1,0,0.1-0.1,0.1h-0.1c-0.1,0-0.1-0.1-0.1-0.1V355.8z"/>
		<path class="st0" d="M257.4,359.5c-0.1,0.1-0.6,0.4-1.2,0.4c-1.2,0-2-0.9-2-2.2c0-1.2,0.8-2.1,1.9-2.1c0.8,0,1.3,0.4,1.4,0.5
			l0-0.3c0-0.1,0-0.1,0.1-0.1h0.1c0.1,0,0.1,0,0.1,0.1v4.1c0,1.2-0.8,1.8-1.8,1.8c-0.7,0-1.2-0.4-1.4-0.5c-0.1-0.1-0.1-0.1,0-0.2
			l0.1-0.1c0.1-0.1,0.1-0.1,0.2,0c0.2,0.1,0.6,0.4,1.1,0.4c0.8,0,1.4-0.5,1.4-1.5V359.5z M257.4,356.5c-0.1-0.1-0.5-0.5-1.3-0.5
			c-0.9,0-1.6,0.8-1.6,1.7c0,1,0.7,1.8,1.7,1.8c0.7,0,1.2-0.4,1.2-0.5V356.5z"/>
		<path class="st0" d="M129.4,366.7c0.5,0.2,1.1,0.6,1.1,1.4c0,1-0.9,1.7-1.9,1.7h-2.1c-0.1,0-0.2-0.1-0.2-0.2v-5.9
			c0-0.1,0.1-0.2,0.2-0.2h2c1.1,0,1.9,0.7,1.9,1.6C130.3,366,129.8,366.5,129.4,366.7L129.4,366.7z M128.3,366.3
			c0.5,0,0.7-0.4,0.7-0.8c0-0.4-0.3-0.8-0.7-0.8h-1v1.6H128.3z M128.4,368.8c0.4,0,0.8-0.3,0.8-0.8c0-0.4-0.3-0.8-0.8-0.8h-1.1v1.6
			H128.4z"/>
		<path class="st0" d="M133.3,365.7c1.2,0,2.1,1,2.1,2.1c0,1.2-0.9,2.2-2.1,2.2c-1.2,0-2.1-1-2.1-2.2
			C131.2,366.7,132.2,365.7,133.3,365.7z M133.3,369c0.6,0,1.1-0.5,1.1-1.1c0-0.6-0.5-1.1-1.1-1.1c-0.6,0-1.1,0.5-1.1,1.1
			C132.3,368.4,132.7,369,133.3,369z"/>
		<path class="st0" d="M140.2,369.9c0,1.3-0.9,2-2,2c-0.7,0-1.3-0.3-1.5-0.5c-0.1-0.1-0.1-0.2,0-0.2l0.3-0.6c0-0.1,0.2-0.1,0.2-0.1
			c0.2,0.1,0.5,0.3,1,0.3c0.6,0,1-0.2,1-1v-0.1c-0.2,0.1-0.6,0.2-1,0.2c-1.2,0-2-0.9-2-2.1c0-1.2,0.8-2.1,2-2.1
			c0.9,0,1.3,0.6,1.3,0.6l0.1-0.3c0-0.1,0.1-0.2,0.2-0.2h0.3c0.1,0,0.2,0.1,0.2,0.2V369.9z M139.1,367.3c-0.1-0.2-0.4-0.6-0.9-0.6
			c-0.6,0-1,0.6-1,1.1s0.3,1.1,1,1.1c0.5,0,0.9-0.2,0.9-0.2V367.3z"/>
		<path class="st0" d="M143.2,365.7c1.2,0,2.1,1,2.1,2.1c0,1.2-0.9,2.2-2.1,2.2c-1.2,0-2.1-1-2.1-2.2
			C141.1,366.7,142,365.7,143.2,365.7z M143.2,369c0.6,0,1.1-0.5,1.1-1.1c0-0.6-0.5-1.1-1.1-1.1s-1.1,0.5-1.1,1.1
			C142.1,368.4,142.6,369,143.2,369z"/>
		<path class="st0" d="M146.4,366.8H146c-0.1,0-0.2-0.1-0.2-0.2V366c0-0.1,0.1-0.2,0.2-0.2h0.4v-1.1c0-0.1,0.1-0.2,0.2-0.2h0.7
			c0.1,0,0.2,0.1,0.2,0.2v1.1h1c0.1,0,0.2,0.1,0.2,0.2v0.6c0,0.1-0.1,0.2-0.2,0.2h-1v1.8c0,0.3,0.1,0.3,0.3,0.3
			c0.2,0,0.5-0.1,0.6-0.1c0.1,0,0.2,0,0.2,0.1l0.1,0.5c0,0.1,0,0.2-0.1,0.2c-0.1,0.1-0.7,0.3-1.2,0.3c-0.9,0-1.1-0.6-1.1-1.3V366.8z
			"/>
		<path class="st0" d="M150.9,367.3c0.4,0,0.8,0.1,0.8,0.1c0-0.5-0.1-0.8-0.6-0.8c-0.4,0-0.9,0.1-1.2,0.2c-0.1,0-0.2-0.1-0.2-0.2
			l-0.1-0.5c0-0.2,0-0.2,0.1-0.2c0.1,0,0.7-0.2,1.4-0.2c1.3,0,1.5,0.7,1.5,1.8v2.2c0,0.1-0.1,0.2-0.2,0.2h-0.3c-0.1,0-0.1,0-0.2-0.1
			l-0.1-0.3c-0.2,0.2-0.6,0.5-1.3,0.5c-0.8,0-1.4-0.5-1.4-1.4C149.3,367.8,149.9,367.3,150.9,367.3z M151,369.1
			c0.4,0,0.7-0.3,0.7-0.4v-0.6c0,0-0.3-0.1-0.6-0.1c-0.5,0-0.7,0.2-0.7,0.6C150.4,368.9,150.6,369.1,151,369.1z M150.6,365.1
			l-0.2-0.3c0-0.1,0-0.1,0.1-0.2l1.4-0.9c0.1-0.1,0.2-0.1,0.2,0l0.3,0.5c0.1,0.1,0,0.2-0.1,0.2l-1.6,0.7
			C150.7,365.2,150.7,365.2,150.6,365.1z"/>
		<path class="st0" d="M154.4,368.4c0.5,0,0.9,0.4,0.9,1.2c0,0.9-0.4,1.5-0.7,1.9c-0.1,0.1-0.1,0.1-0.2,0l-0.3-0.2
			c-0.1-0.1-0.1-0.2,0-0.2c0.3-0.3,0.5-0.8,0.5-1.2c0-0.1,0-0.1,0-0.2c-0.1,0.1-0.2,0.1-0.3,0.1c-0.4,0-0.6-0.3-0.6-0.7
			C153.7,368.7,154,368.4,154.4,368.4z"/>
		<path class="st0" d="M161.4,363.6c0.9,0,1.5,0.3,2.1,0.8c0.1,0.1,0.1,0.2,0,0.2l-0.5,0.6c-0.1,0.1-0.2,0.1-0.2,0
			c-0.4-0.3-0.9-0.5-1.4-0.5c-1.1,0-2,0.9-2,2.1c0,1.1,0.9,2,2,2c0.5,0,1-0.2,1.4-0.5c0.1-0.1,0.2-0.1,0.2,0l0.6,0.6
			c0.1,0.1,0.1,0.2,0,0.2c-0.6,0.6-1.4,0.9-2.2,0.9c-1.8,0-3.2-1.4-3.2-3.2C158.2,365,159.6,363.6,161.4,363.6z"/>
		<path class="st0" d="M166.3,365.7c1.2,0,2.1,1,2.1,2.1c0,1.2-0.9,2.2-2.1,2.2c-1.2,0-2.1-1-2.1-2.2
			C164.2,366.7,165.2,365.7,166.3,365.7z M166.3,369c0.6,0,1.1-0.5,1.1-1.1c0-0.6-0.5-1.1-1.1-1.1c-0.6,0-1.1,0.5-1.1,1.1
			C165.3,368.4,165.7,369,166.3,369z"/>
		<path class="st0" d="M169.3,363.9c0-0.1,0.1-0.2,0.2-0.2h0.7c0.1,0,0.2,0.1,0.2,0.2v5.8c0,0.1-0.1,0.2-0.2,0.2h-0.7
			c-0.1,0-0.2-0.1-0.2-0.2V363.9z"/>
		<path class="st0" d="M173.4,365.7c1.2,0,2.1,1,2.1,2.1c0,1.2-0.9,2.2-2.1,2.2c-1.2,0-2.1-1-2.1-2.2
			C171.3,366.7,172.3,365.7,173.4,365.7z M173.4,369c0.6,0,1.1-0.5,1.1-1.1c0-0.6-0.5-1.1-1.1-1.1s-1.1,0.5-1.1,1.1
			C172.3,368.4,172.8,369,173.4,369z"/>
		<path class="st0" d="M176.4,366c0-0.1,0.1-0.2,0.2-0.2h0.3c0.1,0,0.2,0,0.2,0.1l0.2,0.4c0.2-0.2,0.5-0.6,1.3-0.6
			c0.6,0,0.9,0.2,1.2,0.6c0.2-0.2,0.6-0.6,1.3-0.6c1.3,0,1.6,0.8,1.6,1.9v2.1c0,0.1-0.1,0.2-0.2,0.2h-0.7c-0.1,0-0.2-0.1-0.2-0.2
			v-2.1c0-0.5-0.2-0.9-0.7-0.9c-0.6,0-0.8,0.4-0.8,0.4s0,0.2,0,0.4v2.2c0,0.1-0.1,0.2-0.2,0.2h-0.7c-0.1,0-0.2-0.1-0.2-0.2v-2.1
			c0-0.5-0.2-0.9-0.7-0.9c-0.5,0-0.7,0.4-0.8,0.6v2.3c0,0.1-0.1,0.2-0.2,0.2h-0.7c-0.1,0-0.2-0.1-0.2-0.2V366z"/>
		<path class="st0" d="M183.7,363.9c0-0.1,0.1-0.2,0.2-0.2h0.7c0.1,0,0.2,0.1,0.2,0.2v2c0.2-0.1,0.6-0.2,1-0.2c1.2,0,2,0.9,2,2.1
			c0,1.2-0.8,2.1-1.9,2.1c-0.9,0-1.4-0.6-1.4-0.6l-0.1,0.3c0,0.1-0.1,0.2-0.2,0.2h-0.3c-0.1,0-0.2-0.1-0.2-0.2V363.9z M185.7,369
			c0.6,0,1-0.6,1-1.1s-0.3-1.1-1-1.1c-0.5,0-0.9,0.2-0.9,0.2v1.5C184.9,368.6,185.2,369,185.7,369z"/>
		<path class="st0" d="M188.6,364.4c0-0.4,0.3-0.7,0.7-0.7c0.4,0,0.7,0.3,0.7,0.7c0,0.4-0.3,0.7-0.7,0.7
			C188.9,365.1,188.6,364.8,188.6,364.4z M188.7,366c0-0.1,0.1-0.2,0.2-0.2h0.7c0.1,0,0.2,0.1,0.2,0.2v3.7c0,0.1-0.1,0.2-0.2,0.2
			h-0.7c-0.1,0-0.2-0.1-0.2-0.2V366z"/>
		<path class="st0" d="M192.3,367.3c0.4,0,0.8,0.1,0.8,0.1c0-0.5-0.1-0.8-0.6-0.8c-0.4,0-0.9,0.1-1.2,0.2c-0.1,0-0.2-0.1-0.2-0.2
			l-0.1-0.5c0-0.2,0-0.2,0.1-0.2c0.1,0,0.7-0.2,1.4-0.2c1.3,0,1.5,0.7,1.5,1.8v2.2c0,0.1-0.1,0.2-0.2,0.2h-0.3c-0.1,0-0.1,0-0.2-0.1
			l-0.1-0.3c-0.2,0.2-0.6,0.5-1.3,0.5c-0.8,0-1.4-0.5-1.4-1.4C190.7,367.8,191.3,367.3,192.3,367.3z M192.3,369.1
			c0.4,0,0.7-0.3,0.7-0.4v-0.6c0,0-0.3-0.1-0.6-0.1c-0.5,0-0.7,0.2-0.7,0.6C191.8,368.9,192,369.1,192.3,369.1z"/>
	</g>
</g>
<g>
	<g>
		<path class="st0" d="M104.8,445.3c2.2,0,3.5,1.4,3.5,3.2c0,1-0.5,2.1-1.7,2.1c-0.5,0-0.8-0.3-0.9-0.6c-0.1,0.2-0.5,0.6-1.2,0.6
			c-0.9,0-1.5-0.7-1.5-1.6c0-1,0.7-1.6,1.6-1.6c0.7,0,1,0.3,1,0.3l0-0.2c0-0.1,0-0.1,0.1-0.1h0.1c0.1,0,0.1,0,0.1,0.1v1.9
			c0,0.6,0.2,0.8,0.7,0.8c0.8,0,1.3-0.7,1.3-1.8c0-1.7-1.1-2.9-3.1-2.9c-2.1,0-3.4,1.4-3.4,3.4c0,1.5,1,2.6,2.3,3.2
			c0.1,0,0.1,0.1,0,0.1l-0.1,0.1c0,0.1-0.1,0.1-0.1,0c-1.5-0.6-2.5-1.8-2.5-3.4C101,446.8,102.5,445.3,104.8,445.3z M104.5,450.2
			c0.7,0,1-0.6,1.1-0.7v-1.4c0,0-0.3-0.4-1-0.4c-0.7,0-1.3,0.5-1.3,1.3C103.3,449.7,103.8,450.2,104.5,450.2z"/>
		<path class="st0" d="M109.5,447.5H109c-0.1,0-0.1,0-0.1-0.1v-0.1c0-0.1,0-0.1,0.1-0.1h0.5v-1c0-0.1,0.1-0.1,0.1-0.1l0.1,0
			c0.1,0,0.1,0.1,0.1,0.1v1h1.3c0.1,0,0.1,0.1,0.1,0.1v0.1c0,0.1,0,0.1-0.1,0.1h-1.3v2.3c0,0.5,0.1,0.7,0.5,0.7
			c0.4,0,0.8-0.2,0.9-0.3c0.1,0,0.1,0,0.1,0l0.1,0.1c0,0.1,0,0.1,0,0.1c-0.1,0.1-0.6,0.3-1.1,0.3c-0.7,0-0.8-0.4-0.8-0.9V447.5z"/>
		<path class="st0" d="M112.3,445.5c0-0.1,0-0.1,0.1-0.1h0.1c0.1,0,0.1,0.1,0.1,0.1v2.2c0.1-0.1,0.6-0.6,1.3-0.6
			c1,0,1.4,0.6,1.4,1.6v1.9c0,0.1-0.1,0.1-0.1,0.1h-0.1c-0.1,0-0.1-0.1-0.1-0.1v-1.9c0-0.8-0.3-1.2-1.1-1.2c-0.7,0-1.2,0.5-1.3,0.7
			v2.5c0,0.1,0,0.1-0.1,0.1h-0.1c-0.1,0-0.1-0.1-0.1-0.1V445.5z"/>
		<path class="st0" d="M118.3,447.1c1,0,1.7,0.7,1.7,1.6c0,0.1,0,0.3-0.1,0.3h-3c0,0.8,0.7,1.4,1.5,1.4c0.5,0,0.9-0.2,1.2-0.4
			c0.1,0,0.1-0.1,0.2,0l0.1,0.1c0,0,0,0.1,0,0.1c-0.2,0.2-0.8,0.4-1.4,0.4c-1.1,0-1.8-0.8-1.8-1.9
			C116.5,447.9,117.2,447.1,118.3,447.1z M119.6,448.7c0-0.7-0.5-1.3-1.3-1.3c-0.8,0-1.4,0.6-1.5,1.3H119.6z"/>
		<path class="st0" d="M120.8,450.5c0,0-0.1-0.1,0-0.2l0.2-0.5c0-0.1,0.1-0.1,0.2-0.1c0.2,0.1,0.4,0.2,0.8,0.2
			c0.3,0,0.4-0.1,0.4-0.3c0-0.2-0.2-0.3-0.7-0.5c-0.7-0.3-1.1-0.6-1.1-1.1c0-0.5,0.4-1,1.4-1c0.6,0,0.9,0.1,1.1,0.3
			c0.1,0.1,0.1,0.2,0.1,0.2L123,448c-0.1,0.1-0.2,0.1-0.2,0.1c-0.2-0.1-0.4-0.2-0.8-0.2c-0.3,0-0.4,0.1-0.4,0.2
			c0,0.2,0.2,0.2,0.5,0.4c0.7,0.3,1.3,0.5,1.3,1.2c0,0.6-0.5,1.1-1.5,1.1C121.4,450.8,121,450.6,120.8,450.5z"/>
		<path class="st0" d="M124.1,446c0-0.3,0.3-0.6,0.6-0.6c0.4,0,0.7,0.3,0.7,0.6c0,0.3-0.3,0.6-0.7,0.6
			C124.4,446.6,124.1,446.3,124.1,446z M124.3,447.3c0-0.1,0.1-0.2,0.2-0.2h0.7c0.1,0,0.2,0.1,0.2,0.2v3.2c0,0.1-0.1,0.2-0.2,0.2
			h-0.7c-0.1,0-0.2-0.1-0.2-0.2V447.3z"/>
		<path class="st0" d="M129.9,450.7c0,1.1-0.9,1.7-1.9,1.7c-0.6,0-1.2-0.3-1.4-0.4c-0.1,0-0.1-0.1,0-0.2l0.2-0.5
			c0-0.1,0.1-0.1,0.2,0c0.1,0.1,0.5,0.3,0.9,0.3c0.6,0,0.9-0.2,0.9-0.8v-0.1c-0.2,0.1-0.5,0.1-0.9,0.1c-1.1,0-1.9-0.8-1.9-1.8
			c0-1.1,0.8-1.9,1.8-1.9c0.8,0,1.2,0.5,1.2,0.5l0.1-0.3c0-0.1,0.1-0.2,0.2-0.2h0.3c0.1,0,0.2,0.1,0.2,0.2V450.7z M128.9,448.5
			c-0.1-0.2-0.3-0.5-0.8-0.5c-0.6,0-0.9,0.5-0.9,1c0,0.5,0.3,1,0.9,1c0.5,0,0.8-0.2,0.8-0.2V448.5z"/>
		<path class="st0" d="M131,447.3c0-0.1,0.1-0.2,0.2-0.2h0.3c0.1,0,0.1,0,0.2,0.1l0.1,0.3c0.1-0.1,0.5-0.5,1.2-0.5
			c1.2,0,1.5,0.8,1.5,1.6v1.8c0,0.1-0.1,0.2-0.2,0.2h-0.7c-0.1,0-0.2-0.1-0.2-0.2v-1.8c0-0.5-0.2-0.7-0.7-0.7
			c-0.5,0-0.7,0.3-0.8,0.6v2c0,0.1-0.1,0.2-0.2,0.2h-0.6c-0.1,0-0.2-0.1-0.2-0.2V447.3z"/>
		<path class="st0" d="M135.7,445.5c0-0.1,0-0.1,0.1-0.1h0.1c0.1,0,0.1,0.1,0.1,0.1v5.1c0,0.1,0,0.1-0.1,0.1h-0.1
			c-0.1,0-0.1-0.1-0.1-0.1V445.5z"/>
		<path class="st0" d="M138.8,448.4c0.4,0,0.9,0.1,1,0.2c0-0.8-0.1-1.2-0.9-1.2c-0.6,0-1.1,0.2-1.1,0.2c-0.1,0-0.1,0-0.1-0.1l0-0.1
			c0-0.1,0-0.1,0-0.1c0,0,0.5-0.3,1.3-0.3c1.1,0,1.2,0.6,1.2,1.5v2c0,0.1-0.1,0.1-0.1,0.1h-0.1c-0.1,0-0.1,0-0.1-0.1l0-0.3
			c-0.2,0.2-0.7,0.5-1.3,0.5c-0.7,0-1.2-0.4-1.2-1.2C137.2,448.9,137.8,448.4,138.8,448.4z M138.5,450.5c0.6,0,1.1-0.3,1.3-0.5v-1
			c-0.1-0.1-0.5-0.2-1-0.2c-0.7,0-1.2,0.4-1.2,0.9C137.5,450.1,137.9,450.5,138.5,450.5z"/>
		<path class="st0" d="M143.1,450.8c-0.7,0-1.2-0.4-1.3-0.5l0,0.3c0,0.1-0.1,0.1-0.1,0.1h0c-0.1,0-0.1-0.1-0.1-0.1v-5.1
			c0-0.1,0.1-0.1,0.1-0.1h0.1c0.1,0,0.1,0.1,0.1,0.1v2c0,0,0.5-0.3,1.2-0.3c1.1,0,1.8,0.8,1.8,1.8
			C144.8,450,144.1,450.8,143.1,450.8z M143,447.4c-0.7,0-1.1,0.4-1.1,0.4v2c0,0,0.5,0.6,1.3,0.6c0.8,0,1.4-0.7,1.4-1.5
			C144.5,448.1,143.8,447.4,143,447.4z"/>
		<path class="st0" d="M147.7,447.1c0.7,0,1.2,0.3,1.4,0.5c0,0.1,0,0.1,0,0.2l-0.1,0.1c-0.1,0.1-0.1,0-0.2,0
			c-0.1-0.1-0.5-0.4-1.1-0.4c-0.9,0-1.6,0.7-1.6,1.5c0,0.9,0.7,1.5,1.6,1.5c0.7,0,1.1-0.4,1.2-0.5c0.1-0.1,0.1-0.1,0.2,0l0.1,0.1
			c0,0,0.1,0.1,0,0.1c-0.2,0.2-0.7,0.7-1.5,0.7c-1.1,0-2-0.8-2-1.9C145.7,447.9,146.6,447.1,147.7,447.1z"/>
		<path class="st0" d="M151.8,447.1c1.1,0,1.9,0.8,1.9,1.8c0,1-0.8,1.9-1.9,1.9c-1.1,0-1.9-0.8-1.9-1.9
			C149.9,447.9,150.8,447.1,151.8,447.1z M151.8,450.5c0.8,0,1.5-0.7,1.5-1.5c0-0.8-0.7-1.5-1.5-1.5c-0.9,0-1.5,0.7-1.5,1.5
			C150.3,449.8,151,450.5,151.8,450.5z"/>
	</g>
	<g>
		<path class="st0" d="M181.7,445.6c2.2,0,3.5,1.4,3.5,3.2c0,1-0.5,2.1-1.7,2.1c-0.5,0-0.8-0.3-0.9-0.6c-0.1,0.2-0.5,0.6-1.2,0.6
			c-0.9,0-1.5-0.7-1.5-1.6c0-1,0.7-1.6,1.6-1.6c0.7,0,1,0.3,1,0.3l0-0.2c0-0.1,0-0.1,0.1-0.1h0.1c0.1,0,0.1,0,0.1,0.1v1.9
			c0,0.6,0.2,0.8,0.7,0.8c0.8,0,1.3-0.7,1.3-1.8c0-1.7-1.1-2.9-3.1-2.9c-2.1,0-3.4,1.4-3.4,3.4c0,1.5,1,2.6,2.3,3.2
			c0.1,0,0.1,0.1,0,0.1l-0.1,0.1c0,0.1-0.1,0.1-0.1,0c-1.5-0.6-2.5-1.8-2.5-3.4C177.9,447.1,179.4,445.6,181.7,445.6z M181.4,450.5
			c0.7,0,1-0.6,1.1-0.7v-1.4c0,0-0.3-0.4-1-0.4c-0.7,0-1.3,0.5-1.3,1.3S180.7,450.5,181.4,450.5z"/>
		<path class="st0" d="M186.3,447.8h-0.5c-0.1,0-0.1,0-0.1-0.1v-0.1c0-0.1,0-0.1,0.1-0.1h0.5v-1c0-0.1,0.1-0.1,0.1-0.1l0.1,0
			c0.1,0,0.1,0.1,0.1,0.1v1h1.3c0.1,0,0.1,0.1,0.1,0.1v0.1c0,0.1,0,0.1-0.1,0.1h-1.3v2.3c0,0.5,0.1,0.7,0.5,0.7
			c0.4,0,0.8-0.2,0.9-0.3c0.1,0,0.1,0,0.1,0l0.1,0.1c0,0.1,0,0.1,0,0.1c-0.1,0.1-0.6,0.3-1.1,0.3c-0.7,0-0.8-0.4-0.8-0.9V447.8z"/>
		<path class="st0" d="M189.2,445.8c0-0.1,0-0.1,0.1-0.1h0.1c0.1,0,0.1,0.1,0.1,0.1v2.2c0.1-0.1,0.6-0.6,1.3-0.6
			c1,0,1.4,0.6,1.4,1.6v1.9c0,0.1-0.1,0.1-0.1,0.1H192c-0.1,0-0.1-0.1-0.1-0.1V449c0-0.8-0.3-1.2-1.1-1.2c-0.7,0-1.2,0.5-1.3,0.7
			v2.5c0,0.1,0,0.1-0.1,0.1h-0.1c-0.1,0-0.1-0.1-0.1-0.1V445.8z"/>
		<path class="st0" d="M195.1,447.4c1,0,1.7,0.7,1.7,1.6c0,0.1,0,0.3-0.1,0.3h-3c0,0.8,0.7,1.4,1.5,1.4c0.5,0,0.9-0.2,1.2-0.4
			c0.1,0,0.1-0.1,0.2,0l0.1,0.1c0,0,0,0.1,0,0.1c-0.2,0.2-0.8,0.4-1.4,0.4c-1.1,0-1.8-0.8-1.8-1.9
			C193.3,448.2,194,447.4,195.1,447.4z M196.5,449c0-0.7-0.5-1.3-1.3-1.3c-0.8,0-1.4,0.6-1.5,1.3H196.5z"/>
		<path class="st0" d="M197.6,450.8c0,0-0.1-0.1,0-0.2l0.2-0.5c0-0.1,0.1-0.1,0.2-0.1c0.2,0.1,0.4,0.2,0.8,0.2
			c0.3,0,0.4-0.1,0.4-0.3c0-0.2-0.2-0.3-0.7-0.5c-0.7-0.3-1.1-0.6-1.1-1.1c0-0.5,0.4-1,1.4-1c0.6,0,0.9,0.1,1.1,0.3
			c0.1,0.1,0.1,0.2,0.1,0.2l-0.2,0.4c-0.1,0.1-0.2,0.1-0.2,0.1c-0.2-0.1-0.4-0.2-0.8-0.2c-0.3,0-0.4,0.1-0.4,0.2
			c0,0.2,0.2,0.2,0.5,0.4c0.7,0.3,1.3,0.5,1.3,1.2c0,0.6-0.5,1.1-1.5,1.1C198.2,451.1,197.8,450.9,197.6,450.8z"/>
		<path class="st0" d="M201,446.3c0-0.3,0.3-0.6,0.6-0.6c0.4,0,0.7,0.3,0.7,0.6c0,0.3-0.3,0.6-0.7,0.6
			C201.3,446.9,201,446.6,201,446.3z M201.1,447.6c0-0.1,0.1-0.2,0.2-0.2h0.7c0.1,0,0.2,0.1,0.2,0.2v3.2c0,0.1-0.1,0.2-0.2,0.2h-0.7
			c-0.1,0-0.2-0.1-0.2-0.2V447.6z"/>
		<path class="st0" d="M206.8,451c0,1.1-0.9,1.7-1.9,1.7c-0.6,0-1.2-0.3-1.4-0.4c-0.1,0-0.1-0.1,0-0.2l0.2-0.5c0-0.1,0.1-0.1,0.2,0
			c0.1,0.1,0.5,0.3,0.9,0.3c0.6,0,0.9-0.2,0.9-0.8v-0.1c-0.2,0.1-0.5,0.1-0.9,0.1c-1.1,0-1.9-0.8-1.9-1.8c0-1.1,0.8-1.9,1.8-1.9
			c0.8,0,1.2,0.5,1.2,0.5l0.1-0.3c0-0.1,0.1-0.2,0.2-0.2h0.3c0.1,0,0.2,0.1,0.2,0.2V451z M205.8,448.8c-0.1-0.2-0.3-0.5-0.8-0.5
			c-0.6,0-0.9,0.5-0.9,1c0,0.5,0.3,1,0.9,1c0.5,0,0.8-0.2,0.8-0.2V448.8z"/>
		<path class="st0" d="M207.8,447.6c0-0.1,0.1-0.2,0.2-0.2h0.3c0.1,0,0.1,0,0.2,0.1l0.1,0.3c0.1-0.1,0.5-0.5,1.2-0.5
			c1.2,0,1.5,0.8,1.5,1.6v1.8c0,0.1-0.1,0.2-0.2,0.2h-0.7c-0.1,0-0.2-0.1-0.2-0.2V449c0-0.5-0.2-0.7-0.7-0.7c-0.5,0-0.7,0.3-0.8,0.6
			v2c0,0.1-0.1,0.2-0.2,0.2H208c-0.1,0-0.2-0.1-0.2-0.2V447.6z"/>
		<path class="st0" d="M212.6,445.8c0-0.1,0-0.1,0.1-0.1h0.1c0.1,0,0.1,0.1,0.1,0.1v5.1c0,0.1,0,0.1-0.1,0.1h-0.1
			c-0.1,0-0.1-0.1-0.1-0.1V445.8z"/>
		<path class="st0" d="M215.6,448.7c0.4,0,0.9,0.1,1,0.2c0-0.8-0.1-1.2-0.9-1.2c-0.6,0-1.1,0.2-1.1,0.2c-0.1,0-0.1,0-0.1-0.1l0-0.1
			c0-0.1,0-0.1,0-0.1c0,0,0.5-0.3,1.3-0.3c1.1,0,1.2,0.6,1.2,1.5v2c0,0.1-0.1,0.1-0.1,0.1h-0.1c-0.1,0-0.1,0-0.1-0.1l0-0.3
			c-0.2,0.2-0.7,0.5-1.3,0.5c-0.7,0-1.2-0.4-1.2-1.2C214.1,449.2,214.6,448.7,215.6,448.7z M215.3,450.8c0.6,0,1.1-0.3,1.3-0.5v-1
			c-0.1-0.1-0.5-0.2-1-0.2c-0.7,0-1.2,0.4-1.2,0.9C214.4,450.4,214.8,450.8,215.3,450.8z"/>
		<path class="st0" d="M220,451.1c-0.7,0-1.2-0.4-1.3-0.5l0,0.3c0,0.1-0.1,0.1-0.1,0.1h0c-0.1,0-0.1-0.1-0.1-0.1v-5.1
			c0-0.1,0.1-0.1,0.1-0.1h0.1c0.1,0,0.1,0.1,0.1,0.1v2c0,0,0.5-0.3,1.2-0.3c1.1,0,1.8,0.8,1.8,1.8C221.7,450.3,221,451.1,220,451.1z
			 M219.8,447.7c-0.7,0-1.1,0.4-1.1,0.4v2c0,0,0.5,0.6,1.3,0.6c0.8,0,1.4-0.7,1.4-1.5C221.3,448.4,220.7,447.7,219.8,447.7z"/>
		<path class="st0" d="M224.5,447.4c0.7,0,1.2,0.3,1.4,0.5c0,0.1,0,0.1,0,0.2l-0.1,0.1c-0.1,0.1-0.1,0-0.2,0
			c-0.1-0.1-0.5-0.4-1.1-0.4c-0.9,0-1.6,0.7-1.6,1.5c0,0.9,0.7,1.5,1.6,1.5c0.7,0,1.1-0.4,1.2-0.5c0.1-0.1,0.1-0.1,0.2,0l0.1,0.1
			c0,0,0.1,0.1,0,0.1c-0.2,0.2-0.7,0.7-1.5,0.7c-1.1,0-2-0.8-2-1.9C222.6,448.2,223.4,447.4,224.5,447.4z"/>
		<path class="st0" d="M228.7,447.4c1.1,0,1.9,0.8,1.9,1.8c0,1-0.8,1.9-1.9,1.9c-1.1,0-1.9-0.8-1.9-1.9
			C226.8,448.2,227.6,447.4,228.7,447.4z M228.7,450.8c0.8,0,1.5-0.7,1.5-1.5c0-0.8-0.7-1.5-1.5-1.5c-0.9,0-1.5,0.7-1.5,1.5
			C227.2,450.1,227.8,450.8,228.7,450.8z"/>
	</g>
	<g>
		<path class="st0" d="M259.1,448.1h-0.5c-0.1,0-0.1,0-0.1-0.1v-0.1c0-0.1,0-0.1,0.1-0.1h0.5v-1c0-0.1,0.1-0.1,0.1-0.1l0.1,0
			c0.1,0,0.1,0.1,0.1,0.1v1h1.3c0.1,0,0.1,0.1,0.1,0.1v0.1c0,0.1,0,0.1-0.1,0.1h-1.3v2.3c0,0.5,0.1,0.7,0.5,0.7
			c0.4,0,0.8-0.2,0.9-0.3c0.1,0,0.1,0,0.1,0l0.1,0.1c0,0.1,0,0.1,0,0.1c-0.1,0.1-0.6,0.3-1.1,0.3c-0.7,0-0.8-0.4-0.8-0.9V448.1z"/>
		<path class="st0" d="M261.9,446.1c0-0.1,0-0.1,0.1-0.1h0.1c0.1,0,0.1,0.1,0.1,0.1v2.2c0.1-0.1,0.6-0.6,1.3-0.6
			c1,0,1.4,0.6,1.4,1.6v1.9c0,0.1-0.1,0.1-0.1,0.1h-0.1c-0.1,0-0.1-0.1-0.1-0.1v-1.9c0-0.8-0.3-1.2-1.1-1.2c-0.7,0-1.2,0.5-1.3,0.7
			v2.5c0,0.1,0,0.1-0.1,0.1H262c-0.1,0-0.1-0.1-0.1-0.1V446.1z"/>
		<path class="st0" d="M267.9,447.7c1,0,1.7,0.7,1.7,1.6c0,0.1,0,0.3-0.1,0.3h-3c0,0.8,0.7,1.4,1.5,1.4c0.5,0,0.9-0.2,1.2-0.4
			c0.1,0,0.1-0.1,0.2,0l0.1,0.1c0,0,0,0.1,0,0.1c-0.2,0.2-0.8,0.4-1.4,0.4c-1.1,0-1.8-0.8-1.8-1.9
			C266.1,448.5,266.8,447.7,267.9,447.7z M269.2,449.3c0-0.7-0.5-1.3-1.3-1.3c-0.8,0-1.4,0.6-1.5,1.3H269.2z"/>
		<path class="st0" d="M272.4,451.1c0,0-0.1-0.1,0-0.2l0.2-0.5c0-0.1,0.1-0.1,0.2-0.1c0.2,0.1,0.4,0.2,0.8,0.2
			c0.3,0,0.4-0.1,0.4-0.3c0-0.2-0.2-0.3-0.7-0.5c-0.7-0.3-1.1-0.6-1.1-1.1c0-0.5,0.4-1,1.4-1c0.6,0,0.9,0.1,1.1,0.3
			c0.1,0.1,0.1,0.2,0.1,0.2l-0.2,0.4c-0.1,0.1-0.2,0.1-0.2,0.1c-0.2-0.1-0.4-0.2-0.8-0.2c-0.3,0-0.4,0.1-0.4,0.2
			c0,0.2,0.2,0.2,0.5,0.4c0.7,0.3,1.3,0.5,1.3,1.2c0,0.6-0.5,1.1-1.5,1.1C273,451.4,272.6,451.2,272.4,451.1z"/>
		<path class="st0" d="M275.7,446.6c0-0.3,0.3-0.6,0.6-0.6c0.4,0,0.7,0.3,0.7,0.6c0,0.3-0.3,0.6-0.7,0.6
			C276,447.2,275.7,446.9,275.7,446.6z M275.9,447.9c0-0.1,0.1-0.2,0.2-0.2h0.7c0.1,0,0.2,0.1,0.2,0.2v3.2c0,0.1-0.1,0.2-0.2,0.2
			H276c-0.1,0-0.2-0.1-0.2-0.2V447.9z"/>
		<path class="st0" d="M281.5,451.4c0,1.1-0.9,1.7-1.9,1.7c-0.6,0-1.2-0.3-1.4-0.4c-0.1,0-0.1-0.1,0-0.2l0.2-0.5
			c0-0.1,0.1-0.1,0.2,0c0.1,0.1,0.5,0.3,0.9,0.3c0.6,0,0.9-0.2,0.9-0.8v-0.1c-0.2,0.1-0.5,0.1-0.9,0.1c-1.1,0-1.9-0.8-1.9-1.8
			c0-1.1,0.8-1.9,1.8-1.9c0.8,0,1.2,0.5,1.2,0.5l0.1-0.3c0-0.1,0.1-0.2,0.2-0.2h0.3c0.1,0,0.2,0.1,0.2,0.2V451.4z M280.5,449.1
			c-0.1-0.2-0.3-0.5-0.8-0.5c-0.6,0-0.9,0.5-0.9,1c0,0.5,0.3,1,0.9,1c0.5,0,0.8-0.2,0.8-0.2V449.1z"/>
		<path class="st0" d="M282.6,447.9c0-0.1,0.1-0.2,0.2-0.2h0.3c0.1,0,0.1,0,0.2,0.1l0.1,0.3c0.1-0.1,0.5-0.5,1.2-0.5
			c1.2,0,1.5,0.8,1.5,1.6v1.8c0,0.1-0.1,0.2-0.2,0.2h-0.7c-0.1,0-0.2-0.1-0.2-0.2v-1.8c0-0.5-0.2-0.7-0.7-0.7
			c-0.5,0-0.7,0.3-0.8,0.6v2c0,0.1-0.1,0.2-0.2,0.2h-0.6c-0.1,0-0.2-0.1-0.2-0.2V447.9z"/>
		<path class="st0" d="M289.3,446.1c0-0.1,0-0.1,0.1-0.1h0.1c0.1,0,0.1,0.1,0.1,0.1v5.1c0,0.1,0,0.1-0.1,0.1h-0.1
			c-0.1,0-0.1-0.1-0.1-0.1V446.1z"/>
		<path class="st0" d="M292.3,449c0.4,0,0.9,0.1,1,0.2c0-0.8-0.1-1.2-0.9-1.2c-0.6,0-1.1,0.2-1.1,0.2c-0.1,0-0.1,0-0.1-0.1l0-0.1
			c0-0.1,0-0.1,0-0.1c0,0,0.5-0.3,1.3-0.3c1.1,0,1.2,0.6,1.2,1.5v2c0,0.1-0.1,0.1-0.1,0.1h-0.1c-0.1,0-0.1,0-0.1-0.1l0-0.3
			c-0.2,0.2-0.7,0.5-1.3,0.5c-0.7,0-1.2-0.4-1.2-1.2C290.7,449.5,291.3,449,292.3,449z M292,451.1c0.6,0,1.1-0.3,1.3-0.5v-1
			c-0.1-0.1-0.5-0.2-1-0.2c-0.7,0-1.2,0.4-1.2,0.9C291.1,450.7,291.5,451.1,292,451.1z"/>
		<path class="st0" d="M296.7,451.4c-0.7,0-1.2-0.4-1.3-0.5l0,0.3c0,0.1-0.1,0.1-0.1,0.1h0c-0.1,0-0.1-0.1-0.1-0.1v-5.1
			c0-0.1,0.1-0.1,0.1-0.1h0.1c0.1,0,0.1,0.1,0.1,0.1v2c0,0,0.5-0.3,1.2-0.3c1.1,0,1.8,0.8,1.8,1.8
			C298.4,450.6,297.7,451.4,296.7,451.4z M296.5,448c-0.7,0-1.1,0.4-1.1,0.4v2c0,0,0.5,0.6,1.3,0.6c0.8,0,1.4-0.7,1.4-1.5
			C298,448.7,297.4,448,296.5,448z"/>
	</g>
	<g>
		<path class="st0" d="M22.4,449.2h-0.7c-0.1,0-0.1,0-0.1-0.1v0c0-0.1,0-0.1,0.1-0.1h0.7l0.3-1.5H22c-0.1,0-0.1,0-0.1-0.1v0
			c0-0.1,0-0.1,0.1-0.1h0.8l0.3-2c0-0.1,0.1-0.1,0.1-0.1h0c0.1,0,0.1,0.1,0.1,0.1l-0.3,1.9h1.4l0.3-2c0-0.1,0.1-0.1,0.1-0.1h0.1
			c0.1,0,0.1,0.1,0.1,0.1l-0.3,1.9h0.7c0.1,0,0.1,0,0.1,0.1v0c0,0.1,0,0.1-0.1,0.1h-0.7l-0.3,1.5H25c0.1,0,0.1,0,0.1,0.1v0
			c0,0.1,0,0.1-0.1,0.1h-0.8l-0.3,1.6c0,0-0.1,0.1-0.1,0.1h0c-0.1,0-0.1,0-0.1-0.1l0.3-1.6h-1.4l-0.3,1.6c0,0-0.1,0.1-0.1,0.1h0
			c-0.1,0-0.1,0-0.1-0.1L22.4,449.2z M24.1,449l0.2-1.5H23l-0.3,1.5H24.1z"/>
		<path class="st0" d="M26.1,447.3c0-0.1,0-0.2,0.1-0.2h0.2c0.1,0,0.1,0,0.1,0.1l0.9,3.1h0l1.2-3.2c0-0.1,0-0.1,0.1-0.1h0
			c0,0,0.1,0,0.1,0.1l1.1,3.2h0l0.9-3.1c0-0.1,0.1-0.1,0.1-0.1h0.2c0.1,0,0.1,0.1,0,0.2l-1.1,3.7c0,0.1,0,0.1-0.1,0.1h0
			c0,0-0.1,0-0.1-0.1l-1.1-3.3h0l-1.2,3.3c0,0.1-0.1,0.1-0.1,0.1h0c-0.1,0-0.1,0-0.1-0.1L26.1,447.3z"/>
	</g>
	<g>
		<path class="st0" d="M33.8,447c1,0,1.7,0.8,1.7,1.7c0,0.1,0,0.4-0.1,0.4h-3.1c0,0.9,0.7,1.5,1.5,1.5c0.5,0,0.9-0.2,1.2-0.4
			c0.1,0,0.1-0.1,0.2,0l0.1,0.1c0,0,0,0.1,0,0.1c-0.2,0.2-0.8,0.4-1.4,0.4c-1.1,0-1.8-0.9-1.8-2C32,447.9,32.7,447,33.8,447z
			 M35.2,448.8c0-0.8-0.5-1.4-1.4-1.4c-0.8,0-1.4,0.6-1.5,1.4H35.2z"/>
	</g>
	<g>
		<path class="st0" d="M36.3,450.7c0,0-0.1-0.1,0-0.2l0.2-0.5c0-0.1,0.1-0.1,0.2-0.1c0.2,0.1,0.4,0.2,0.8,0.2c0.3,0,0.4-0.1,0.4-0.3
			c0-0.2-0.2-0.3-0.7-0.5c-0.7-0.3-1.1-0.6-1.1-1.2c0-0.6,0.4-1.1,1.4-1.1c0.6,0,0.9,0.1,1.1,0.3c0.1,0.1,0.1,0.2,0.1,0.3l-0.2,0.4
			c-0.1,0.1-0.2,0.1-0.2,0.1c-0.2-0.1-0.4-0.2-0.8-0.2c-0.3,0-0.4,0.1-0.4,0.2c0,0.2,0.2,0.3,0.5,0.4c0.7,0.3,1.3,0.6,1.3,1.3
			c0,0.6-0.5,1.1-1.5,1.1C37,451,36.6,450.8,36.3,450.7z"/>
		<path class="st0" d="M39.7,445.8c0-0.4,0.3-0.7,0.7-0.7c0.4,0,0.7,0.3,0.7,0.7c0,0.4-0.3,0.7-0.7,0.7
			C40,446.5,39.7,446.2,39.7,445.8z M39.9,447.3c0-0.1,0.1-0.2,0.2-0.2h0.7c0.1,0,0.2,0.1,0.2,0.2v3.5c0,0.1-0.1,0.2-0.2,0.2h-0.7
			c-0.1,0-0.2-0.1-0.2-0.2V447.3z"/>
		<path class="st0" d="M45.6,451c0,1.2-0.9,1.9-1.9,1.9c-0.6,0-1.2-0.3-1.4-0.4c-0.1,0-0.1-0.1,0-0.2l0.2-0.5c0-0.1,0.1-0.1,0.2,0
			c0.1,0.1,0.5,0.3,0.9,0.3c0.6,0,0.9-0.2,0.9-0.9v-0.1c-0.2,0.1-0.5,0.2-0.9,0.2c-1.1,0-1.9-0.9-1.9-2c0-1.2,0.8-2,1.8-2
			c0.8,0,1.3,0.6,1.3,0.6l0.1-0.3c0-0.1,0.1-0.2,0.2-0.2h0.3c0.1,0,0.2,0.1,0.2,0.2V451z M44.6,448.5c-0.1-0.2-0.3-0.5-0.8-0.5
			c-0.6,0-0.9,0.5-0.9,1.1c0,0.5,0.3,1.1,1,1.1c0.5,0,0.8-0.2,0.8-0.2V448.5z"/>
		<path class="st0" d="M46.7,447.3c0-0.1,0.1-0.2,0.2-0.2h0.3c0.1,0,0.1,0,0.2,0.1l0.1,0.4c0.1-0.2,0.5-0.6,1.2-0.6
			c1.2,0,1.5,0.8,1.5,1.7v2c0,0.1-0.1,0.2-0.2,0.2h-0.7c-0.1,0-0.2-0.1-0.2-0.2v-2c0-0.5-0.2-0.8-0.7-0.8c-0.5,0-0.7,0.3-0.8,0.6
			v2.2c0,0.1-0.1,0.2-0.2,0.2h-0.6c-0.1,0-0.2-0.1-0.2-0.2V447.3z"/>
	</g>
	<g>
		<path class="st0" d="M53.1,447c1.1,0,1.9,0.9,1.9,2c0,1.1-0.9,2-1.9,2c-1.1,0-1.9-0.9-1.9-2C51.1,447.9,52,447,53.1,447z
			 M53.1,450.7c0.9,0,1.5-0.7,1.5-1.7c0-0.9-0.7-1.6-1.5-1.6c-0.9,0-1.6,0.7-1.6,1.6C51.5,449.9,52.2,450.7,53.1,450.7z"/>
		<path class="st0" d="M56.1,447.2c0-0.1,0.1-0.1,0.1-0.1h0.1c0.1,0,0.1,0.1,0.1,0.1v2.1c0,0.9,0.3,1.3,1.1,1.3
			c0.7,0,1.1-0.5,1.2-0.7v-2.7c0-0.1,0-0.1,0.1-0.1H59c0.1,0,0.1,0.1,0.1,0.1v3.6c0,0.1-0.1,0.1-0.1,0.1h-0.1
			c-0.1,0-0.1-0.1-0.1-0.1l0-0.4c-0.1,0.1-0.5,0.6-1.3,0.6c-1.1,0-1.4-0.6-1.4-1.6V447.2z"/>
		<path class="st0" d="M60.5,447.2c0-0.1,0-0.1,0.1-0.1h0.1c0.1,0,0.1,0,0.1,0.1l0,0.4c0.1-0.1,0.5-0.6,1.2-0.6
			c0.3,0,0.5,0.1,0.6,0.1c0.1,0,0.1,0.1,0.1,0.2l0,0.1c0,0.1-0.1,0.1-0.2,0c0,0-0.2-0.1-0.5-0.1c-0.7,0-1.1,0.6-1.2,0.7v2.8
			c0,0.1,0,0.1-0.1,0.1h-0.1c-0.1,0-0.1-0.1-0.1-0.1V447.2z"/>
		<path class="st0" d="M63.2,447.3c0-0.1,0-0.2,0.1-0.2h0.2c0.1,0,0.1,0,0.1,0.1l0.9,3.1h0l1.2-3.2c0-0.1,0-0.1,0.1-0.1h0
			c0,0,0.1,0,0.1,0.1l1.1,3.2h0l0.9-3.1c0-0.1,0.1-0.1,0.1-0.1h0.2c0.1,0,0.1,0.1,0,0.2l-1.1,3.7c0,0.1,0,0.1-0.1,0.1h0
			c0,0-0.1,0-0.1-0.1l-1.1-3.3h0l-1.2,3.3c0,0.1-0.1,0.1-0.1,0.1h0c-0.1,0-0.1,0-0.1-0.1L63.2,447.3z"/>
	</g>
	<g>
		<path class="st0" d="M71,447c1.1,0,1.9,0.9,1.9,2c0,1.1-0.9,2-1.9,2c-1.1,0-1.9-0.9-1.9-2C69.1,447.9,69.9,447,71,447z M71,450.7
			c0.9,0,1.5-0.7,1.5-1.7c0-0.9-0.7-1.6-1.5-1.6c-0.9,0-1.6,0.7-1.6,1.6C69.4,449.9,70.1,450.7,71,450.7z"/>
		<path class="st0" d="M74,447.2c0-0.1,0-0.1,0.1-0.1h0.1c0.1,0,0.1,0,0.1,0.1l0,0.4c0.1-0.1,0.5-0.6,1.2-0.6c0.3,0,0.5,0.1,0.6,0.1
			c0.1,0,0.1,0.1,0.1,0.2l0,0.1c0,0.1-0.1,0.1-0.2,0c0,0-0.2-0.1-0.5-0.1c-0.7,0-1.1,0.6-1.2,0.7v2.8c0,0.1,0,0.1-0.1,0.1h-0.1
			c-0.1,0-0.1-0.1-0.1-0.1V447.2z"/>
		<path class="st0" d="M77.2,445.3c0-0.1,0-0.1,0.1-0.1h0.1c0.1,0,0.1,0.1,0.1,0.1v5.6c0,0.1,0,0.1-0.1,0.1h-0.1
			c-0.1,0-0.1-0.1-0.1-0.1V445.3z"/>
		<path class="st0" d="M80.6,447c0.7,0,1.2,0.4,1.2,0.4v-2.1c0-0.1,0-0.1,0.1-0.1H82c0,0,0.1,0.1,0.1,0.1v5.6c0,0.1-0.1,0.1-0.1,0.1
			h0c-0.1,0-0.1,0-0.1-0.1l0-0.3c-0.1,0.1-0.6,0.6-1.3,0.6c-1,0-1.7-0.9-1.7-2C78.7,447.9,79.5,447,80.6,447z M80.5,450.7
			c0.8,0,1.3-0.6,1.3-0.6v-2.2c0,0-0.5-0.4-1.2-0.4c-0.9,0-1.5,0.7-1.5,1.6C79.1,449.9,79.7,450.7,80.5,450.7z"/>
		<path class="st0" d="M85.5,444.8c0-0.1,0-0.1,0.1-0.1h0c0.1,0,0.1,0,0.1,0.1v8.1c0,0.1,0,0.1-0.1,0.1h0c-0.1,0-0.1,0-0.1-0.1
			V444.8z"/>
	</g>
	<g>
		<path class="st0" d="M95.2,443.8C95.2,443.8,95.2,443.9,95.2,443.8c0,0.5,0,1,0,1.5c0,0.1,0,0.1-0.1,0.1c-0.3,0-0.5,0-0.8,0
			c-0.1,0-0.2,0-0.3,0c-0.2,0-0.3,0.2-0.3,0.3c0,0.3,0,0.7,0,1c0,0.1,0,0,0.1,0c0.4,0,0.8,0,1.2,0c0,0,0.1,0,0.1,0
			c-0.1,0.5-0.1,1-0.2,1.6c-0.4,0-0.8,0-1.2,0c0,0,0,0.1,0,0.1c0,1.4,0,2.9,0,4.3c0,0,0,0.1,0,0.1c-0.6,0-1.1,0-1.7,0
			c0-0.1,0-0.3,0-0.4c0-1.3,0-2.7,0-4c0,0,0-0.1,0-0.1c-0.4,0-0.7,0-1.1,0c0,0,0-0.1,0-0.1c0-0.5,0-0.9,0-1.4c0-0.1,0-0.1,0.1-0.1
			c0.3,0,0.6,0,1,0c0.1,0,0.1,0,0.1-0.1c0-0.4,0-0.8,0-1.3c0-0.3,0.1-0.6,0.2-0.9c0.2-0.3,0.4-0.5,0.7-0.6c0.2-0.1,0.4-0.1,0.5-0.1
			c0,0,0.1,0,0.1,0C94.2,443.8,94.7,443.8,95.2,443.8z"/>
	</g>
	<g>
		<path class="st0" d="M245.6,448c0.2,0.1,0.3,0.2,0.4,0.3c0.7,0.5,0.8,1.2,0.6,2c-0.2,1-1,1.6-2,1.7c-1.3,0.1-2.6,0-3.9,0.1
			c-0.2,0-0.2-0.2-0.2-0.3c0-2,0-4,0-6c0-0.3,0-0.6,0-0.9c0-0.2,0.1-0.2,0.2-0.2c1.3,0,2.7,0,4,0.1c1,0,1.7,0.9,1.7,2
			c0,0.5-0.2,1-0.7,1.3C245.7,447.8,245.7,447.9,245.6,448z M243.3,448.6C243.3,448.6,243.3,448.6,243.3,448.6c-0.3,0-0.6,0-1,0
			c-0.2,0-0.3,0.1-0.3,0.3c0,0.5,0,1,0,1.6c0,0.2,0.1,0.3,0.3,0.3c0.6,0,1.1,0,1.7,0c0.3,0,0.6-0.1,0.8-0.2c0.4-0.2,0.5-0.8,0.4-1.2
			c-0.1-0.4-0.5-0.6-1-0.7C243.9,448.6,243.6,448.6,243.3,448.6z M243.2,447.5C243.2,447.5,243.2,447.5,243.2,447.5
			c0.4,0,0.7,0,1.1-0.1c0.2,0,0.5-0.2,0.6-0.3c0.4-0.5,0.1-1.3-0.6-1.3c-0.7,0-1.4,0-2-0.1c-0.2,0-0.3,0.1-0.3,0.3
			c0,0.4,0,0.8,0,1.2c0,0.2,0.1,0.3,0.3,0.3C242.6,447.5,242.9,447.5,243.2,447.5z"/>
		<path class="st0" d="M252.6,450.5c-0.1,0.2-0.3,0.5-0.4,0.7c-0.4,0.5-0.9,0.8-1.5,0.9c-0.7,0.1-1.3,0.1-2-0.2
			c-0.8-0.4-1.2-1-1.4-1.8c-0.1-0.8-0.1-1.6,0.3-2.3c0.4-0.9,1.1-1.3,2-1.4c0.4,0,0.8,0,1.2,0.1c1.1,0.2,1.6,1,1.8,2
			c0.1,0.3,0,0.5,0.1,0.8c0,0.2-0.1,0.3-0.3,0.3c-0.8,0-1.7,0-2.6,0c-0.3,0-0.7,0-1,0c-0.2,0-0.2,0.1-0.2,0.2c0.1,0.6,0.4,1,1,1.1
			c0.6,0.1,1.1,0.1,1.5-0.4c0.1-0.1,0.1-0.1,0.2-0.1C251.8,450.4,252.2,450.4,252.6,450.5C252.6,450.4,252.6,450.5,252.6,450.5z
			 M250,448.7c0.4,0,0.7,0,1.1,0c0.2,0,0.2-0.1,0.2-0.3c-0.1-0.7-0.6-1-1.3-1c-0.6,0-1.1,0.4-1.2,1c0,0.2,0,0.2,0.2,0.2
			C249.3,448.7,249.6,448.7,250,448.7z"/>
		<path class="st0" d="M249.9,445.6c-0.4,0-0.9,0-1.3,0c-0.3,0-0.3-0.2-0.3-0.3c0-0.2,0-0.3,0.3-0.3c0.9,0,1.8,0,2.6,0
			c0.3,0,0.2,0.2,0.2,0.3c0,0.2,0,0.3-0.2,0.3C250.8,445.6,250.3,445.6,249.9,445.6z"/>
	</g>
	<g>
		<path class="st1" d="M170.3,452.9c-1.3,0-2.5,0-3.8,0c-0.1,0-0.1,0-0.2,0c-0.2,0-0.5-0.1-0.7-0.2c-0.3-0.1-0.6-0.3-0.9-0.6
			c-0.4-0.5-0.6-1-0.6-1.6c0-1.2,0-2.4,0-3.6c0-0.2,0-0.4,0.1-0.6c0.2-0.6,0.5-1.1,1-1.4c0.4-0.3,0.9-0.4,1.4-0.4c1.2,0,2.4,0,3.6,0
			c0.3,0,0.5,0,0.8,0.1c0.6,0.2,1.1,0.6,1.4,1.1c0.2,0.3,0.3,0.6,0.3,1c0,0.1,0,0.1,0,0.2c0,1.3,0,2.5,0,3.8c0,0,0,0,0,0
			c0,0.3-0.1,0.5-0.2,0.8c-0.2,0.5-0.6,0.9-1.1,1.2c-0.3,0.2-0.6,0.3-0.9,0.3C170.4,452.9,170.4,452.9,170.3,452.9z M168.4,445
			L168.4,445c-0.6,0-1.2,0-1.8,0c-0.3,0-0.6,0.1-0.9,0.2c-0.6,0.4-0.9,0.9-0.9,1.6c0,1.2,0,2.4,0,3.6c0,0.1,0,0.3,0,0.4
			c0.2,0.8,0.9,1.4,1.8,1.4c1.2,0,2.4,0,3.6,0c0.1,0,0.2,0,0.3,0c0.4,0,0.7-0.2,1-0.4c0.4-0.4,0.6-0.8,0.6-1.4c0-1.2,0-2.4,0-3.5
			c0-0.1,0-0.1,0-0.2c0-0.4-0.2-0.7-0.4-0.9c-0.4-0.4-0.8-0.7-1.4-0.7C169.7,445,169,445,168.4,445z"/>
		<path class="st1" d="M170.7,448.6c0,1.3-1,2.3-2.3,2.3c-1.3,0-2.3-1-2.3-2.3c0-1.3,1-2.3,2.3-2.3
			C169.7,446.3,170.7,447.4,170.7,448.6z M170.1,448.6c0-0.9-0.7-1.6-1.6-1.6c-0.9,0-1.6,0.7-1.6,1.6c0,0.9,0.7,1.6,1.6,1.6
			C169.4,450.3,170.1,449.5,170.1,448.6z"/>
		<path class="st1" d="M170.9,445.7c0.3,0,0.5,0.2,0.5,0.5c0,0.3-0.2,0.5-0.5,0.5c-0.3,0-0.5-0.2-0.5-0.5
			C170.4,445.9,170.6,445.7,170.9,445.7z"/>
	</g>
	<g>
		<path class="st0" d="M158.4,443.8c0-0.1,0.1-0.1,0.1-0.1h0.1c0.1,0,0.1,0,0.1,0.1v8.9c0,0.1-0.1,0.1-0.1,0.1h0
			c-0.1,0-0.1,0-0.1-0.1V443.8z"/>
	</g>
	<g>
		<path class="st0" d="M234.6,443.8c0-0.1,0.1-0.1,0.1-0.1h0.1c0.1,0,0.1,0,0.1,0.1v8.9c0,0.1-0.1,0.1-0.1,0.1h0
			c-0.1,0-0.1,0-0.1-0.1V443.8z"/>
	</g>
</g>
</svg>
