<svg id="Capa_1" data-name="Capa 1" xmlns="http://www.w3.org/2000/svg" viewBox="0 0 472.93 138.77"><title>preloader</title><path d="M6969.75,7177.72h-8a3.35,3.35,0,0,1-3.33-3.33v-6.19a3.17,3.17,0,0,1,3.33-3.32h8V7145.4a3.35,3.35,0,0,1,3.32-3.32h8.61a3.22,3.22,0,0,1,3.17,3.32v19.48h18.42a3.26,3.26,0,0,1,3.32,3.32v6.19a3.46,3.46,0,0,1-3.32,3.33h-18.42v37.14c0,5.89,2.26,7.1,5.59,7.1a23.3,23.3,0,0,0,11.17-3.32c2.11-1.21,3.47,0,4.08,1.51l2.71,7.09c.76,1.82,0,3-1.66,4.08-2.87,1.81-11,5-19.32,5-13.9,0-17.67-8.45-17.67-20.83Z" transform="translate(-6958.42 -7128.94)"/><path d="M7022.45,7132.26a3.45,3.45,0,0,1,3.32-3.32h8.45a3.57,3.57,0,0,1,3.33,3.32v38.36c1.66-1.21,9.21-7.25,20.23-7.25,19.78,0,27,13.89,27,32.92v35a3.45,3.45,0,0,1-3.32,3.32H7073a3.35,3.35,0,0,1-3.32-3.32V7196c0-11.48-4.83-18.27-13.89-18.27-10.72,0-16.76,7.09-18.27,10.11v43.49a3.21,3.21,0,0,1-3.48,3.32h-8.3a3.35,3.35,0,0,1-3.32-3.32Z" transform="translate(-6958.42 -7128.94)"/><path d="M7135.69,7163.37c18.13,0,31.87,13.44,31.87,32,0,1.21-.15,3.63-.31,4.84a3.26,3.26,0,0,1-3.17,3h-48.17c.15,9.36,8.61,19,20.84,19,8,0,12.84-2.87,17.07-5.89,1.51-1.05,2.86-1.51,4.07.3L7162,7223c1.21,1.51,1.81,2.87-.3,4.68-5,4.38-14.2,8.6-25.82,8.6-21.14,0-34.89-16.61-34.89-36.54C7101,7180.13,7114.71,7163.37,7135.69,7163.37Zm16.92,28.69c-.31-8.46-6.95-15.85-17.22-15.85-11,0-17.66,7.09-18.72,15.85Z" transform="translate(-6958.42 -7128.94)"/><path d="M7180.54,7229.21a2.86,2.86,0,0,1-1.21-3.63l3.17-6.49c.76-1.51,2.72-2,4.53-.91,4.08,2.27,9.06,5.14,17.37,5.14,5.89,0,9.21-2.87,9.21-6.8,0-4.68-5.28-7.7-14.95-12.08-10.72-4.83-18.87-10.57-18.87-22,0-8.76,6.19-19,23.1-19,9.66,0,16.91,2.87,20.38,5.13a4.11,4.11,0,0,1,1.51,5.14l-2.41,4.83c-1.06,2.11-3.17,2-4.53,1.36a36.21,36.21,0,0,0-14.95-3.47c-6,0-8.91,3-8.91,6.19,0,4.53,5,7.25,11.93,10.27,12.83,5.43,22.5,10.11,22.5,23.1,0,10.87-9.36,20.38-24.92,20.38A40.51,40.51,0,0,1,7180.54,7229.21Z" transform="translate(-6958.42 -7128.94)"/><path d="M7306.93,7235.1c0,21.74-14.05,32.61-32.32,32.61-11.62,0-21.14-5.74-24.16-8.75-1.2-.76-1.36-2.87-.75-3.93l3.62-6.65a3,3,0,0,1,4.68-1.05c2.42,2,8.31,6.49,16.31,6.49,9.21,0,17.37-4.53,17.37-18.72v-3.78a37.18,37.18,0,0,1-17.82,5c-19,0-33.68-16.15-33.68-36.54,0-19.93,13.75-36.39,32.92-36.39a32.27,32.27,0,0,1,22,8.31l1.81-4.38c.45-1.36.91-2.42,2.57-2.42h4.08a3.45,3.45,0,0,1,3.32,3.32ZM7275.67,7222a28.41,28.41,0,0,0,16.16-5.59v-28.84c-1.36-2.57-7.4-9.81-16.76-9.81-11.93,0-19.78,10.26-19.78,22S7264.34,7222,7275.67,7222Z" transform="translate(-6958.42 -7128.94)"/><path d="M7326.71,7174.54a11.27,11.27,0,0,1,11.32-11.17,11.06,11.06,0,0,1,11.18,11.17,11.19,11.19,0,0,1-11.18,11.33A11.4,11.4,0,0,1,7326.71,7174.54Zm11.32,39.11a11.33,11.33,0,0,1,0,22.65,11.33,11.33,0,0,1,0-22.65Z" transform="translate(-6958.42 -7128.94)"/><path d="M7369,7168.2a3.45,3.45,0,0,1,3.32-3.32h3.62a2.68,2.68,0,0,1,2.87,2.11l2.11,6c1.51-1.81,9.52-9.66,23.41-9.66,21.29,0,27,14.8,27,32.92v35a3.45,3.45,0,0,1-3.32,3.32h-8.46a3.35,3.35,0,0,1-3.32-3.32v-35.63c0-11.33-4.68-18-13.74-18-11,0-17.37,7.7-18.43,10.11v43.49c0,2.27-1.2,3.32-4.07,3.32h-7.7a3.35,3.35,0,0,1-3.32-3.32Z" transform="translate(-6958.42 -7128.94)"/></svg>